<svg width="75" height="75" viewBox="0 0 75 75" fill="none" xmlns="http://www.w3.org/2000/svg">
<mask id="mask0_765_2845" style="mask-type:luminance" maskUnits="userSpaceOnUse" x="0" y="0" width="75" height="75">
<path d="M0 0H74.85V74.85H0V0Z" fill="white"/>
</mask>
<g mask="url(#mask0_765_2845)">
<path d="M37.4323 0C16.7977 0 0.00488281 16.7953 0.00488281 37.4312C0.00488281 58.0658 16.7977 74.8586 37.4323 74.8586C58.0669 74.8586 74.8634 58.0658 74.8634 37.4312C74.8634 16.7953 58.0669 0 37.4323 0ZM37.4323 6.12228C54.7599 6.12228 68.7412 20.1036 68.7412 37.4312C68.7412 54.7588 54.7599 68.7401 37.4323 68.7401C20.1046 68.7401 6.12336 54.7588 6.12336 37.4312C6.12336 20.1036 20.1046 6.12228 37.4323 6.12228Z" fill="white"/>
</g>
<path d="M71.7711 37.4214C71.7711 37.9829 71.7572 38.5457 71.7292 39.1073C71.7025 39.6688 71.6606 40.2303 71.606 40.7893C71.5501 41.3496 71.4815 41.9073 71.3989 42.4638C71.3163 43.0203 71.2198 43.5742 71.1105 44.1256C71.0013 44.6769 70.878 45.2258 70.7408 45.7721C70.6049 46.3171 70.455 46.8596 70.2911 47.397C70.1272 47.9356 69.9519 48.4692 69.7613 48.999C69.572 49.5288 69.37 50.0535 69.1553 50.5731C68.9393 51.0927 68.7119 51.6073 68.4718 52.1154C68.2304 52.6236 67.9776 53.1255 67.7133 53.6222C67.4478 54.1177 67.1708 54.6081 66.8812 55.0896C66.5915 55.5724 66.2917 56.0475 65.9791 56.515C65.6666 56.9826 65.3426 57.4425 65.0072 57.8947C64.6718 58.3458 64.3263 58.7891 63.9693 59.2236C63.6123 59.6594 63.2451 60.085 62.8678 60.5017C62.4905 60.9184 62.1017 61.325 61.7041 61.7226C61.3064 62.1215 60.8999 62.509 60.4832 62.8864C60.0665 63.2637 59.6408 63.6308 59.2051 63.9878C58.7706 64.3448 58.3272 64.6917 57.8762 65.0258C57.4239 65.3612 56.964 65.6852 56.4965 65.9977C56.0289 66.3102 55.5538 66.6113 55.071 66.8997C54.5883 67.1894 54.0991 67.4663 53.6036 67.7319C53.1069 67.9961 52.6051 68.2489 52.0969 68.4903C51.5887 68.7304 51.0742 68.9579 50.5546 69.1738C50.0349 69.3885 49.5102 69.5905 48.9805 69.7811C48.4507 69.9704 47.9171 70.147 47.3784 70.3096C46.841 70.4735 46.2985 70.6234 45.7535 70.7594C45.2072 70.8966 44.6584 71.0198 44.107 71.1291C43.5556 71.2396 43.0017 71.3349 42.4452 71.4175C41.8888 71.5 41.3311 71.5686 40.7708 71.6245C40.2105 71.6792 39.6502 71.7211 39.0887 71.7478C38.5272 71.7757 37.9644 71.7897 37.4015 71.7897C36.84 71.7897 36.2772 71.7757 35.7156 71.7478C35.1541 71.7211 34.5926 71.6792 34.0336 71.6245C33.4733 71.5686 32.9156 71.5 32.3591 71.4175C31.8026 71.3349 31.2487 71.2396 30.6974 71.1291C30.146 71.0198 29.5971 70.8966 29.0508 70.7594C28.5058 70.6234 27.9633 70.4735 27.4259 70.3096C26.8873 70.147 26.3537 69.9704 25.8239 69.7811C25.2941 69.5905 24.7694 69.3885 24.2498 69.1738C23.7302 68.9579 23.2156 68.7304 22.7075 68.4903C22.1993 68.2489 21.6962 67.9961 21.2007 67.7319C20.7052 67.4663 20.2148 67.1894 19.7333 66.8997C19.2506 66.6113 18.7754 66.3102 18.3079 65.9977C17.8404 65.6852 17.3804 65.3612 16.9282 65.0258C16.4772 64.6917 16.0338 64.3448 15.5993 63.9878C15.1635 63.6308 14.7379 63.2637 14.3212 62.8864C13.9045 62.509 13.4979 62.1215 13.099 61.7226C12.7014 61.325 12.3139 60.9184 11.9365 60.5017C11.5592 60.085 11.1921 59.6594 10.8351 59.2236C10.4781 58.7891 10.1312 58.3458 9.7971 57.8947C9.4617 57.4425 9.13774 56.9826 8.82521 56.515C8.51267 56.0475 8.21158 55.5724 7.92318 55.0896C7.63352 54.6068 7.35656 54.1177 7.09104 53.6222C6.82678 53.1255 6.57396 52.6236 6.33257 52.1154C6.09246 51.6073 5.86505 51.0927 5.64907 50.5731C5.43436 50.0535 5.23236 49.5288 5.04179 48.999C4.85249 48.4692 4.6759 47.9356 4.51328 47.397C4.34939 46.8596 4.19948 46.3171 4.06354 45.7721C3.92633 45.2258 3.8031 44.6769 3.69384 44.1256C3.58331 43.5742 3.48803 43.0203 3.40545 42.4638C3.32287 41.9073 3.25426 41.3496 3.19836 40.7893C3.14373 40.2303 3.10181 39.6688 3.07513 39.1073C3.04718 38.5457 3.0332 37.9829 3.0332 37.4214C3.0332 36.8586 3.04718 36.2957 3.07513 35.7342C3.10181 35.1727 3.14373 34.6124 3.19836 34.0521C3.25426 33.4919 3.32287 32.9341 3.40545 32.3777C3.48803 31.8212 3.58331 31.2673 3.69384 30.7159C3.8031 30.1645 3.92633 29.6157 4.06354 29.0694C4.19948 28.5244 4.34939 27.9819 4.51328 27.4445C4.6759 26.9058 4.85249 26.3722 5.04179 25.8424C5.23236 25.3127 5.43436 24.788 5.64907 24.2683C5.86505 23.7487 6.09246 23.2342 6.33257 22.726C6.57396 22.2178 6.82678 21.716 7.09104 21.2193C7.35656 20.7238 7.63352 20.2347 7.92318 19.7519C8.21158 19.2691 8.51267 18.794 8.82521 18.3264C9.13774 17.8589 9.4617 17.399 9.7971 16.9467C10.1325 16.4957 10.4781 16.0523 10.8351 15.6178C11.1921 15.1821 11.5592 14.7565 11.9365 14.3397C12.3139 13.923 12.7014 13.5165 13.1003 13.1188C13.4979 12.7199 13.9045 12.3324 14.3212 11.9551C14.7379 11.5778 15.1635 11.2106 15.5993 10.8536C16.0338 10.4966 16.4772 10.1511 16.9282 9.81566C17.3804 9.48026 17.8404 9.15629 18.3079 8.84376C18.7754 8.53123 19.2506 8.23013 19.7333 7.94174C20.2161 7.65207 20.7052 7.37511 21.2007 7.10959C21.6975 6.84534 22.1993 6.59251 22.7075 6.35113C23.2156 6.11101 23.7302 5.8836 24.2498 5.66762C24.7694 5.45292 25.2941 5.25091 25.8239 5.06035C26.3537 4.87105 26.8873 4.69446 27.4259 4.53184C27.9633 4.36795 28.5058 4.21804 29.0508 4.0821C29.5971 3.94489 30.146 3.82165 30.6974 3.71239C31.2487 3.60314 31.8026 3.50658 32.3591 3.424C32.9156 3.34142 33.4733 3.27282 34.0336 3.21692C34.5926 3.16229 35.1541 3.12036 35.7156 3.09368C36.2772 3.06573 36.84 3.05176 37.4015 3.05176C37.9644 3.05176 38.5272 3.06573 39.0887 3.09368C39.6502 3.12036 40.2105 3.16229 40.7708 3.21692C41.3311 3.27282 41.8888 3.34142 42.4452 3.424C43.0017 3.50658 43.5556 3.60314 44.107 3.71239C44.6584 3.82165 45.2072 3.94489 45.7535 4.0821C46.2985 4.21804 46.841 4.36795 47.3784 4.53184C47.9171 4.69446 48.4507 4.87105 48.9805 5.06035C49.5102 5.25091 50.0349 5.45292 50.5546 5.66762C51.0742 5.8836 51.5887 6.11101 52.0969 6.35113C52.6051 6.59251 53.1069 6.84534 53.6036 7.10959C54.0991 7.37511 54.5883 7.65207 55.071 7.94174C55.5538 8.23013 56.0289 8.53123 56.4965 8.84376C56.964 9.15629 57.4239 9.48026 57.8762 9.81566C58.3272 10.1511 58.7706 10.4966 59.2051 10.8536C59.6408 11.2106 60.0665 11.5778 60.4832 11.9551C60.8999 12.3324 61.3064 12.7199 61.7041 13.1188C62.1017 13.5165 62.4905 13.923 62.8678 14.3397C63.2451 14.7565 63.6123 15.1821 63.9693 15.6178C64.3263 16.0523 64.6718 16.4957 65.0072 16.9467C65.3426 17.399 65.6666 17.8589 65.9791 18.3264C66.2917 18.794 66.5915 19.2691 66.8812 19.7519C67.1708 20.2347 67.4478 20.7238 67.7133 21.2193C67.9776 21.716 68.2304 22.2178 68.4705 22.726C68.7119 23.2342 68.9393 23.7487 69.1553 24.2683C69.37 24.788 69.572 25.3127 69.7613 25.8424C69.9519 26.3722 70.1272 26.9058 70.2911 27.4445C70.4537 27.9819 70.6049 28.5244 70.7408 29.0694C70.878 29.6157 71.0013 30.1645 71.1105 30.7159C71.2198 31.2673 71.3163 31.8212 71.3989 32.3777C71.4815 32.9341 71.5501 33.4919 71.606 34.0521C71.6606 34.6124 71.7025 35.1727 71.7292 35.7342C71.7572 36.2957 71.7711 36.8586 71.7711 37.4214Z" fill="#1AA3FF"/>
<path d="M53.3705 19.6812C51.5817 19.6812 49.7916 20.3532 48.4462 21.6986L31.7398 38.4051L26.3734 33.0387C23.6826 30.3479 19.2169 30.3479 16.5274 33.0387C13.8379 35.7283 13.8366 40.1939 16.5274 42.8848L26.8181 53.1755C27.1547 53.5109 27.5193 53.8069 27.9056 54.0622C28.105 54.1944 28.3032 54.3138 28.5001 54.418C31.135 55.8066 34.4789 55.3606 36.664 53.1755L58.2922 31.5447C60.9817 28.8538 60.9817 24.3882 58.2922 21.6986C56.9468 20.3532 55.1593 19.6812 53.3705 19.6812ZM52.7734 26.0258C53.1405 25.6586 53.5979 25.6586 53.965 26.0258C54.3322 26.393 54.3322 26.8491 53.965 27.2162L32.3369 48.8483C32.0383 49.1468 31.6661 49.1659 31.3561 49.0033C31.3256 48.9868 31.3015 48.9715 31.285 48.9614C31.2379 48.9296 31.1922 48.894 31.1465 48.8483L20.8546 38.5563C20.4874 38.1892 20.4874 37.7331 20.8546 37.3659C21.2217 36.9987 21.6778 36.9987 22.045 37.3659L29.5775 44.8984C29.7198 45.0395 29.8748 45.1665 30.0412 45.2783C30.2089 45.3901 30.3842 45.4841 30.5697 45.5616C30.7564 45.6378 30.947 45.6963 31.1439 45.7357C31.3409 45.7738 31.5403 45.7941 31.741 45.7941C31.9418 45.7941 32.1412 45.7738 32.3382 45.7357C32.5351 45.6963 32.7269 45.6378 32.9124 45.5616C33.0979 45.4841 33.2745 45.3901 33.4409 45.2783C33.6086 45.1665 33.7623 45.0395 33.9046 44.8984L52.7734 26.0258Z" fill="white"/>
<path d="M18.7254 35.1994C17.197 36.7277 17.197 39.1899 18.7254 40.7182L29.016 51.0089C29.2066 51.1995 29.4124 51.3672 29.6297 51.5107C29.7377 51.5819 29.8495 51.6479 29.9625 51.7076C31.435 52.4839 33.2924 52.2501 34.5349 51.0089L56.1643 29.3795C57.6927 27.8511 57.6927 25.389 56.1643 23.8606C54.636 22.3323 52.1739 22.3323 50.6455 23.8606L31.7755 42.7306L24.2442 35.1994C22.7159 33.671 20.255 33.671 18.7254 35.1994Z" fill="#F9F9F9"/>
<path d="M71.7711 37.4214C71.7711 37.9829 71.7572 38.5457 71.7292 39.1073C71.7025 39.6688 71.6606 40.2303 71.606 40.7893C71.5501 41.3496 71.4815 41.9073 71.3989 42.4638C71.3163 43.0203 71.2198 43.5742 71.1105 44.1256C71.0013 44.6769 70.878 45.2258 70.7408 45.7721C70.6049 46.3171 70.455 46.8596 70.2911 47.397C70.1272 47.9356 69.9519 48.4692 69.7613 48.999C69.572 49.5288 69.37 50.0535 69.1553 50.5731C68.9393 51.0927 68.7119 51.6073 68.4718 52.1154C68.2304 52.6236 67.9776 53.1255 67.7133 53.6222C67.4478 54.1177 67.1708 54.6081 66.8812 55.0896C66.5915 55.5724 66.2917 56.0475 65.9791 56.515C65.6666 56.9826 65.3427 57.4425 65.0073 57.8947C64.6719 58.3458 64.3263 58.7891 63.9693 59.2236C63.6123 59.6594 63.2451 60.085 62.8678 60.5017C62.4905 60.9184 62.1017 61.325 61.7041 61.7226C61.3064 62.1215 60.8999 62.509 60.4832 62.8864C60.0665 63.2637 59.6408 63.6308 59.2051 63.9878C58.7706 64.3448 58.3272 64.6917 57.8762 65.0258C57.4239 65.3612 56.964 65.6852 56.4965 65.9977C56.0289 66.3102 55.5538 66.6113 55.071 66.8997C54.5883 67.1894 54.0991 67.4663 53.6037 67.7319C53.1069 67.9961 52.6051 68.249 52.0969 68.4903C51.5887 68.7305 51.0742 68.9579 50.5546 69.1738C50.0349 69.3886 49.5102 69.5905 48.9805 69.7811C48.4507 69.9704 47.9171 70.147 47.3784 70.3096C46.841 70.4735 46.2985 70.6234 45.7535 70.7594C45.2072 70.8966 44.6584 71.0198 44.107 71.1291C43.5556 71.2396 43.0017 71.3349 42.4452 71.4175C41.8888 71.5 41.3311 71.5687 40.7708 71.6246C40.2105 71.6792 39.6502 71.7211 39.0887 71.7478C38.5272 71.7757 37.9644 71.7897 37.4015 71.7897C36.84 71.7897 36.2772 71.7757 35.7156 71.7478C35.1541 71.7211 34.5926 71.6792 34.0336 71.6246C33.4733 71.5687 32.9156 71.5 32.3591 71.4175C31.8026 71.3349 31.2487 71.2396 30.6974 71.1291C30.146 71.0198 29.5971 70.8966 29.0508 70.7594C28.5058 70.6234 27.9633 70.4735 27.4259 70.3096C26.8873 70.147 26.3537 69.9704 25.8239 69.7811C25.2941 69.5905 24.7694 69.3886 24.2498 69.1738C23.7302 68.9579 23.2156 68.7305 22.7075 68.4903C22.1993 68.249 21.6962 67.9961 21.2007 67.7319C20.7052 67.4663 20.2148 67.1894 19.7333 66.8997C19.2506 66.6113 18.7754 66.3102 18.3079 65.9977C17.8404 65.6852 17.3804 65.3612 16.9282 65.0258C16.4772 64.6917 16.0338 64.3448 15.5993 63.9878C15.1635 63.6308 14.7379 63.2637 14.3212 62.8864C13.9045 62.509 13.4979 62.1215 13.099 61.7226C12.7014 61.325 12.3139 60.9184 11.9365 60.5017C11.5592 60.085 11.1921 59.6594 10.8351 59.2236C10.4781 58.7891 10.1312 58.3458 9.7971 57.8947C9.4617 57.4425 9.13774 56.9826 8.82521 56.515C8.51267 56.0475 8.21158 55.5724 7.92318 55.0896C7.63352 54.6068 7.35656 54.1177 7.09104 53.6222C6.82678 53.1255 6.57396 52.6236 6.33257 52.1154C6.09246 51.6073 5.86505 51.0927 5.64907 50.5731C5.43436 50.0535 5.23236 49.5288 5.04179 48.999C4.85249 48.4692 4.6759 47.9356 4.51328 47.397C4.34939 46.8596 4.19948 46.3171 4.06354 45.7721C3.92633 45.2258 3.8031 44.6769 3.69384 44.1256C3.58331 43.5742 3.48803 43.0203 3.40545 42.4638C3.32287 41.9073 3.25426 41.3496 3.19836 40.7893C3.14373 40.2303 3.10181 39.6688 3.07513 39.1073C3.04718 38.5457 3.0332 37.9829 3.0332 37.4214C3.0332 36.8586 3.04718 36.2957 3.07513 35.7342C3.10181 35.1727 3.14373 34.6124 3.19836 34.0521C3.25426 33.4919 3.32287 32.9341 3.40545 32.3777C3.48803 31.8212 3.58331 31.2673 3.69384 30.7159C3.8031 30.1645 3.92633 29.6157 4.06354 29.0694C4.19948 28.5244 4.34939 27.9819 4.51328 27.4445C4.6759 26.9058 4.85249 26.3722 5.04179 25.8424C5.23236 25.3127 5.43436 24.788 5.64907 24.2684C5.86505 23.7487 6.09246 23.2342 6.33257 22.726C6.57396 22.2178 6.82678 21.716 7.09104 21.2193C7.35656 20.7238 7.63352 20.2347 7.92318 19.7519C8.21158 19.2691 8.51267 18.794 8.82521 18.3264C9.13774 17.8589 9.4617 17.399 9.7971 16.9467C10.1325 16.4957 10.4781 16.0523 10.8351 15.6178C11.1921 15.1821 11.5592 14.7565 11.9365 14.3397C12.3139 13.923 12.7014 13.5165 13.1003 13.1188C13.4979 12.7199 13.9045 12.3324 14.3212 11.9551C14.7379 11.5778 15.1635 11.2106 15.5993 10.8536C16.0338 10.4966 16.4772 10.1511 16.9282 9.81566C17.3804 9.48026 17.8404 9.15629 18.3079 8.84376C18.7754 8.53123 19.2506 8.23013 19.7333 7.94174C20.2161 7.65207 20.7052 7.37512 21.2007 7.10959C21.6975 6.84534 22.1993 6.59251 22.7075 6.35113C23.2156 6.11101 23.7302 5.8836 24.2498 5.66762C24.7694 5.45292 25.2941 5.25091 25.8239 5.06035C26.3537 4.87105 26.8873 4.69446 27.4259 4.53184C27.9633 4.36795 28.5058 4.21804 29.0508 4.0821C29.5971 3.94489 30.146 3.82165 30.6974 3.71239C31.2487 3.60314 31.8026 3.50658 32.3591 3.424C32.9156 3.34142 33.4733 3.27282 34.0336 3.21692C34.5926 3.16229 35.1541 3.12036 35.7156 3.09368C36.2772 3.06573 36.84 3.05176 37.4015 3.05176C37.9644 3.05176 38.5272 3.06573 39.0887 3.09368C39.6502 3.12036 40.2105 3.16229 40.7708 3.21692C41.3311 3.27282 41.8888 3.34142 42.4452 3.424C43.0017 3.50658 43.5556 3.60314 44.107 3.71239C44.6584 3.82165 45.2072 3.94489 45.7535 4.0821C46.2985 4.21804 46.841 4.36795 47.3784 4.53184C47.9171 4.69446 48.4507 4.87105 48.9805 5.06035C49.5102 5.25091 50.0349 5.45292 50.5546 5.66762C51.0742 5.8836 51.5887 6.11101 52.0969 6.35113C52.6051 6.59251 53.1069 6.84534 53.6037 7.10959C54.0991 7.37512 54.5883 7.65207 55.071 7.94174C55.5538 8.23013 56.0289 8.53123 56.4965 8.84376C56.964 9.15629 57.4239 9.48026 57.8762 9.81566C58.3272 10.1511 58.7706 10.4966 59.2051 10.8536C59.6408 11.2106 60.0665 11.5778 60.4832 11.9551C60.8999 12.3324 61.3064 12.7199 61.7041 13.1188C62.1017 13.5165 62.4905 13.923 62.8678 14.3397C63.2451 14.7565 63.6123 15.1821 63.9693 15.6178C64.3263 16.0523 64.6719 16.4957 65.0073 16.9467C65.3427 17.399 65.6666 17.8589 65.9791 18.3264C66.2917 18.794 66.5915 19.2691 66.8812 19.7519C67.1708 20.2347 67.4478 20.7238 67.7133 21.2193C67.9776 21.716 68.2304 22.2178 68.4705 22.726C68.7119 23.2342 68.9393 23.7487 69.1553 24.2684C69.37 24.788 69.572 25.3127 69.7613 25.8424C69.9519 26.3722 70.1272 26.9058 70.2911 27.4445C70.4537 27.9819 70.6049 28.5244 70.7408 29.0694C70.878 29.6157 71.0013 30.1645 71.1105 30.7159C71.2198 31.2673 71.3163 31.8212 71.3989 32.3777C71.4815 32.9341 71.5501 33.4919 71.606 34.0521C71.6606 34.6124 71.7025 35.1727 71.7292 35.7342C71.7572 36.2957 71.7711 36.8586 71.7711 37.4214Z" fill="#1AA3FF"/>
<path d="M18.7254 35.1994C17.197 36.7277 17.197 39.1899 18.7254 40.7182L29.016 51.0089C29.2066 51.1995 29.4124 51.3672 29.6297 51.5107C29.7377 51.5819 29.8495 51.6479 29.9625 51.7076C31.435 52.4839 33.2924 52.2501 34.5349 51.0089L56.1643 29.3795C57.6927 27.8511 57.6927 25.389 56.1643 23.8606C54.636 22.3323 52.1739 22.3323 50.6455 23.8606L31.7755 42.7306L24.2442 35.1994C22.7159 33.671 20.255 33.671 18.7254 35.1994Z" fill="#F9F9F9"/>
</svg>
