<svg width="200" height="201" viewBox="0 0 200 201" fill="none" xmlns="http://www.w3.org/2000/svg">
<circle cx="100" cy="100.621" r="100" fill="#0E5FB1"/>
<path d="M162.463 93.8454C160.845 86.7516 156.289 83.5001 152.763 81.8735C150.41 80.8392 148.207 80.3954 146.884 80.2485C147.177 78.4751 147.472 74.9282 146.736 70.9376C145.413 63.2517 141.152 57.4876 134.244 54.0892C125.573 49.8032 118.225 51.1329 113.67 53.0548C110.289 54.3845 107.937 56.3064 106.761 57.3407C105.733 56.1579 103.969 54.3845 101.471 52.6111C96.474 49.0642 91.0362 47.8814 85.7458 49.0642C78.8375 50.6892 74.5766 54.6798 72.3717 57.7845C70.6077 60.1485 69.7257 62.2173 69.2847 63.4001C67.2273 63.4001 62.2304 63.4001 56.6466 65.0251C52.5317 66.2079 48.8562 67.9814 45.9168 70.1985C42.5379 73.1548 39.892 76.8485 38.4215 81.2829C35.9231 89.1157 36.5116 96.6532 39.892 102.713C43.2724 108.772 49.4447 112.911 57.6745 114.684C61.4959 115.57 66.0518 116.014 76.339 116.161V122.517C73.2536 123.108 70.9012 125.769 70.9012 129.167C70.9012 132.863 73.8406 135.817 77.516 135.817C81.1899 135.817 84.1294 132.863 84.1294 129.167C84.1294 125.916 81.7769 123.108 78.6915 122.517V111.136H86.0393C86.6278 111.136 87.2148 110.545 87.2148 109.955V92.811C87.2148 92.2188 86.6278 91.6282 86.0393 91.6282H72.2241C71.6372 91.6282 71.0487 92.2188 71.0487 92.811C71.0487 93.4016 71.6372 93.9923 72.2241 93.9923H84.8638V108.92H77.516C76.9275 108.92 76.339 109.511 76.339 110.102V113.945C66.3453 113.797 61.9369 113.353 58.263 112.467C50.7677 110.841 45.1823 106.999 42.0969 101.53C38.8625 96.0626 38.4215 89.1157 40.6265 82.022C42.9774 74.7798 48.5628 69.7548 57.381 67.2423C64.1419 65.322 70.1667 65.7642 70.1667 65.7642C70.7552 65.7642 71.1962 65.4689 71.3422 64.8782C71.3422 64.7298 74.4291 54.0892 86.3328 51.4282C90.8887 50.3939 95.592 51.4282 100.148 54.6798C103.676 57.0454 105.733 59.8532 105.733 59.8532C105.879 60.1485 106.32 60.297 106.615 60.297C106.909 60.297 107.35 60.1485 107.497 60.0001C107.497 60.0001 110.142 57.1923 114.552 55.272C120.576 52.7595 126.749 53.0548 133.216 56.1579C139.388 59.2626 143.21 64.2861 144.385 71.2329C145.267 76.5532 144.238 80.9876 144.238 80.9876C144.092 81.2829 144.238 81.7267 144.533 82.022C144.679 82.3173 145.12 82.4657 145.413 82.4657C145.413 82.4657 148.353 82.4657 151.733 83.9438C156.143 85.8642 158.935 89.411 160.11 94.2891C160.404 95.7657 160.699 100.791 157.171 105.52C153.645 110.25 147.618 112.763 139.241 113.058C139.095 113.058 129.836 113.502 114.845 113.649L114.845 95.6188H127.485C128.072 95.6188 128.66 95.0282 128.66 94.436C128.66 93.8454 128.072 93.2532 127.485 93.2532H113.67C113.081 93.2532 112.494 93.8454 112.494 94.436L112.494 121.63C112.494 122.222 113.081 122.813 113.67 122.813H120.87V130.794C117.784 131.384 115.432 134.044 115.432 137.444C115.432 141.139 118.371 144.094 122.047 144.094C125.721 144.094 128.66 141.139 128.66 137.444C128.66 134.192 126.308 131.384 123.222 130.794V121.63C123.222 121.039 122.634 120.447 122.047 120.447H114.845V116.161C129.983 115.866 139.241 115.57 139.388 115.57C144.238 115.424 148.5 114.388 151.881 112.763C154.82 111.284 157.171 109.363 159.082 106.999C163.197 101.678 162.902 95.6188 162.463 93.8454ZM81.7769 129.167C81.7769 131.531 79.867 133.453 77.516 133.453C75.1636 133.453 73.2536 131.531 73.2536 129.167C73.2536 126.803 75.1636 124.881 77.516 124.881C79.867 124.881 81.7769 126.803 81.7769 129.167ZM126.455 137.444C126.455 139.808 124.545 141.73 122.193 141.73C119.842 141.73 117.93 139.808 117.93 137.444C117.93 135.08 119.842 133.158 122.193 133.158C124.545 133.009 126.455 135.08 126.455 137.444Z" fill="white"/>
<path d="M105.734 126.359L105.586 89.1154C105.586 88.5248 104.999 87.9326 104.411 87.9326C103.822 87.9326 103.235 88.5248 103.235 89.1154L103.381 126.359C100.296 126.95 97.9434 129.611 97.9434 133.009C97.9434 136.704 100.883 139.661 104.558 139.661C108.232 139.661 111.172 136.704 111.172 133.009C111.172 129.758 108.819 126.95 105.734 126.359ZM104.558 137.444C102.206 137.444 100.296 135.522 100.296 133.158C100.296 130.794 102.206 128.872 104.558 128.872C106.909 128.872 108.819 130.794 108.819 133.158C108.819 135.375 106.909 137.444 104.558 137.444Z" fill="white"/>
<mask id="mask0_696_2907" style="mask-type:luminance" maskUnits="userSpaceOnUse" x="84" y="92" width="14" height="59">
<path d="M84.3604 92.9263H97.7345V150.893H84.3604V92.9263Z" fill="white"/>
</mask>
<g mask="url(#mask0_696_2907)">
<path d="M92.2126 137.592V125.916H95.152C95.7405 125.916 96.3275 125.325 96.3275 124.733V94.4362C96.3275 93.8456 95.7405 93.2534 95.152 93.2534C94.5651 93.2534 93.9766 93.8456 93.9766 94.4362V123.552H91.0372C90.4487 123.552 89.8617 124.142 89.8617 124.733V137.592C86.7748 138.183 84.4238 140.842 84.4238 144.242C84.4238 147.938 87.3633 150.892 91.0372 150.892C94.7111 150.892 97.6505 147.938 97.6505 144.242C97.6505 140.842 95.2996 138.035 92.2126 137.592ZM91.0372 148.528C88.6862 148.528 86.6288 146.606 86.6288 144.094C86.6288 141.73 88.5387 139.808 90.8896 139.808C93.2421 139.808 95.152 141.73 95.152 144.094C95.2996 146.606 93.3881 148.528 91.0372 148.528Z" fill="white"/>
</g>
<path d="M162.463 94.276C160.845 87.1822 156.289 83.9307 152.763 82.3057C150.41 81.2713 148.207 80.8275 146.884 80.6791C147.177 78.9057 147.472 75.3588 146.736 71.3682C145.413 63.6838 141.152 57.9197 134.244 54.5213C125.573 50.2354 118.225 51.5651 113.67 53.4854C110.289 54.8166 107.937 56.7369 106.761 57.7713C105.733 56.5901 103.969 54.8166 101.471 53.0432C96.474 49.4963 91.0362 48.3135 85.7458 49.4963C78.8375 51.1213 74.5766 55.1119 72.3717 58.2151C70.6077 60.5807 69.7257 62.6494 69.2847 63.8307C67.2273 63.8307 62.2304 63.8307 56.6466 65.4572C52.5317 66.64 48.8562 68.4135 45.9168 70.6291C42.5379 73.5854 39.892 77.2807 38.4215 81.7135C35.9231 89.5478 36.5116 97.0853 39.892 103.145C43.2724 109.204 49.4447 113.342 57.6745 115.115C61.4959 116.003 66.0518 116.445 76.339 116.593V122.948C73.2536 123.54 70.9012 126.199 70.9012 129.599C70.9012 133.293 73.8406 136.249 77.516 136.249C81.1899 136.249 84.1294 133.293 84.1294 129.599C84.1294 126.348 81.7769 123.54 78.6915 122.948V111.568H86.0393C86.6278 111.568 87.2148 110.978 87.2148 110.385V93.2416C87.2148 92.651 86.6278 92.0603 86.0393 92.0603H72.2241C71.6372 92.0603 71.0487 92.651 71.0487 93.2416C71.0487 93.8338 71.6372 94.4244 72.2241 94.4244H84.8638V109.351H77.516C76.9275 109.351 76.339 109.943 76.339 110.534V114.376C66.3453 114.229 61.9369 113.785 58.263 112.898C50.7677 111.273 45.1823 107.431 42.0969 101.962C38.8625 96.4932 38.4215 89.5478 40.6265 82.4525C42.9774 75.2119 48.5628 70.1869 57.381 67.6744C64.1419 65.7526 70.1667 66.1963 70.1667 66.1963C70.7552 66.1963 71.1962 65.901 71.3422 65.3088C71.3422 65.1619 74.4291 54.5213 86.3328 51.8604C90.8887 50.826 95.592 51.8604 100.148 55.1119C103.676 57.476 105.733 60.2838 105.733 60.2838C105.879 60.5807 106.32 60.7276 106.615 60.7276C106.909 60.7276 107.35 60.5807 107.497 60.4322C107.497 60.4322 110.142 57.6244 114.552 55.7026C120.576 53.1901 126.749 53.4854 133.216 56.5901C139.388 59.6932 143.21 64.7182 144.385 71.665C145.267 76.9854 144.238 81.4182 144.238 81.4182C144.092 81.7135 144.238 82.1572 144.533 82.4525C144.679 82.7494 145.12 82.8963 145.413 82.8963C145.413 82.8963 148.353 82.8963 151.733 84.3744C156.143 86.2963 158.935 89.8432 160.11 94.7197C160.404 96.1978 160.699 101.223 157.171 105.953C153.645 110.682 147.618 113.193 139.241 113.49C139.095 113.49 129.836 113.932 114.845 114.081L114.845 96.0494H127.485C128.072 96.0494 128.66 95.4588 128.66 94.8682C128.66 94.276 128.072 93.6853 127.485 93.6853H113.67C113.081 93.6853 112.494 94.276 112.494 94.8682L112.494 122.062C112.494 122.653 113.081 123.243 113.67 123.243H120.87V131.224C117.784 131.815 115.432 134.476 115.432 137.874C115.432 141.57 118.371 144.526 122.047 144.526C125.721 144.526 128.66 141.57 128.66 137.874C128.66 134.624 126.308 131.815 123.222 131.224V122.062C123.222 121.47 122.634 120.879 122.047 120.879H114.845V116.593C129.983 116.298 139.241 116.003 139.388 116.003C144.238 115.854 148.5 114.82 151.881 113.193C154.82 111.717 157.171 109.795 159.082 107.431C163.197 102.109 162.902 96.0494 162.463 94.276ZM81.7769 129.599C81.7769 131.963 79.867 133.885 77.516 133.885C75.1636 133.885 73.2536 131.963 73.2536 129.599C73.2536 127.234 75.1636 125.313 77.516 125.313C79.867 125.313 81.7769 127.234 81.7769 129.599ZM126.455 137.874C126.455 140.24 124.545 142.162 122.193 142.162C119.842 142.162 117.93 140.24 117.93 137.874C117.93 135.51 119.842 133.588 122.193 133.588C124.545 133.442 126.455 135.51 126.455 137.874Z" fill="white"/>
<path d="M105.734 126.791L105.586 89.5485C105.586 88.9564 104.999 88.3657 104.411 88.3657C103.822 88.3657 103.235 88.9564 103.235 89.5485L103.381 126.791C100.296 127.383 97.9434 130.042 97.9434 133.442C97.9434 137.138 100.883 140.092 104.558 140.092C108.232 140.092 111.172 137.138 111.172 133.442C111.172 130.191 108.819 127.383 105.734 126.791ZM104.558 137.875C102.206 137.875 100.296 135.955 100.296 133.589C100.296 131.225 102.206 129.303 104.558 129.303C106.909 129.303 108.819 131.225 108.819 133.589C108.819 135.806 106.909 137.875 104.558 137.875Z" fill="white"/>
<mask id="mask1_696_2907" style="mask-type:luminance" maskUnits="userSpaceOnUse" x="84" y="93" width="14" height="59">
<path d="M84.3604 93.3213H97.7345V151.325H84.3604V93.3213Z" fill="white"/>
</mask>
<g mask="url(#mask1_696_2907)">
<path d="M92.2126 138.023V126.348H95.152C95.7405 126.348 96.3275 125.756 96.3275 125.165V94.8684C96.3275 94.2762 95.7405 93.6855 95.152 93.6855C94.5651 93.6855 93.9766 94.2762 93.9766 94.8684V123.982H91.0372C90.4487 123.982 89.8617 124.575 89.8617 125.165V138.023C86.7748 138.614 84.4238 141.275 84.4238 144.673C84.4238 148.368 87.3633 151.325 91.0372 151.325C94.7111 151.325 97.6505 148.368 97.6505 144.673C97.6505 141.275 95.2996 138.467 92.2126 138.023ZM91.0372 148.959C88.6862 148.959 86.6288 147.039 86.6288 144.526C86.6288 142.162 88.5387 140.24 90.8896 140.24C93.2421 140.24 95.152 142.162 95.152 144.526C95.2996 147.039 93.3881 148.959 91.0372 148.959Z" fill="white"/>
</g>
<path d="M162.463 94.7097C160.845 87.6159 156.289 84.3643 152.763 82.7378C150.41 81.7034 148.207 81.2597 146.884 81.1128C147.177 79.3394 147.472 75.7925 146.736 71.8019C145.413 64.1159 141.152 58.3534 134.244 54.9534C125.573 50.6675 118.225 51.9972 113.67 53.9191C110.289 55.2488 107.937 57.1706 106.761 58.205C105.733 57.0222 103.969 55.2488 101.471 53.4753C96.474 49.9284 91.0362 48.7456 85.7458 49.9284C78.8375 51.555 74.5766 55.5441 72.3717 58.6487C70.6077 61.0128 69.7257 63.0816 69.2847 64.2644C67.2273 64.2644 62.2304 64.2644 56.6466 65.8894C52.5317 67.0722 48.8562 68.8456 45.9168 71.0628C42.5379 74.019 39.892 77.7128 38.4215 82.1472C35.9231 89.98 36.5116 97.5175 39.892 103.577C43.2724 109.636 49.4447 113.775 57.6745 115.549C61.4959 116.435 66.0518 116.878 76.339 117.025V123.382C73.2536 123.972 70.9012 126.633 70.9012 130.032C70.9012 133.727 73.8406 136.683 77.516 136.683C81.1899 136.683 84.1294 133.727 84.1294 130.032C84.1294 126.78 81.7769 123.972 78.6915 123.382V112.002H86.0393C86.6278 112.002 87.2148 111.41 87.2148 110.819V93.6753C87.2148 93.0831 86.6278 92.4925 86.0393 92.4925H72.2241C71.6372 92.4925 71.0487 93.0831 71.0487 93.6753C71.0487 94.2659 71.6372 94.8565 72.2241 94.8565H84.8638V109.785H77.516C76.9275 109.785 76.339 110.375 76.339 110.966V114.81C66.3453 114.661 61.9369 114.217 58.263 113.332C50.7677 111.705 45.1823 107.863 42.0969 102.394C38.8625 96.9268 38.4215 89.98 40.6265 82.8862C42.9774 75.644 48.5628 70.6191 57.381 68.1066C64.1419 66.1862 70.1667 66.6284 70.1667 66.6284C70.7552 66.6284 71.1962 66.3331 71.3422 65.7425C71.3422 65.5941 74.4291 54.9534 86.3328 52.2925C90.8887 51.2581 95.592 52.2925 100.148 55.5441C103.676 57.9097 105.733 60.7175 105.733 60.7175C105.879 61.0128 106.32 61.1612 106.615 61.1612C106.909 61.1612 107.35 61.0128 107.497 60.8659C107.497 60.8659 110.142 58.0566 114.552 56.1362C120.576 53.6237 126.749 53.9191 133.216 57.0222C139.388 60.1269 143.21 65.1519 144.385 72.0972C145.267 77.4175 144.238 81.8518 144.238 81.8518C144.092 82.1472 144.238 82.5909 144.533 82.8862C144.679 83.1815 145.12 83.33 145.413 83.33C145.413 83.33 148.353 83.33 151.733 84.8081C156.143 86.7284 158.935 90.2753 160.11 95.1534C160.404 96.6315 160.699 101.655 157.171 106.385C153.645 111.114 147.618 113.627 139.241 113.922C139.095 113.922 129.836 114.366 114.845 114.514L114.845 96.4831H127.485C128.072 96.4831 128.66 95.8925 128.66 95.3003C128.66 94.7097 128.072 94.119 127.485 94.119H113.67C113.081 94.119 112.494 94.7097 112.494 95.3003L112.494 122.494C112.494 123.086 113.081 123.677 113.67 123.677H120.87V131.658C117.784 132.249 115.432 134.908 115.432 138.308C115.432 142.003 118.371 144.958 122.047 144.958C125.721 144.958 128.66 142.003 128.66 138.308C128.66 135.056 126.308 132.249 123.222 131.658V122.494C123.222 121.903 122.634 121.313 122.047 121.313H114.845V117.025C129.983 116.73 139.241 116.435 139.388 116.435C144.238 116.288 148.5 115.252 151.881 113.627C154.82 112.149 157.171 110.227 159.082 107.863C163.197 102.542 162.902 96.4831 162.463 94.7097ZM81.7769 130.032C81.7769 132.397 79.867 134.317 77.516 134.317C75.1636 134.317 73.2536 132.397 73.2536 130.032C73.2536 127.667 75.1636 125.746 77.516 125.746C79.867 125.746 81.7769 127.667 81.7769 130.032ZM126.455 138.308C126.455 140.672 124.545 142.594 122.193 142.594C119.842 142.594 117.93 140.672 117.93 138.308C117.93 135.944 119.842 134.022 122.193 134.022C124.545 133.874 126.455 135.944 126.455 138.308Z" fill="white"/>
<path d="M105.734 127.223L105.586 89.9797C105.586 89.3891 104.999 88.7969 104.411 88.7969C103.822 88.7969 103.235 89.3891 103.235 89.9797L103.381 127.223C100.296 127.814 97.9434 130.475 97.9434 133.873C97.9434 137.569 100.883 140.525 104.558 140.525C108.232 140.525 111.172 137.569 111.172 133.873C111.172 130.622 108.819 127.814 105.734 127.223ZM104.558 138.308C102.206 138.308 100.296 136.386 100.296 134.022C100.296 131.658 102.206 129.736 104.558 129.736C106.909 129.736 108.819 131.658 108.819 134.022C108.819 136.239 106.909 138.308 104.558 138.308Z" fill="white"/>
<mask id="mask2_696_2907" style="mask-type:luminance" maskUnits="userSpaceOnUse" x="84" y="94" width="14" height="58">
<path d="M84.3604 94.1113H97.7345V151.755H84.3604V94.1113Z" fill="white"/>
</mask>
<g mask="url(#mask2_696_2907)">
<path d="M92.2126 138.456V126.779H95.152C95.7405 126.779 96.3275 126.188 96.3275 125.598V95.2994C96.3275 94.7088 95.7405 94.1182 95.152 94.1182C94.5651 94.1182 93.9766 94.7088 93.9766 95.2994V124.415H91.0372C90.4487 124.415 89.8617 125.006 89.8617 125.598V138.456C86.7748 139.046 84.4238 141.706 84.4238 145.106C84.4238 148.801 87.3633 151.756 91.0372 151.756C94.7111 151.756 97.6505 148.801 97.6505 145.106C97.6505 141.706 95.2996 138.898 92.2126 138.456ZM91.0372 149.392C88.6862 149.392 86.6288 147.47 86.6288 144.957C86.6288 142.593 88.5387 140.671 90.8896 140.671C93.2421 140.671 95.152 142.593 95.152 144.957C95.2996 147.47 93.3881 149.392 91.0372 149.392Z" fill="white"/>
</g>
<path d="M162.463 95.1402C160.845 88.0465 156.289 84.7949 152.763 83.1699C150.41 82.1355 148.207 81.6918 146.884 81.5434C147.177 79.7699 147.472 76.2231 146.736 72.2324C145.413 64.5481 141.152 58.784 134.244 55.3856C125.573 51.0996 118.225 52.4293 113.67 54.3496C110.289 55.6809 107.937 57.6012 106.761 58.6356C105.733 57.4543 103.969 55.6809 101.471 53.9074C96.474 50.3606 91.0362 49.1778 85.7458 50.3606C78.8375 51.9856 74.5766 55.9762 72.3717 59.0793C70.6077 61.4449 69.7257 63.5137 69.2847 64.6965C67.2273 64.6965 62.2304 64.6965 56.6466 66.3215C52.5317 67.5043 48.8562 69.2777 45.9168 71.4949C42.5379 74.4496 39.892 78.1449 38.4215 82.5793C35.9231 90.4121 36.5116 97.9496 39.892 104.009C43.2724 110.068 49.4447 114.206 57.6745 115.979C61.4959 116.867 66.0518 117.309 76.339 117.457V123.812C73.2536 124.404 70.9012 127.064 70.9012 130.464C70.9012 134.157 73.8406 137.114 77.516 137.114C81.1899 137.114 84.1294 134.157 84.1294 130.464C84.1294 127.212 81.7769 124.404 78.6915 123.812V112.432H86.0393C86.6278 112.432 87.2148 111.842 87.2148 111.25V94.1059C87.2148 93.5152 86.6278 92.9246 86.0393 92.9246H72.2241C71.6372 92.9246 71.0487 93.5152 71.0487 94.1059C71.0487 94.698 71.6372 95.2887 72.2241 95.2887H84.8638V110.215H77.516C76.9275 110.215 76.339 110.807 76.339 111.398V115.24C66.3453 115.093 61.9369 114.65 58.263 113.762C50.7677 112.137 45.1823 108.295 42.0969 102.826C38.8625 97.3574 38.4215 90.4121 40.6265 83.3168C42.9774 76.0762 48.5628 71.0512 57.381 68.5387C64.1419 66.6168 70.1667 67.0606 70.1667 67.0606C70.7552 67.0606 71.1962 66.7652 71.3422 66.1731C71.3422 66.0262 74.4291 55.3856 86.3328 52.7246C90.8887 51.6903 95.592 52.7246 100.148 55.9762C103.676 58.3403 105.733 61.1481 105.733 61.1481C105.879 61.4449 106.32 61.5918 106.615 61.5918C106.909 61.5918 107.35 61.4449 107.497 61.2965C107.497 61.2965 110.142 58.4887 114.552 56.5668C120.576 54.0543 126.749 54.3496 133.216 57.4543C139.388 60.5574 143.21 65.5824 144.385 72.5293C145.267 77.8496 144.238 82.2824 144.238 82.2824C144.092 82.5793 144.238 83.0215 144.533 83.3168C144.679 83.6137 145.12 83.7606 145.413 83.7606C145.413 83.7606 148.353 83.7606 151.733 85.2387C156.143 87.1605 158.935 90.7074 160.11 95.584C160.404 97.0621 160.699 102.087 157.171 106.817C153.645 111.546 147.618 114.059 139.241 114.354C139.095 114.354 129.836 114.796 114.845 114.945L114.845 96.9137H127.485C128.072 96.9137 128.66 96.323 128.66 95.7324C128.66 95.1402 128.072 94.5496 127.485 94.5496H113.67C113.081 94.5496 112.494 95.1402 112.494 95.7324L112.494 122.926C112.494 123.517 113.081 124.107 113.67 124.107H120.87V132.089C117.784 132.679 115.432 135.34 115.432 138.74C115.432 142.434 118.371 145.39 122.047 145.39C125.721 145.39 128.66 142.434 128.66 138.74C128.66 135.489 126.308 132.679 123.222 132.089V122.926C123.222 122.334 122.634 121.743 122.047 121.743H114.845V117.457C129.983 117.162 139.241 116.867 139.388 116.867C144.238 116.718 148.5 115.684 151.881 114.059C154.82 112.581 157.171 110.659 159.082 108.295C163.197 102.975 162.902 96.9137 162.463 95.1402ZM81.7769 130.464C81.7769 132.828 79.867 134.75 77.516 134.75C75.1636 134.75 73.2536 132.828 73.2536 130.464C73.2536 128.098 75.1636 126.178 77.516 126.178C79.867 126.178 81.7769 128.098 81.7769 130.464ZM126.455 138.74C126.455 141.104 124.545 143.026 122.193 143.026C119.842 143.026 117.93 141.104 117.93 138.74C117.93 136.375 119.842 134.454 122.193 134.454C124.545 134.306 126.455 136.375 126.455 138.74Z" fill="white"/>
<path d="M105.734 127.657L105.586 90.4128C105.586 89.8206 104.999 89.23 104.411 89.23C103.822 89.23 103.235 89.8206 103.235 90.4128L103.381 127.657C100.296 128.247 97.9434 130.907 97.9434 134.307C97.9434 138.002 100.883 140.957 104.558 140.957C108.232 140.957 111.172 138.002 111.172 134.307C111.172 131.055 108.819 128.247 105.734 127.657ZM104.558 138.741C102.206 138.741 100.296 136.819 100.296 134.455C100.296 132.089 102.206 130.167 104.558 130.167C106.909 130.167 108.819 132.089 108.819 134.455C108.819 136.671 106.909 138.741 104.558 138.741Z" fill="white"/>
<mask id="mask3_696_2907" style="mask-type:luminance" maskUnits="userSpaceOnUse" x="84" y="94" width="14" height="59">
<path d="M84.3604 94.5093H97.7345V152.19H84.3604V94.5093Z" fill="white"/>
</mask>
<g mask="url(#mask3_696_2907)">
<path d="M92.2126 138.889V127.214H95.152C95.7405 127.214 96.3275 126.622 96.3275 126.031V95.7341C96.3275 95.1419 95.7405 94.5513 95.152 94.5513C94.5651 94.5513 93.9766 95.1419 93.9766 95.7341V124.848H91.0372C90.4487 124.848 89.8617 125.44 89.8617 126.031V138.889C86.7748 139.479 84.4238 142.14 84.4238 145.54C84.4238 149.234 87.3633 152.19 91.0372 152.19C94.7111 152.19 97.6505 149.234 97.6505 145.54C97.6505 142.14 95.2996 139.332 92.2126 138.889ZM91.0372 149.826C88.6862 149.826 86.6288 147.904 86.6288 145.392C86.6288 143.028 88.5387 141.106 90.8896 141.106C93.2421 141.106 95.152 143.028 95.152 145.392C95.2996 147.904 93.3881 149.826 91.0372 149.826Z" fill="white"/>
</g>
<path d="M162.463 95.5739C160.845 88.4802 156.289 85.2286 152.763 83.6021C150.41 82.5677 148.207 82.1255 146.884 81.977C147.177 80.2036 147.472 76.6567 146.736 72.6661C145.413 64.9802 141.152 59.2177 134.244 55.8177C125.573 51.5318 118.225 52.8614 113.67 54.7833C110.289 56.113 107.937 58.0349 106.761 59.0693C105.733 57.8864 103.969 56.113 101.471 54.3396C96.474 50.7927 91.0362 49.6099 85.7458 50.7927C78.8375 52.4192 74.5766 56.4083 72.3717 59.513C70.6077 61.8771 69.7257 63.9458 69.2847 65.1286C67.2273 65.1286 62.2304 65.1286 56.6466 66.7552C52.5317 67.9364 48.8562 69.7099 45.9168 71.9271C42.5379 74.8833 39.892 78.5771 38.4215 83.0114C35.9231 90.8442 36.5116 98.3817 39.892 104.441C43.2724 110.5 49.4447 114.64 57.6745 116.413C61.4959 117.299 66.0518 117.743 76.339 117.891V124.246C73.2536 124.836 70.9012 127.497 70.9012 130.896C70.9012 134.591 73.8406 137.547 77.516 137.547C81.1899 137.547 84.1294 134.591 84.1294 130.896C84.1294 127.644 81.7769 124.836 78.6915 124.246V112.866H86.0393C86.6278 112.866 87.2148 112.274 87.2148 111.683V94.5395C87.2148 93.9474 86.6278 93.3567 86.0393 93.3567H72.2241C71.6372 93.3567 71.0487 93.9474 71.0487 94.5395C71.0487 95.1302 71.6372 95.7223 72.2241 95.7223H84.8638V110.649H77.516C76.9275 110.649 76.339 111.24 76.339 111.83V115.674C66.3453 115.525 61.9369 115.082 58.263 114.196C50.7677 112.569 45.1823 108.727 42.0969 103.258C38.8625 97.7911 38.4215 90.8442 40.6265 83.7505C42.9774 76.5083 48.5628 71.4833 57.381 68.9708C64.1419 67.0505 70.1667 67.4927 70.1667 67.4927C70.7552 67.4927 71.1962 67.1974 71.3422 66.6067C71.3422 66.4583 74.4291 55.8177 86.3328 53.1583C90.8887 52.1224 95.592 53.1583 100.148 56.4083C103.676 58.7739 105.733 61.5817 105.733 61.5817C105.879 61.8771 106.32 62.0255 106.615 62.0255C106.909 62.0255 107.35 61.8771 107.497 61.7302C107.497 61.7302 110.142 58.9208 114.552 57.0005C120.576 54.488 126.749 54.7833 133.216 57.8864C139.388 60.9911 143.21 66.0161 144.385 72.9614C145.267 78.2817 144.238 82.7161 144.238 82.7161C144.092 83.0114 144.238 83.4552 144.533 83.7505C144.679 84.0458 145.12 84.1942 145.413 84.1942C145.413 84.1942 148.353 84.1942 151.733 85.6723C156.143 87.5927 158.935 91.1395 160.11 96.0177C160.404 97.4958 160.699 102.521 157.171 107.249C153.645 111.979 147.618 114.491 139.241 114.786C139.095 114.786 129.836 115.23 114.845 115.379L114.845 97.3473H127.485C128.072 97.3473 128.66 96.7567 128.66 96.1645C128.66 95.5739 128.072 94.9833 127.485 94.9833H113.67C113.081 94.9833 112.494 95.5739 112.494 96.1645L112.494 123.358C112.494 123.95 113.081 124.541 113.67 124.541H120.87V132.522C117.784 133.113 115.432 135.774 115.432 139.172C115.432 142.868 118.371 145.822 122.047 145.822C125.721 145.822 128.66 142.868 128.66 139.172C128.66 135.921 126.308 133.113 123.222 132.522V123.358C123.222 122.768 122.634 122.177 122.047 122.177H114.845V117.891C129.983 117.594 139.241 117.299 139.388 117.299C144.238 117.152 148.5 116.116 151.881 114.491C154.82 113.013 157.171 111.093 159.082 108.727C163.197 103.407 162.902 97.3473 162.463 95.5739ZM81.7769 130.896C81.7769 133.261 79.867 135.182 77.516 135.182C75.1636 135.182 73.2536 133.261 73.2536 130.896C73.2536 128.532 75.1636 126.61 77.516 126.61C79.867 126.61 81.7769 128.532 81.7769 130.896ZM126.455 139.172C126.455 141.536 124.545 143.458 122.193 143.458C119.842 143.458 117.93 141.536 117.93 139.172C117.93 136.808 119.842 134.886 122.193 134.886C124.545 134.738 126.455 136.808 126.455 139.172Z" fill="white"/>
<path d="M105.734 128.088L105.586 90.8439C105.586 90.2533 104.999 89.6611 104.411 89.6611C103.822 89.6611 103.235 90.2533 103.235 90.8439L103.381 128.088C100.296 128.678 97.9434 131.339 97.9434 134.738C97.9434 138.433 100.883 141.389 104.558 141.389C108.232 141.389 111.172 138.433 111.172 134.738C111.172 131.488 108.819 128.678 105.734 128.088ZM104.558 139.172C102.206 139.172 100.296 137.25 100.296 134.886C100.296 132.522 102.206 130.6 104.558 130.6C106.909 130.6 108.819 132.522 108.819 134.886C108.819 137.103 106.909 139.172 104.558 139.172Z" fill="white"/>
<mask id="mask4_696_2907" style="mask-type:luminance" maskUnits="userSpaceOnUse" x="84" y="94" width="14" height="59">
<path d="M84.3604 94.9048H97.7345V152.621H84.3604V94.9048Z" fill="white"/>
</mask>
<g mask="url(#mask4_696_2907)">
<path d="M92.2126 139.321V127.644H95.152C95.7405 127.644 96.3275 127.054 96.3275 126.463V96.1647C96.3275 95.574 95.7405 94.9834 95.152 94.9834C94.5651 94.9834 93.9766 95.574 93.9766 96.1647V125.28H91.0372C90.4487 125.28 89.8617 125.871 89.8617 126.463V139.321C86.7748 139.911 84.4238 142.572 84.4238 145.971C84.4238 149.666 87.3633 152.621 91.0372 152.621C94.7111 152.621 97.6505 149.666 97.6505 145.971C97.6505 142.572 95.2996 139.763 92.2126 139.321ZM91.0372 150.257C88.6862 150.257 86.6288 148.335 86.6288 145.822C86.6288 143.458 88.5387 141.536 90.8896 141.536C93.2421 141.536 95.152 143.458 95.152 145.822C95.2996 148.335 93.3881 150.257 91.0372 150.257Z" fill="white"/>
</g>
<path d="M162.759 94.7097C161.141 87.6159 156.585 84.3643 153.058 82.7378C150.706 81.7034 148.503 81.2597 147.18 81.1128C147.473 79.3394 147.768 75.7925 147.032 71.8019C145.709 64.1159 141.448 58.3534 134.54 54.9534C125.869 50.6675 118.521 51.9972 113.965 53.9191C110.585 55.2488 108.233 57.1706 107.057 58.205C106.029 57.0222 104.265 55.2488 101.767 53.4753C96.7699 49.9284 91.3321 48.7456 86.0417 49.9284C79.1334 51.555 74.8725 55.5441 72.6675 58.6487C70.9036 61.0128 70.0216 63.0816 69.5806 64.2644C67.5232 64.2644 62.5263 64.2644 56.9425 65.8894C52.8276 67.0722 49.1521 68.8456 46.2127 71.0628C42.8338 74.019 40.1879 77.7128 38.7174 82.1472C36.219 89.98 36.8075 97.5175 40.1879 103.577C43.5683 109.636 49.7406 113.775 57.9704 115.549C61.7918 116.435 66.3477 116.878 76.6349 117.025V123.382C73.5495 123.972 71.1971 126.633 71.1971 130.032C71.1971 133.727 74.1365 136.683 77.8119 136.683C81.4858 136.683 84.4253 133.727 84.4253 130.032C84.4253 126.78 82.0728 123.972 78.9874 123.382V112.002H86.3352C86.9237 112.002 87.5107 111.41 87.5107 110.819V93.6753C87.5107 93.0831 86.9237 92.4925 86.3352 92.4925H72.52C71.9331 92.4925 71.3446 93.0831 71.3446 93.6753C71.3446 94.2659 71.9331 94.8565 72.52 94.8565H85.1597V109.785H77.8119C77.2234 109.785 76.6349 110.375 76.6349 110.966V114.81C66.6412 114.661 62.2328 114.217 58.5589 113.332C51.0636 111.705 45.4782 107.863 42.3928 102.394C39.1584 96.9268 38.7174 89.98 40.9224 82.8862C43.2733 75.644 48.8587 70.6191 57.6769 68.1066C64.4378 66.1862 70.4626 66.6284 70.4626 66.6284C71.0511 66.6284 71.4921 66.3331 71.6381 65.7425C71.6381 65.5941 74.725 54.9534 86.6287 52.2925C91.1846 51.2581 95.8879 52.2925 100.444 55.5441C103.972 57.9097 106.029 60.7175 106.029 60.7175C106.175 61.0128 106.616 61.1612 106.911 61.1612C107.205 61.1612 107.646 61.0128 107.793 60.8659C107.793 60.8659 110.438 58.0566 114.847 56.1362C120.872 53.6237 127.045 53.9191 133.512 57.0222C139.684 60.1269 143.506 65.1519 144.681 72.0972C145.563 77.4175 144.534 81.8518 144.534 81.8518C144.388 82.1472 144.534 82.5909 144.829 82.8862C144.975 83.1815 145.416 83.33 145.709 83.33C145.709 83.33 148.649 83.33 152.029 84.8081C156.439 86.7284 159.231 90.2753 160.406 95.1534C160.7 96.6315 160.995 101.655 157.467 106.385C153.94 111.114 147.914 113.627 139.537 113.922C139.391 113.922 130.132 114.366 115.141 114.514L115.141 96.4831H127.781C128.368 96.4831 128.956 95.8925 128.956 95.3003C128.956 94.7097 128.368 94.119 127.781 94.119H113.965C113.377 94.119 112.79 94.7097 112.79 95.3003L112.79 122.494C112.79 123.086 113.377 123.677 113.965 123.677H121.166V131.658C118.08 132.249 115.728 134.908 115.728 138.308C115.728 142.003 118.667 144.958 122.343 144.958C126.017 144.958 128.956 142.003 128.956 138.308C128.956 135.056 126.604 132.249 123.518 131.658V122.494C123.518 121.903 122.93 121.313 122.343 121.313H115.141V117.025C130.279 116.73 139.537 116.435 139.684 116.435C144.534 116.288 148.796 115.252 152.176 113.627C155.116 112.149 157.467 110.227 159.378 107.863C163.493 102.542 163.198 96.4831 162.759 94.7097ZM82.0728 130.032C82.0728 132.397 80.1629 134.317 77.8119 134.317C75.4595 134.317 73.5495 132.397 73.5495 130.032C73.5495 127.667 75.4595 125.746 77.8119 125.746C80.1629 125.746 82.0728 127.667 82.0728 130.032ZM126.751 138.308C126.751 140.672 124.841 142.594 122.489 142.594C120.138 142.594 118.226 140.672 118.226 138.308C118.226 135.944 120.138 134.022 122.489 134.022C124.841 133.874 126.751 135.944 126.751 138.308Z" fill="white"/>
<path d="M106.029 127.223L105.881 89.9797C105.881 89.3891 105.294 88.7969 104.706 88.7969C104.117 88.7969 103.53 89.3891 103.53 89.9797L103.676 127.223C100.591 127.814 98.2383 130.475 98.2383 133.873C98.2383 137.569 101.178 140.525 104.853 140.525C108.527 140.525 111.466 137.569 111.466 133.873C111.466 130.622 109.114 127.814 106.029 127.223ZM104.853 138.308C102.501 138.308 100.591 136.386 100.591 134.022C100.591 131.658 102.501 129.736 104.853 129.736C107.204 129.736 109.114 131.658 109.114 134.022C109.114 136.239 107.204 138.308 104.853 138.308Z" fill="white"/>
<mask id="mask5_696_2907" style="mask-type:luminance" maskUnits="userSpaceOnUse" x="84" y="94" width="15" height="58">
<path d="M84.3604 94.1113H98.1279V151.755H84.3604V94.1113Z" fill="white"/>
</mask>
<g mask="url(#mask5_696_2907)">
<path d="M92.5066 138.455V126.779H95.446C96.0345 126.779 96.6215 126.188 96.6215 125.597V95.2989C96.6215 94.7083 96.0345 94.1177 95.446 94.1177C94.859 94.1177 94.2705 94.7083 94.2705 95.2989V124.415H91.3311C90.7426 124.415 90.1556 125.005 90.1556 125.597V138.455C87.0687 139.046 84.7178 141.705 84.7178 145.105C84.7178 148.8 87.6572 151.755 91.3311 151.755C95.005 151.755 97.9444 148.8 97.9444 145.105C97.9444 141.705 95.5935 138.897 92.5066 138.455ZM91.3311 149.391C88.9802 149.391 86.9227 147.469 86.9227 144.957C86.9227 142.593 88.8327 140.671 91.1836 140.671C93.5361 140.671 95.446 142.593 95.446 144.957C95.5935 147.469 93.682 149.391 91.3311 149.391Z" fill="white"/>
</g>
<path d="M162.168 95.5739C160.55 88.4802 155.994 85.2286 152.468 83.6021C150.115 82.5677 147.912 82.1255 146.589 81.977C146.882 80.2036 147.177 76.6567 146.441 72.6661C145.118 64.9802 140.857 59.2177 133.949 55.8177C125.278 51.5318 117.931 52.8614 113.375 54.7833C109.994 56.113 107.642 58.0349 106.466 59.0693C105.438 57.8864 103.674 56.113 101.176 54.3396C96.1791 50.7927 90.7412 49.6099 85.4509 50.7927C78.5425 52.4192 74.2817 56.4083 72.0767 59.513C70.3128 61.8771 69.4308 63.9458 68.9898 65.1286C66.9323 65.1286 61.9355 65.1286 56.3516 66.7552C52.2368 67.9364 48.5613 69.7099 45.6219 71.9271C42.243 74.8833 39.5971 78.5771 38.1266 83.0114C35.6281 90.8442 36.2166 98.3817 39.5971 104.441C42.9775 110.5 49.1498 114.64 57.3796 116.413C61.201 117.299 65.7569 117.743 76.0441 117.891V124.246C72.9587 124.836 70.6062 127.497 70.6062 130.896C70.6062 134.591 73.5457 137.547 77.2211 137.547C80.895 137.547 83.8344 134.591 83.8344 130.896C83.8344 127.644 81.482 124.836 78.3966 124.246V112.866H85.7444C86.3329 112.866 86.9198 112.274 86.9198 111.683V94.5395C86.9198 93.9474 86.3329 93.3567 85.7444 93.3567H71.9292C71.3423 93.3567 70.7538 93.9474 70.7538 94.5395C70.7538 95.1302 71.3423 95.7223 71.9292 95.7223H84.5689V110.649H77.2211C76.6326 110.649 76.0441 111.24 76.0441 111.83V115.674C66.0504 115.525 61.642 115.082 57.9681 114.196C50.4728 112.569 44.8874 108.727 41.802 103.258C38.5676 97.7911 38.1266 90.8442 40.3315 83.7505C42.6825 76.5083 48.2678 71.4833 57.0861 68.9708C63.8469 67.0505 69.8718 67.4927 69.8718 67.4927C70.4603 67.4927 70.9013 67.1974 71.0472 66.6067C71.0472 66.4583 74.1342 55.8177 86.0378 53.1583C90.5937 52.1224 95.2971 53.1583 99.853 56.4083C103.381 58.7739 105.438 61.5817 105.438 61.5817C105.584 61.8771 106.025 62.0255 106.32 62.0255C106.614 62.0255 107.055 61.8771 107.202 61.7302C107.202 61.7302 109.847 58.9208 114.257 57.0005C120.281 54.488 126.454 54.7833 132.921 57.8864C139.093 60.9911 142.915 66.0161 144.09 72.9614C144.972 78.2817 143.943 82.7161 143.943 82.7161C143.797 83.0114 143.943 83.4552 144.238 83.7505C144.384 84.0458 144.825 84.1942 145.118 84.1942C145.118 84.1942 148.058 84.1942 151.438 85.6723C155.848 87.5927 158.64 91.1395 159.815 96.0177C160.109 97.4958 160.404 102.521 156.876 107.249C153.35 111.979 147.323 114.491 138.946 114.786C138.8 114.786 129.541 115.23 114.55 115.379L114.55 97.3473H127.19C127.777 97.3473 128.365 96.7567 128.365 96.1645C128.365 95.5739 127.777 94.9833 127.19 94.9833H113.375C112.786 94.9833 112.199 95.5739 112.199 96.1645L112.199 123.358C112.199 123.95 112.786 124.541 113.375 124.541H120.575V132.522C117.49 133.113 115.137 135.774 115.137 139.172C115.137 142.868 118.077 145.822 121.752 145.822C125.426 145.822 128.365 142.868 128.365 139.172C128.365 135.921 126.013 133.113 122.927 132.522V123.358C122.927 122.768 122.339 122.177 121.752 122.177H114.55V117.891C129.688 117.594 138.946 117.299 139.093 117.299C143.943 117.152 148.205 116.116 151.586 114.491C154.525 113.013 156.876 111.093 158.787 108.727C162.902 103.407 162.607 97.3473 162.168 95.5739ZM81.482 130.896C81.482 133.261 79.572 135.182 77.2211 135.182C74.8686 135.182 72.9587 133.261 72.9587 130.896C72.9587 128.532 74.8686 126.61 77.2211 126.61C79.572 126.61 81.482 128.532 81.482 130.896ZM126.16 139.172C126.16 141.536 124.25 143.458 121.898 143.458C119.547 143.458 117.636 141.536 117.636 139.172C117.636 136.808 119.547 134.886 121.898 134.886C124.25 134.738 126.16 136.808 126.16 139.172Z" fill="white"/>
<path d="M105.438 128.088L105.29 90.8439C105.29 90.2533 104.703 89.6611 104.115 89.6611C103.526 89.6611 102.939 90.2533 102.939 90.8439L103.085 128.088C99.9999 128.678 97.6475 131.339 97.6475 134.738C97.6475 138.433 100.587 141.389 104.262 141.389C107.936 141.389 110.876 138.433 110.876 134.738C110.876 131.488 108.523 128.678 105.438 128.088ZM104.262 139.172C101.91 139.172 99.9999 137.25 99.9999 134.886C99.9999 132.522 101.91 130.6 104.262 130.6C106.613 130.6 108.523 132.522 108.523 134.886C108.523 137.103 106.613 139.172 104.262 139.172Z" fill="white"/>
<mask id="mask6_696_2907" style="mask-type:luminance" maskUnits="userSpaceOnUse" x="83" y="94" width="15" height="59">
<path d="M83.9668 94.9048H97.7343V152.621H83.9668V94.9048Z" fill="white"/>
</mask>
<g mask="url(#mask6_696_2907)">
<path d="M91.9167 139.321V127.644H94.8561C95.4446 127.644 96.0316 127.054 96.0316 126.463V96.1647C96.0316 95.574 95.4446 94.9834 94.8561 94.9834C94.2692 94.9834 93.6807 95.574 93.6807 96.1647V125.28H90.7413C90.1528 125.28 89.5658 125.871 89.5658 126.463V139.321C86.4789 139.911 84.1279 142.572 84.1279 145.971C84.1279 149.666 87.0674 152.621 90.7413 152.621C94.4152 152.621 97.3546 149.666 97.3546 145.971C97.3546 142.572 95.0037 139.763 91.9167 139.321ZM90.7413 150.257C88.3903 150.257 86.3329 148.335 86.3329 145.822C86.3329 143.458 88.2428 141.536 90.5937 141.536C92.9462 141.536 94.8561 143.458 94.8561 145.822C95.0037 148.335 93.0922 150.257 90.7413 150.257Z" fill="white"/>
</g>
<path d="M161.873 93.8454C160.255 86.7516 155.699 83.5001 152.173 81.8735C149.82 80.8392 147.617 80.3954 146.294 80.2485C146.587 78.4751 146.882 74.9282 146.146 70.9376C144.823 63.2517 140.563 57.4876 133.654 54.0892C124.983 49.8032 117.636 51.1329 113.08 53.0548C109.699 54.3845 107.347 56.3064 106.171 57.3407C105.143 56.1579 103.379 54.3845 100.881 52.6111C95.8842 49.0642 90.4463 47.8814 85.156 49.0642C78.2476 50.6892 73.9868 54.6798 71.7818 57.7845C70.0178 60.1485 69.1359 62.2173 68.6949 63.4001C66.6374 63.4001 61.6406 63.4001 56.0567 65.0251C51.9418 66.2079 48.2664 67.9814 45.327 70.1985C41.9481 73.1548 39.3021 76.8485 37.8317 81.2829C35.3332 89.1157 35.9217 96.6532 39.3021 102.713C42.6826 108.772 48.8549 112.911 57.0847 114.684C60.9061 115.57 65.462 116.014 75.7492 116.161V122.517C72.6638 123.108 70.3113 125.769 70.3113 129.167C70.3113 132.863 73.2508 135.817 76.9262 135.817C80.6001 135.817 83.5395 132.863 83.5395 129.167C83.5395 125.916 81.187 123.108 78.1017 122.517V111.136H85.4494C86.0379 111.136 86.6249 110.545 86.6249 109.955V92.811C86.6249 92.2188 86.0379 91.6282 85.4494 91.6282H71.6343C71.0473 91.6282 70.4588 92.2188 70.4588 92.811C70.4588 93.4016 71.0473 93.9923 71.6343 93.9923H84.274V108.92H76.9262C76.3377 108.92 75.7492 109.511 75.7492 110.102V113.945C65.7554 113.797 61.3471 113.353 57.6732 112.467C50.1779 110.841 44.5925 106.999 41.5071 101.53C38.2727 96.0626 37.8317 89.1157 40.0366 82.022C42.3875 74.7798 47.9729 69.7548 56.7912 67.2423C63.552 65.322 69.5769 65.7642 69.5769 65.7642C70.1654 65.7642 70.6063 65.4689 70.7523 64.8782C70.7523 64.7298 73.8392 54.0892 85.7429 51.4282C90.2988 50.3939 95.0022 51.4282 99.5581 54.6798C103.086 57.0454 105.143 59.8532 105.143 59.8532C105.289 60.1485 105.73 60.297 106.025 60.297C106.319 60.297 106.76 60.1485 106.907 60.0001C106.907 60.0001 109.552 57.1923 113.962 55.272C119.987 52.7595 126.159 53.0548 132.626 56.1579C138.799 59.2626 142.62 64.2861 143.795 71.2329C144.677 76.5532 143.648 80.9876 143.648 80.9876C143.502 81.2829 143.648 81.7267 143.943 82.022C144.089 82.3173 144.53 82.4657 144.823 82.4657C144.823 82.4657 147.763 82.4657 151.143 83.9438C155.553 85.8642 158.345 89.411 159.521 94.2891C159.814 95.7657 160.109 100.791 156.581 105.52C153.055 110.25 147.028 112.763 138.651 113.058C138.505 113.058 129.246 113.502 114.255 113.649L114.255 95.6188H126.895C127.482 95.6188 128.07 95.0282 128.07 94.436C128.07 93.8454 127.482 93.2532 126.895 93.2532H113.08C112.491 93.2532 111.904 93.8454 111.904 94.436L111.904 121.63C111.904 122.222 112.491 122.813 113.08 122.813H120.28V130.794C117.195 131.384 114.842 134.044 114.842 137.444C114.842 141.139 117.782 144.094 121.457 144.094C125.131 144.094 128.07 141.139 128.07 137.444C128.07 134.192 125.718 131.384 122.632 130.794V121.63C122.632 121.039 122.044 120.447 121.457 120.447H114.255V116.161C129.393 115.866 138.651 115.57 138.799 115.57C143.648 115.424 147.91 114.388 151.291 112.763C154.23 111.284 156.581 109.363 158.493 106.999C162.607 101.678 162.312 95.6188 161.873 93.8454ZM81.187 129.167C81.187 131.531 79.2771 133.453 76.9262 133.453C74.5737 133.453 72.6638 131.531 72.6638 129.167C72.6638 126.803 74.5737 124.881 76.9262 124.881C79.2771 124.881 81.187 126.803 81.187 129.167ZM125.865 137.444C125.865 139.808 123.955 141.73 121.603 141.73C119.252 141.73 117.341 139.808 117.341 137.444C117.341 135.08 119.252 133.158 121.603 133.158C123.955 133.009 125.865 135.08 125.865 137.444Z" fill="white"/>
<path d="M105.144 126.359L104.996 89.1154C104.996 88.5248 104.409 87.9326 103.821 87.9326C103.232 87.9326 102.645 88.5248 102.645 89.1154L102.791 126.359C99.706 126.95 97.3535 129.611 97.3535 133.009C97.3535 136.704 100.293 139.661 103.968 139.661C107.642 139.661 110.582 136.704 110.582 133.009C110.582 129.758 108.229 126.95 105.144 126.359ZM103.968 137.444C101.616 137.444 99.706 135.522 99.706 133.158C99.706 130.794 101.616 128.872 103.968 128.872C106.319 128.872 108.229 130.794 108.229 133.158C108.229 135.375 106.319 137.444 103.968 137.444Z" fill="white"/>
<mask id="mask7_696_2907" style="mask-type:luminance" maskUnits="userSpaceOnUse" x="83" y="92" width="15" height="59">
<path d="M83.5732 92.9263H97.3408V150.893H83.5732V92.9263Z" fill="white"/>
</mask>
<g mask="url(#mask7_696_2907)">
<path d="M91.6208 137.592V125.915H94.5602C95.1487 125.915 95.7357 125.325 95.7357 124.733V94.4357C95.7357 93.8451 95.1487 93.2529 94.5602 93.2529C93.9733 93.2529 93.3848 93.8451 93.3848 94.4357V123.551H90.4454C89.8569 123.551 89.2699 124.142 89.2699 124.733V137.592C86.183 138.183 83.832 140.842 83.832 144.242C83.832 147.937 86.7715 150.892 90.4454 150.892C94.1193 150.892 97.0587 147.937 97.0587 144.242C97.0587 140.842 94.7078 138.034 91.6208 137.592ZM90.4454 148.528C88.0944 148.528 86.037 146.606 86.037 144.094C86.037 141.729 87.9469 139.808 90.2978 139.808C92.6503 139.808 94.5602 141.729 94.5602 144.094C94.7078 146.606 92.7963 148.528 90.4454 148.528Z" fill="white"/>
</g>
<path d="M161.873 94.276C160.255 87.1822 155.699 83.9307 152.173 82.3057C149.82 81.2713 147.617 80.8275 146.294 80.6791C146.587 78.9057 146.882 75.3588 146.146 71.3682C144.823 63.6838 140.563 57.9197 133.654 54.5213C124.983 50.2354 117.636 51.5651 113.08 53.4854C109.699 54.8166 107.347 56.7369 106.171 57.7713C105.143 56.5901 103.379 54.8166 100.881 53.0432C95.8842 49.4963 90.4463 48.3135 85.156 49.4963C78.2476 51.1213 73.9868 55.1119 71.7818 58.2151C70.0178 60.5807 69.1359 62.6494 68.6949 63.8307C66.6374 63.8307 61.6406 63.8307 56.0567 65.4572C51.9418 66.64 48.2664 68.4135 45.327 70.6291C41.9481 73.5854 39.3021 77.2807 37.8317 81.7135C35.3332 89.5478 35.9217 97.0853 39.3021 103.145C42.6826 109.204 48.8549 113.342 57.0847 115.115C60.9061 116.003 65.462 116.445 75.7492 116.593V122.948C72.6638 123.54 70.3113 126.199 70.3113 129.599C70.3113 133.293 73.2508 136.249 76.9262 136.249C80.6001 136.249 83.5395 133.293 83.5395 129.599C83.5395 126.348 81.187 123.54 78.1017 122.948V111.568H85.4494C86.0379 111.568 86.6249 110.978 86.6249 110.385V93.2416C86.6249 92.651 86.0379 92.0603 85.4494 92.0603H71.6343C71.0473 92.0603 70.4588 92.651 70.4588 93.2416C70.4588 93.8338 71.0473 94.4244 71.6343 94.4244H84.274V109.351H76.9262C76.3377 109.351 75.7492 109.943 75.7492 110.534V114.376C65.7554 114.229 61.3471 113.785 57.6732 112.898C50.1779 111.273 44.5925 107.431 41.5071 101.962C38.2727 96.4932 37.8317 89.5478 40.0366 82.4525C42.3875 75.2119 47.9729 70.1869 56.7912 67.6744C63.552 65.7526 69.5769 66.1963 69.5769 66.1963C70.1654 66.1963 70.6063 65.901 70.7523 65.3088C70.7523 65.1619 73.8392 54.5213 85.7429 51.8604C90.2988 50.826 95.0022 51.8604 99.5581 55.1119C103.086 57.476 105.143 60.2838 105.143 60.2838C105.289 60.5807 105.73 60.7276 106.025 60.7276C106.319 60.7276 106.76 60.5807 106.907 60.4322C106.907 60.4322 109.552 57.6244 113.962 55.7026C119.987 53.1901 126.159 53.4854 132.626 56.5901C138.799 59.6932 142.62 64.7182 143.795 71.665C144.677 76.9854 143.648 81.4182 143.648 81.4182C143.502 81.7135 143.648 82.1572 143.943 82.4525C144.089 82.7494 144.53 82.8963 144.823 82.8963C144.823 82.8963 147.763 82.8963 151.143 84.3744C155.553 86.2963 158.345 89.8432 159.521 94.7197C159.814 96.1978 160.109 101.223 156.581 105.953C153.055 110.682 147.028 113.193 138.651 113.49C138.505 113.49 129.246 113.932 114.255 114.081L114.255 96.0494H126.895C127.482 96.0494 128.07 95.4588 128.07 94.8682C128.07 94.276 127.482 93.6853 126.895 93.6853H113.08C112.491 93.6853 111.904 94.276 111.904 94.8682L111.904 122.062C111.904 122.653 112.491 123.243 113.08 123.243H120.28V131.224C117.195 131.815 114.842 134.476 114.842 137.874C114.842 141.57 117.782 144.526 121.457 144.526C125.131 144.526 128.07 141.57 128.07 137.874C128.07 134.624 125.718 131.815 122.632 131.224V122.062C122.632 121.47 122.044 120.879 121.457 120.879H114.255V116.593C129.393 116.298 138.651 116.003 138.799 116.003C143.648 115.854 147.91 114.82 151.291 113.193C154.23 111.717 156.581 109.795 158.493 107.431C162.607 102.109 162.312 96.0494 161.873 94.276ZM81.187 129.599C81.187 131.963 79.2771 133.885 76.9262 133.885C74.5737 133.885 72.6638 131.963 72.6638 129.599C72.6638 127.234 74.5737 125.313 76.9262 125.313C79.2771 125.313 81.187 127.234 81.187 129.599ZM125.865 137.874C125.865 140.24 123.955 142.162 121.603 142.162C119.252 142.162 117.341 140.24 117.341 137.874C117.341 135.51 119.252 133.588 121.603 133.588C123.955 133.442 125.865 135.51 125.865 137.874Z" fill="white"/>
<path d="M105.144 126.791L104.996 89.5485C104.996 88.9564 104.409 88.3657 103.821 88.3657C103.232 88.3657 102.645 88.9564 102.645 89.5485L102.791 126.791C99.706 127.383 97.3535 130.042 97.3535 133.442C97.3535 137.138 100.293 140.092 103.968 140.092C107.642 140.092 110.582 137.138 110.582 133.442C110.582 130.191 108.229 127.383 105.144 126.791ZM103.968 137.875C101.616 137.875 99.706 135.955 99.706 133.589C99.706 131.225 101.616 129.303 103.968 129.303C106.319 129.303 108.229 131.225 108.229 133.589C108.229 135.806 106.319 137.875 103.968 137.875Z" fill="white"/>
<mask id="mask8_696_2907" style="mask-type:luminance" maskUnits="userSpaceOnUse" x="83" y="93" width="15" height="59">
<path d="M83.5732 93.3218H97.3408V151.326H83.5732V93.3218Z" fill="white"/>
</mask>
<g mask="url(#mask8_696_2907)">
<path d="M91.6208 138.023V126.348H94.5602C95.1487 126.348 95.7357 125.756 95.7357 125.165V94.8684C95.7357 94.2762 95.1487 93.6855 94.5602 93.6855C93.9733 93.6855 93.3848 94.2762 93.3848 94.8684V123.982H90.4454C89.8569 123.982 89.2699 124.575 89.2699 125.165V138.023C86.183 138.614 83.832 141.275 83.832 144.673C83.832 148.368 86.7715 151.325 90.4454 151.325C94.1193 151.325 97.0587 148.368 97.0587 144.673C97.0587 141.275 94.7078 138.467 91.6208 138.023ZM90.4454 148.959C88.0944 148.959 86.037 147.039 86.037 144.526C86.037 142.162 87.9469 140.24 90.2978 140.24C92.6503 140.24 94.5602 142.162 94.5602 144.526C94.7078 147.039 92.7963 148.959 90.4454 148.959Z" fill="white"/>
</g>
<path d="M161.873 94.7097C160.255 87.6159 155.699 84.3643 152.173 82.7378C149.82 81.7034 147.617 81.2597 146.294 81.1128C146.587 79.3394 146.882 75.7925 146.146 71.8019C144.823 64.1159 140.563 58.3534 133.654 54.9534C124.983 50.6675 117.636 51.9972 113.08 53.9191C109.699 55.2488 107.347 57.1706 106.171 58.205C105.143 57.0222 103.379 55.2488 100.881 53.4753C95.8842 49.9284 90.4463 48.7456 85.156 49.9284C78.2476 51.555 73.9868 55.5441 71.7818 58.6487C70.0178 61.0128 69.1359 63.0816 68.6949 64.2644C66.6374 64.2644 61.6406 64.2644 56.0567 65.8894C51.9418 67.0722 48.2664 68.8456 45.327 71.0628C41.9481 74.019 39.3021 77.7128 37.8317 82.1472C35.3332 89.98 35.9217 97.5175 39.3021 103.577C42.6826 109.636 48.8549 113.775 57.0847 115.549C60.9061 116.435 65.462 116.878 75.7492 117.025V123.382C72.6638 123.972 70.3113 126.633 70.3113 130.032C70.3113 133.727 73.2508 136.683 76.9262 136.683C80.6001 136.683 83.5395 133.727 83.5395 130.032C83.5395 126.78 81.187 123.972 78.1017 123.382V112.002H85.4494C86.0379 112.002 86.6249 111.41 86.6249 110.819V93.6753C86.6249 93.0831 86.0379 92.4925 85.4494 92.4925H71.6343C71.0473 92.4925 70.4588 93.0831 70.4588 93.6753C70.4588 94.2659 71.0473 94.8565 71.6343 94.8565H84.274V109.785H76.9262C76.3377 109.785 75.7492 110.375 75.7492 110.966V114.81C65.7554 114.661 61.3471 114.217 57.6732 113.332C50.1779 111.705 44.5925 107.863 41.5071 102.394C38.2727 96.9268 37.8317 89.98 40.0366 82.8862C42.3875 75.644 47.9729 70.6191 56.7912 68.1066C63.552 66.1862 69.5769 66.6284 69.5769 66.6284C70.1654 66.6284 70.6063 66.3331 70.7523 65.7425C70.7523 65.5941 73.8392 54.9534 85.7429 52.2925C90.2988 51.2581 95.0022 52.2925 99.5581 55.5441C103.086 57.9097 105.143 60.7175 105.143 60.7175C105.289 61.0128 105.73 61.1612 106.025 61.1612C106.319 61.1612 106.76 61.0128 106.907 60.8659C106.907 60.8659 109.552 58.0566 113.962 56.1362C119.987 53.6237 126.159 53.9191 132.626 57.0222C138.799 60.1269 142.62 65.1519 143.795 72.0972C144.677 77.4175 143.648 81.8518 143.648 81.8518C143.502 82.1472 143.648 82.5909 143.943 82.8862C144.089 83.1815 144.53 83.33 144.823 83.33C144.823 83.33 147.763 83.33 151.143 84.8081C155.553 86.7284 158.345 90.2753 159.521 95.1534C159.814 96.6315 160.109 101.655 156.581 106.385C153.055 111.114 147.028 113.627 138.651 113.922C138.505 113.922 129.246 114.366 114.255 114.514L114.255 96.4831H126.895C127.482 96.4831 128.07 95.8925 128.07 95.3003C128.07 94.7097 127.482 94.119 126.895 94.119H113.08C112.491 94.119 111.904 94.7097 111.904 95.3003L111.904 122.494C111.904 123.086 112.491 123.677 113.08 123.677H120.28V131.658C117.195 132.249 114.842 134.908 114.842 138.308C114.842 142.003 117.782 144.958 121.457 144.958C125.131 144.958 128.07 142.003 128.07 138.308C128.07 135.056 125.718 132.249 122.632 131.658V122.494C122.632 121.903 122.044 121.313 121.457 121.313H114.255V117.025C129.393 116.73 138.651 116.435 138.799 116.435C143.648 116.288 147.91 115.252 151.291 113.627C154.23 112.149 156.581 110.227 158.493 107.863C162.607 102.542 162.312 96.4831 161.873 94.7097ZM81.187 130.032C81.187 132.397 79.2771 134.317 76.9262 134.317C74.5737 134.317 72.6638 132.397 72.6638 130.032C72.6638 127.667 74.5737 125.746 76.9262 125.746C79.2771 125.746 81.187 127.667 81.187 130.032ZM125.865 138.308C125.865 140.672 123.955 142.594 121.603 142.594C119.252 142.594 117.341 140.672 117.341 138.308C117.341 135.944 119.252 134.022 121.603 134.022C123.955 133.874 125.865 135.944 125.865 138.308Z" fill="white"/>
<path d="M105.144 127.223L104.996 89.9797C104.996 89.3891 104.409 88.7969 103.821 88.7969C103.232 88.7969 102.645 89.3891 102.645 89.9797L102.791 127.223C99.706 127.814 97.3535 130.475 97.3535 133.873C97.3535 137.569 100.293 140.525 103.968 140.525C107.642 140.525 110.582 137.569 110.582 133.873C110.582 130.622 108.229 127.814 105.144 127.223ZM103.968 138.308C101.616 138.308 99.706 136.386 99.706 134.022C99.706 131.658 101.616 129.736 103.968 129.736C106.319 129.736 108.229 131.658 108.229 134.022C108.229 136.239 106.319 138.308 103.968 138.308Z" fill="white"/>
<mask id="mask9_696_2907" style="mask-type:luminance" maskUnits="userSpaceOnUse" x="83" y="94" width="15" height="58">
<path d="M83.5732 94.1113H97.3408V151.755H83.5732V94.1113Z" fill="white"/>
</mask>
<g mask="url(#mask9_696_2907)">
<path d="M91.6208 138.455V126.779H94.5602C95.1487 126.779 95.7357 126.188 95.7357 125.597V95.2989C95.7357 94.7083 95.1487 94.1177 94.5602 94.1177C93.9733 94.1177 93.3848 94.7083 93.3848 95.2989V124.415H90.4454C89.8569 124.415 89.2699 125.005 89.2699 125.597V138.455C86.183 139.046 83.832 141.705 83.832 145.105C83.832 148.8 86.7715 151.755 90.4454 151.755C94.1193 151.755 97.0587 148.8 97.0587 145.105C97.0587 141.705 94.7078 138.897 91.6208 138.455ZM90.4454 149.391C88.0944 149.391 86.037 147.469 86.037 144.957C86.037 142.593 87.9469 140.671 90.2978 140.671C92.6503 140.671 94.5602 142.593 94.5602 144.957C94.7078 147.469 92.7963 149.391 90.4454 149.391Z" fill="white"/>
</g>
<path d="M161.873 95.1402C160.255 88.0465 155.699 84.7949 152.173 83.1699C149.82 82.1355 147.617 81.6918 146.294 81.5434C146.587 79.7699 146.882 76.2231 146.146 72.2324C144.823 64.5481 140.563 58.784 133.654 55.3856C124.983 51.0996 117.636 52.4293 113.08 54.3496C109.699 55.6809 107.347 57.6012 106.171 58.6356C105.143 57.4543 103.379 55.6809 100.881 53.9074C95.8842 50.3606 90.4463 49.1778 85.156 50.3606C78.2476 51.9856 73.9868 55.9762 71.7818 59.0793C70.0178 61.4449 69.1359 63.5137 68.6949 64.6965C66.6374 64.6965 61.6406 64.6965 56.0567 66.3215C51.9418 67.5043 48.2664 69.2777 45.327 71.4949C41.9481 74.4496 39.3021 78.1449 37.8317 82.5793C35.3332 90.4121 35.9217 97.9496 39.3021 104.009C42.6826 110.068 48.8549 114.206 57.0847 115.979C60.9061 116.867 65.462 117.309 75.7492 117.457V123.812C72.6638 124.404 70.3113 127.064 70.3113 130.464C70.3113 134.157 73.2508 137.114 76.9262 137.114C80.6001 137.114 83.5395 134.157 83.5395 130.464C83.5395 127.212 81.187 124.404 78.1017 123.812V112.432H85.4494C86.0379 112.432 86.6249 111.842 86.6249 111.25V94.1059C86.6249 93.5152 86.0379 92.9246 85.4494 92.9246H71.6343C71.0473 92.9246 70.4588 93.5152 70.4588 94.1059C70.4588 94.698 71.0473 95.2887 71.6343 95.2887H84.274V110.215H76.9262C76.3377 110.215 75.7492 110.807 75.7492 111.398V115.24C65.7554 115.093 61.3471 114.65 57.6732 113.762C50.1779 112.137 44.5925 108.295 41.5071 102.826C38.2727 97.3574 37.8317 90.4121 40.0366 83.3168C42.3875 76.0762 47.9729 71.0512 56.7912 68.5387C63.552 66.6168 69.5769 67.0606 69.5769 67.0606C70.1654 67.0606 70.6063 66.7652 70.7523 66.1731C70.7523 66.0262 73.8392 55.3856 85.7429 52.7246C90.2988 51.6903 95.0022 52.7246 99.5581 55.9762C103.086 58.3403 105.143 61.1481 105.143 61.1481C105.289 61.4449 105.73 61.5918 106.025 61.5918C106.319 61.5918 106.76 61.4449 106.907 61.2965C106.907 61.2965 109.552 58.4887 113.962 56.5668C119.987 54.0543 126.159 54.3496 132.626 57.4543C138.799 60.5574 142.62 65.5824 143.795 72.5293C144.677 77.8496 143.648 82.2824 143.648 82.2824C143.502 82.5793 143.648 83.0215 143.943 83.3168C144.089 83.6137 144.53 83.7606 144.823 83.7606C144.823 83.7606 147.763 83.7606 151.143 85.2387C155.553 87.1605 158.345 90.7074 159.521 95.584C159.814 97.0621 160.109 102.087 156.581 106.817C153.055 111.546 147.028 114.059 138.651 114.354C138.505 114.354 129.246 114.796 114.255 114.945L114.255 96.9137H126.895C127.482 96.9137 128.07 96.323 128.07 95.7324C128.07 95.1402 127.482 94.5496 126.895 94.5496H113.08C112.491 94.5496 111.904 95.1402 111.904 95.7324L111.904 122.926C111.904 123.517 112.491 124.107 113.08 124.107H120.28V132.089C117.195 132.679 114.842 135.34 114.842 138.74C114.842 142.434 117.782 145.39 121.457 145.39C125.131 145.39 128.07 142.434 128.07 138.74C128.07 135.489 125.718 132.679 122.632 132.089V122.926C122.632 122.334 122.044 121.743 121.457 121.743H114.255V117.457C129.393 117.162 138.651 116.867 138.799 116.867C143.648 116.718 147.91 115.684 151.291 114.059C154.23 112.581 156.581 110.659 158.493 108.295C162.607 102.975 162.312 96.9137 161.873 95.1402ZM81.187 130.464C81.187 132.828 79.2771 134.75 76.9262 134.75C74.5737 134.75 72.6638 132.828 72.6638 130.464C72.6638 128.098 74.5737 126.178 76.9262 126.178C79.2771 126.178 81.187 128.098 81.187 130.464ZM125.865 138.74C125.865 141.104 123.955 143.026 121.603 143.026C119.252 143.026 117.341 141.104 117.341 138.74C117.341 136.375 119.252 134.454 121.603 134.454C123.955 134.306 125.865 136.375 125.865 138.74Z" fill="white"/>
<path d="M105.144 127.657L104.996 90.4128C104.996 89.8206 104.409 89.23 103.821 89.23C103.232 89.23 102.645 89.8206 102.645 90.4128L102.791 127.657C99.706 128.247 97.3535 130.907 97.3535 134.307C97.3535 138.002 100.293 140.957 103.968 140.957C107.642 140.957 110.582 138.002 110.582 134.307C110.582 131.055 108.229 128.247 105.144 127.657ZM103.968 138.741C101.616 138.741 99.706 136.819 99.706 134.455C99.706 132.089 101.616 130.167 103.968 130.167C106.319 130.167 108.229 132.089 108.229 134.455C108.229 136.671 106.319 138.741 103.968 138.741Z" fill="white"/>
<mask id="mask10_696_2907" style="mask-type:luminance" maskUnits="userSpaceOnUse" x="83" y="94" width="15" height="59">
<path d="M83.5732 94.5093H97.3408V152.19H83.5732V94.5093Z" fill="white"/>
</mask>
<g mask="url(#mask10_696_2907)">
<path d="M91.6208 138.889V127.214H94.5602C95.1487 127.214 95.7357 126.622 95.7357 126.031V95.7341C95.7357 95.1419 95.1487 94.5513 94.5602 94.5513C93.9733 94.5513 93.3848 95.1419 93.3848 95.7341V124.848H90.4454C89.8569 124.848 89.2699 125.44 89.2699 126.031V138.889C86.183 139.479 83.832 142.14 83.832 145.54C83.832 149.234 86.7715 152.19 90.4454 152.19C94.1193 152.19 97.0587 149.234 97.0587 145.54C97.0587 142.14 94.7078 139.332 91.6208 138.889ZM90.4454 149.826C88.0944 149.826 86.037 147.904 86.037 145.392C86.037 143.028 87.9469 141.106 90.2978 141.106C92.6503 141.106 94.5602 143.028 94.5602 145.392C94.7078 147.904 92.7963 149.826 90.4454 149.826Z" fill="white"/>
</g>
<path d="M161.873 95.5739C160.255 88.4802 155.699 85.2286 152.173 83.6021C149.82 82.5677 147.617 82.1255 146.294 81.977C146.587 80.2036 146.882 76.6567 146.146 72.6661C144.823 64.9802 140.563 59.2177 133.654 55.8177C124.983 51.5318 117.636 52.8614 113.08 54.7833C109.699 56.113 107.347 58.0349 106.171 59.0693C105.143 57.8864 103.379 56.113 100.881 54.3396C95.8842 50.7927 90.4463 49.6099 85.156 50.7927C78.2476 52.4192 73.9868 56.4083 71.7818 59.513C70.0178 61.8771 69.1359 63.9458 68.6949 65.1286C66.6374 65.1286 61.6406 65.1286 56.0567 66.7552C51.9418 67.9364 48.2664 69.7099 45.327 71.9271C41.9481 74.8833 39.3021 78.5771 37.8317 83.0114C35.3332 90.8442 35.9217 98.3817 39.3021 104.441C42.6826 110.5 48.8549 114.64 57.0847 116.413C60.9061 117.299 65.462 117.743 75.7492 117.891V124.246C72.6638 124.836 70.3113 127.497 70.3113 130.896C70.3113 134.591 73.2508 137.547 76.9262 137.547C80.6001 137.547 83.5395 134.591 83.5395 130.896C83.5395 127.644 81.187 124.836 78.1017 124.246V112.866H85.4494C86.0379 112.866 86.6249 112.274 86.6249 111.683V94.5395C86.6249 93.9474 86.0379 93.3567 85.4494 93.3567H71.6343C71.0473 93.3567 70.4588 93.9474 70.4588 94.5395C70.4588 95.1302 71.0473 95.7223 71.6343 95.7223H84.274V110.649H76.9262C76.3377 110.649 75.7492 111.24 75.7492 111.83V115.674C65.7554 115.525 61.3471 115.082 57.6732 114.196C50.1779 112.569 44.5925 108.727 41.5071 103.258C38.2727 97.7911 37.8317 90.8442 40.0366 83.7505C42.3875 76.5083 47.9729 71.4833 56.7912 68.9708C63.552 67.0505 69.5769 67.4927 69.5769 67.4927C70.1654 67.4927 70.6063 67.1974 70.7523 66.6067C70.7523 66.4583 73.8392 55.8177 85.7429 53.1583C90.2988 52.1224 95.0022 53.1583 99.5581 56.4083C103.086 58.7739 105.143 61.5817 105.143 61.5817C105.289 61.8771 105.73 62.0255 106.025 62.0255C106.319 62.0255 106.76 61.8771 106.907 61.7302C106.907 61.7302 109.552 58.9208 113.962 57.0005C119.987 54.488 126.159 54.7833 132.626 57.8864C138.799 60.9911 142.62 66.0161 143.795 72.9614C144.677 78.2817 143.648 82.7161 143.648 82.7161C143.502 83.0114 143.648 83.4552 143.943 83.7505C144.089 84.0458 144.53 84.1942 144.823 84.1942C144.823 84.1942 147.763 84.1942 151.143 85.6723C155.553 87.5927 158.345 91.1395 159.521 96.0177C159.814 97.4958 160.109 102.521 156.581 107.249C153.055 111.979 147.028 114.491 138.651 114.786C138.505 114.786 129.246 115.23 114.255 115.379L114.255 97.3473H126.895C127.482 97.3473 128.07 96.7567 128.07 96.1645C128.07 95.5739 127.482 94.9833 126.895 94.9833H113.08C112.491 94.9833 111.904 95.5739 111.904 96.1645L111.904 123.358C111.904 123.95 112.491 124.541 113.08 124.541H120.28V132.522C117.195 133.113 114.842 135.774 114.842 139.172C114.842 142.868 117.782 145.822 121.457 145.822C125.131 145.822 128.07 142.868 128.07 139.172C128.07 135.921 125.718 133.113 122.632 132.522V123.358C122.632 122.768 122.044 122.177 121.457 122.177H114.255V117.891C129.393 117.594 138.651 117.299 138.799 117.299C143.648 117.152 147.91 116.116 151.291 114.491C154.23 113.013 156.581 111.093 158.493 108.727C162.607 103.407 162.312 97.3473 161.873 95.5739ZM81.187 130.896C81.187 133.261 79.2771 135.182 76.9262 135.182C74.5737 135.182 72.6638 133.261 72.6638 130.896C72.6638 128.532 74.5737 126.61 76.9262 126.61C79.2771 126.61 81.187 128.532 81.187 130.896ZM125.865 139.172C125.865 141.536 123.955 143.458 121.603 143.458C119.252 143.458 117.341 141.536 117.341 139.172C117.341 136.808 119.252 134.886 121.603 134.886C123.955 134.738 125.865 136.808 125.865 139.172Z" fill="white"/>
<path d="M105.144 128.088L104.996 90.8439C104.996 90.2533 104.409 89.6611 103.821 89.6611C103.232 89.6611 102.645 90.2533 102.645 90.8439L102.791 128.088C99.706 128.678 97.3535 131.339 97.3535 134.738C97.3535 138.433 100.293 141.389 103.968 141.389C107.642 141.389 110.582 138.433 110.582 134.738C110.582 131.488 108.229 128.678 105.144 128.088ZM103.968 139.172C101.616 139.172 99.706 137.25 99.706 134.886C99.706 132.522 101.616 130.6 103.968 130.6C106.319 130.6 108.229 132.522 108.229 134.886C108.229 137.103 106.319 139.172 103.968 139.172Z" fill="white"/>
<mask id="mask11_696_2907" style="mask-type:luminance" maskUnits="userSpaceOnUse" x="83" y="94" width="15" height="59">
<path d="M83.5732 94.9048H97.3408V152.621H83.5732V94.9048Z" fill="white"/>
</mask>
<g mask="url(#mask11_696_2907)">
<path d="M91.6208 139.321V127.644H94.5602C95.1487 127.644 95.7357 127.054 95.7357 126.463V96.1647C95.7357 95.574 95.1487 94.9834 94.5602 94.9834C93.9733 94.9834 93.3848 95.574 93.3848 96.1647V125.28H90.4454C89.8569 125.28 89.2699 125.871 89.2699 126.463V139.321C86.183 139.911 83.832 142.572 83.832 145.971C83.832 149.666 86.7715 152.621 90.4454 152.621C94.1193 152.621 97.0587 149.666 97.0587 145.971C97.0587 142.572 94.7078 139.763 91.6208 139.321ZM90.4454 150.257C88.0944 150.257 86.037 148.335 86.037 145.822C86.037 143.458 87.9469 141.536 90.2978 141.536C92.6503 141.536 94.5602 143.458 94.5602 145.822C94.7078 148.335 92.7963 150.257 90.4454 150.257Z" fill="white"/>
</g>
<path d="M162.168 94.7097C160.55 87.6159 155.994 84.3643 152.468 82.7378C150.115 81.7034 147.912 81.2597 146.589 81.1128C146.882 79.3394 147.177 75.7925 146.441 71.8019C145.118 64.1159 140.857 58.3534 133.949 54.9534C125.278 50.6675 117.931 51.9972 113.375 53.9191C109.994 55.2488 107.642 57.1706 106.466 58.205C105.438 57.0222 103.674 55.2488 101.176 53.4753C96.1791 49.9284 90.7412 48.7456 85.4509 49.9284C78.5425 51.555 74.2817 55.5441 72.0767 58.6487C70.3128 61.0128 69.4308 63.0816 68.9898 64.2644C66.9323 64.2644 61.9355 64.2644 56.3516 65.8894C52.2368 67.0722 48.5613 68.8456 45.6219 71.0628C42.243 74.019 39.5971 77.7128 38.1266 82.1472C35.6281 89.98 36.2166 97.5175 39.5971 103.577C42.9775 109.636 49.1498 113.775 57.3796 115.549C61.201 116.435 65.7569 116.878 76.0441 117.025V123.382C72.9587 123.972 70.6062 126.633 70.6062 130.032C70.6062 133.727 73.5457 136.683 77.2211 136.683C80.895 136.683 83.8344 133.727 83.8344 130.032C83.8344 126.78 81.482 123.972 78.3966 123.382V112.002H85.7444C86.3329 112.002 86.9198 111.41 86.9198 110.819V93.6753C86.9198 93.0831 86.3329 92.4925 85.7444 92.4925H71.9292C71.3423 92.4925 70.7538 93.0831 70.7538 93.6753C70.7538 94.2659 71.3423 94.8565 71.9292 94.8565H84.5689V109.785H77.2211C76.6326 109.785 76.0441 110.375 76.0441 110.966V114.81C66.0504 114.661 61.642 114.217 57.9681 113.332C50.4728 111.705 44.8874 107.863 41.802 102.394C38.5676 96.9268 38.1266 89.98 40.3315 82.8862C42.6825 75.644 48.2678 70.6191 57.0861 68.1066C63.8469 66.1862 69.8718 66.6284 69.8718 66.6284C70.4603 66.6284 70.9013 66.3331 71.0472 65.7425C71.0472 65.5941 74.1342 54.9534 86.0378 52.2925C90.5937 51.2581 95.2971 52.2925 99.853 55.5441C103.381 57.9097 105.438 60.7175 105.438 60.7175C105.584 61.0128 106.025 61.1612 106.32 61.1612C106.614 61.1612 107.055 61.0128 107.202 60.8659C107.202 60.8659 109.847 58.0566 114.257 56.1362C120.281 53.6237 126.454 53.9191 132.921 57.0222C139.093 60.1269 142.915 65.1519 144.09 72.0972C144.972 77.4175 143.943 81.8518 143.943 81.8518C143.797 82.1472 143.943 82.5909 144.238 82.8862C144.384 83.1815 144.825 83.33 145.118 83.33C145.118 83.33 148.058 83.33 151.438 84.8081C155.848 86.7284 158.64 90.2753 159.815 95.1534C160.109 96.6315 160.404 101.655 156.876 106.385C153.35 111.114 147.323 113.627 138.946 113.922C138.8 113.922 129.541 114.366 114.55 114.514L114.55 96.4831H127.19C127.777 96.4831 128.365 95.8925 128.365 95.3003C128.365 94.7097 127.777 94.119 127.19 94.119H113.375C112.786 94.119 112.199 94.7097 112.199 95.3003L112.199 122.494C112.199 123.086 112.786 123.677 113.375 123.677H120.575V131.658C117.49 132.249 115.137 134.908 115.137 138.308C115.137 142.003 118.077 144.958 121.752 144.958C125.426 144.958 128.365 142.003 128.365 138.308C128.365 135.056 126.013 132.249 122.927 131.658V122.494C122.927 121.903 122.339 121.313 121.752 121.313H114.55V117.025C129.688 116.73 138.946 116.435 139.093 116.435C143.943 116.288 148.205 115.252 151.586 113.627C154.525 112.149 156.876 110.227 158.787 107.863C162.902 102.542 162.607 96.4831 162.168 94.7097ZM81.482 130.032C81.482 132.397 79.572 134.317 77.2211 134.317C74.8686 134.317 72.9587 132.397 72.9587 130.032C72.9587 127.667 74.8686 125.746 77.2211 125.746C79.572 125.746 81.482 127.667 81.482 130.032ZM126.16 138.308C126.16 140.672 124.25 142.594 121.898 142.594C119.547 142.594 117.636 140.672 117.636 138.308C117.636 135.944 119.547 134.022 121.898 134.022C124.25 133.874 126.16 135.944 126.16 138.308Z" fill="white"/>
<path d="M105.438 127.223L105.29 89.9797C105.29 89.3891 104.703 88.7969 104.115 88.7969C103.526 88.7969 102.939 89.3891 102.939 89.9797L103.085 127.223C99.9999 127.814 97.6475 130.475 97.6475 133.873C97.6475 137.569 100.587 140.525 104.262 140.525C107.936 140.525 110.876 137.569 110.876 133.873C110.876 130.622 108.523 127.814 105.438 127.223ZM104.262 138.308C101.91 138.308 99.9999 136.386 99.9999 134.022C99.9999 131.658 101.91 129.736 104.262 129.736C106.613 129.736 108.523 131.658 108.523 134.022C108.523 136.239 106.613 138.308 104.262 138.308Z" fill="white"/>
<mask id="mask12_696_2907" style="mask-type:luminance" maskUnits="userSpaceOnUse" x="83" y="94" width="15" height="58">
<path d="M83.9668 94.1113H97.7343V151.755H83.9668V94.1113Z" fill="white"/>
</mask>
<g mask="url(#mask12_696_2907)">
<path d="M91.9167 138.455V126.779H94.8561C95.4446 126.779 96.0316 126.188 96.0316 125.597V95.2989C96.0316 94.7083 95.4446 94.1177 94.8561 94.1177C94.2692 94.1177 93.6807 94.7083 93.6807 95.2989V124.415H90.7413C90.1528 124.415 89.5658 125.005 89.5658 125.597V138.455C86.4789 139.046 84.1279 141.705 84.1279 145.105C84.1279 148.8 87.0674 151.755 90.7413 151.755C94.4152 151.755 97.3546 148.8 97.3546 145.105C97.3546 141.705 95.0037 138.897 91.9167 138.455ZM90.7413 149.391C88.3903 149.391 86.3329 147.469 86.3329 144.957C86.3329 142.593 88.2428 140.671 90.5937 140.671C92.9462 140.671 94.8561 142.593 94.8561 144.957C95.0037 147.469 93.0922 149.391 90.7413 149.391Z" fill="white"/>
</g>
<path d="M161.578 95.5739C159.96 88.4802 155.404 85.2286 151.878 83.6021C149.525 82.5677 147.322 82.1255 145.999 81.977C146.292 80.2036 146.587 76.6567 145.851 72.6661C144.528 64.9802 140.268 59.2177 133.359 55.8177C124.689 51.5318 117.341 52.8614 112.785 54.7833C109.404 56.113 107.052 58.0349 105.876 59.0693C104.849 57.8864 103.085 56.113 100.586 54.3396C95.5893 50.7927 90.1514 49.6099 84.861 50.7927C77.9527 52.4192 73.6918 56.4083 71.4869 59.513C69.7229 61.8771 68.8409 63.9458 68.3999 65.1286C66.3425 65.1286 61.3456 65.1286 55.7618 66.7552C51.6469 67.9364 47.9715 69.7099 45.032 71.9271C41.6532 74.8833 39.0072 78.5771 37.5367 83.0114C35.0383 90.8442 35.6268 98.3817 39.0072 104.441C42.3876 110.5 48.56 114.64 56.7898 116.413C60.6112 117.299 65.167 117.743 75.4543 117.891V124.246C72.3689 124.836 70.0164 127.497 70.0164 130.896C70.0164 134.591 72.9558 137.547 76.6313 137.547C80.3052 137.547 83.2446 134.591 83.2446 130.896C83.2446 127.644 80.8921 124.836 77.8067 124.246V112.866H85.1545C85.743 112.866 86.33 112.274 86.33 111.683V94.5395C86.33 93.9474 85.743 93.3567 85.1545 93.3567H71.3394C70.7524 93.3567 70.1639 93.9474 70.1639 94.5395C70.1639 95.1302 70.7524 95.7223 71.3394 95.7223H83.9791V110.649H76.6313C76.0428 110.649 75.4543 111.24 75.4543 111.83V115.674C65.4605 115.525 61.0521 115.082 57.3783 114.196C49.8829 112.569 44.2976 108.727 41.2122 103.258C37.9777 97.7911 37.5367 90.8442 39.7417 83.7505C42.0926 76.5083 47.678 71.4833 56.4963 68.9708C63.2571 67.0505 69.2819 67.4927 69.2819 67.4927C69.8704 67.4927 70.3114 67.1974 70.4574 66.6067C70.4574 66.4583 73.5443 55.8177 85.448 53.1583C90.0039 52.1224 94.7073 53.1583 99.2632 56.4083C102.791 58.7739 104.849 61.5817 104.849 61.5817C104.994 61.8771 105.435 62.0255 105.731 62.0255C106.024 62.0255 106.465 61.8771 106.612 61.7302C106.612 61.7302 109.257 58.9208 113.667 57.0005C119.692 54.488 125.864 54.7833 132.331 57.8864C138.504 60.9911 142.325 66.0161 143.501 72.9614C144.382 78.2817 143.353 82.7161 143.353 82.7161C143.207 83.0114 143.353 83.4552 143.648 83.7505C143.794 84.0458 144.235 84.1942 144.528 84.1942C144.528 84.1942 147.468 84.1942 150.848 85.6723C155.258 87.5927 158.05 91.1395 159.226 96.0177C159.519 97.4958 159.814 102.521 156.286 107.249C152.76 111.979 146.733 114.491 138.356 114.786C138.21 114.786 128.951 115.23 113.96 115.379L113.96 97.3473H126.6C127.187 97.3473 127.775 96.7567 127.775 96.1645C127.775 95.5739 127.187 94.9833 126.6 94.9833H112.785C112.196 94.9833 111.609 95.5739 111.609 96.1645L111.609 123.358C111.609 123.95 112.196 124.541 112.785 124.541H119.985V132.522C116.9 133.113 114.547 135.774 114.547 139.172C114.547 142.868 117.487 145.822 121.162 145.822C124.836 145.822 127.775 142.868 127.775 139.172C127.775 135.921 125.423 133.113 122.338 132.522V123.358C122.338 122.768 121.749 122.177 121.162 122.177H113.96V117.891C129.098 117.594 138.356 117.299 138.504 117.299C143.353 117.152 147.615 116.116 150.996 114.491C153.935 113.013 156.286 111.093 158.198 108.727C162.313 103.407 162.018 97.3473 161.578 95.5739ZM80.8921 130.896C80.8921 133.261 78.9822 135.182 76.6313 135.182C74.2788 135.182 72.3689 133.261 72.3689 130.896C72.3689 128.532 74.2788 126.61 76.6313 126.61C78.9822 126.61 80.8921 128.532 80.8921 130.896ZM125.57 139.172C125.57 141.536 123.661 143.458 121.308 143.458C118.957 143.458 117.046 141.536 117.046 139.172C117.046 136.808 118.957 134.886 121.308 134.886C123.661 134.738 125.57 136.808 125.57 139.172Z" fill="white"/>
<path d="M104.848 128.088L104.7 90.8439C104.7 90.2533 104.113 89.6611 103.525 89.6611C102.936 89.6611 102.35 90.2533 102.35 90.8439L102.495 128.088C99.4101 128.678 97.0576 131.339 97.0576 134.738C97.0576 138.433 99.997 141.389 103.672 141.389C107.346 141.389 110.286 138.433 110.286 134.738C110.286 131.488 107.933 128.678 104.848 128.088ZM103.672 139.172C101.32 139.172 99.4101 137.25 99.4101 134.886C99.4101 132.522 101.32 130.6 103.672 130.6C106.023 130.6 107.933 132.522 107.933 134.886C107.933 137.103 106.023 139.172 103.672 139.172Z" fill="white"/>
<mask id="mask13_696_2907" style="mask-type:luminance" maskUnits="userSpaceOnUse" x="83" y="94" width="14" height="59">
<path d="M83.1797 94.9048H96.9472V152.621H83.1797V94.9048Z" fill="white"/>
</mask>
<g mask="url(#mask13_696_2907)">
<path d="M91.3269 139.321V127.644H94.2663C94.8548 127.644 95.4418 127.054 95.4418 126.463V96.1647C95.4418 95.574 94.8548 94.9834 94.2663 94.9834C93.6793 94.9834 93.0908 95.574 93.0908 96.1647V125.28H90.1514C89.5629 125.28 88.9759 125.871 88.9759 126.463V139.321C85.889 139.911 83.5381 142.572 83.5381 145.971C83.5381 149.666 86.4775 152.621 90.1514 152.621C93.8253 152.621 96.7647 149.666 96.7647 145.971C96.7647 142.572 94.4138 139.763 91.3269 139.321ZM90.1514 150.257C87.8005 150.257 85.743 148.335 85.743 145.822C85.743 143.458 87.653 141.536 90.0039 141.536C92.3564 141.536 94.2663 143.458 94.2663 145.822C94.4138 148.335 92.5023 150.257 90.1514 150.257Z" fill="white"/>
</g>
</svg>
