<svg width="200" height="200" viewBox="0 0 200 200" fill="none" xmlns="http://www.w3.org/2000/svg">
<mask id="mask0_812_2789" style="mask-type:luminance" maskUnits="userSpaceOnUse" x="0" y="0" width="200" height="200">
<path d="M0 0H200V200H0V0Z" fill="white"/>
</mask>
<g mask="url(#mask0_812_2789)">
<path d="M200 100C200 101.635 199.958 103.271 199.88 104.906C199.797 106.542 199.677 108.172 199.516 109.802C199.354 111.432 199.156 113.057 198.917 114.672C198.677 116.292 198.396 117.906 198.078 119.51C197.755 121.115 197.401 122.714 197 124.297C196.604 125.885 196.167 127.464 195.693 129.031C195.219 130.594 194.703 132.151 194.151 133.688C193.599 135.229 193.01 136.755 192.385 138.271C191.76 139.781 191.099 141.276 190.396 142.755C189.698 144.234 188.964 145.698 188.193 147.141C187.417 148.583 186.615 150.005 185.771 151.411C184.932 152.813 184.052 154.198 183.146 155.557C182.234 156.917 181.292 158.255 180.318 159.573C179.344 160.885 178.339 162.177 177.302 163.443C176.26 164.703 175.193 165.943 174.094 167.156C172.995 168.37 171.865 169.552 170.708 170.714C169.552 171.87 168.365 172.995 167.156 174.094C165.943 175.193 164.703 176.266 163.438 177.302C162.172 178.339 160.885 179.349 159.568 180.323C158.255 181.297 156.917 182.24 155.557 183.146C154.193 184.057 152.813 184.932 151.406 185.776C150.005 186.615 148.583 187.422 147.141 188.193C145.693 188.964 144.234 189.698 142.755 190.401C141.276 191.099 139.781 191.76 138.266 192.391C136.755 193.016 135.229 193.604 133.688 194.156C132.146 194.708 130.594 195.219 129.026 195.693C127.458 196.172 125.885 196.604 124.297 197.005C122.708 197.401 121.115 197.76 119.505 198.078C117.901 198.401 116.292 198.677 114.672 198.917C113.052 199.156 111.427 199.359 109.802 199.521C108.172 199.682 106.542 199.802 104.906 199.88C103.271 199.958 101.635 200 100 200C98.3594 200 96.724 199.958 95.0938 199.88C93.4583 199.802 91.8229 199.682 90.1979 199.521C88.5677 199.359 86.9427 199.156 85.3229 198.917C83.7083 198.677 82.0938 198.401 80.4896 198.078C78.8854 197.76 77.2865 197.401 75.6979 197.005C74.1146 196.604 72.5365 196.172 70.9688 195.693C69.4062 195.219 67.849 194.708 66.3073 194.156C64.7708 193.604 63.2396 193.016 61.7292 192.391C60.2188 191.76 58.724 191.099 57.2448 190.401C55.7656 189.698 54.3021 188.964 52.8594 188.193C51.4167 187.422 49.9896 186.615 48.5885 185.776C47.1823 184.932 45.8021 184.057 44.4427 183.146C43.0781 182.24 41.7448 181.297 40.4271 180.323C39.1146 179.349 37.8229 178.339 36.5573 177.302C35.2917 176.266 34.0573 175.193 32.8438 174.094C31.6302 172.995 30.4427 171.87 29.2865 170.714C28.1302 169.552 27 168.37 25.901 167.156C24.8021 165.943 23.7344 164.703 22.6979 163.443C21.6615 162.177 20.651 160.885 19.6771 159.573C18.7031 158.255 17.7604 156.917 16.849 155.557C15.9427 154.198 15.0677 152.813 14.224 151.411C13.3854 150.005 12.5781 148.583 11.8073 147.141C11.0365 145.698 10.2969 144.234 9.59896 142.755C8.90104 141.276 8.23438 139.781 7.60938 138.271C6.98438 136.755 6.39583 135.229 5.84375 133.688C5.29167 132.151 4.78125 130.594 4.30208 129.031C3.82813 127.464 3.39062 125.885 2.99479 124.297C2.59896 122.714 2.23958 121.115 1.92188 119.51C1.59896 117.906 1.32292 116.292 1.08333 114.672C0.838541 113.057 0.640624 111.432 0.479167 109.802C0.317708 108.172 0.197916 106.542 0.119792 104.906C0.0364583 103.271 0 101.635 0 100C0 98.3646 0.0364583 96.7292 0.119792 95.0938C0.197916 93.4583 0.317708 91.8281 0.479167 90.1979C0.640624 88.5729 0.838541 86.9479 1.08333 85.3281C1.32292 83.7083 1.59896 82.099 1.92188 80.4896C2.23958 78.8854 2.59896 77.2917 2.99479 75.7031C3.39062 74.1146 3.82813 72.5365 4.30208 70.974C4.78125 69.4063 5.29167 67.8542 5.84375 66.3125C6.39583 64.7708 6.98438 63.2448 7.60938 61.7344C8.23438 60.2187 8.90104 58.724 9.59896 57.2448C10.2969 55.7656 11.0365 54.3021 11.8073 52.8594C12.5781 51.4167 13.3854 49.9948 14.224 48.5885C15.0677 47.1875 15.9427 45.8021 16.849 44.4427C17.7604 43.0833 18.7031 41.7448 19.6771 40.4323C20.651 39.1146 21.6615 37.8281 22.6979 36.5625C23.7344 35.2969 24.8021 34.0573 25.901 32.8438C27 31.6302 28.1302 30.4479 29.2865 29.2917C30.4427 28.1354 31.6302 27.0052 32.8438 25.9062C34.0573 24.8073 35.2917 23.7396 36.5573 22.6979C37.8229 21.6615 39.1146 20.6563 40.4271 19.6823C41.7448 18.7031 43.0781 17.7656 44.4427 16.8542C45.8021 15.9427 47.1823 15.0677 48.5885 14.2292C49.9896 13.3854 51.4167 12.5781 52.8594 11.8073C54.3021 11.0365 55.7656 10.3021 57.2448 9.60417C58.724 8.90104 60.2188 8.23958 61.7292 7.61458C63.2396 6.98438 64.7708 6.39583 66.3073 5.84896C67.849 5.29688 69.4062 4.78125 70.9688 4.30729C72.5365 3.83333 74.1146 3.39583 75.6979 3C77.2865 2.59896 78.8854 2.23958 80.4896 1.92188C82.0938 1.60417 83.7083 1.32292 85.3229 1.08333C86.9427 0.843751 88.5677 0.640624 90.1979 0.484375C91.8229 0.322916 93.4583 0.203125 95.0938 0.119792C96.724 0.0416663 98.3594 0 100 0C101.635 0 103.271 0.0416663 104.906 0.119792C106.542 0.203125 108.172 0.322916 109.802 0.484375C111.427 0.640624 113.052 0.843751 114.672 1.08333C116.292 1.32292 117.901 1.60417 119.505 1.92188C121.115 2.23958 122.708 2.59896 124.297 3C125.885 3.39583 127.458 3.83333 129.026 4.30729C130.594 4.78125 132.146 5.29688 133.688 5.84896C135.229 6.39583 136.755 6.98438 138.266 7.61458C139.781 8.23958 141.276 8.90104 142.755 9.60417C144.234 10.3021 145.693 11.0365 147.141 11.8073C148.583 12.5781 150.005 13.3854 151.406 14.2292C152.813 15.0677 154.193 15.9427 155.557 16.8542C156.917 17.7656 158.255 18.7031 159.568 19.6823C160.885 20.6563 162.172 21.6615 163.438 22.6979C164.703 23.7396 165.943 24.8073 167.156 25.9062C168.365 27.0052 169.552 28.1354 170.708 29.2917C171.865 30.4479 172.995 31.6302 174.094 32.8438C175.193 34.0573 176.26 35.2969 177.302 36.5625C178.339 37.8281 179.344 39.1146 180.318 40.4323C181.292 41.7448 182.234 43.0833 183.146 44.4427C184.052 45.8021 184.932 47.1875 185.771 48.5885C186.615 49.9948 187.417 51.4167 188.193 52.8594C188.964 54.3021 189.698 55.7656 190.396 57.2448C191.099 58.724 191.76 60.2187 192.385 61.7344C193.01 63.2448 193.599 64.7708 194.151 66.3125C194.703 67.8542 195.219 69.4063 195.693 70.974C196.167 72.5365 196.604 74.1146 197 75.7031C197.401 77.2917 197.755 78.8854 198.078 80.4896C198.396 82.099 198.677 83.7083 198.917 85.3281C199.156 86.9479 199.354 88.5729 199.516 90.1979C199.677 91.8281 199.797 93.4583 199.88 95.0938C199.958 96.7292 200 98.3646 200 100Z" fill="#004AAD"/>
</g>
<path d="M104.345 31.787C102.817 31.4722 101.344 31 99.8166 31C98.2957 31 96.768 31.4722 95.295 31.787C59.4652 34.155 31 63.9596 31 100.327C31 138.221 61.8835 169.08 99.8166 169.08C137.756 169.08 168.64 138.221 168.64 100.327C168.64 63.9596 140.175 34.155 104.345 31.787ZM94.6099 41.4641C94.7675 41.4641 94.9251 41.4094 95.0827 41.4094V70.3175C87.9783 69.9479 81.196 68.9487 74.9823 67.2173C79.4559 53.9677 86.5602 44.407 94.6099 41.4641ZM124.603 67.2173C118.389 68.9487 111.607 69.9479 104.503 70.3175V41.4094C104.66 41.4094 104.818 41.4641 104.975 41.4641C113.025 44.407 120.129 53.9677 124.603 67.2173ZM95.0827 122.98C87.3481 123.295 80.0382 124.349 73.3039 126.135C71.6186 119.62 70.5635 112.523 70.2004 105.009H95.0827V122.98ZM95.0827 132.336V158.144C87.4577 155.625 80.7233 147.105 76.1401 135.176C82.0387 133.602 88.4031 132.705 95.0827 132.336ZM104.503 132.336C111.182 132.651 117.553 133.602 123.445 135.176C118.869 147.159 112.134 155.625 104.503 158.144V132.336ZM104.503 122.98V105.009H129.392C129.022 112.523 127.967 119.62 126.281 126.135C119.547 124.349 112.237 123.295 104.503 122.98ZM104.503 95.6531V79.7277C112.552 79.3581 120.184 78.2563 127.124 76.3605C128.494 82.3557 129.234 88.9257 129.44 95.701H104.503V95.6531ZM95.0827 79.7277V95.6531H70.1456C70.406 88.871 71.1459 82.3557 72.4612 76.3058C79.4559 78.2563 87.0329 79.3581 95.0827 79.7277ZM60.7806 95.6531H40.8378C41.6804 84.9837 45.099 75.0465 50.888 66.745C54.6765 69.2156 58.8829 71.3646 63.514 73.2056C61.8835 80.0904 61.0409 87.7144 60.7806 95.6531ZM60.8354 105.009C61.1985 113.625 62.3562 121.776 64.3019 129.133C59.8351 130.864 55.6767 132.917 51.943 135.231C45.6265 126.608 41.6804 116.253 40.783 105.009H60.8354ZM67.0902 138.276C69.5154 144.689 72.6736 150.157 76.1949 154.783C69.4606 151.841 63.3565 147.741 58.2046 142.643C60.9381 141.007 63.884 139.535 67.0902 138.276ZM132.495 138.276C135.701 139.59 138.647 141.007 141.387 142.643C136.229 147.741 130.125 151.841 123.39 154.783C126.918 150.157 130.07 144.689 132.495 138.276ZM135.283 129.181C137.229 121.776 138.387 113.68 138.757 105.056H158.747C157.85 116.308 153.959 126.662 147.594 135.279C143.909 132.917 139.757 130.919 135.283 129.181ZM138.805 95.6531C138.544 87.7144 137.702 80.1451 136.071 73.2056C140.702 71.3646 144.909 69.2156 148.697 66.745C154.431 75.1013 157.905 84.9837 158.747 95.6531H138.805ZM142.648 59.3332C139.805 61.1195 136.756 62.6935 133.386 64.0623C131.07 57.3348 128.124 51.4492 124.651 46.508C131.44 49.7109 137.489 54.0225 142.648 59.3332ZM74.9344 46.5627C71.461 51.4971 68.5151 57.3348 66.1996 64.117C62.829 62.6935 59.7803 61.1195 56.9372 59.3811C62.0411 54.0225 68.1452 49.7109 74.9344 46.5627Z" fill="#F2F2F2"/>
</svg>
