<svg width="200" height="200" viewBox="0 0 200 200" fill="none" xmlns="http://www.w3.org/2000/svg">
<circle cx="100" cy="100" r="100" fill="#0E5FB1"/>
<path d="M162.463 93.2248C160.845 86.131 156.289 82.8795 152.763 81.2529C150.41 80.2186 148.207 79.7748 146.884 79.6279C147.177 77.8545 147.472 74.3076 146.736 70.317C145.413 62.6311 141.152 56.867 134.244 53.4686C125.573 49.1826 118.225 50.5123 113.67 52.4342C110.289 53.7639 107.937 55.6858 106.761 56.7201C105.733 55.5373 103.969 53.7639 101.471 51.9905C96.474 48.4436 91.0362 47.2608 85.7458 48.4436C78.8375 50.0686 74.5766 54.0592 72.3716 57.1639C70.6077 59.5279 69.7257 61.5967 69.2847 62.7795C67.2273 62.7795 62.2304 62.7795 56.6466 64.4045C52.5317 65.5873 48.8562 67.3608 45.9168 69.5779C42.5379 72.5342 39.892 76.2279 38.4215 80.6623C35.9231 88.4951 36.5116 96.0326 39.892 102.092C43.2724 108.151 49.4447 112.29 57.6745 114.064C61.4959 114.95 66.0518 115.394 76.339 115.54V121.897C73.2536 122.487 70.9012 125.148 70.9012 128.547C70.9012 132.242 73.8406 135.197 77.516 135.197C81.1899 135.197 84.1294 132.242 84.1294 128.547C84.1294 125.295 81.7769 122.487 78.6915 121.897V110.515H86.0393C86.6278 110.515 87.2148 109.925 87.2148 109.334V92.1904C87.2148 91.5982 86.6278 91.0076 86.0393 91.0076H72.2241C71.6372 91.0076 71.0487 91.5982 71.0487 92.1904C71.0487 92.781 71.6372 93.3717 72.2241 93.3717H84.8638V108.3H77.516C76.9275 108.3 76.339 108.89 76.339 109.481V113.325C66.3453 113.176 61.9369 112.733 58.263 111.847C50.7677 110.22 45.1823 106.378 42.0969 100.909C38.8625 95.442 38.4215 88.4951 40.6265 81.4014C42.9774 74.1592 48.5628 69.1342 57.381 66.6217C64.1419 64.7014 70.1667 65.1436 70.1667 65.1436C70.7552 65.1436 71.1962 64.8483 71.3422 64.2576C71.3422 64.1092 74.4291 53.4686 86.3328 50.8076C90.8887 49.7733 95.592 50.8076 100.148 54.0592C103.676 56.4248 105.733 59.2326 105.733 59.2326C105.879 59.5279 106.32 59.6764 106.615 59.6764C106.909 59.6764 107.35 59.5279 107.497 59.3795C107.497 59.3795 110.142 56.5717 114.552 54.6514C120.576 52.1389 126.749 52.4342 133.216 55.5373C139.388 58.642 143.21 63.6654 144.385 70.6123C145.267 75.9326 144.238 80.367 144.238 80.367C144.092 80.6623 144.238 81.106 144.533 81.4014C144.679 81.6967 145.12 81.8451 145.413 81.8451C145.413 81.8451 148.353 81.8451 151.733 83.3232C156.143 85.2435 158.935 88.7904 160.11 93.6685C160.404 95.1451 160.699 100.17 157.171 104.9C153.645 109.629 147.618 112.142 139.241 112.437C139.095 112.437 129.836 112.881 114.845 113.028V94.9982H127.485C128.072 94.9982 128.66 94.4076 128.66 93.8154C128.66 93.2248 128.072 92.6326 127.485 92.6326H113.67C113.081 92.6326 112.494 93.2248 112.494 93.8154V121.009C112.494 121.601 113.081 122.192 113.67 122.192H120.87V130.173C117.784 130.764 115.432 133.423 115.432 136.823C115.432 140.518 118.371 143.473 122.047 143.473C125.721 143.473 128.66 140.518 128.66 136.823C128.66 133.572 126.308 130.764 123.222 130.173V121.009C123.222 120.419 122.634 119.826 122.047 119.826H114.845V115.54C129.983 115.245 139.241 114.95 139.388 114.95C144.238 114.803 148.5 113.767 151.881 112.142C154.82 110.664 157.171 108.742 159.082 106.378C163.197 101.058 162.902 94.9982 162.463 93.2248ZM81.7769 128.547C81.7769 130.911 79.867 132.833 77.516 132.833C75.1636 132.833 73.2536 130.911 73.2536 128.547C73.2536 126.183 75.1636 124.261 77.516 124.261C79.867 124.261 81.7769 126.183 81.7769 128.547ZM126.455 136.823C126.455 139.187 124.545 141.109 122.193 141.109C119.842 141.109 117.93 139.187 117.93 136.823C117.93 134.459 119.842 132.537 122.193 132.537C124.545 132.389 126.455 134.459 126.455 136.823Z" fill="white"/>
<path d="M105.734 125.738L105.586 88.4943C105.586 87.9037 104.999 87.3115 104.411 87.3115C103.822 87.3115 103.235 87.9037 103.235 88.4943L103.381 125.738C100.296 126.329 97.9434 128.99 97.9434 132.388C97.9434 136.083 100.883 139.04 104.558 139.04C108.232 139.04 111.172 136.083 111.172 132.388C111.172 129.136 108.819 126.329 105.734 125.738ZM104.558 136.822C102.206 136.822 100.296 134.901 100.296 132.536C100.296 130.172 102.206 128.251 104.558 128.251C106.909 128.251 108.819 130.172 108.819 132.536C108.819 134.754 106.909 136.822 104.558 136.822Z" fill="white"/>
<mask id="mask0_696_2907" style="mask-type:luminance" maskUnits="userSpaceOnUse" x="84" y="92" width="14" height="59">
<path d="M84.3604 92.3057H97.7345V150.272H84.3604V92.3057Z" fill="white"/>
</mask>
<g mask="url(#mask0_696_2907)">
<path d="M92.2126 136.972V125.295H95.152C95.7405 125.295 96.3275 124.705 96.3275 124.112V93.8156C96.3275 93.225 95.7405 92.6328 95.152 92.6328C94.5651 92.6328 93.9766 93.225 93.9766 93.8156V122.931H91.0372C90.4487 122.931 89.8617 123.522 89.8617 124.112V136.972C86.7748 137.562 84.4238 140.222 84.4238 143.622C84.4238 147.317 87.3633 150.272 91.0372 150.272C94.7111 150.272 97.6505 147.317 97.6505 143.622C97.6505 140.222 95.2996 137.414 92.2126 136.972ZM91.0372 147.908C88.6862 147.908 86.6288 145.986 86.6288 143.473C86.6288 141.109 88.5387 139.187 90.8896 139.187C93.2421 139.187 95.152 141.109 95.152 143.473C95.2996 145.986 93.3881 147.908 91.0372 147.908Z" fill="white"/>
</g>
<path d="M162.463 93.6559C160.845 86.5621 156.289 83.3106 152.763 81.6855C150.41 80.6512 148.207 80.2074 146.884 80.059C147.177 78.2856 147.472 74.7387 146.736 70.7481C145.413 63.0637 141.152 57.2996 134.244 53.9012C125.573 49.6153 118.225 50.9449 113.67 52.8653C110.289 54.1965 107.937 56.1168 106.761 57.1512C105.733 55.9699 103.969 54.1965 101.471 52.4231C96.474 48.8762 91.0362 47.6934 85.7458 48.8762C78.8375 50.5012 74.5766 54.4918 72.3716 57.5949C70.6077 59.9606 69.7257 62.0293 69.2847 63.2106C67.2273 63.2106 62.2304 63.2106 56.6466 64.8371C52.5317 66.0199 48.8562 67.7934 45.9168 70.009C42.5379 72.9652 39.892 76.6606 38.4215 81.0934C35.9231 88.9277 36.5116 96.4652 39.892 102.525C43.2724 108.584 49.4447 112.721 57.6745 114.495C61.4959 115.382 66.0518 115.825 76.339 115.973V122.328C73.2536 122.92 70.9012 125.579 70.9012 128.979C70.9012 132.673 73.8406 135.629 77.516 135.629C81.1899 135.629 84.1294 132.673 84.1294 128.979C84.1294 125.728 81.7769 122.92 78.6915 122.328V110.948H86.0393C86.6278 110.948 87.2148 110.357 87.2148 109.765V92.6215C87.2148 92.0309 86.6278 91.4402 86.0393 91.4402H72.2241C71.6372 91.4402 71.0487 92.0309 71.0487 92.6215C71.0487 93.2137 71.6372 93.8043 72.2241 93.8043H84.8638V108.731H77.516C76.9275 108.731 76.339 109.323 76.339 109.914V113.756C66.3453 113.609 61.9369 113.165 58.263 112.278C50.7677 110.653 45.1823 106.811 42.0969 101.342C38.8625 95.873 38.4215 88.9277 40.6265 81.8324C42.9774 74.5918 48.5628 69.5668 57.381 67.0543C64.1419 65.1324 70.1667 65.5762 70.1667 65.5762C70.7552 65.5762 71.1962 65.2809 71.3422 64.6887C71.3422 64.5418 74.4291 53.9012 86.3328 51.2403C90.8887 50.2059 95.592 51.2403 100.148 54.4918C103.676 56.8559 105.733 59.6637 105.733 59.6637C105.879 59.9606 106.32 60.1074 106.615 60.1074C106.909 60.1074 107.35 59.9606 107.497 59.8121C107.497 59.8121 110.142 57.0043 114.552 55.0824C120.576 52.57 126.749 52.8653 133.216 55.9699C139.388 59.0731 143.21 64.0981 144.385 71.0449C145.267 76.3652 144.238 80.7981 144.238 80.7981C144.092 81.0934 144.238 81.5371 144.533 81.8324C144.679 82.1293 145.12 82.2762 145.413 82.2762C145.413 82.2762 148.353 82.2762 151.733 83.7543C156.143 85.6762 158.935 89.223 160.11 94.0996C160.404 95.5777 160.699 100.603 157.171 105.332C153.645 110.062 147.618 112.573 139.241 112.87C139.095 112.87 129.836 113.312 114.845 113.461V95.4293H127.485C128.072 95.4293 128.66 94.8387 128.66 94.248C128.66 93.6559 128.072 93.0652 127.485 93.0652H113.67C113.081 93.0652 112.494 93.6559 112.494 94.248V121.442C112.494 122.032 113.081 122.623 113.67 122.623H120.87V130.604C117.784 131.195 115.432 133.856 115.432 137.254C115.432 140.95 118.371 143.906 122.047 143.906C125.721 143.906 128.66 140.95 128.66 137.254C128.66 134.004 126.308 131.195 123.222 130.604V121.442C123.222 120.85 122.634 120.259 122.047 120.259H114.845V115.973C129.983 115.678 139.241 115.382 139.388 115.382C144.238 115.234 148.5 114.2 151.881 112.573C154.82 111.096 157.171 109.175 159.082 106.811C163.197 101.489 162.902 95.4293 162.463 93.6559ZM81.7769 128.979C81.7769 131.343 79.867 133.265 77.516 133.265C75.1636 133.265 73.2536 131.343 73.2536 128.979C73.2536 126.614 75.1636 124.693 77.516 124.693C79.867 124.693 81.7769 126.614 81.7769 128.979ZM126.455 137.254C126.455 139.62 124.545 141.542 122.193 141.542C119.842 141.542 117.93 139.62 117.93 137.254C117.93 134.89 119.842 132.968 122.193 132.968C124.545 132.821 126.455 134.89 126.455 137.254Z" fill="white"/>
<path d="M105.734 126.17L105.586 88.9279C105.586 88.3357 104.999 87.7451 104.411 87.7451C103.822 87.7451 103.235 88.3357 103.235 88.9279L103.381 126.17C100.296 126.762 97.9434 129.422 97.9434 132.822C97.9434 136.517 100.883 139.472 104.558 139.472C108.232 139.472 111.172 136.517 111.172 132.822C111.172 129.57 108.819 126.762 105.734 126.17ZM104.558 137.254C102.206 137.254 100.296 135.334 100.296 132.969C100.296 130.604 102.206 128.683 104.558 128.683C106.909 128.683 108.819 130.604 108.819 132.969C108.819 135.186 106.909 137.254 104.558 137.254Z" fill="white"/>
<mask id="mask1_696_2907" style="mask-type:luminance" maskUnits="userSpaceOnUse" x="84" y="92" width="14" height="59">
<path d="M84.3604 92.7002H97.7345V150.704H84.3604V92.7002Z" fill="white"/>
</mask>
<g mask="url(#mask1_696_2907)">
<path d="M92.2126 137.402V125.727H95.152C95.7405 125.727 96.3275 125.135 96.3275 124.544V94.2473C96.3275 93.6551 95.7405 93.0645 95.152 93.0645C94.5651 93.0645 93.9766 93.6551 93.9766 94.2473V123.361H91.0372C90.4487 123.361 89.8617 123.953 89.8617 124.544V137.402C86.7748 137.993 84.4238 140.653 84.4238 144.052C84.4238 147.747 87.3633 150.703 91.0372 150.703C94.7111 150.703 97.6505 147.747 97.6505 144.052C97.6505 140.653 95.2996 137.846 92.2126 137.402ZM91.0372 148.338C88.6862 148.338 86.6288 146.418 86.6288 143.905C86.6288 141.541 88.5387 139.619 90.8896 139.619C93.2421 139.619 95.152 141.541 95.152 143.905C95.2996 146.418 93.3881 148.338 91.0372 148.338Z" fill="white"/>
</g>
<path d="M162.463 94.089C160.845 86.9953 156.289 83.7437 152.763 82.1172C150.41 81.0828 148.207 80.6391 146.884 80.4922C147.177 78.7187 147.472 75.1719 146.736 71.1813C145.413 63.4953 141.152 57.7328 134.244 54.3328C125.573 50.0469 118.225 51.3766 113.67 53.2985C110.289 54.6281 107.937 56.55 106.761 57.5844C105.733 56.4016 103.969 54.6281 101.471 52.8547C96.474 49.3078 91.0362 48.125 85.7458 49.3078C78.8375 50.9344 74.5766 54.9235 72.3716 58.0281C70.6077 60.3922 69.7257 62.461 69.2847 63.6438C67.2273 63.6438 62.2304 63.6438 56.6466 65.2688C52.5317 66.4516 48.8562 68.225 45.9168 70.4422C42.5379 73.3984 39.892 77.0922 38.4215 81.5266C35.9231 89.3594 36.5116 96.8969 39.892 102.956C43.2724 109.016 49.4447 113.155 57.6745 114.928C61.4959 115.814 66.0518 116.258 76.339 116.405V122.761C73.2536 123.352 70.9012 126.012 70.9012 129.411C70.9012 133.106 73.8406 136.062 77.516 136.062C81.1899 136.062 84.1294 133.106 84.1294 129.411C84.1294 126.159 81.7769 123.352 78.6915 122.761V111.381H86.0393C86.6278 111.381 87.2148 110.789 87.2148 110.198V93.0547C87.2148 92.4625 86.6278 91.8719 86.0393 91.8719H72.2241C71.6372 91.8719 71.0487 92.4625 71.0487 93.0547C71.0487 93.6453 71.6372 94.2359 72.2241 94.2359H84.8638V109.164H77.516C76.9275 109.164 76.339 109.755 76.339 110.345V114.189C66.3453 114.041 61.9369 113.597 58.263 112.711C50.7677 111.084 45.1823 107.242 42.0969 101.773C38.8625 96.3062 38.4215 89.3594 40.6265 82.2656C42.9774 75.0234 48.5628 69.9984 57.381 67.4859C64.1419 65.5656 70.1667 66.0078 70.1667 66.0078C70.7552 66.0078 71.1962 65.7125 71.3422 65.1219C71.3422 64.9735 74.4291 54.3328 86.3328 51.6719C90.8887 50.6375 95.592 51.6719 100.148 54.9235C103.676 57.2891 105.733 60.0969 105.733 60.0969C105.879 60.3922 106.32 60.5406 106.615 60.5406C106.909 60.5406 107.35 60.3922 107.497 60.2453C107.497 60.2453 110.142 57.436 114.552 55.5156C120.576 53.0031 126.749 53.2985 133.216 56.4016C139.388 59.5063 143.21 64.5313 144.385 71.4766C145.267 76.7969 144.238 81.2312 144.238 81.2312C144.092 81.5266 144.238 81.9703 144.533 82.2656C144.679 82.5609 145.12 82.7094 145.413 82.7094C145.413 82.7094 148.353 82.7094 151.733 84.1875C156.143 86.1078 158.935 89.6547 160.11 94.5328C160.404 96.0109 160.699 101.034 157.171 105.764C153.645 110.494 147.618 113.006 139.241 113.302C139.095 113.302 129.836 113.745 114.845 113.894V95.8625H127.485C128.072 95.8625 128.66 95.2719 128.66 94.6797C128.66 94.089 128.072 93.4984 127.485 93.4984H113.67C113.081 93.4984 112.494 94.089 112.494 94.6797V121.873C112.494 122.466 113.081 123.056 113.67 123.056H120.87V131.037C117.784 131.628 115.432 134.287 115.432 137.687C115.432 141.383 118.371 144.337 122.047 144.337C125.721 144.337 128.66 141.383 128.66 137.687C128.66 134.436 126.308 131.628 123.222 131.037V121.873C123.222 121.283 122.634 120.692 122.047 120.692H114.845V116.405C129.983 116.109 139.241 115.814 139.388 115.814C144.238 115.667 148.5 114.631 151.881 113.006C154.82 111.528 157.171 109.606 159.082 107.242C163.197 101.922 162.902 95.8625 162.463 94.089ZM81.7769 129.411C81.7769 131.777 79.867 133.697 77.516 133.697C75.1636 133.697 73.2536 131.777 73.2536 129.411C73.2536 127.047 75.1636 125.125 77.516 125.125C79.867 125.125 81.7769 127.047 81.7769 129.411ZM126.455 137.687C126.455 140.052 124.545 141.973 122.193 141.973C119.842 141.973 117.93 140.052 117.93 137.687C117.93 135.323 119.842 133.402 122.193 133.402C124.545 133.253 126.455 135.323 126.455 137.687Z" fill="white"/>
<path d="M105.734 126.602L105.586 89.3586C105.586 88.768 104.999 88.1758 104.411 88.1758C103.822 88.1758 103.235 88.768 103.235 89.3586L103.381 126.602C100.296 127.193 97.9434 129.854 97.9434 133.252C97.9434 136.948 100.883 139.904 104.558 139.904C108.232 139.904 111.172 136.948 111.172 133.252C111.172 130.001 108.819 127.193 105.734 126.602ZM104.558 137.687C102.206 137.687 100.296 135.765 100.296 133.401C100.296 131.037 102.206 129.115 104.558 129.115C106.909 129.115 108.819 131.037 108.819 133.401C108.819 135.618 106.909 137.687 104.558 137.687Z" fill="white"/>
<mask id="mask2_696_2907" style="mask-type:luminance" maskUnits="userSpaceOnUse" x="84" y="93" width="14" height="59">
<path d="M84.3604 93.4912H97.7345V151.135H84.3604V93.4912Z" fill="white"/>
</mask>
<g mask="url(#mask2_696_2907)">
<path d="M92.2126 137.836V126.159H95.152C95.7405 126.159 96.3275 125.568 96.3275 124.978V94.6793C96.3275 94.0887 95.7405 93.498 95.152 93.498C94.5651 93.498 93.9766 94.0887 93.9766 94.6793V123.795H91.0372C90.4487 123.795 89.8617 124.386 89.8617 124.978V137.836C86.7748 138.426 84.4238 141.086 84.4238 144.486C84.4238 148.181 87.3633 151.136 91.0372 151.136C94.7111 151.136 97.6505 148.181 97.6505 144.486C97.6505 141.086 95.2996 138.278 92.2126 137.836ZM91.0372 148.771C88.6862 148.771 86.6288 146.85 86.6288 144.337C86.6288 141.973 88.5387 140.051 90.8896 140.051C93.2421 140.051 95.152 141.973 95.152 144.337C95.2996 146.85 93.3881 148.771 91.0372 148.771Z" fill="white"/>
</g>
<path d="M162.463 94.5201C160.845 87.4264 156.289 84.1748 152.763 82.5498C150.41 81.5154 148.207 81.0717 146.884 80.9233C147.177 79.1498 147.472 75.6029 146.736 71.6123C145.413 63.9279 141.152 58.1639 134.244 54.7654C125.573 50.4795 118.225 51.8092 113.67 53.7295C110.289 55.0608 107.937 56.9811 106.761 58.0155C105.733 56.8342 103.969 55.0608 101.471 53.2873C96.474 49.7405 91.0362 48.5576 85.7458 49.7405C78.8375 51.3655 74.5766 55.3561 72.3716 58.4592C70.6077 60.8248 69.7257 62.8936 69.2847 64.0764C67.2273 64.0764 62.2304 64.0764 56.6466 65.7014C52.5317 66.8842 48.8562 68.6576 45.9168 70.8748C42.5379 73.8295 39.892 77.5248 38.4215 81.9592C35.9231 89.792 36.5116 97.3295 39.892 103.389C43.2724 109.448 49.4447 113.586 57.6745 115.359C61.4959 116.247 66.0518 116.689 76.339 116.837V123.192C73.2536 123.784 70.9012 126.444 70.9012 129.844C70.9012 133.537 73.8406 136.494 77.516 136.494C81.1899 136.494 84.1294 133.537 84.1294 129.844C84.1294 126.592 81.7769 123.784 78.6915 123.192V111.812H86.0393C86.6278 111.812 87.2148 111.222 87.2148 110.629V93.4857C87.2148 92.8951 86.6278 92.3045 86.0393 92.3045H72.2241C71.6372 92.3045 71.0487 92.8951 71.0487 93.4857C71.0487 94.0779 71.6372 94.6685 72.2241 94.6685H84.8638V109.595H77.516C76.9275 109.595 76.339 110.187 76.339 110.778V114.62C66.3453 114.473 61.9369 114.029 58.263 113.142C50.7677 111.517 45.1823 107.675 42.0969 102.206C38.8625 96.7373 38.4215 89.792 40.6265 82.6967C42.9774 75.4561 48.5628 70.4311 57.381 67.9186C64.1419 65.9967 70.1667 66.4404 70.1667 66.4404C70.7552 66.4404 71.1962 66.1451 71.3422 65.553C71.3422 65.4061 74.4291 54.7654 86.3328 52.1045C90.8887 51.0701 95.592 52.1045 100.148 55.3561C103.676 57.7201 105.733 60.528 105.733 60.528C105.879 60.8248 106.32 60.9717 106.615 60.9717C106.909 60.9717 107.35 60.8248 107.497 60.6764C107.497 60.6764 110.142 57.8686 114.552 55.9467C120.576 53.4342 126.749 53.7295 133.216 56.8342C139.388 59.9373 143.21 64.9623 144.385 71.9092C145.267 77.2295 144.238 81.6623 144.238 81.6623C144.092 81.9592 144.238 82.4014 144.533 82.6967C144.679 82.9936 145.12 83.1404 145.413 83.1404C145.413 83.1404 148.353 83.1404 151.733 84.6186C156.143 86.5404 158.935 90.0873 160.11 94.9639C160.404 96.442 160.699 101.467 157.171 106.197C153.645 110.926 147.618 113.439 139.241 113.734C139.095 113.734 129.836 114.176 114.845 114.325V96.2936H127.485C128.072 96.2936 128.66 95.7029 128.66 95.1123C128.66 94.5201 128.072 93.9295 127.485 93.9295H113.67C113.081 93.9295 112.494 94.5201 112.494 95.1123V122.306C112.494 122.897 113.081 123.487 113.67 123.487H120.87V131.469C117.784 132.059 115.432 134.72 115.432 138.12C115.432 141.814 118.371 144.77 122.047 144.77C125.721 144.77 128.66 141.814 128.66 138.12C128.66 134.869 126.308 132.059 123.222 131.469V122.306C123.222 121.714 122.634 121.123 122.047 121.123H114.845V116.837C129.983 116.542 139.241 116.247 139.388 116.247C144.238 116.098 148.5 115.064 151.881 113.439C154.82 111.961 157.171 110.039 159.082 107.675C163.197 102.354 162.902 96.2936 162.463 94.5201ZM81.7769 129.844C81.7769 132.208 79.867 134.129 77.516 134.129C75.1636 134.129 73.2536 132.208 73.2536 129.844C73.2536 127.478 75.1636 125.558 77.516 125.558C79.867 125.558 81.7769 127.478 81.7769 129.844ZM126.455 138.12C126.455 140.484 124.545 142.406 122.193 142.406C119.842 142.406 117.93 140.484 117.93 138.12C117.93 135.754 119.842 133.834 122.193 133.834C124.545 133.686 126.455 135.754 126.455 138.12Z" fill="white"/>
<path d="M105.734 127.036L105.586 89.7922C105.586 89.2 104.999 88.6094 104.411 88.6094C103.822 88.6094 103.235 89.2 103.235 89.7922L103.381 127.036C100.296 127.627 97.9434 130.286 97.9434 133.686C97.9434 137.381 100.883 140.336 104.558 140.336C108.232 140.336 111.172 137.381 111.172 133.686C111.172 130.434 108.819 127.627 105.734 127.036ZM104.558 138.12C102.206 138.12 100.296 136.198 100.296 133.834C100.296 131.469 102.206 129.547 104.558 129.547C106.909 129.547 108.819 131.469 108.819 133.834C108.819 136.05 106.909 138.12 104.558 138.12Z" fill="white"/>
<mask id="mask3_696_2907" style="mask-type:luminance" maskUnits="userSpaceOnUse" x="84" y="93" width="14" height="59">
<path d="M84.3604 93.8887H97.7345V151.569H84.3604V93.8887Z" fill="white"/>
</mask>
<g mask="url(#mask3_696_2907)">
<path d="M92.2126 138.268V126.593H95.152C95.7405 126.593 96.3275 126.001 96.3275 125.41V95.1135C96.3275 94.5213 95.7405 93.9307 95.152 93.9307C94.5651 93.9307 93.9766 94.5213 93.9766 95.1135V124.228H91.0372C90.4487 124.228 89.8617 124.82 89.8617 125.41V138.268C86.7748 138.859 84.4238 141.52 84.4238 144.92C84.4238 148.613 87.3633 151.57 91.0372 151.57C94.7111 151.57 97.6505 148.613 97.6505 144.92C97.6505 141.52 95.2996 138.712 92.2126 138.268ZM91.0372 149.206C88.6862 149.206 86.6288 147.284 86.6288 144.771C86.6288 142.407 88.5387 140.485 90.8896 140.485C93.2421 140.485 95.152 142.407 95.152 144.771C95.2996 147.284 93.3881 149.206 91.0372 149.206Z" fill="white"/>
</g>
<path d="M162.463 94.9533C160.845 87.8596 156.289 84.608 152.763 82.9814C150.41 81.9471 148.207 81.5049 146.884 81.3564C147.177 79.583 147.472 76.0361 146.736 72.0455C145.413 64.3596 141.152 58.5971 134.244 55.1971C125.573 50.9112 118.225 52.2408 113.67 54.1627C110.289 55.4924 107.937 57.4143 106.761 58.4486C105.733 57.2658 103.969 55.4924 101.471 53.719C96.474 50.1721 91.0362 48.9893 85.7458 50.1721C78.8375 51.7986 74.5766 55.7877 72.3716 58.8924C70.6077 61.2565 69.7257 63.3252 69.2847 64.508C67.2273 64.508 62.2304 64.508 56.6466 66.1346C52.5317 67.3158 48.8562 69.0893 45.9168 71.3064C42.5379 74.2627 39.892 77.9565 38.4215 82.3908C35.9231 90.2236 36.5116 97.7611 39.892 103.82C43.2724 109.88 49.4447 114.019 57.6745 115.792C61.4959 116.678 66.0518 117.122 76.339 117.27V123.625C73.2536 124.216 70.9012 126.877 70.9012 130.275C70.9012 133.97 73.8406 136.927 77.516 136.927C81.1899 136.927 84.1294 133.97 84.1294 130.275C84.1294 127.024 81.7769 124.216 78.6915 123.625V112.245H86.0393C86.6278 112.245 87.2148 111.653 87.2148 111.063V93.9189C87.2148 93.3268 86.6278 92.7361 86.0393 92.7361H72.2241C71.6372 92.7361 71.0487 93.3268 71.0487 93.9189C71.0487 94.5096 71.6372 95.1017 72.2241 95.1017H84.8638V110.028H77.516C76.9275 110.028 76.339 110.619 76.339 111.21V115.053C66.3453 114.905 61.9369 114.461 58.263 113.575C50.7677 111.949 45.1823 108.106 42.0969 102.638C38.8625 97.1705 38.4215 90.2236 40.6265 83.1299C42.9774 75.8877 48.5628 70.8627 57.381 68.3502C64.1419 66.4299 70.1667 66.8721 70.1667 66.8721C70.7552 66.8721 71.1962 66.5768 71.3422 65.9861C71.3422 65.8377 74.4291 55.1971 86.3328 52.5377C90.8887 51.5018 95.592 52.5377 100.148 55.7877C103.676 58.1533 105.733 60.9611 105.733 60.9611C105.879 61.2565 106.32 61.4049 106.615 61.4049C106.909 61.4049 107.35 61.2565 107.497 61.1096C107.497 61.1096 110.142 58.3002 114.552 56.3799C120.576 53.8674 126.749 54.1627 133.216 57.2658C139.388 60.3705 143.21 65.3955 144.385 72.3408C145.267 77.6611 144.238 82.0955 144.238 82.0955C144.092 82.3908 144.238 82.8346 144.533 83.1299C144.679 83.4252 145.12 83.5736 145.413 83.5736C145.413 83.5736 148.353 83.5736 151.733 85.0517C156.143 86.9721 158.935 90.5189 160.11 95.3971C160.404 96.8752 160.699 101.9 157.171 106.628C153.645 111.358 147.618 113.87 139.241 114.166C139.095 114.166 129.836 114.61 114.845 114.758V96.7267H127.485C128.072 96.7267 128.66 96.1361 128.66 95.5439C128.66 94.9533 128.072 94.3627 127.485 94.3627H113.67C113.081 94.3627 112.494 94.9533 112.494 95.5439V122.738C112.494 123.33 113.081 123.92 113.67 123.92H120.87V131.902C117.784 132.492 115.432 135.153 115.432 138.552C115.432 142.247 118.371 145.202 122.047 145.202C125.721 145.202 128.66 142.247 128.66 138.552C128.66 135.3 126.308 132.492 123.222 131.902V122.738C123.222 122.147 122.634 121.556 122.047 121.556H114.845V117.27C129.983 116.974 139.241 116.678 139.388 116.678C144.238 116.531 148.5 115.495 151.881 113.87C154.82 112.392 157.171 110.472 159.082 108.106C163.197 102.786 162.902 96.7267 162.463 94.9533ZM81.7769 130.275C81.7769 132.641 79.867 134.561 77.516 134.561C75.1636 134.561 73.2536 132.641 73.2536 130.275C73.2536 127.911 75.1636 125.989 77.516 125.989C79.867 125.989 81.7769 127.911 81.7769 130.275ZM126.455 138.552C126.455 140.916 124.545 142.838 122.193 142.838C119.842 142.838 117.93 140.916 117.93 138.552C117.93 136.188 119.842 134.266 122.193 134.266C124.545 134.117 126.455 136.188 126.455 138.552Z" fill="white"/>
<path d="M105.734 127.468L105.586 90.2238C105.586 89.6332 104.999 89.041 104.411 89.041C103.822 89.041 103.235 89.6332 103.235 90.2238L103.381 127.468C100.296 128.058 97.9434 130.719 97.9434 134.118C97.9434 137.813 100.883 140.769 104.558 140.769C108.232 140.769 111.172 137.813 111.172 134.118C111.172 130.868 108.819 128.058 105.734 127.468ZM104.558 138.552C102.206 138.552 100.296 136.63 100.296 134.266C100.296 131.902 102.206 129.98 104.558 129.98C106.909 129.98 108.819 131.902 108.819 134.266C108.819 136.483 106.909 138.552 104.558 138.552Z" fill="white"/>
<mask id="mask4_696_2907" style="mask-type:luminance" maskUnits="userSpaceOnUse" x="84" y="94" width="14" height="59">
<path d="M84.3604 94.2842H97.7345V152H84.3604V94.2842Z" fill="white"/>
</mask>
<g mask="url(#mask4_696_2907)">
<path d="M92.2126 138.7V127.023H95.152C95.7405 127.023 96.3275 126.433 96.3275 125.842V95.5436C96.3275 94.9529 95.7405 94.3623 95.152 94.3623C94.5651 94.3623 93.9766 94.9529 93.9766 95.5436V124.659H91.0372C90.4487 124.659 89.8617 125.25 89.8617 125.842V138.7C86.7748 139.29 84.4238 141.951 84.4238 145.35C84.4238 149.045 87.3633 152 91.0372 152C94.7111 152 97.6505 149.045 97.6505 145.35C97.6505 141.951 95.2996 139.142 92.2126 138.7ZM91.0372 149.636C88.6862 149.636 86.6288 147.714 86.6288 145.201C86.6288 142.837 88.5387 140.915 90.8896 140.915C93.2421 140.915 95.152 142.837 95.152 145.201C95.2996 147.714 93.3881 149.636 91.0372 149.636Z" fill="white"/>
</g>
<path d="M162.759 94.089C161.141 86.9953 156.585 83.7437 153.058 82.1172C150.706 81.0828 148.503 80.6391 147.18 80.4922C147.473 78.7187 147.768 75.1719 147.032 71.1813C145.709 63.4953 141.448 57.7328 134.54 54.3328C125.869 50.0469 118.521 51.3766 113.965 53.2985C110.585 54.6281 108.233 56.55 107.057 57.5844C106.029 56.4016 104.265 54.6281 101.767 52.8547C96.7699 49.3078 91.3321 48.125 86.0417 49.3078C79.1334 50.9344 74.8725 54.9235 72.6675 58.0281C70.9036 60.3922 70.0216 62.461 69.5806 63.6438C67.5232 63.6438 62.5263 63.6438 56.9425 65.2688C52.8276 66.4516 49.1521 68.225 46.2127 70.4422C42.8338 73.3984 40.1879 77.0922 38.7174 81.5266C36.219 89.3594 36.8075 96.8969 40.1879 102.956C43.5683 109.016 49.7406 113.155 57.9704 114.928C61.7918 115.814 66.3477 116.258 76.6349 116.405V122.761C73.5495 123.352 71.1971 126.012 71.1971 129.411C71.1971 133.106 74.1365 136.062 77.8119 136.062C81.4858 136.062 84.4253 133.106 84.4253 129.411C84.4253 126.159 82.0728 123.352 78.9874 122.761V111.381H86.3352C86.9237 111.381 87.5107 110.789 87.5107 110.198V93.0547C87.5107 92.4625 86.9237 91.8719 86.3352 91.8719H72.52C71.9331 91.8719 71.3446 92.4625 71.3446 93.0547C71.3446 93.6453 71.9331 94.2359 72.52 94.2359H85.1597V109.164H77.8119C77.2234 109.164 76.6349 109.755 76.6349 110.345V114.189C66.6412 114.041 62.2328 113.597 58.5589 112.711C51.0636 111.084 45.4782 107.242 42.3928 101.773C39.1584 96.3062 38.7174 89.3594 40.9224 82.2656C43.2733 75.0234 48.8587 69.9984 57.6769 67.4859C64.4378 65.5656 70.4626 66.0078 70.4626 66.0078C71.0511 66.0078 71.4921 65.7125 71.6381 65.1219C71.6381 64.9735 74.725 54.3328 86.6287 51.6719C91.1846 50.6375 95.8879 51.6719 100.444 54.9235C103.972 57.2891 106.029 60.0969 106.029 60.0969C106.175 60.3922 106.616 60.5406 106.911 60.5406C107.205 60.5406 107.646 60.3922 107.793 60.2453C107.793 60.2453 110.438 57.436 114.847 55.5156C120.872 53.0031 127.045 53.2985 133.512 56.4016C139.684 59.5063 143.506 64.5313 144.681 71.4766C145.563 76.7969 144.534 81.2312 144.534 81.2312C144.388 81.5266 144.534 81.9703 144.829 82.2656C144.975 82.5609 145.416 82.7094 145.709 82.7094C145.709 82.7094 148.649 82.7094 152.029 84.1875C156.439 86.1078 159.231 89.6547 160.406 94.5328C160.7 96.0109 160.995 101.034 157.467 105.764C153.94 110.494 147.914 113.006 139.537 113.302C139.391 113.302 130.132 113.745 115.141 113.894V95.8625H127.781C128.368 95.8625 128.956 95.2719 128.956 94.6797C128.956 94.089 128.368 93.4984 127.781 93.4984H113.965C113.377 93.4984 112.79 94.089 112.79 94.6797V121.873C112.79 122.466 113.377 123.056 113.965 123.056H121.166V131.037C118.08 131.628 115.728 134.287 115.728 137.687C115.728 141.383 118.667 144.337 122.343 144.337C126.017 144.337 128.956 141.383 128.956 137.687C128.956 134.436 126.604 131.628 123.518 131.037V121.873C123.518 121.283 122.93 120.692 122.343 120.692H115.141V116.405C130.279 116.109 139.537 115.814 139.684 115.814C144.534 115.667 148.796 114.631 152.176 113.006C155.116 111.528 157.467 109.606 159.378 107.242C163.493 101.922 163.198 95.8625 162.759 94.089ZM82.0728 129.411C82.0728 131.777 80.1629 133.697 77.8119 133.697C75.4595 133.697 73.5495 131.777 73.5495 129.411C73.5495 127.047 75.4595 125.125 77.8119 125.125C80.1629 125.125 82.0728 127.047 82.0728 129.411ZM126.751 137.687C126.751 140.052 124.841 141.973 122.489 141.973C120.138 141.973 118.226 140.052 118.226 137.687C118.226 135.323 120.138 133.402 122.489 133.402C124.841 133.253 126.751 135.323 126.751 137.687Z" fill="white"/>
<path d="M106.029 126.602L105.881 89.3586C105.881 88.768 105.294 88.1758 104.706 88.1758C104.117 88.1758 103.53 88.768 103.53 89.3586L103.676 126.602C100.591 127.193 98.2383 129.854 98.2383 133.252C98.2383 136.948 101.178 139.904 104.853 139.904C108.527 139.904 111.466 136.948 111.466 133.252C111.466 130.001 109.114 127.193 106.029 126.602ZM104.853 137.687C102.501 137.687 100.591 135.765 100.591 133.401C100.591 131.037 102.501 129.115 104.853 129.115C107.204 129.115 109.114 131.037 109.114 133.401C109.114 135.618 107.204 137.687 104.853 137.687Z" fill="white"/>
<mask id="mask5_696_2907" style="mask-type:luminance" maskUnits="userSpaceOnUse" x="84" y="93" width="15" height="59">
<path d="M84.3604 93.4912H98.1279V151.135H84.3604V93.4912Z" fill="white"/>
</mask>
<g mask="url(#mask5_696_2907)">
<path d="M92.5066 137.836V126.159H95.446C96.0345 126.159 96.6215 125.568 96.6215 124.978V94.6793C96.6215 94.0887 96.0345 93.498 95.446 93.498C94.859 93.498 94.2705 94.0887 94.2705 94.6793V123.795H91.3311C90.7426 123.795 90.1556 124.386 90.1556 124.978V137.836C87.0687 138.426 84.7178 141.086 84.7178 144.486C84.7178 148.181 87.6572 151.136 91.3311 151.136C95.005 151.136 97.9444 148.181 97.9444 144.486C97.9444 141.086 95.5935 138.278 92.5066 137.836ZM91.3311 148.771C88.9802 148.771 86.9227 146.85 86.9227 144.337C86.9227 141.973 88.8327 140.051 91.1836 140.051C93.5361 140.051 95.446 141.973 95.446 144.337C95.5935 146.85 93.682 148.771 91.3311 148.771Z" fill="white"/>
</g>
<path d="M162.168 94.9533C160.55 87.8596 155.994 84.608 152.468 82.9814C150.115 81.9471 147.912 81.5049 146.589 81.3564C146.882 79.583 147.177 76.0361 146.441 72.0455C145.118 64.3596 140.857 58.5971 133.949 55.1971C125.278 50.9112 117.931 52.2408 113.375 54.1627C109.994 55.4924 107.642 57.4143 106.466 58.4486C105.438 57.2658 103.674 55.4924 101.176 53.719C96.1791 50.1721 90.7412 48.9893 85.4509 50.1721C78.5425 51.7986 74.2817 55.7877 72.0767 58.8924C70.3128 61.2565 69.4308 63.3252 68.9898 64.508C66.9323 64.508 61.9355 64.508 56.3516 66.1346C52.2368 67.3158 48.5613 69.0893 45.6219 71.3064C42.243 74.2627 39.5971 77.9565 38.1266 82.3908C35.6281 90.2236 36.2166 97.7611 39.5971 103.82C42.9775 109.88 49.1498 114.019 57.3796 115.792C61.201 116.678 65.7569 117.122 76.0441 117.27V123.625C72.9587 124.216 70.6062 126.877 70.6062 130.275C70.6062 133.97 73.5457 136.927 77.2211 136.927C80.895 136.927 83.8344 133.97 83.8344 130.275C83.8344 127.024 81.482 124.216 78.3966 123.625V112.245H85.7444C86.3329 112.245 86.9198 111.653 86.9198 111.063V93.9189C86.9198 93.3268 86.3329 92.7361 85.7444 92.7361H71.9292C71.3423 92.7361 70.7538 93.3268 70.7538 93.9189C70.7538 94.5096 71.3423 95.1017 71.9292 95.1017H84.5689V110.028H77.2211C76.6326 110.028 76.0441 110.619 76.0441 111.21V115.053C66.0504 114.905 61.642 114.461 57.9681 113.575C50.4728 111.949 44.8874 108.106 41.802 102.638C38.5676 97.1705 38.1266 90.2236 40.3315 83.1299C42.6825 75.8877 48.2678 70.8627 57.0861 68.3502C63.8469 66.4299 69.8718 66.8721 69.8718 66.8721C70.4603 66.8721 70.9013 66.5768 71.0472 65.9861C71.0472 65.8377 74.1342 55.1971 86.0379 52.5377C90.5937 51.5018 95.2971 52.5377 99.853 55.7877C103.381 58.1533 105.438 60.9611 105.438 60.9611C105.584 61.2565 106.025 61.4049 106.32 61.4049C106.614 61.4049 107.055 61.2565 107.202 61.1096C107.202 61.1096 109.847 58.3002 114.257 56.3799C120.281 53.8674 126.454 54.1627 132.921 57.2658C139.093 60.3705 142.915 65.3955 144.09 72.3408C144.972 77.6611 143.943 82.0955 143.943 82.0955C143.797 82.3908 143.943 82.8346 144.238 83.1299C144.384 83.4252 144.825 83.5736 145.118 83.5736C145.118 83.5736 148.058 83.5736 151.438 85.0517C155.848 86.9721 158.64 90.5189 159.815 95.3971C160.109 96.8752 160.404 101.9 156.876 106.628C153.35 111.358 147.323 113.87 138.946 114.166C138.8 114.166 129.541 114.61 114.55 114.758V96.7267H127.19C127.777 96.7267 128.365 96.1361 128.365 95.5439C128.365 94.9533 127.777 94.3627 127.19 94.3627H113.375C112.786 94.3627 112.199 94.9533 112.199 95.5439V122.738C112.199 123.33 112.786 123.92 113.375 123.92H120.575V131.902C117.49 132.492 115.137 135.153 115.137 138.552C115.137 142.247 118.077 145.202 121.752 145.202C125.426 145.202 128.365 142.247 128.365 138.552C128.365 135.3 126.013 132.492 122.927 131.902V122.738C122.927 122.147 122.339 121.556 121.752 121.556H114.55V117.27C129.688 116.974 138.946 116.678 139.093 116.678C143.943 116.531 148.205 115.495 151.586 113.87C154.525 112.392 156.876 110.472 158.787 108.106C162.902 102.786 162.607 96.7267 162.168 94.9533ZM81.482 130.275C81.482 132.641 79.572 134.561 77.2211 134.561C74.8686 134.561 72.9587 132.641 72.9587 130.275C72.9587 127.911 74.8686 125.989 77.2211 125.989C79.572 125.989 81.482 127.911 81.482 130.275ZM126.16 138.552C126.16 140.916 124.25 142.838 121.898 142.838C119.547 142.838 117.636 140.916 117.636 138.552C117.636 136.188 119.547 134.266 121.898 134.266C124.25 134.117 126.16 136.188 126.16 138.552Z" fill="white"/>
<path d="M105.438 127.468L105.29 90.2238C105.29 89.6332 104.703 89.041 104.115 89.041C103.526 89.041 102.939 89.6332 102.939 90.2238L103.085 127.468C99.9999 128.058 97.6475 130.719 97.6475 134.118C97.6475 137.813 100.587 140.769 104.262 140.769C107.936 140.769 110.876 137.813 110.876 134.118C110.876 130.868 108.523 128.058 105.438 127.468ZM104.262 138.552C101.91 138.552 99.9999 136.63 99.9999 134.266C99.9999 131.902 101.91 129.98 104.262 129.98C106.613 129.98 108.523 131.902 108.523 134.266C108.523 136.483 106.613 138.552 104.262 138.552Z" fill="white"/>
<mask id="mask6_696_2907" style="mask-type:luminance" maskUnits="userSpaceOnUse" x="83" y="94" width="15" height="59">
<path d="M83.9668 94.2842H97.7343V152H83.9668V94.2842Z" fill="white"/>
</mask>
<g mask="url(#mask6_696_2907)">
<path d="M91.9167 138.7V127.023H94.8561C95.4446 127.023 96.0316 126.433 96.0316 125.842V95.5436C96.0316 94.9529 95.4446 94.3623 94.8561 94.3623C94.2692 94.3623 93.6807 94.9529 93.6807 95.5436V124.659H90.7413C90.1528 124.659 89.5658 125.25 89.5658 125.842V138.7C86.4789 139.29 84.1279 141.951 84.1279 145.35C84.1279 149.045 87.0674 152 90.7413 152C94.4152 152 97.3546 149.045 97.3546 145.35C97.3546 141.951 95.0037 139.142 91.9167 138.7ZM90.7413 149.636C88.3903 149.636 86.3329 147.714 86.3329 145.201C86.3329 142.837 88.2428 140.915 90.5937 140.915C92.9462 140.915 94.8561 142.837 94.8561 145.201C95.0037 147.714 93.0922 149.636 90.7413 149.636Z" fill="white"/>
</g>
<path d="M161.873 93.2248C160.255 86.131 155.699 82.8795 152.173 81.2529C149.82 80.2186 147.617 79.7748 146.294 79.6279C146.587 77.8545 146.882 74.3076 146.146 70.317C144.823 62.6311 140.563 56.867 133.654 53.4686C124.983 49.1826 117.636 50.5123 113.08 52.4342C109.699 53.7639 107.347 55.6858 106.171 56.7201C105.143 55.5373 103.379 53.7639 100.881 51.9905C95.8842 48.4436 90.4463 47.2608 85.156 48.4436C78.2476 50.0686 73.9868 54.0592 71.7818 57.1639C70.0178 59.5279 69.1359 61.5967 68.6949 62.7795C66.6374 62.7795 61.6406 62.7795 56.0567 64.4045C51.9418 65.5873 48.2664 67.3608 45.327 69.5779C41.9481 72.5342 39.3021 76.2279 37.8317 80.6623C35.3332 88.4951 35.9217 96.0326 39.3021 102.092C42.6826 108.151 48.8549 112.29 57.0847 114.064C60.9061 114.95 65.462 115.394 75.7492 115.54V121.897C72.6638 122.487 70.3113 125.148 70.3113 128.547C70.3113 132.242 73.2508 135.197 76.9262 135.197C80.6001 135.197 83.5395 132.242 83.5395 128.547C83.5395 125.295 81.187 122.487 78.1016 121.897V110.515H85.4494C86.0379 110.515 86.6249 109.925 86.6249 109.334V92.1904C86.6249 91.5982 86.0379 91.0076 85.4494 91.0076H71.6343C71.0473 91.0076 70.4588 91.5982 70.4588 92.1904C70.4588 92.781 71.0473 93.3717 71.6343 93.3717H84.274V108.3H76.9262C76.3377 108.3 75.7492 108.89 75.7492 109.481V113.325C65.7554 113.176 61.3471 112.733 57.6732 111.847C50.1779 110.22 44.5925 106.378 41.5071 100.909C38.2727 95.442 37.8317 88.4951 40.0366 81.4014C42.3875 74.1592 47.9729 69.1342 56.7912 66.6217C63.552 64.7014 69.5769 65.1436 69.5769 65.1436C70.1654 65.1436 70.6063 64.8483 70.7523 64.2576C70.7523 64.1092 73.8393 53.4686 85.7429 50.8076C90.2988 49.7733 95.0022 50.8076 99.5581 54.0592C103.086 56.4248 105.143 59.2326 105.143 59.2326C105.289 59.5279 105.73 59.6764 106.025 59.6764C106.319 59.6764 106.76 59.5279 106.907 59.3795C106.907 59.3795 109.552 56.5717 113.962 54.6514C119.987 52.1389 126.159 52.4342 132.626 55.5373C138.799 58.642 142.62 63.6654 143.795 70.6123C144.677 75.9326 143.648 80.367 143.648 80.367C143.502 80.6623 143.648 81.106 143.943 81.4014C144.089 81.6967 144.53 81.8451 144.823 81.8451C144.823 81.8451 147.763 81.8451 151.143 83.3232C155.553 85.2435 158.345 88.7904 159.521 93.6685C159.814 95.1451 160.109 100.17 156.581 104.9C153.055 109.629 147.028 112.142 138.651 112.437C138.505 112.437 129.246 112.881 114.255 113.028V94.9982H126.895C127.482 94.9982 128.07 94.4076 128.07 93.8154C128.07 93.2248 127.482 92.6326 126.895 92.6326H113.08C112.491 92.6326 111.904 93.2248 111.904 93.8154V121.009C111.904 121.601 112.491 122.192 113.08 122.192H120.28V130.173C117.195 130.764 114.842 133.423 114.842 136.823C114.842 140.518 117.782 143.473 121.457 143.473C125.131 143.473 128.07 140.518 128.07 136.823C128.07 133.572 125.718 130.764 122.632 130.173V121.009C122.632 120.419 122.044 119.826 121.457 119.826H114.255V115.54C129.393 115.245 138.651 114.95 138.799 114.95C143.648 114.803 147.91 113.767 151.291 112.142C154.23 110.664 156.581 108.742 158.493 106.378C162.607 101.058 162.312 94.9982 161.873 93.2248ZM81.187 128.547C81.187 130.911 79.2771 132.833 76.9262 132.833C74.5737 132.833 72.6638 130.911 72.6638 128.547C72.6638 126.183 74.5737 124.261 76.9262 124.261C79.2771 124.261 81.187 126.183 81.187 128.547ZM125.865 136.823C125.865 139.187 123.955 141.109 121.603 141.109C119.252 141.109 117.341 139.187 117.341 136.823C117.341 134.459 119.252 132.537 121.603 132.537C123.955 132.389 125.865 134.459 125.865 136.823Z" fill="white"/>
<path d="M105.144 125.738L104.996 88.4943C104.996 87.9037 104.409 87.3115 103.821 87.3115C103.232 87.3115 102.645 87.9037 102.645 88.4943L102.791 125.738C99.706 126.329 97.3535 128.99 97.3535 132.388C97.3535 136.083 100.293 139.04 103.968 139.04C107.642 139.04 110.582 136.083 110.582 132.388C110.582 129.136 108.229 126.329 105.144 125.738ZM103.968 136.822C101.616 136.822 99.706 134.901 99.706 132.536C99.706 130.172 101.616 128.251 103.968 128.251C106.319 128.251 108.229 130.172 108.229 132.536C108.229 134.754 106.319 136.822 103.968 136.822Z" fill="white"/>
<mask id="mask7_696_2907" style="mask-type:luminance" maskUnits="userSpaceOnUse" x="83" y="92" width="15" height="59">
<path d="M83.5732 92.3057H97.3408V150.272H83.5732V92.3057Z" fill="white"/>
</mask>
<g mask="url(#mask7_696_2907)">
<path d="M91.6208 136.972V125.295H94.5602C95.1487 125.295 95.7357 124.705 95.7357 124.112V93.8156C95.7357 93.225 95.1487 92.6328 94.5602 92.6328C93.9733 92.6328 93.3848 93.225 93.3848 93.8156V122.931H90.4454C89.8569 122.931 89.2699 123.522 89.2699 124.112V136.972C86.183 137.562 83.832 140.222 83.832 143.622C83.832 147.317 86.7715 150.272 90.4454 150.272C94.1193 150.272 97.0587 147.317 97.0587 143.622C97.0587 140.222 94.7078 137.414 91.6208 136.972ZM90.4454 147.908C88.0944 147.908 86.037 145.986 86.037 143.473C86.037 141.109 87.9469 139.187 90.2978 139.187C92.6503 139.187 94.5602 141.109 94.5602 143.473C94.7078 145.986 92.7963 147.908 90.4454 147.908Z" fill="white"/>
</g>
<path d="M161.873 93.6559C160.255 86.5621 155.699 83.3106 152.173 81.6855C149.82 80.6512 147.617 80.2074 146.294 80.059C146.587 78.2856 146.882 74.7387 146.146 70.7481C144.823 63.0637 140.563 57.2996 133.654 53.9012C124.983 49.6153 117.636 50.9449 113.08 52.8653C109.699 54.1965 107.347 56.1168 106.171 57.1512C105.143 55.9699 103.379 54.1965 100.881 52.4231C95.8842 48.8762 90.4463 47.6934 85.156 48.8762C78.2476 50.5012 73.9868 54.4918 71.7818 57.5949C70.0178 59.9606 69.1359 62.0293 68.6949 63.2106C66.6374 63.2106 61.6406 63.2106 56.0567 64.8371C51.9418 66.0199 48.2664 67.7934 45.327 70.009C41.9481 72.9652 39.3021 76.6606 37.8317 81.0934C35.3332 88.9277 35.9217 96.4652 39.3021 102.525C42.6826 108.584 48.8549 112.721 57.0847 114.495C60.9061 115.382 65.462 115.825 75.7492 115.973V122.328C72.6638 122.92 70.3113 125.579 70.3113 128.979C70.3113 132.673 73.2508 135.629 76.9262 135.629C80.6001 135.629 83.5395 132.673 83.5395 128.979C83.5395 125.728 81.187 122.92 78.1016 122.328V110.948H85.4494C86.0379 110.948 86.6249 110.357 86.6249 109.765V92.6215C86.6249 92.0309 86.0379 91.4402 85.4494 91.4402H71.6343C71.0473 91.4402 70.4588 92.0309 70.4588 92.6215C70.4588 93.2137 71.0473 93.8043 71.6343 93.8043H84.274V108.731H76.9262C76.3377 108.731 75.7492 109.323 75.7492 109.914V113.756C65.7554 113.609 61.3471 113.165 57.6732 112.278C50.1779 110.653 44.5925 106.811 41.5071 101.342C38.2727 95.873 37.8317 88.9277 40.0366 81.8324C42.3875 74.5918 47.9729 69.5668 56.7912 67.0543C63.552 65.1324 69.5769 65.5762 69.5769 65.5762C70.1654 65.5762 70.6063 65.2809 70.7523 64.6887C70.7523 64.5418 73.8393 53.9012 85.7429 51.2403C90.2988 50.2059 95.0022 51.2403 99.5581 54.4918C103.086 56.8559 105.143 59.6637 105.143 59.6637C105.289 59.9606 105.73 60.1074 106.025 60.1074C106.319 60.1074 106.76 59.9606 106.907 59.8121C106.907 59.8121 109.552 57.0043 113.962 55.0824C119.987 52.57 126.159 52.8653 132.626 55.9699C138.799 59.0731 142.62 64.0981 143.795 71.0449C144.677 76.3652 143.648 80.7981 143.648 80.7981C143.502 81.0934 143.648 81.5371 143.943 81.8324C144.089 82.1293 144.53 82.2762 144.823 82.2762C144.823 82.2762 147.763 82.2762 151.143 83.7543C155.553 85.6762 158.345 89.223 159.521 94.0996C159.814 95.5777 160.109 100.603 156.581 105.332C153.055 110.062 147.028 112.573 138.651 112.87C138.505 112.87 129.246 113.312 114.255 113.461V95.4293H126.895C127.482 95.4293 128.07 94.8387 128.07 94.248C128.07 93.6559 127.482 93.0652 126.895 93.0652H113.08C112.491 93.0652 111.904 93.6559 111.904 94.248V121.442C111.904 122.032 112.491 122.623 113.08 122.623H120.28V130.604C117.195 131.195 114.842 133.856 114.842 137.254C114.842 140.95 117.782 143.906 121.457 143.906C125.131 143.906 128.07 140.95 128.07 137.254C128.07 134.004 125.718 131.195 122.632 130.604V121.442C122.632 120.85 122.044 120.259 121.457 120.259H114.255V115.973C129.393 115.678 138.651 115.382 138.799 115.382C143.648 115.234 147.91 114.2 151.291 112.573C154.23 111.096 156.581 109.175 158.493 106.811C162.607 101.489 162.312 95.4293 161.873 93.6559ZM81.187 128.979C81.187 131.343 79.2771 133.265 76.9262 133.265C74.5737 133.265 72.6638 131.343 72.6638 128.979C72.6638 126.614 74.5737 124.693 76.9262 124.693C79.2771 124.693 81.187 126.614 81.187 128.979ZM125.865 137.254C125.865 139.62 123.955 141.542 121.603 141.542C119.252 141.542 117.341 139.62 117.341 137.254C117.341 134.89 119.252 132.968 121.603 132.968C123.955 132.821 125.865 134.89 125.865 137.254Z" fill="white"/>
<path d="M105.144 126.17L104.996 88.9279C104.996 88.3357 104.409 87.7451 103.821 87.7451C103.232 87.7451 102.645 88.3357 102.645 88.9279L102.791 126.17C99.706 126.762 97.3535 129.422 97.3535 132.822C97.3535 136.517 100.293 139.472 103.968 139.472C107.642 139.472 110.582 136.517 110.582 132.822C110.582 129.57 108.229 126.762 105.144 126.17ZM103.968 137.254C101.616 137.254 99.706 135.334 99.706 132.969C99.706 130.604 101.616 128.683 103.968 128.683C106.319 128.683 108.229 130.604 108.229 132.969C108.229 135.186 106.319 137.254 103.968 137.254Z" fill="white"/>
<mask id="mask8_696_2907" style="mask-type:luminance" maskUnits="userSpaceOnUse" x="83" y="92" width="15" height="59">
<path d="M83.5732 92.7012H97.3408V150.705H83.5732V92.7012Z" fill="white"/>
</mask>
<g mask="url(#mask8_696_2907)">
<path d="M91.6208 137.403V125.728H94.5602C95.1487 125.728 95.7357 125.136 95.7357 124.545V94.2482C95.7357 93.6561 95.1487 93.0654 94.5602 93.0654C93.9733 93.0654 93.3848 93.6561 93.3848 94.2482V123.362H90.4454C89.8569 123.362 89.2699 123.954 89.2699 124.545V137.403C86.183 137.994 83.832 140.654 83.832 144.053C83.832 147.748 86.7715 150.704 90.4454 150.704C94.1193 150.704 97.0587 147.748 97.0587 144.053C97.0587 140.654 94.7078 137.847 91.6208 137.403ZM90.4454 148.339C88.0944 148.339 86.037 146.419 86.037 143.906C86.037 141.542 87.9469 139.62 90.2978 139.62C92.6503 139.62 94.5602 141.542 94.5602 143.906C94.7078 146.419 92.7963 148.339 90.4454 148.339Z" fill="white"/>
</g>
<path d="M161.873 94.089C160.255 86.9953 155.699 83.7437 152.173 82.1172C149.82 81.0828 147.617 80.6391 146.294 80.4922C146.587 78.7187 146.882 75.1719 146.146 71.1813C144.823 63.4953 140.563 57.7328 133.654 54.3328C124.983 50.0469 117.636 51.3766 113.08 53.2985C109.699 54.6281 107.347 56.55 106.171 57.5844C105.143 56.4016 103.379 54.6281 100.881 52.8547C95.8842 49.3078 90.4463 48.125 85.156 49.3078C78.2476 50.9344 73.9868 54.9235 71.7818 58.0281C70.0178 60.3922 69.1359 62.461 68.6949 63.6438C66.6374 63.6438 61.6406 63.6438 56.0567 65.2688C51.9418 66.4516 48.2664 68.225 45.327 70.4422C41.9481 73.3984 39.3021 77.0922 37.8317 81.5266C35.3332 89.3594 35.9217 96.8969 39.3021 102.956C42.6826 109.016 48.8549 113.155 57.0847 114.928C60.9061 115.814 65.462 116.258 75.7492 116.405V122.761C72.6638 123.352 70.3113 126.012 70.3113 129.411C70.3113 133.106 73.2508 136.062 76.9262 136.062C80.6001 136.062 83.5395 133.106 83.5395 129.411C83.5395 126.159 81.187 123.352 78.1016 122.761V111.381H85.4494C86.0379 111.381 86.6249 110.789 86.6249 110.198V93.0547C86.6249 92.4625 86.0379 91.8719 85.4494 91.8719H71.6343C71.0473 91.8719 70.4588 92.4625 70.4588 93.0547C70.4588 93.6453 71.0473 94.2359 71.6343 94.2359H84.274V109.164H76.9262C76.3377 109.164 75.7492 109.755 75.7492 110.345V114.189C65.7554 114.041 61.3471 113.597 57.6732 112.711C50.1779 111.084 44.5925 107.242 41.5071 101.773C38.2727 96.3062 37.8317 89.3594 40.0366 82.2656C42.3875 75.0234 47.9729 69.9984 56.7912 67.4859C63.552 65.5656 69.5769 66.0078 69.5769 66.0078C70.1654 66.0078 70.6063 65.7125 70.7523 65.1219C70.7523 64.9735 73.8393 54.3328 85.7429 51.6719C90.2988 50.6375 95.0022 51.6719 99.5581 54.9235C103.086 57.2891 105.143 60.0969 105.143 60.0969C105.289 60.3922 105.73 60.5406 106.025 60.5406C106.319 60.5406 106.76 60.3922 106.907 60.2453C106.907 60.2453 109.552 57.436 113.962 55.5156C119.987 53.0031 126.159 53.2985 132.626 56.4016C138.799 59.5063 142.62 64.5313 143.795 71.4766C144.677 76.7969 143.648 81.2312 143.648 81.2312C143.502 81.5266 143.648 81.9703 143.943 82.2656C144.089 82.5609 144.53 82.7094 144.823 82.7094C144.823 82.7094 147.763 82.7094 151.143 84.1875C155.553 86.1078 158.345 89.6547 159.521 94.5328C159.814 96.0109 160.109 101.034 156.581 105.764C153.055 110.494 147.028 113.006 138.651 113.302C138.505 113.302 129.246 113.745 114.255 113.894V95.8625H126.895C127.482 95.8625 128.07 95.2719 128.07 94.6797C128.07 94.089 127.482 93.4984 126.895 93.4984H113.08C112.491 93.4984 111.904 94.089 111.904 94.6797V121.873C111.904 122.466 112.491 123.056 113.08 123.056H120.28V131.037C117.195 131.628 114.842 134.287 114.842 137.687C114.842 141.383 117.782 144.337 121.457 144.337C125.131 144.337 128.07 141.383 128.07 137.687C128.07 134.436 125.718 131.628 122.632 131.037V121.873C122.632 121.283 122.044 120.692 121.457 120.692H114.255V116.405C129.393 116.109 138.651 115.814 138.799 115.814C143.648 115.667 147.91 114.631 151.291 113.006C154.23 111.528 156.581 109.606 158.493 107.242C162.607 101.922 162.312 95.8625 161.873 94.089ZM81.187 129.411C81.187 131.777 79.2771 133.697 76.9262 133.697C74.5737 133.697 72.6638 131.777 72.6638 129.411C72.6638 127.047 74.5737 125.125 76.9262 125.125C79.2771 125.125 81.187 127.047 81.187 129.411ZM125.865 137.687C125.865 140.052 123.955 141.973 121.603 141.973C119.252 141.973 117.341 140.052 117.341 137.687C117.341 135.323 119.252 133.402 121.603 133.402C123.955 133.253 125.865 135.323 125.865 137.687Z" fill="white"/>
<path d="M105.144 126.602L104.996 89.3586C104.996 88.768 104.409 88.1758 103.821 88.1758C103.232 88.1758 102.645 88.768 102.645 89.3586L102.791 126.602C99.706 127.193 97.3535 129.854 97.3535 133.252C97.3535 136.948 100.293 139.904 103.968 139.904C107.642 139.904 110.582 136.948 110.582 133.252C110.582 130.001 108.229 127.193 105.144 126.602ZM103.968 137.687C101.616 137.687 99.706 135.765 99.706 133.401C99.706 131.037 101.616 129.115 103.968 129.115C106.319 129.115 108.229 131.037 108.229 133.401C108.229 135.618 106.319 137.687 103.968 137.687Z" fill="white"/>
<mask id="mask9_696_2907" style="mask-type:luminance" maskUnits="userSpaceOnUse" x="83" y="93" width="15" height="59">
<path d="M83.5732 93.4912H97.3408V151.135H83.5732V93.4912Z" fill="white"/>
</mask>
<g mask="url(#mask9_696_2907)">
<path d="M91.6208 137.836V126.159H94.5602C95.1487 126.159 95.7357 125.568 95.7357 124.978V94.6793C95.7357 94.0887 95.1487 93.498 94.5602 93.498C93.9733 93.498 93.3848 94.0887 93.3848 94.6793V123.795H90.4454C89.8569 123.795 89.2699 124.386 89.2699 124.978V137.836C86.183 138.426 83.832 141.086 83.832 144.486C83.832 148.181 86.7715 151.136 90.4454 151.136C94.1193 151.136 97.0587 148.181 97.0587 144.486C97.0587 141.086 94.7078 138.278 91.6208 137.836ZM90.4454 148.771C88.0944 148.771 86.037 146.85 86.037 144.337C86.037 141.973 87.9469 140.051 90.2978 140.051C92.6503 140.051 94.5602 141.973 94.5602 144.337C94.7078 146.85 92.7963 148.771 90.4454 148.771Z" fill="white"/>
</g>
<path d="M161.873 94.5201C160.255 87.4264 155.699 84.1748 152.173 82.5498C149.82 81.5154 147.617 81.0717 146.294 80.9233C146.587 79.1498 146.882 75.6029 146.146 71.6123C144.823 63.9279 140.563 58.1639 133.654 54.7654C124.983 50.4795 117.636 51.8092 113.08 53.7295C109.699 55.0608 107.347 56.9811 106.171 58.0155C105.143 56.8342 103.379 55.0608 100.881 53.2873C95.8842 49.7405 90.4463 48.5576 85.156 49.7405C78.2476 51.3655 73.9868 55.3561 71.7818 58.4592C70.0178 60.8248 69.1359 62.8936 68.6949 64.0764C66.6374 64.0764 61.6406 64.0764 56.0567 65.7014C51.9418 66.8842 48.2664 68.6576 45.327 70.8748C41.9481 73.8295 39.3021 77.5248 37.8317 81.9592C35.3332 89.792 35.9217 97.3295 39.3021 103.389C42.6826 109.448 48.8549 113.586 57.0847 115.359C60.9061 116.247 65.462 116.689 75.7492 116.837V123.192C72.6638 123.784 70.3113 126.444 70.3113 129.844C70.3113 133.537 73.2508 136.494 76.9262 136.494C80.6001 136.494 83.5395 133.537 83.5395 129.844C83.5395 126.592 81.187 123.784 78.1016 123.192V111.812H85.4494C86.0379 111.812 86.6249 111.222 86.6249 110.629V93.4857C86.6249 92.8951 86.0379 92.3045 85.4494 92.3045H71.6343C71.0473 92.3045 70.4588 92.8951 70.4588 93.4857C70.4588 94.0779 71.0473 94.6685 71.6343 94.6685H84.274V109.595H76.9262C76.3377 109.595 75.7492 110.187 75.7492 110.778V114.62C65.7554 114.473 61.3471 114.029 57.6732 113.142C50.1779 111.517 44.5925 107.675 41.5071 102.206C38.2727 96.7373 37.8317 89.792 40.0366 82.6967C42.3875 75.4561 47.9729 70.4311 56.7912 67.9186C63.552 65.9967 69.5769 66.4404 69.5769 66.4404C70.1654 66.4404 70.6063 66.1451 70.7523 65.553C70.7523 65.4061 73.8393 54.7654 85.7429 52.1045C90.2988 51.0701 95.0022 52.1045 99.5581 55.3561C103.086 57.7201 105.143 60.528 105.143 60.528C105.289 60.8248 105.73 60.9717 106.025 60.9717C106.319 60.9717 106.76 60.8248 106.907 60.6764C106.907 60.6764 109.552 57.8686 113.962 55.9467C119.987 53.4342 126.159 53.7295 132.626 56.8342C138.799 59.9373 142.62 64.9623 143.795 71.9092C144.677 77.2295 143.648 81.6623 143.648 81.6623C143.502 81.9592 143.648 82.4014 143.943 82.6967C144.089 82.9936 144.53 83.1404 144.823 83.1404C144.823 83.1404 147.763 83.1404 151.143 84.6186C155.553 86.5404 158.345 90.0873 159.521 94.9639C159.814 96.442 160.109 101.467 156.581 106.197C153.055 110.926 147.028 113.439 138.651 113.734C138.505 113.734 129.246 114.176 114.255 114.325V96.2936H126.895C127.482 96.2936 128.07 95.7029 128.07 95.1123C128.07 94.5201 127.482 93.9295 126.895 93.9295H113.08C112.491 93.9295 111.904 94.5201 111.904 95.1123V122.306C111.904 122.897 112.491 123.487 113.08 123.487H120.28V131.469C117.195 132.059 114.842 134.72 114.842 138.12C114.842 141.814 117.782 144.77 121.457 144.77C125.131 144.77 128.07 141.814 128.07 138.12C128.07 134.869 125.718 132.059 122.632 131.469V122.306C122.632 121.714 122.044 121.123 121.457 121.123H114.255V116.837C129.393 116.542 138.651 116.247 138.799 116.247C143.648 116.098 147.91 115.064 151.291 113.439C154.23 111.961 156.581 110.039 158.493 107.675C162.607 102.354 162.312 96.2936 161.873 94.5201ZM81.187 129.844C81.187 132.208 79.2771 134.129 76.9262 134.129C74.5737 134.129 72.6638 132.208 72.6638 129.844C72.6638 127.478 74.5737 125.558 76.9262 125.558C79.2771 125.558 81.187 127.478 81.187 129.844ZM125.865 138.12C125.865 140.484 123.955 142.406 121.603 142.406C119.252 142.406 117.341 140.484 117.341 138.12C117.341 135.754 119.252 133.834 121.603 133.834C123.955 133.686 125.865 135.754 125.865 138.12Z" fill="white"/>
<path d="M105.144 127.036L104.996 89.7922C104.996 89.2 104.409 88.6094 103.821 88.6094C103.232 88.6094 102.645 89.2 102.645 89.7922L102.791 127.036C99.706 127.627 97.3535 130.286 97.3535 133.686C97.3535 137.381 100.293 140.336 103.968 140.336C107.642 140.336 110.582 137.381 110.582 133.686C110.582 130.434 108.229 127.627 105.144 127.036ZM103.968 138.12C101.616 138.12 99.706 136.198 99.706 133.834C99.706 131.469 101.616 129.547 103.968 129.547C106.319 129.547 108.229 131.469 108.229 133.834C108.229 136.05 106.319 138.12 103.968 138.12Z" fill="white"/>
<mask id="mask10_696_2907" style="mask-type:luminance" maskUnits="userSpaceOnUse" x="83" y="93" width="15" height="59">
<path d="M83.5732 93.8887H97.3408V151.569H83.5732V93.8887Z" fill="white"/>
</mask>
<g mask="url(#mask10_696_2907)">
<path d="M91.6208 138.268V126.593H94.5602C95.1487 126.593 95.7357 126.001 95.7357 125.41V95.1135C95.7357 94.5213 95.1487 93.9307 94.5602 93.9307C93.9733 93.9307 93.3848 94.5213 93.3848 95.1135V124.228H90.4454C89.8569 124.228 89.2699 124.82 89.2699 125.41V138.268C86.183 138.859 83.832 141.52 83.832 144.92C83.832 148.613 86.7715 151.57 90.4454 151.57C94.1193 151.57 97.0587 148.613 97.0587 144.92C97.0587 141.52 94.7078 138.712 91.6208 138.268ZM90.4454 149.206C88.0944 149.206 86.037 147.284 86.037 144.771C86.037 142.407 87.9469 140.485 90.2978 140.485C92.6503 140.485 94.5602 142.407 94.5602 144.771C94.7078 147.284 92.7963 149.206 90.4454 149.206Z" fill="white"/>
</g>
<path d="M161.873 94.9533C160.255 87.8596 155.699 84.608 152.173 82.9814C149.82 81.9471 147.617 81.5049 146.294 81.3564C146.587 79.583 146.882 76.0361 146.146 72.0455C144.823 64.3596 140.563 58.5971 133.654 55.1971C124.983 50.9112 117.636 52.2408 113.08 54.1627C109.699 55.4924 107.347 57.4143 106.171 58.4486C105.143 57.2658 103.379 55.4924 100.881 53.719C95.8842 50.1721 90.4463 48.9893 85.156 50.1721C78.2476 51.7986 73.9868 55.7877 71.7818 58.8924C70.0178 61.2565 69.1359 63.3252 68.6949 64.508C66.6374 64.508 61.6406 64.508 56.0567 66.1346C51.9418 67.3158 48.2664 69.0893 45.327 71.3064C41.9481 74.2627 39.3021 77.9565 37.8317 82.3908C35.3332 90.2236 35.9217 97.7611 39.3021 103.82C42.6826 109.88 48.8549 114.019 57.0847 115.792C60.9061 116.678 65.462 117.122 75.7492 117.27V123.625C72.6638 124.216 70.3113 126.877 70.3113 130.275C70.3113 133.97 73.2508 136.927 76.9262 136.927C80.6001 136.927 83.5395 133.97 83.5395 130.275C83.5395 127.024 81.187 124.216 78.1016 123.625V112.245H85.4494C86.0379 112.245 86.6249 111.653 86.6249 111.063V93.9189C86.6249 93.3268 86.0379 92.7361 85.4494 92.7361H71.6343C71.0473 92.7361 70.4588 93.3268 70.4588 93.9189C70.4588 94.5096 71.0473 95.1017 71.6343 95.1017H84.274V110.028H76.9262C76.3377 110.028 75.7492 110.619 75.7492 111.21V115.053C65.7554 114.905 61.3471 114.461 57.6732 113.575C50.1779 111.949 44.5925 108.106 41.5071 102.638C38.2727 97.1705 37.8317 90.2236 40.0366 83.1299C42.3875 75.8877 47.9729 70.8627 56.7912 68.3502C63.552 66.4299 69.5769 66.8721 69.5769 66.8721C70.1654 66.8721 70.6063 66.5768 70.7523 65.9861C70.7523 65.8377 73.8393 55.1971 85.7429 52.5377C90.2988 51.5018 95.0022 52.5377 99.5581 55.7877C103.086 58.1533 105.143 60.9611 105.143 60.9611C105.289 61.2565 105.73 61.4049 106.025 61.4049C106.319 61.4049 106.76 61.2565 106.907 61.1096C106.907 61.1096 109.552 58.3002 113.962 56.3799C119.987 53.8674 126.159 54.1627 132.626 57.2658C138.799 60.3705 142.62 65.3955 143.795 72.3408C144.677 77.6611 143.648 82.0955 143.648 82.0955C143.502 82.3908 143.648 82.8346 143.943 83.1299C144.089 83.4252 144.53 83.5736 144.823 83.5736C144.823 83.5736 147.763 83.5736 151.143 85.0517C155.553 86.9721 158.345 90.5189 159.521 95.3971C159.814 96.8752 160.109 101.9 156.581 106.628C153.055 111.358 147.028 113.87 138.651 114.166C138.505 114.166 129.246 114.61 114.255 114.758V96.7267H126.895C127.482 96.7267 128.07 96.1361 128.07 95.5439C128.07 94.9533 127.482 94.3627 126.895 94.3627H113.08C112.491 94.3627 111.904 94.9533 111.904 95.5439V122.738C111.904 123.33 112.491 123.92 113.08 123.92H120.28V131.902C117.195 132.492 114.842 135.153 114.842 138.552C114.842 142.247 117.782 145.202 121.457 145.202C125.131 145.202 128.07 142.247 128.07 138.552C128.07 135.3 125.718 132.492 122.632 131.902V122.738C122.632 122.147 122.044 121.556 121.457 121.556H114.255V117.27C129.393 116.974 138.651 116.678 138.799 116.678C143.648 116.531 147.91 115.495 151.291 113.87C154.23 112.392 156.581 110.472 158.493 108.106C162.607 102.786 162.312 96.7267 161.873 94.9533ZM81.187 130.275C81.187 132.641 79.2771 134.561 76.9262 134.561C74.5737 134.561 72.6638 132.641 72.6638 130.275C72.6638 127.911 74.5737 125.989 76.9262 125.989C79.2771 125.989 81.187 127.911 81.187 130.275ZM125.865 138.552C125.865 140.916 123.955 142.838 121.603 142.838C119.252 142.838 117.341 140.916 117.341 138.552C117.341 136.188 119.252 134.266 121.603 134.266C123.955 134.117 125.865 136.188 125.865 138.552Z" fill="white"/>
<path d="M105.144 127.468L104.996 90.2238C104.996 89.6332 104.409 89.041 103.821 89.041C103.232 89.041 102.645 89.6332 102.645 90.2238L102.791 127.468C99.706 128.058 97.3535 130.719 97.3535 134.118C97.3535 137.813 100.293 140.769 103.968 140.769C107.642 140.769 110.582 137.813 110.582 134.118C110.582 130.868 108.229 128.058 105.144 127.468ZM103.968 138.552C101.616 138.552 99.706 136.63 99.706 134.266C99.706 131.902 101.616 129.98 103.968 129.98C106.319 129.98 108.229 131.902 108.229 134.266C108.229 136.483 106.319 138.552 103.968 138.552Z" fill="white"/>
<mask id="mask11_696_2907" style="mask-type:luminance" maskUnits="userSpaceOnUse" x="83" y="94" width="15" height="59">
<path d="M83.5732 94.2842H97.3408V152H83.5732V94.2842Z" fill="white"/>
</mask>
<g mask="url(#mask11_696_2907)">
<path d="M91.6208 138.7V127.023H94.5602C95.1487 127.023 95.7357 126.433 95.7357 125.842V95.5436C95.7357 94.9529 95.1487 94.3623 94.5602 94.3623C93.9733 94.3623 93.3848 94.9529 93.3848 95.5436V124.659H90.4454C89.8569 124.659 89.2699 125.25 89.2699 125.842V138.7C86.183 139.29 83.832 141.951 83.832 145.35C83.832 149.045 86.7715 152 90.4454 152C94.1193 152 97.0587 149.045 97.0587 145.35C97.0587 141.951 94.7078 139.142 91.6208 138.7ZM90.4454 149.636C88.0944 149.636 86.037 147.714 86.037 145.201C86.037 142.837 87.9469 140.915 90.2978 140.915C92.6503 140.915 94.5602 142.837 94.5602 145.201C94.7078 147.714 92.7963 149.636 90.4454 149.636Z" fill="white"/>
</g>
<path d="M162.168 94.089C160.55 86.9953 155.994 83.7437 152.468 82.1172C150.115 81.0828 147.912 80.6391 146.589 80.4922C146.882 78.7187 147.177 75.1719 146.441 71.1813C145.118 63.4953 140.857 57.7328 133.949 54.3328C125.278 50.0469 117.931 51.3766 113.375 53.2985C109.994 54.6281 107.642 56.55 106.466 57.5844C105.438 56.4016 103.674 54.6281 101.176 52.8547C96.1791 49.3078 90.7412 48.125 85.4509 49.3078C78.5425 50.9344 74.2817 54.9235 72.0767 58.0281C70.3128 60.3922 69.4308 62.461 68.9898 63.6438C66.9323 63.6438 61.9355 63.6438 56.3516 65.2688C52.2368 66.4516 48.5613 68.225 45.6219 70.4422C42.243 73.3984 39.5971 77.0922 38.1266 81.5266C35.6281 89.3594 36.2166 96.8969 39.5971 102.956C42.9775 109.016 49.1498 113.155 57.3796 114.928C61.201 115.814 65.7569 116.258 76.0441 116.405V122.761C72.9587 123.352 70.6062 126.012 70.6062 129.411C70.6062 133.106 73.5457 136.062 77.2211 136.062C80.895 136.062 83.8344 133.106 83.8344 129.411C83.8344 126.159 81.482 123.352 78.3966 122.761V111.381H85.7444C86.3329 111.381 86.9198 110.789 86.9198 110.198V93.0547C86.9198 92.4625 86.3329 91.8719 85.7444 91.8719H71.9292C71.3423 91.8719 70.7538 92.4625 70.7538 93.0547C70.7538 93.6453 71.3423 94.2359 71.9292 94.2359H84.5689V109.164H77.2211C76.6326 109.164 76.0441 109.755 76.0441 110.345V114.189C66.0504 114.041 61.642 113.597 57.9681 112.711C50.4728 111.084 44.8874 107.242 41.802 101.773C38.5676 96.3062 38.1266 89.3594 40.3315 82.2656C42.6825 75.0234 48.2678 69.9984 57.0861 67.4859C63.8469 65.5656 69.8718 66.0078 69.8718 66.0078C70.4603 66.0078 70.9013 65.7125 71.0472 65.1219C71.0472 64.9735 74.1342 54.3328 86.0379 51.6719C90.5937 50.6375 95.2971 51.6719 99.853 54.9235C103.381 57.2891 105.438 60.0969 105.438 60.0969C105.584 60.3922 106.025 60.5406 106.32 60.5406C106.614 60.5406 107.055 60.3922 107.202 60.2453C107.202 60.2453 109.847 57.436 114.257 55.5156C120.281 53.0031 126.454 53.2985 132.921 56.4016C139.093 59.5063 142.915 64.5313 144.09 71.4766C144.972 76.7969 143.943 81.2312 143.943 81.2312C143.797 81.5266 143.943 81.9703 144.238 82.2656C144.384 82.5609 144.825 82.7094 145.118 82.7094C145.118 82.7094 148.058 82.7094 151.438 84.1875C155.848 86.1078 158.64 89.6547 159.815 94.5328C160.109 96.0109 160.404 101.034 156.876 105.764C153.35 110.494 147.323 113.006 138.946 113.302C138.8 113.302 129.541 113.745 114.55 113.894V95.8625H127.19C127.777 95.8625 128.365 95.2719 128.365 94.6797C128.365 94.089 127.777 93.4984 127.19 93.4984H113.375C112.786 93.4984 112.199 94.089 112.199 94.6797V121.873C112.199 122.466 112.786 123.056 113.375 123.056H120.575V131.037C117.49 131.628 115.137 134.287 115.137 137.687C115.137 141.383 118.077 144.337 121.752 144.337C125.426 144.337 128.365 141.383 128.365 137.687C128.365 134.436 126.013 131.628 122.927 131.037V121.873C122.927 121.283 122.339 120.692 121.752 120.692H114.55V116.405C129.688 116.109 138.946 115.814 139.093 115.814C143.943 115.667 148.205 114.631 151.586 113.006C154.525 111.528 156.876 109.606 158.787 107.242C162.902 101.922 162.607 95.8625 162.168 94.089ZM81.482 129.411C81.482 131.777 79.572 133.697 77.2211 133.697C74.8686 133.697 72.9587 131.777 72.9587 129.411C72.9587 127.047 74.8686 125.125 77.2211 125.125C79.572 125.125 81.482 127.047 81.482 129.411ZM126.16 137.687C126.16 140.052 124.25 141.973 121.898 141.973C119.547 141.973 117.636 140.052 117.636 137.687C117.636 135.323 119.547 133.402 121.898 133.402C124.25 133.253 126.16 135.323 126.16 137.687Z" fill="white"/>
<path d="M105.438 126.602L105.29 89.3586C105.29 88.768 104.703 88.1758 104.115 88.1758C103.526 88.1758 102.939 88.768 102.939 89.3586L103.085 126.602C99.9999 127.193 97.6475 129.854 97.6475 133.252C97.6475 136.948 100.587 139.904 104.262 139.904C107.936 139.904 110.876 136.948 110.876 133.252C110.876 130.001 108.523 127.193 105.438 126.602ZM104.262 137.687C101.91 137.687 99.9999 135.765 99.9999 133.401C99.9999 131.037 101.91 129.115 104.262 129.115C106.613 129.115 108.523 131.037 108.523 133.401C108.523 135.618 106.613 137.687 104.262 137.687Z" fill="white"/>
<mask id="mask12_696_2907" style="mask-type:luminance" maskUnits="userSpaceOnUse" x="83" y="93" width="15" height="59">
<path d="M83.9668 93.4912H97.7343V151.135H83.9668V93.4912Z" fill="white"/>
</mask>
<g mask="url(#mask12_696_2907)">
<path d="M91.9167 137.836V126.159H94.8561C95.4446 126.159 96.0316 125.568 96.0316 124.978V94.6793C96.0316 94.0887 95.4446 93.498 94.8561 93.498C94.2692 93.498 93.6807 94.0887 93.6807 94.6793V123.795H90.7413C90.1528 123.795 89.5658 124.386 89.5658 124.978V137.836C86.4789 138.426 84.1279 141.086 84.1279 144.486C84.1279 148.181 87.0674 151.136 90.7413 151.136C94.4152 151.136 97.3546 148.181 97.3546 144.486C97.3546 141.086 95.0037 138.278 91.9167 137.836ZM90.7413 148.771C88.3903 148.771 86.3329 146.85 86.3329 144.337C86.3329 141.973 88.2428 140.051 90.5937 140.051C92.9462 140.051 94.8561 141.973 94.8561 144.337C95.0037 146.85 93.0922 148.771 90.7413 148.771Z" fill="white"/>
</g>
<path d="M161.578 94.9533C159.96 87.8596 155.404 84.608 151.878 82.9814C149.525 81.9471 147.322 81.5049 145.999 81.3564C146.292 79.583 146.587 76.0361 145.851 72.0455C144.528 64.3596 140.268 58.5971 133.359 55.1971C124.689 50.9112 117.341 52.2408 112.785 54.1627C109.404 55.4924 107.052 57.4143 105.876 58.4486C104.849 57.2658 103.085 55.4924 100.586 53.719C95.5893 50.1721 90.1514 48.9893 84.861 50.1721C77.9527 51.7986 73.6918 55.7877 71.4869 58.8924C69.7229 61.2565 68.8409 63.3252 68.3999 64.508C66.3425 64.508 61.3456 64.508 55.7618 66.1346C51.6469 67.3158 47.9715 69.0893 45.032 71.3064C41.6532 74.2627 39.0072 77.9565 37.5367 82.3908C35.0383 90.2236 35.6268 97.7611 39.0072 103.82C42.3876 109.88 48.56 114.019 56.7898 115.792C60.6112 116.678 65.167 117.122 75.4543 117.27V123.625C72.3689 124.216 70.0164 126.877 70.0164 130.275C70.0164 133.97 72.9558 136.927 76.6313 136.927C80.3052 136.927 83.2446 133.97 83.2446 130.275C83.2446 127.024 80.8921 124.216 77.8067 123.625V112.245H85.1545C85.743 112.245 86.33 111.653 86.33 111.063V93.9189C86.33 93.3268 85.743 92.7361 85.1545 92.7361H71.3394C70.7524 92.7361 70.1639 93.3268 70.1639 93.9189C70.1639 94.5096 70.7524 95.1017 71.3394 95.1017H83.9791V110.028H76.6313C76.0428 110.028 75.4543 110.619 75.4543 111.21V115.053C65.4605 114.905 61.0521 114.461 57.3783 113.575C49.8829 111.949 44.2976 108.106 41.2122 102.638C37.9777 97.1705 37.5367 90.2236 39.7417 83.1299C42.0926 75.8877 47.678 70.8627 56.4963 68.3502C63.2571 66.4299 69.2819 66.8721 69.2819 66.8721C69.8704 66.8721 70.3114 66.5768 70.4574 65.9861C70.4574 65.8377 73.5443 55.1971 85.448 52.5377C90.0039 51.5018 94.7073 52.5377 99.2632 55.7877C102.791 58.1533 104.849 60.9611 104.849 60.9611C104.995 61.2565 105.435 61.4049 105.731 61.4049C106.024 61.4049 106.465 61.2565 106.612 61.1096C106.612 61.1096 109.257 58.3002 113.667 56.3799C119.692 53.8674 125.864 54.1627 132.331 57.2658C138.504 60.3705 142.325 65.3955 143.501 72.3408C144.383 77.6611 143.353 82.0955 143.353 82.0955C143.207 82.3908 143.353 82.8346 143.648 83.1299C143.794 83.4252 144.235 83.5736 144.528 83.5736C144.528 83.5736 147.468 83.5736 150.848 85.0517C155.258 86.9721 158.05 90.5189 159.226 95.3971C159.519 96.8752 159.814 101.9 156.286 106.628C152.76 111.358 146.733 113.87 138.356 114.166C138.21 114.166 128.951 114.61 113.96 114.758V96.7267H126.6C127.187 96.7267 127.775 96.1361 127.775 95.5439C127.775 94.9533 127.187 94.3627 126.6 94.3627H112.785C112.196 94.3627 111.609 94.9533 111.609 95.5439V122.738C111.609 123.33 112.196 123.92 112.785 123.92H119.985V131.902C116.9 132.492 114.547 135.153 114.547 138.552C114.547 142.247 117.487 145.202 121.162 145.202C124.836 145.202 127.775 142.247 127.775 138.552C127.775 135.3 125.423 132.492 122.338 131.902V122.738C122.338 122.147 121.749 121.556 121.162 121.556H113.96V117.27C129.098 116.974 138.356 116.678 138.504 116.678C143.353 116.531 147.615 115.495 150.996 113.87C153.935 112.392 156.286 110.472 158.198 108.106C162.313 102.786 162.018 96.7267 161.578 94.9533ZM80.8921 130.275C80.8921 132.641 78.9822 134.561 76.6313 134.561C74.2788 134.561 72.3689 132.641 72.3689 130.275C72.3689 127.911 74.2788 125.989 76.6313 125.989C78.9822 125.989 80.8921 127.911 80.8921 130.275ZM125.57 138.552C125.57 140.916 123.661 142.838 121.308 142.838C118.957 142.838 117.046 140.916 117.046 138.552C117.046 136.188 118.957 134.266 121.308 134.266C123.661 134.117 125.57 136.188 125.57 138.552Z" fill="white"/>
<path d="M104.848 127.468L104.7 90.2238C104.7 89.6332 104.113 89.041 103.525 89.041C102.936 89.041 102.35 89.6332 102.35 90.2238L102.495 127.468C99.4101 128.058 97.0576 130.719 97.0576 134.118C97.0576 137.813 99.997 140.769 103.672 140.769C107.346 140.769 110.286 137.813 110.286 134.118C110.286 130.868 107.933 128.058 104.848 127.468ZM103.672 138.552C101.32 138.552 99.4101 136.63 99.4101 134.266C99.4101 131.902 101.32 129.98 103.672 129.98C106.023 129.98 107.933 131.902 107.933 134.266C107.933 136.483 106.023 138.552 103.672 138.552Z" fill="white"/>
<mask id="mask13_696_2907" style="mask-type:luminance" maskUnits="userSpaceOnUse" x="83" y="94" width="14" height="59">
<path d="M83.1797 94.2842H96.9472V152H83.1797V94.2842Z" fill="white"/>
</mask>
<g mask="url(#mask13_696_2907)">
<path d="M91.3269 138.7V127.023H94.2663C94.8548 127.023 95.4418 126.433 95.4418 125.842V95.5436C95.4418 94.9529 94.8548 94.3623 94.2663 94.3623C93.6793 94.3623 93.0908 94.9529 93.0908 95.5436V124.659H90.1514C89.5629 124.659 88.9759 125.25 88.9759 125.842V138.7C85.889 139.29 83.5381 141.951 83.5381 145.35C83.5381 149.045 86.4775 152 90.1514 152C93.8253 152 96.7647 149.045 96.7647 145.35C96.7647 141.951 94.4138 139.142 91.3269 138.7ZM90.1514 149.636C87.8005 149.636 85.743 147.714 85.743 145.201C85.743 142.837 87.653 140.915 90.0039 140.915C92.3564 140.915 94.2663 142.837 94.2663 145.201C94.4138 147.714 92.5023 149.636 90.1514 149.636Z" fill="white"/>
</g>
</svg>
