<svg width="200" height="200" viewBox="0 0 200 200" fill="none" xmlns="http://www.w3.org/2000/svg">
<circle cx="100" cy="100" r="100" fill="#0E5FB1"/>
<mask id="mask0_696_2906" style="mask-type:luminance" maskUnits="userSpaceOnUse" x="42" y="52" width="115" height="96">
<path d="M42 52H157V148H42V52Z" fill="white"/>
</mask>
<g mask="url(#mask0_696_2906)">
<path d="M156.967 121.565V60.3377C156.967 60.0654 156.954 59.7932 156.926 59.5209C156.897 59.2487 156.855 58.9791 156.798 58.712C156.741 58.4437 156.672 58.1793 156.588 57.9175C156.504 57.6571 156.407 57.3992 156.296 57.1479C156.185 56.8953 156.062 56.6479 155.926 56.4071C155.789 56.1662 155.641 55.9332 155.48 55.7055C155.32 55.4791 155.148 55.2592 154.964 55.0484C154.781 54.8377 154.587 54.6348 154.383 54.4424C154.178 54.2487 153.964 54.0654 153.741 53.8927C153.518 53.7199 153.285 53.5576 153.045 53.4058C152.805 53.2539 152.557 53.1139 152.302 52.9843C152.047 52.856 151.786 52.7395 151.519 52.6348C151.252 52.5301 150.981 52.4385 150.703 52.3586C150.427 52.2801 150.146 52.2134 149.863 52.1597C149.579 52.1073 149.293 52.0668 149.006 52.0406C148.718 52.0131 148.43 52 148.141 52H50.8576C50.5692 52 50.2808 52.0131 49.9924 52.0406C49.7054 52.0668 49.4198 52.1073 49.1356 52.1597C48.8527 52.2134 48.5713 52.2801 48.2954 52.3586C48.0181 52.4385 47.7463 52.5301 47.4801 52.6348C47.2125 52.7395 46.9519 52.856 46.6967 52.9843C46.4416 53.1139 46.1935 53.2539 45.9536 53.4058C45.7137 53.5576 45.4808 53.7199 45.2576 53.8927C45.0344 54.0654 44.8208 54.2487 44.6156 54.4424C44.4118 54.6348 44.2177 54.8377 44.0347 55.0484C43.8503 55.2592 43.6784 55.4791 43.5189 55.7055C43.3581 55.9332 43.2098 56.1662 43.0725 56.4071C42.9366 56.6479 42.8132 56.8953 42.7023 57.1479C42.5914 57.3992 42.4943 57.6558 42.4111 57.9175C42.3266 58.1793 42.2572 58.4437 42.2004 58.712C42.1436 58.9791 42.102 59.2487 42.0728 59.5209C42.0451 59.7932 42.0312 60.0654 42.0312 60.3377V121.565C42.0312 121.839 42.0451 122.111 42.0728 122.382C42.102 122.654 42.1436 122.924 42.2004 123.192C42.2572 123.459 42.3266 123.724 42.4111 123.986C42.4943 124.247 42.5914 124.504 42.7023 124.757C42.8132 125.008 42.9366 125.255 43.0725 125.496C43.2098 125.737 43.3581 125.971 43.5189 126.198C43.6784 126.425 43.8503 126.644 44.0347 126.855C44.2177 127.065 44.4118 127.268 44.6156 127.461C44.8208 127.654 45.0344 127.838 45.2576 128.01C45.4808 128.185 45.7137 128.347 45.9536 128.499C46.1935 128.651 46.4416 128.791 46.6967 128.919C46.9519 129.047 47.2125 129.164 47.4801 129.268C47.7463 129.373 48.0181 129.465 48.2954 129.545C48.5713 129.623 48.8513 129.69 49.1356 129.743C49.4184 129.797 49.7054 129.836 49.9924 129.864C50.2808 129.89 50.5692 129.903 50.8576 129.903H87.4564V134.729C87.4564 134.949 87.4453 135.169 87.4218 135.387C87.3996 135.607 87.3649 135.825 87.3192 136.041C87.2734 136.258 87.2179 136.471 87.15 136.682C87.0821 136.893 87.003 137.099 86.9143 137.304C86.8242 137.507 86.7257 137.705 86.6148 137.901C86.5053 138.094 86.3861 138.284 86.2557 138.467C86.1268 138.651 85.9881 138.827 85.8398 138.997C85.6914 139.168 85.5348 139.33 85.3698 139.486C85.2048 139.643 85.0329 139.789 84.8526 139.929C84.6724 140.069 84.4852 140.2 84.2911 140.323C84.097 140.445 83.8973 140.559 83.6907 140.662C83.4855 140.766 83.2748 140.86 83.0585 140.945C82.8436 141.029 82.6245 141.103 82.4013 141.168C82.1781 141.232 81.9521 141.284 81.7233 141.327C81.4946 141.37 81.263 141.403 81.0315 141.424C80.7986 141.446 80.567 141.457 80.3327 141.457H72.3618C72.1358 141.457 71.9098 141.467 71.6838 141.488C71.4579 141.509 71.2332 141.541 71.0114 141.582C70.7882 141.624 70.5691 141.677 70.3514 141.738C70.1352 141.801 69.9216 141.873 69.7123 141.955C69.5029 142.037 69.2977 142.128 69.0981 142.229C68.897 142.33 68.7029 142.441 68.5144 142.559C68.3258 142.678 68.1442 142.806 67.9681 142.942C67.7934 143.079 67.6256 143.221 67.4648 143.373C67.3054 143.525 67.1528 143.683 67.0086 143.849C66.8645 144.014 66.73 144.186 66.6038 144.364C66.4776 144.543 66.3612 144.726 66.2544 144.915C66.1476 145.105 66.0506 145.297 65.9632 145.496C65.8773 145.694 65.801 145.895 65.7345 146.099C65.6693 146.305 65.6138 146.513 65.5695 146.723C65.5251 146.933 65.4918 147.145 65.4697 147.357C65.4475 147.571 65.4364 147.785 65.4364 147.999H133.564C133.564 147.785 133.553 147.571 133.529 147.357C133.507 147.144 133.474 146.933 133.431 146.723C133.386 146.513 133.331 146.305 133.264 146.099C133.199 145.895 133.123 145.694 133.035 145.496C132.95 145.297 132.852 145.105 132.746 144.915C132.639 144.726 132.522 144.543 132.396 144.364C132.27 144.186 132.134 144.014 131.991 143.848C131.847 143.683 131.695 143.525 131.534 143.373C131.374 143.221 131.207 143.077 131.031 142.942C130.856 142.806 130.674 142.678 130.486 142.559C130.296 142.44 130.102 142.33 129.902 142.229C129.702 142.128 129.497 142.037 129.288 141.955C129.078 141.873 128.865 141.801 128.647 141.738C128.431 141.677 128.211 141.624 127.989 141.582C127.765 141.541 127.542 141.509 127.316 141.488C127.09 141.467 126.864 141.457 126.637 141.457H118.666C118.432 141.457 118.199 141.446 117.967 141.424C117.736 141.403 117.504 141.37 117.275 141.327C117.047 141.284 116.821 141.232 116.597 141.168C116.374 141.103 116.155 141.029 115.94 140.945C115.724 140.86 115.513 140.766 115.308 140.662C115.101 140.559 114.902 140.445 114.708 140.323C114.514 140.2 114.326 140.069 114.146 139.929C113.966 139.789 113.794 139.643 113.629 139.486C113.464 139.33 113.307 139.168 113.159 138.997C113.011 138.827 112.872 138.651 112.743 138.467C112.613 138.284 112.493 138.094 112.384 137.901C112.273 137.705 112.173 137.507 112.084 137.304C111.996 137.099 111.917 136.893 111.849 136.682C111.781 136.471 111.725 136.258 111.68 136.041C111.634 135.825 111.599 135.607 111.577 135.387C111.553 135.169 111.542 134.949 111.542 134.729V129.903H148.141C148.43 129.903 148.718 129.89 149.006 129.864C149.293 129.836 149.579 129.797 149.863 129.743C150.146 129.69 150.426 129.623 150.703 129.545C150.981 129.465 151.252 129.373 151.519 129.268C151.786 129.164 152.047 129.047 152.302 128.919C152.557 128.791 152.805 128.651 153.045 128.499C153.285 128.347 153.518 128.185 153.741 128.01C153.964 127.838 154.178 127.654 154.383 127.461C154.587 127.268 154.781 127.065 154.964 126.855C155.147 126.644 155.32 126.425 155.48 126.198C155.641 125.971 155.789 125.737 155.926 125.496C156.062 125.255 156.185 125.009 156.296 124.757C156.407 124.504 156.504 124.247 156.588 123.986C156.672 123.724 156.741 123.459 156.798 123.192C156.855 122.924 156.897 122.654 156.926 122.382C156.954 122.111 156.967 121.839 156.967 121.565ZM47.4191 118.488V60.7016C47.4191 60.4712 47.4427 60.2435 47.4898 60.017C47.537 59.7919 47.6077 59.572 47.7006 59.3599C47.7948 59.1479 47.9085 58.945 48.0444 58.7539C48.1789 58.5628 48.3328 58.3861 48.5047 58.2225C48.678 58.0602 48.8652 57.9149 49.0676 57.7866C49.27 57.6597 49.4836 57.551 49.7096 57.4634C49.9342 57.3757 50.1657 57.3089 50.4056 57.2644C50.644 57.2186 50.8853 57.1963 51.1293 57.1963H147.869C148.113 57.1963 148.355 57.2186 148.593 57.2644C148.833 57.3089 149.065 57.3757 149.289 57.4634C149.515 57.551 149.729 57.6597 149.931 57.7866C150.134 57.9149 150.321 58.0602 150.494 58.2225C150.666 58.3861 150.82 58.5628 150.954 58.7539C151.09 58.945 151.204 59.1479 151.298 59.3599C151.391 59.572 151.462 59.7919 151.509 60.017C151.556 60.2435 151.58 60.4712 151.58 60.7016V118.488C151.58 118.719 151.556 118.946 151.509 119.171C151.462 119.398 151.391 119.616 151.298 119.83C151.204 120.042 151.09 120.243 150.954 120.435C150.82 120.627 150.666 120.804 150.494 120.966C150.321 121.128 150.134 121.274 149.931 121.402C149.729 121.53 149.515 121.637 149.289 121.726C149.065 121.814 148.833 121.881 148.593 121.925C148.355 121.97 148.113 121.992 147.869 121.992H51.1293C50.8853 121.992 50.644 121.97 50.4056 121.925C50.1657 121.881 49.9342 121.814 49.7096 121.726C49.4836 121.637 49.27 121.53 49.0676 121.402C48.8652 121.274 48.678 121.128 48.5047 120.966C48.3328 120.804 48.1789 120.627 48.0444 120.435C47.9085 120.243 47.7948 120.042 47.7006 119.83C47.6077 119.616 47.537 119.398 47.4898 119.171C47.4427 118.946 47.4191 118.719 47.4191 118.488Z" fill="white"/>
</g>
<mask id="mask1_696_2906" style="mask-type:luminance" maskUnits="userSpaceOnUse" x="68" y="62" width="29" height="54">
<path d="M68.083 62.6572H96.0649V115.877H68.083V62.6572Z" fill="white"/>
</mask>
<g mask="url(#mask1_696_2906)">
<path d="M124.226 93.669C124.342 90.08 124.342 90.0735 124.457 86.4858L118.572 84.3182C117.722 82.2017 117.297 81.1389 116.448 79.0224L119.334 73.7148C116.726 71.1075 116.719 71.1009 114.113 68.4858L108.332 70.8797L102.871 68.5525L100.933 62.8771L93.3308 62.6572L91.0278 68.2148C88.7928 69.0159 87.6601 69.4177 85.4278 70.2187L79.8043 67.4975C77.0341 69.9504 77.0272 69.9583 74.257 72.4177L76.7929 77.8811C75.8168 79.9386 75.3204 80.9792 74.3346 83.0355L68.3159 84.868C68.1995 88.4557 68.1995 88.4622 68.083 92.0434L73.97 94.2174C74.8185 96.3261 75.2442 97.3955 76.0927 99.5119L73.2102 104.814C75.8168 107.428 75.8237 107.436 78.422 110.049L84.2091 107.655C86.397 108.577 87.4979 109.046 89.6774 109.975L91.6101 115.659L99.2219 115.877L101.517 110.321C103.758 109.518 104.883 109.118 107.125 108.316L112.748 111.041L118.286 106.119L115.75 100.657C116.741 98.5996 117.232 97.5512 118.217 95.4936L124.226 93.669ZM96.2701 104.881C95.7294 104.881 95.1886 104.856 94.6493 104.805C94.11 104.755 93.5748 104.681 93.0438 104.58C92.5127 104.481 91.9887 104.356 91.4701 104.208C90.9516 104.06 90.4427 103.888 89.9422 103.693C89.4417 103.496 88.9523 103.278 88.4753 103.037C87.997 102.796 87.5339 102.533 87.0833 102.249C86.6327 101.965 86.1987 101.661 85.78 101.337C85.3613 101.012 84.9606 100.669 84.5779 100.308C84.1953 99.9465 83.832 99.5682 83.4882 99.1729C83.1443 98.7776 82.8227 98.3667 82.5218 97.9413C82.2209 97.5172 81.9422 97.0787 81.6871 96.6271C81.432 96.1769 81.2005 95.7148 80.9925 95.2423C80.7859 94.7698 80.6043 94.2894 80.4462 93.7999C80.2896 93.3104 80.1578 92.8156 80.0525 92.3143C79.9471 91.813 79.8667 91.3078 79.814 90.7986C79.7613 90.2894 79.735 89.7803 79.735 89.2685C79.735 88.7567 79.7613 88.2475 79.814 87.7384C79.8667 87.2292 79.9471 86.724 80.0525 86.2227C80.1578 85.7214 80.2896 85.2266 80.4462 84.7371C80.6043 84.2475 80.7859 83.7672 80.9939 83.2947C81.2005 82.8222 81.432 82.3601 81.6871 81.9098C81.9422 81.4583 82.2209 81.0198 82.5218 80.5957C82.8227 80.1703 83.1443 79.7593 83.4882 79.3653C83.832 78.9701 84.1953 78.5905 84.5779 78.2292C84.9606 77.868 85.3613 77.525 85.78 77.2004C86.1987 76.8758 86.6341 76.5721 87.0847 76.2881C87.5339 76.0041 87.9984 75.741 88.4767 75.5002C88.9537 75.2593 89.4431 75.0407 89.9436 74.8457C90.4427 74.6494 90.953 74.4779 91.4715 74.3287C91.9887 74.1808 92.5141 74.0564 93.0452 73.957C93.5762 73.8575 94.1114 73.7829 94.6507 73.7318C95.19 73.6821 95.7294 73.6572 96.2715 73.6572C96.8136 73.6572 97.3529 73.6821 97.8923 73.7318C98.4316 73.7816 98.9668 73.8575 99.4978 73.957C100.029 74.0564 100.553 74.1808 101.071 74.3287C101.59 74.4779 102.099 74.6494 102.599 74.8444C103.1 75.0407 103.589 75.2593 104.066 75.5002C104.545 75.741 105.008 76.0041 105.458 76.2881C105.909 76.5721 106.343 76.8758 106.762 77.2004C107.18 77.525 107.582 77.868 107.965 78.2292C108.348 78.5905 108.711 78.9687 109.055 79.364C109.399 79.7593 109.72 80.169 110.021 80.5944C110.322 81.0198 110.601 81.457 110.856 81.9085C111.111 82.3588 111.342 82.8208 111.549 83.2934C111.757 83.7659 111.939 84.2462 112.097 84.7358C112.253 85.2253 112.385 85.7201 112.491 86.2214C112.597 86.724 112.676 87.2279 112.729 87.7371C112.783 88.2462 112.809 88.7567 112.809 89.2672C112.809 89.779 112.782 90.2894 112.729 90.7973C112.676 91.3064 112.596 91.8117 112.491 92.313C112.385 92.8143 112.253 93.3104 112.095 93.7999C111.939 94.2881 111.756 94.7698 111.549 95.2423C111.341 95.7148 111.111 96.1756 110.854 96.6271C110.599 97.0774 110.322 97.5159 110.02 97.9413C109.719 98.3653 109.397 98.7763 109.053 99.1716C108.71 99.5669 108.346 99.9452 107.964 100.306C107.581 100.668 107.18 101.011 106.762 101.335C106.343 101.66 105.908 101.964 105.458 102.249C105.008 102.533 104.543 102.795 104.066 103.036C103.588 103.278 103.099 103.495 102.599 103.691C102.099 103.888 101.589 104.059 101.071 104.207C100.553 104.356 100.027 104.481 99.4964 104.58C98.9654 104.679 98.4302 104.755 97.8909 104.805C97.3529 104.855 96.8122 104.881 96.2701 104.881Z" fill="white"/>
</g>
<mask id="mask2_696_2906" style="mask-type:luminance" maskUnits="userSpaceOnUse" x="97" y="58" width="34" height="62">
<path d="M97.7725 58.7578H130.735V119.742H97.7725V58.7578Z" fill="white"/>
</mask>
<g mask="url(#mask2_696_2906)">
<path fill-rule="evenodd" clip-rule="evenodd" d="M96.959 88.3266H122.408C122.48 88.3266 122.541 88.2835 122.56 88.218C123.391 85.4667 127.089 84.5125 129.274 86.578C130.845 88.0649 130.845 90.4746 129.274 91.9602C127.089 94.0269 123.391 93.0727 122.56 90.3214C122.541 90.256 122.48 90.2115 122.408 90.2115H96.959C96.8703 90.2115 96.7996 90.1447 96.7996 90.0609V88.4772C96.7996 88.3947 96.8703 88.3266 96.959 88.3266ZM86.6908 114.561C91.1733 114.561 94.8058 111.124 94.8058 106.884V68.6565C94.8058 66.0845 92.5791 63.9772 89.8603 63.9772C87.1386 63.9772 84.9064 66.0976 84.9105 68.6552C84.9105 69.4065 83.9844 69.8777 83.3216 69.4078C81.357 68.0125 78.5965 68.1971 76.8537 69.845C75.5477 71.0806 75.0582 72.9444 75.6544 74.6369C75.9927 75.6002 76.4184 75.8921 76.5376 76.2193C76.7151 76.7102 76.4392 77.2468 75.9178 77.4157C70.4357 79.1944 66.6895 84.0753 66.6895 89.6447C66.6895 96.1369 71.7598 101.581 78.4939 102.452C79.1414 102.536 79.5393 103.191 79.269 103.766C76.9161 108.761 80.758 114.561 86.6908 114.561ZM112.967 107.095C112.967 105.375 114.182 103.897 115.879 103.437C115.948 103.418 115.995 103.359 115.995 103.291V98.9536C115.995 98.8698 115.923 98.8018 115.836 98.8018H96.959C96.8703 98.8018 96.7996 98.735 96.7996 98.6513V97.0675C96.7996 96.985 96.8703 96.917 96.959 96.917H116.991C117.541 96.917 117.988 97.3397 117.988 97.8594V103.291C117.988 103.359 118.033 103.418 118.103 103.437C121.01 104.222 122.021 107.719 119.836 109.786C118.265 111.273 115.718 111.273 114.146 109.786C113.418 109.098 112.967 108.146 112.967 107.095ZM102.58 115.685C102.58 116.736 103.029 117.688 103.758 118.376C105.329 119.863 107.876 119.863 109.447 118.376C111.632 116.31 110.623 112.811 107.715 112.027C107.645 112.009 107.599 111.95 107.599 111.882V106.45C107.599 105.93 107.152 105.507 106.603 105.507H96.9576C96.8703 105.507 96.7982 105.574 96.7982 105.658L96.7857 107.24C96.7857 107.325 96.8564 107.392 96.9452 107.392H105.447C105.534 107.392 105.606 107.46 105.606 107.543V111.882C105.606 111.95 105.561 112.007 105.491 112.027C103.793 112.488 102.58 113.965 102.58 115.685ZM114.147 74.1355C112.575 72.6486 112.575 70.239 114.147 68.7533C115.718 67.2664 118.265 67.2664 119.836 68.7533C122.021 70.8201 121.01 74.3175 118.103 75.1028C118.033 75.1211 117.988 75.1787 117.988 75.2481V80.6801C117.988 81.1997 117.541 81.6225 116.991 81.6225H96.959C96.8703 81.6225 96.7996 81.5544 96.7996 81.4706V79.8882C96.7996 79.8044 96.8703 79.7363 96.959 79.7363H115.836C115.923 79.7363 115.995 79.6696 115.995 79.5858V75.2481C115.995 75.1787 115.948 75.1211 115.879 75.1028C115.215 74.9222 114.621 74.5845 114.147 74.1355ZM103.758 65.5452C104.232 65.9942 104.827 66.3319 105.491 66.5125C105.561 66.5308 105.606 66.5884 105.606 66.6578V70.9955C105.606 71.0793 105.534 71.1473 105.447 71.1473H96.959C96.8703 71.1473 96.7996 71.2141 96.7996 71.2979V72.8803C96.7996 72.9641 96.8703 73.0321 96.959 73.0321H106.602C107.152 73.0321 107.599 72.6094 107.599 72.0897V66.6578C107.599 66.5884 107.645 66.5308 107.714 66.5125C110.621 65.7272 111.632 62.2298 109.447 60.163C107.876 58.6761 105.329 58.6761 103.757 60.163C102.186 61.6486 102.186 64.0583 103.758 65.5452Z" fill="white"/>
<path fill-rule="evenodd" clip-rule="evenodd" d="M96.959 88.3266H122.408C122.48 88.3266 122.541 88.2835 122.56 88.218C123.391 85.4667 127.089 84.5125 129.274 86.578C130.845 88.0649 130.845 90.4746 129.274 91.9602C127.089 94.0269 123.391 93.0727 122.56 90.3214C122.541 90.256 122.48 90.2115 122.408 90.2115H96.959C96.8703 90.2115 96.7996 90.1447 96.7996 90.0609V88.4772C96.7996 88.3947 96.8703 88.3266 96.959 88.3266ZM86.6908 114.561C91.1733 114.561 94.8058 111.124 94.8058 106.884V68.6565C94.8058 66.0845 92.5791 63.9772 89.8603 63.9772C87.1386 63.9772 84.9064 66.0976 84.9105 68.6552C84.9105 69.4065 83.9844 69.8777 83.3216 69.4078C81.357 68.0125 78.5965 68.1971 76.8537 69.845C75.5477 71.0806 75.0582 72.9444 75.6544 74.6369C75.9927 75.6002 76.4184 75.8921 76.5376 76.2193C76.7151 76.7102 76.4392 77.2468 75.9178 77.4157C70.4357 79.1944 66.6895 84.0753 66.6895 89.6447C66.6895 96.1369 71.7598 101.581 78.4939 102.452C79.1414 102.536 79.5393 103.191 79.269 103.766C76.9161 108.761 80.758 114.561 86.6908 114.561ZM112.967 107.095C112.967 105.375 114.182 103.897 115.879 103.437C115.948 103.418 115.995 103.359 115.995 103.291V98.9536C115.995 98.8698 115.923 98.8018 115.836 98.8018H96.959C96.8703 98.8018 96.7996 98.735 96.7996 98.6513V97.0675C96.7996 96.985 96.8703 96.917 96.959 96.917H116.991C117.541 96.917 117.988 97.3397 117.988 97.8594V103.291C117.988 103.359 118.033 103.418 118.103 103.437C121.01 104.222 122.021 107.719 119.836 109.786C118.265 111.273 115.718 111.273 114.146 109.786C113.418 109.098 112.967 108.146 112.967 107.095ZM102.58 115.685C102.58 116.736 103.029 117.688 103.758 118.376C105.329 119.863 107.876 119.863 109.447 118.376C111.632 116.31 110.623 112.811 107.715 112.027C107.645 112.009 107.599 111.95 107.599 111.882V106.45C107.599 105.93 107.152 105.507 106.603 105.507H96.9576C96.8703 105.507 96.7982 105.574 96.7982 105.658L96.7857 107.24C96.7857 107.325 96.8564 107.392 96.9452 107.392H105.447C105.534 107.392 105.606 107.46 105.606 107.543V111.882C105.606 111.95 105.561 112.007 105.491 112.027C103.793 112.488 102.58 113.965 102.58 115.685ZM114.147 74.1355C112.575 72.6486 112.575 70.239 114.147 68.7533C115.718 67.2664 118.265 67.2664 119.836 68.7533C122.021 70.8201 121.01 74.3175 118.103 75.1028C118.033 75.1211 117.988 75.1787 117.988 75.2481V80.6801C117.988 81.1997 117.541 81.6225 116.991 81.6225H96.959C96.8703 81.6225 96.7996 81.5544 96.7996 81.4706V79.8882C96.7996 79.8044 96.8703 79.7363 96.959 79.7363H115.836C115.923 79.7363 115.995 79.6696 115.995 79.5858V75.2481C115.995 75.1787 115.948 75.1211 115.879 75.1028C115.215 74.9222 114.621 74.5845 114.147 74.1355ZM103.758 65.5452C104.232 65.9942 104.827 66.3319 105.491 66.5125C105.561 66.5308 105.606 66.5884 105.606 66.6578V70.9955C105.606 71.0793 105.534 71.1473 105.447 71.1473H96.959C96.8703 71.1473 96.7996 71.2141 96.7996 71.2979V72.8803C96.7996 72.9641 96.8703 73.0321 96.959 73.0321H106.602C107.152 73.0321 107.599 72.6094 107.599 72.0897V66.6578C107.599 66.5884 107.645 66.5308 107.714 66.5125C110.621 65.7272 111.632 62.2298 109.447 60.163C107.876 58.6761 105.329 58.6761 103.757 60.163C102.186 61.6486 102.186 64.0583 103.758 65.5452Z" fill="white"/>
</g>
<mask id="mask3_696_2906" style="mask-type:luminance" maskUnits="userSpaceOnUse" x="97" y="59" width="34" height="62">
<path d="M97.7725 59.7627H130.735V120.412H97.7725V59.7627Z" fill="white"/>
</mask>
<g mask="url(#mask3_696_2906)">
<path fill-rule="evenodd" clip-rule="evenodd" d="M96.959 89.2362H122.408C122.48 89.2362 122.541 89.1917 122.56 89.1262C123.391 86.3762 127.089 85.4207 129.274 87.4875C130.845 88.9731 130.845 91.3828 129.274 92.8697C127.089 94.9364 123.391 93.9809 122.56 91.2309C122.541 91.1642 122.48 91.121 122.408 91.121H96.959C96.8703 91.121 96.7996 91.0529 96.7996 90.9704V89.3867C96.7996 89.3042 96.8703 89.2362 96.959 89.2362ZM86.6908 115.47C91.1733 115.47 94.8058 112.033 94.8058 107.792V69.566C94.8058 66.994 92.5791 64.8867 89.8603 64.8867C87.1386 64.8867 84.9064 67.0058 84.9105 69.5634C84.9105 70.3147 83.9844 70.7872 83.3216 70.316C81.357 68.9207 78.5965 69.1066 76.8537 70.7545C75.5477 71.9888 75.0582 73.8526 75.6544 75.5451C75.9927 76.5084 76.4184 76.8003 76.5376 77.1275C76.7151 77.6197 76.4392 78.155 75.9178 78.3239C70.4357 80.1026 66.6895 84.9848 66.6895 90.5529C66.6895 97.0451 71.7598 102.489 78.4939 103.361C79.1414 103.444 79.5393 104.099 79.269 104.675C76.9161 109.669 80.758 115.47 86.6908 115.47ZM112.967 108.004C112.967 106.285 114.182 104.806 115.879 104.345C115.948 104.326 115.995 104.269 115.995 104.201V99.8618C115.995 99.7793 115.923 99.7113 115.836 99.7113H96.959C96.8703 99.7113 96.7996 99.6432 96.7996 99.5608V97.977C96.7996 97.8932 96.8703 97.8265 96.959 97.8265H116.991C117.541 97.8265 117.988 98.2479 117.988 98.7689V104.201C117.988 104.269 118.033 104.326 118.103 104.345C121.01 105.13 122.021 108.629 119.836 110.694C118.265 112.181 115.718 112.181 114.146 110.694C113.418 110.006 112.967 109.054 112.967 108.004ZM102.58 116.593C102.58 117.645 103.029 118.596 103.758 119.285C105.329 120.771 107.876 120.771 109.447 119.285C111.632 117.218 110.623 113.72 107.715 112.935C107.645 112.917 107.599 112.859 107.599 112.791V107.359C107.599 106.838 107.152 106.417 106.603 106.417H96.9576C96.8703 106.417 96.7982 106.484 96.7982 106.566L96.7857 108.15C96.7857 108.234 96.8564 108.302 96.9452 108.302H105.447C105.534 108.302 105.606 108.368 105.606 108.452V112.791C105.606 112.859 105.561 112.917 105.491 112.935C103.793 113.396 102.58 114.875 102.58 116.593ZM114.147 75.0437C112.575 73.5581 112.575 71.1485 114.147 69.6615C115.718 68.1759 118.265 68.1759 119.836 69.6615C122.021 71.7283 121.01 75.227 118.103 76.011C118.033 76.0307 117.988 76.0882 117.988 76.1563V81.5882C117.988 82.1092 117.541 82.5307 116.991 82.5307H96.959C96.8703 82.5307 96.7996 82.4626 96.7996 82.3801V80.7964C96.7996 80.7139 96.8703 80.6458 96.959 80.6458H115.836C115.923 80.6458 115.995 80.5778 115.995 80.4953V76.1563C115.995 76.0882 115.948 76.0307 115.879 76.011C115.215 75.8317 114.621 75.494 114.147 75.0437ZM103.758 66.4534C104.232 66.9037 104.827 67.2414 105.491 67.4207C105.561 67.4403 105.606 67.4979 105.606 67.566V71.905C105.606 71.9875 105.534 72.0555 105.447 72.0555H96.959C96.8703 72.0555 96.7996 72.1236 96.7996 72.206V73.7898C96.7996 73.8723 96.8703 73.9403 96.959 73.9403H106.602C107.152 73.9403 107.599 73.5189 107.599 72.9979V67.566C107.599 67.4979 107.645 67.4403 107.714 67.4207C110.621 66.6367 111.632 63.138 109.447 61.0712C107.876 59.5856 105.329 59.5856 103.757 61.0712C102.186 62.5581 102.186 64.9678 103.758 66.4534Z" fill="white"/>
</g>
</svg>
