<svg width="200" height="200" viewBox="0 0 200 200" fill="none" xmlns="http://www.w3.org/2000/svg">
<circle cx="100" cy="100" r="100" fill="#0E5FB1"/>
<mask id="mask0_696_2908" style="mask-type:luminance" maskUnits="userSpaceOnUse" x="40" y="40" width="120" height="120">
<path d="M40 40H160V160H40V40Z" fill="white"/>
</mask>
<g mask="url(#mask0_696_2908)">
<path d="M67.5496 90.0874C54.2287 90.0874 40.0791 94.4624 40.0791 102.572V147.52C40.0791 155.63 54.2287 160.005 67.5496 160.005C80.8705 160.005 95.0215 155.63 95.0215 147.52V102.572C95.0215 94.4624 80.8705 90.0874 67.5496 90.0874ZM90.0264 147.52C90.0264 150.576 81.2711 155.012 67.5496 155.012C53.8296 155.012 45.0743 150.576 45.0743 147.52V139.923C50.3742 143.265 59.1193 145.022 67.5496 145.022C75.9813 145.022 84.7265 143.265 90.0264 139.923V147.52ZM90.0264 132.537C90.0264 135.593 81.2711 140.029 67.5496 140.029C53.8296 140.029 45.0743 135.593 45.0743 132.537V124.941C50.3742 128.283 59.1193 130.04 67.5496 130.04C75.9813 130.04 84.7265 128.283 90.0264 124.941V132.537ZM90.0264 117.555C90.0264 120.611 81.2711 125.047 67.5496 125.047C53.8296 125.047 45.0743 120.611 45.0743 117.555V109.958C50.3742 113.3 59.1193 115.058 67.5496 115.058C75.9813 115.058 84.7265 113.3 90.0264 109.958V117.555ZM67.5496 110.064C53.8296 110.064 45.0743 105.628 45.0743 102.572C45.0743 99.5165 53.8296 95.082 67.5496 95.082C81.2711 95.082 90.0264 99.5165 90.0264 102.572C90.0264 105.628 81.2711 110.064 67.5496 110.064ZM102.513 111.263C101.134 111.263 100.015 112.382 100.015 113.759C100.015 115.137 101.134 116.256 102.513 116.256C114.905 116.256 124.994 106.174 124.994 93.7833C124.994 81.3925 114.909 71.3089 102.517 71.3089C94.0724 71.3089 86.42 76.0395 82.5496 83.6504C81.9241 84.878 82.4146 86.3813 83.6424 87.0053C84.8716 87.6205 86.3751 87.146 86.9991 85.9126C90.0119 79.9835 95.9547 76.3035 102.513 76.3035C112.152 76.3035 119.994 84.1437 119.994 93.7833C119.994 103.421 112.152 111.263 102.513 111.263ZM159.477 86.5816C159.102 83.6692 157.449 81.1386 154.952 79.6352C152.489 78.1464 149.527 77.8765 146.796 78.9053C144.648 79.715 142.185 78.6006 141.197 76.3877C140.033 73.7816 138.595 71.2843 136.93 68.9727C135.488 66.9644 135.758 64.3278 137.556 62.8491C139.778 61.0208 141.017 58.3203 140.962 55.4428C140.902 52.5218 139.524 49.8242 137.181 48.0525C133.365 45.1605 129.2 42.7531 124.799 40.9001C122.073 39.7508 119.035 39.9061 116.472 41.3194C113.96 42.7081 112.242 45.13 111.773 47.9625C111.389 50.2697 109.216 51.7977 106.753 51.5525C103.957 51.2579 101.05 51.2579 98.252 51.5525C95.7399 51.7629 93.6225 50.2639 93.238 47.9567C92.7634 45.1256 91.0495 42.7023 88.533 41.3194C85.96 39.9061 82.9284 39.7566 80.2116 40.9001C75.8158 42.7531 71.6464 45.1605 67.8297 48.0525C65.4917 49.8242 64.1145 52.516 64.0536 55.4385C63.9984 58.3145 65.2421 61.0164 67.4654 62.8491C69.2635 64.3278 69.5334 66.9542 68.0851 68.9669C66.422 71.2843 64.9824 73.7816 63.8185 76.3834C62.8302 78.5963 60.3631 79.7049 58.1659 78.8807C55.8076 78.0013 53.2505 78.0971 50.9735 79.1448C48.6849 80.2041 46.8825 82.1761 46.0335 84.5587C45.5633 85.8575 46.2425 87.2853 47.5414 87.7497C48.8359 88.214 50.2682 87.5407 50.7326 86.242C51.1375 85.1131 51.9865 84.1786 53.0706 83.675C54.1242 83.1802 55.3128 83.1352 56.4621 83.5749C61.0771 85.3032 66.3059 83.0409 68.3797 78.4207C69.4028 76.1236 70.6712 73.9209 72.1399 71.8792C75.1367 67.703 74.4923 62.1599 70.6364 58.9835C69.5973 58.1346 69.0241 56.8765 69.0487 55.5386C69.0734 54.1543 69.7279 52.8715 70.8468 52.027C74.3327 49.3846 78.1335 47.1876 82.1491 45.5C83.4581 44.9457 84.9064 45.0197 86.1254 45.6945C87.314 46.3489 88.089 47.443 88.3125 48.7809C89.1368 53.7305 93.6429 57.0608 98.7773 56.5166C101.23 56.2627 103.791 56.2627 106.238 56.5166C111.409 57.0564 115.879 53.7349 116.703 48.7809C116.928 47.4474 117.707 46.3489 118.89 45.6945C120.109 45.0154 121.553 44.9457 122.866 45.5C126.882 47.1934 130.687 49.3904 134.169 52.027C135.288 52.8759 135.946 54.1543 135.973 55.5386C136.002 56.8808 135.423 58.1404 134.383 58.9936C130.533 62.1657 129.883 67.7088 132.886 71.8836C134.354 73.9267 135.617 76.1294 136.646 78.4265C138.72 83.0453 143.953 85.3133 148.614 83.5604C149.873 83.0859 151.245 83.2209 152.389 83.9043C153.573 84.6182 154.353 85.827 154.532 87.2157C154.817 89.3981 154.956 91.6052 154.956 93.7775C154.956 95.9497 154.817 98.1583 154.532 100.341C154.357 101.734 153.573 102.937 152.389 103.652C151.241 104.34 149.867 104.465 148.559 103.976C143.944 102.247 138.714 104.515 136.646 109.134C135.617 111.437 134.349 113.634 132.88 115.682C129.883 119.858 130.528 125.395 134.383 128.571C135.423 129.42 135.997 130.674 135.973 132.018C135.948 133.406 135.293 134.685 134.174 135.534C130.687 138.176 126.886 140.373 122.871 142.061C121.563 142.605 120.119 142.535 118.896 141.866C117.707 141.212 116.928 140.119 116.707 138.78C115.883 133.83 111.368 130.504 106.24 131.044C105.015 131.173 103.771 131.239 102.513 131.239C101.134 131.239 100.015 132.357 100.015 133.736C100.015 135.114 101.134 136.233 102.513 136.233C103.951 136.233 105.37 136.158 106.764 136.008C109.28 135.779 111.399 137.297 111.783 139.6C112.252 142.431 113.966 144.853 116.482 146.241C117.912 147.025 119.485 147.425 121.068 147.425C122.327 147.425 123.601 147.176 124.804 146.671C129.2 144.818 133.371 142.41 137.186 139.52C139.528 137.741 140.902 135.045 140.962 132.122C141.017 129.246 139.773 126.55 137.55 124.716C135.752 123.239 135.482 120.606 136.926 118.598C138.595 116.281 140.033 113.785 141.197 111.177C142.191 108.96 144.673 107.862 146.851 108.68C149.543 109.689 152.495 109.414 154.956 107.931C157.454 106.428 159.102 103.896 159.477 100.985C159.787 98.5921 159.941 96.1703 159.941 93.7833C159.941 91.3962 159.787 88.9729 159.477 86.5816Z" fill="white"/>
</g>
</svg>
