<svg width="237" height="221" viewBox="0 0 237 221" fill="none" xmlns="http://www.w3.org/2000/svg">
<mask id="mask0_705_3023" style="mask-type:luminance" maskUnits="userSpaceOnUse" x="42" y="0" width="195" height="221">
<path d="M42.4053 0H237V220.36H42.4053V0Z" fill="white"/>
</mask>
<g mask="url(#mask0_705_3023)">
<path d="M233.446 29.6517L141.299 0.239706C140.261 -0.0903186 139.224 -0.0903186 138.186 0.239706L46.039 29.6517C45.5176 29.8141 45.0388 30.0536 44.5945 30.3703C44.153 30.6871 43.7699 31.065 43.448 31.5041C43.1261 31.9433 42.8787 32.4223 42.7085 32.9387C42.5409 33.4577 42.4558 33.9873 42.4531 34.5329V101.629C42.4531 103.75 42.5116 105.866 42.6234 107.96C43.2671 120.014 45.8421 131.64 50.3537 142.834C51.5295 145.644 52.817 148.399 54.2189 151.1C55.6208 153.805 57.1318 156.445 58.7492 159.024C60.3665 161.603 62.0876 164.112 63.9098 166.55C65.732 168.988 67.6527 171.349 69.669 173.63C71.6854 175.911 73.7923 178.104 75.9895 180.212C78.1842 182.32 80.4639 184.334 82.8235 186.256C85.1857 188.178 87.6223 189.998 90.1309 191.72C92.642 193.442 95.2171 195.057 97.8612 196.569L137.136 219.567C137.529 219.796 137.944 219.969 138.383 220.089C138.819 220.208 139.266 220.267 139.721 220.267C140.176 220.267 140.623 220.208 141.062 220.089C141.498 219.969 141.916 219.796 142.307 219.567L181.581 196.569C184.225 195.057 186.8 193.442 189.312 191.72C191.823 189.998 194.257 188.178 196.619 186.256C198.979 184.334 201.258 182.32 203.456 180.212C205.65 178.104 207.757 175.911 209.773 173.63C211.79 171.349 213.71 168.988 215.533 166.55C217.358 164.112 219.076 161.603 220.693 159.024C222.313 156.445 223.822 153.805 225.224 151.1C226.625 148.399 227.913 145.644 229.089 142.834C233.6 131.64 236.175 120.017 236.819 107.966C236.96 105.847 237.029 103.726 237.029 101.602V34.5329C237.029 33.9873 236.944 33.4577 236.774 32.9387C236.604 32.4223 236.359 31.9433 236.037 31.5041C235.715 31.065 235.332 30.6871 234.888 30.3703C234.446 30.0536 233.965 29.8141 233.446 29.6517Z" fill="#0E5FB1"/>
</g>
<mask id="mask1_705_3023" style="mask-type:luminance" maskUnits="userSpaceOnUse" x="51" y="10" width="178" height="201">
<path d="M51.2393 10.0156H228.469V210.822H51.2393V10.0156Z" fill="white"/>
</mask>
<g mask="url(#mask1_705_3023)">
<path d="M224.944 36.9759L141.158 10.2334C140.216 9.93263 139.272 9.93263 138.33 10.2334L54.5433 36.9759C54.0698 37.125 53.6336 37.3432 53.2319 37.6307C52.8276 37.9181 52.4817 38.2614 52.1891 38.6607C51.8938 39.0599 51.6704 39.4937 51.5161 39.9648C51.3618 40.4359 51.2847 40.9176 51.2847 41.4126V102.422C51.2847 104.349 51.3352 106.273 51.439 108.179C52.0215 119.139 54.3651 129.707 58.4671 139.887C60.6085 145.003 63.1542 149.911 66.099 154.608C69.0464 159.308 72.3583 163.734 76.0293 167.889C79.703 172.043 83.6905 175.871 87.992 179.371C92.2934 182.868 96.8502 185.995 101.662 188.747L137.375 209.656C137.731 209.866 138.109 210.023 138.508 210.132C138.907 210.238 139.311 210.294 139.726 210.294C140.139 210.294 140.543 210.238 140.942 210.132C141.341 210.023 141.719 209.866 142.075 209.656L177.788 188.747C182.6 185.995 187.159 182.868 191.458 179.371C195.76 175.871 199.747 172.043 203.421 167.889C207.092 163.734 210.404 159.308 213.351 154.608C216.296 149.911 218.842 145.003 220.983 139.887C225.085 129.71 227.426 119.141 228.011 108.184C228.139 106.257 228.203 104.33 228.203 102.398V41.4126C228.203 40.9176 228.126 40.4359 227.971 39.9648C227.817 39.4937 227.594 39.0599 227.298 38.6607C227.006 38.2614 226.66 37.9181 226.256 37.6307C225.854 37.3432 225.418 37.125 224.944 36.9759Z" fill="white"/>
</g>
<mask id="mask2_705_3023" style="mask-type:luminance" maskUnits="userSpaceOnUse" x="59" y="19" width="162" height="183">
<path d="M59.3237 19.1816H220.209V201.283H59.3237V19.1816Z" fill="white"/>
</mask>
<g mask="url(#mask2_705_3023)">
<path d="M217.166 43.6807L141.033 19.3814C140.177 19.1072 139.317 19.1072 138.461 19.3814L62.3274 43.6807C61.8992 43.8138 61.5028 44.0134 61.1357 44.2742C60.7713 44.5377 60.4547 44.8491 60.1887 45.2111C59.9227 45.5757 59.7178 45.9696 59.5795 46.3981C59.4385 46.8239 59.3667 47.2631 59.3667 47.7128V103.149C59.3667 104.9 59.4146 106.649 59.5077 108.379C60.0371 118.338 62.1678 127.943 65.8947 137.195C67.8393 141.841 70.1509 146.302 72.8297 150.571C75.5084 154.84 78.5144 158.862 81.8529 162.636C85.1914 166.412 88.8118 169.888 92.7222 173.069C96.63 176.249 100.769 179.089 105.145 181.588L137.594 200.588C137.918 200.78 138.261 200.924 138.623 201.022C138.985 201.121 139.355 201.169 139.73 201.169C140.105 201.169 140.474 201.121 140.836 201.022C141.198 200.924 141.541 200.78 141.866 200.588L174.317 181.588C178.69 179.089 182.832 176.249 186.74 173.069C190.647 169.888 194.271 166.412 197.606 162.636C200.945 158.862 203.953 154.84 206.63 150.571C209.308 146.302 211.62 141.841 213.567 137.195C217.294 127.946 219.422 118.341 219.954 108.384C220.069 106.635 220.127 104.881 220.127 103.128V47.7128C220.127 47.2631 220.055 46.8239 219.917 46.3981C219.776 45.9696 219.571 45.5757 219.305 45.2111C219.039 44.8491 218.725 44.5377 218.358 44.2742C217.994 44.0134 217.595 43.8138 217.166 43.6807Z" fill="#0E5FB1"/>
</g>
<mask id="mask3_705_3023" style="mask-type:luminance" maskUnits="userSpaceOnUse" x="0" y="83" width="113" height="114">
<path d="M0 83.8633H112.364V196.284H0V83.8633Z" fill="white"/>
</mask>
<g mask="url(#mask3_705_3023)">
<path d="M112.556 140.17C112.556 141.09 112.535 142.011 112.489 142.932C112.444 143.85 112.375 144.771 112.285 145.687C112.194 146.605 112.082 147.518 111.947 148.431C111.811 149.341 111.654 150.249 111.473 151.154C111.295 152.056 111.093 152.955 110.869 153.85C110.646 154.744 110.401 155.63 110.133 156.514C109.867 157.395 109.577 158.27 109.265 159.138C108.957 160.006 108.624 160.865 108.273 161.717C107.919 162.566 107.547 163.41 107.153 164.243C106.759 165.076 106.345 165.898 105.911 166.71C105.477 167.524 105.022 168.325 104.549 169.116C104.075 169.906 103.583 170.683 103.073 171.45C102.559 172.216 102.03 172.97 101.482 173.71C100.931 174.449 100.365 175.176 99.7819 175.889C99.1967 176.6 98.5955 177.297 97.9784 177.981C97.3586 178.665 96.7228 179.331 96.0737 179.983C95.422 180.635 94.7543 181.271 94.0706 181.888C93.3896 182.508 92.6927 183.11 91.9797 183.693C91.2695 184.278 90.5433 184.845 89.8038 185.393C89.0642 185.942 88.3114 186.474 87.5453 186.985C86.7792 187.496 85.9997 187.991 85.2097 188.465C84.4196 188.939 83.6189 189.391 82.8076 189.825C81.9962 190.261 81.1716 190.674 80.339 191.068C79.5063 191.462 78.6657 191.837 77.8145 192.188C76.9632 192.542 76.104 192.872 75.2368 193.184C74.3696 193.492 73.4971 193.782 72.6139 194.051C71.7334 194.317 70.8449 194.562 69.9511 194.788C69.06 195.012 68.1608 195.212 67.2564 195.393C66.3546 195.574 65.4475 195.731 64.5351 195.866C63.6253 195.999 62.7102 196.114 61.7951 196.204C60.8774 196.295 59.9596 196.361 59.0392 196.407C58.1188 196.452 57.1984 196.476 56.278 196.476C55.3576 196.476 54.4372 196.452 53.5167 196.407C52.5963 196.361 51.6786 196.295 50.7608 196.204C49.8457 196.114 48.9307 195.999 48.0209 195.866C47.1085 195.731 46.2014 195.574 45.2996 195.393C44.3951 195.212 43.496 195.012 42.6048 194.788C41.711 194.562 40.8225 194.317 39.942 194.051C39.0589 193.782 38.1863 193.492 37.3191 193.184C36.4519 192.872 35.5927 192.542 34.7415 192.188C33.8902 191.837 33.0496 191.462 32.217 191.068C31.3844 190.674 30.5597 190.261 29.7484 189.825C28.937 189.391 28.1363 188.939 27.3463 188.465C26.5562 187.991 25.7768 187.496 25.0107 186.985C24.2445 186.474 23.4917 185.942 22.7522 185.393C22.0127 184.845 21.2865 184.278 20.5762 183.693C19.8633 183.11 19.1663 182.508 18.4827 181.888C17.8017 181.271 17.134 180.635 16.4822 179.983C15.8332 179.331 15.1974 178.665 14.5776 177.981C13.9604 177.297 13.3592 176.6 12.774 175.889C12.1914 175.176 11.6248 174.449 11.0742 173.71C10.5262 172.97 9.99682 172.216 9.48341 171.45C8.97266 170.683 8.48053 169.906 8.00703 169.116C7.53352 168.325 7.07864 167.524 6.64504 166.71C6.21143 165.898 5.79645 165.076 5.40275 164.243C5.00905 163.41 4.63663 162.566 4.28283 161.717C3.93169 160.865 3.59917 160.006 3.2906 159.138C2.97936 158.27 2.6894 157.395 2.42339 156.514C2.15472 155.63 1.90998 154.744 1.68653 153.85C1.46308 152.955 1.26091 152.056 1.08268 151.154C0.901788 150.249 0.74484 149.341 0.609173 148.431C0.473506 147.518 0.361779 146.605 0.271335 145.687C0.180889 144.771 0.111726 143.85 0.0665036 142.932C0.0212806 142.011 0 141.09 0 140.17C0 139.246 0.0212806 138.325 0.0665036 137.404C0.111726 136.486 0.180889 135.565 0.271335 134.65C0.361779 133.731 0.473506 132.819 0.609173 131.906C0.74484 130.995 0.901788 130.088 1.08268 129.183C1.26091 128.281 1.46308 127.381 1.68653 126.487C1.90998 125.593 2.15472 124.706 2.42339 123.823C2.6894 122.942 2.97936 122.066 3.2906 121.199C3.59917 120.331 3.93169 119.471 4.28283 118.62C4.63663 117.771 5.00905 116.927 5.40275 116.094C5.79645 115.261 6.21143 114.438 6.64504 113.627C7.07864 112.812 7.53352 112.011 8.00703 111.221C8.48053 110.43 8.97266 109.653 9.48341 108.887C9.99682 108.12 10.5262 107.367 11.0742 106.627C11.6248 105.887 12.1914 105.16 12.774 104.447C13.3592 103.737 13.9604 103.039 14.5776 102.355C15.1974 101.671 15.8332 101.006 16.4822 100.354C17.134 99.7018 17.8017 99.0657 18.4827 98.4482C19.1663 97.8281 19.8633 97.2266 20.5762 96.6437C21.2865 96.0582 22.0127 95.4913 22.7522 94.943C23.4917 94.3948 24.2445 93.8625 25.0107 93.3515C25.7768 92.8405 26.5562 92.3454 27.3463 91.8717C28.1363 91.3979 28.937 90.9455 29.7484 90.5117C30.5597 90.0752 31.3844 89.6626 32.217 89.2687C33.0496 88.8749 33.8902 88.4996 34.7415 88.1483C35.5927 87.7943 36.4519 87.4643 37.3191 87.1529C38.1863 86.8441 39.0589 86.554 39.942 86.2879C40.8225 86.0191 41.711 85.7742 42.6048 85.5507C43.496 85.3244 44.3951 85.1248 45.2996 84.9438C46.2014 84.7629 47.1085 84.6058 48.0209 84.4728C48.9307 84.337 49.8457 84.2226 50.7608 84.1321C51.6786 84.0416 52.5963 83.9751 53.5167 83.9298C54.4372 83.8846 55.3576 83.8633 56.278 83.8633C57.1984 83.8633 58.1188 83.8846 59.0392 83.9298C59.9596 83.9751 60.8774 84.0416 61.7951 84.1321C62.7102 84.2226 63.6253 84.337 64.5351 84.4728C65.4475 84.6058 66.3546 84.7629 67.2564 84.9438C68.1608 85.1248 69.06 85.3244 69.9511 85.5507C70.8449 85.7742 71.7334 86.0191 72.6139 86.2879C73.4971 86.554 74.3696 86.8441 75.2368 87.1529C76.104 87.4643 76.9632 87.7943 77.8145 88.1483C78.6657 88.4996 79.5063 88.8749 80.339 89.2687C81.1716 89.6626 81.9962 90.0752 82.8076 90.5117C83.6189 90.9455 84.4196 91.3979 85.2097 91.8717C85.9997 92.3454 86.7792 92.8405 87.5453 93.3515C88.3114 93.8625 89.0642 94.3948 89.8038 94.943C90.5433 95.4913 91.2695 96.0582 91.9797 96.6437C92.6927 97.2266 93.3896 97.8281 94.0706 98.4482C94.7543 99.0657 95.422 99.7018 96.0737 100.354C96.7228 101.006 97.3586 101.671 97.9784 102.355C98.5955 103.039 99.1967 103.737 99.7819 104.447C100.365 105.16 100.931 105.887 101.482 106.627C102.03 107.367 102.559 108.12 103.073 108.887C103.583 109.653 104.075 110.43 104.549 111.221C105.022 112.011 105.477 112.812 105.911 113.627C106.345 114.438 106.759 115.261 107.153 116.094C107.547 116.927 107.919 117.771 108.273 118.62C108.624 119.471 108.957 120.331 109.265 121.199C109.577 122.066 109.867 122.942 110.133 123.823C110.401 124.706 110.646 125.593 110.869 126.487C111.093 127.381 111.295 128.281 111.473 129.183C111.654 130.088 111.811 130.995 111.947 131.906C112.082 132.819 112.194 133.731 112.285 134.65C112.375 135.565 112.444 136.486 112.489 137.404C112.535 138.325 112.556 139.246 112.556 140.17Z" fill="white"/>
</g>
<mask id="mask4_705_3023" style="mask-type:luminance" maskUnits="userSpaceOnUse" x="7" y="91" width="98" height="98">
<path d="M7.66113 91.5283H104.703V188.619H7.66113V91.5283Z" fill="white"/>
</mask>
<g mask="url(#mask4_705_3023)">
<path d="M104.895 140.17C104.895 140.965 104.876 141.761 104.836 142.554C104.796 143.35 104.738 144.143 104.661 144.936C104.583 145.729 104.485 146.517 104.368 147.305C104.251 148.093 104.115 148.878 103.961 149.658C103.804 150.438 103.631 151.215 103.437 151.987C103.245 152.758 103.033 153.528 102.801 154.289C102.57 155.05 102.32 155.806 102.054 156.556C101.785 157.304 101.498 158.047 101.194 158.781C100.888 159.519 100.567 160.245 100.226 160.966C99.8856 161.685 99.5292 162.396 99.1541 163.098C98.779 163.801 98.388 164.493 97.9783 165.174C97.5686 165.858 97.143 166.529 96.7014 167.192C96.2598 167.854 95.8023 168.504 95.3261 169.145C94.8526 169.784 94.3632 170.412 93.8604 171.027C93.355 171.642 92.8336 172.243 92.3016 172.834C91.7669 173.425 91.2189 174 90.6549 174.564C90.0936 175.125 89.5164 175.674 88.9258 176.209C88.3379 176.744 87.7341 177.263 87.1196 177.768C86.5051 178.274 85.8773 178.764 85.2389 179.237C84.6004 179.711 83.9487 180.169 83.289 180.611C82.6266 181.055 81.9536 181.481 81.2726 181.888C80.5889 182.298 79.8973 182.692 79.195 183.067C78.4928 183.443 77.7825 183.799 77.0643 184.14C76.346 184.481 75.6171 184.803 74.8829 185.106C74.1487 185.412 73.4066 185.697 72.6564 185.966C71.9062 186.234 71.1508 186.485 70.39 186.716C69.6292 186.945 68.863 187.158 68.0916 187.352C67.3202 187.547 66.5434 187.72 65.7613 187.874C64.9819 188.031 64.1998 188.167 63.4124 188.284C62.625 188.401 61.8349 188.497 61.0422 188.577C60.2522 188.654 59.4568 188.712 58.664 188.752C57.8687 188.789 57.0733 188.811 56.2779 188.811C55.4825 188.811 54.6871 188.789 53.8918 188.752C53.0964 188.712 52.3036 188.654 51.5136 188.577C50.7209 188.497 49.9308 188.401 49.1434 188.284C48.356 188.167 47.5739 188.031 46.7945 187.874C46.0124 187.72 45.2356 187.547 44.4642 187.352C43.6928 187.158 42.9266 186.945 42.1658 186.716C41.405 186.485 40.6496 186.234 39.8994 185.966C39.1492 185.697 38.4071 185.412 37.6729 185.106C36.9387 184.803 36.2098 184.481 35.4915 184.14C34.7733 183.799 34.063 183.443 33.3608 183.067C32.6585 182.692 31.9669 182.298 31.2832 181.888C30.6022 181.481 29.9292 181.055 29.2668 180.611C28.6071 180.169 27.9554 179.711 27.3169 179.237C26.6785 178.764 26.0507 178.274 25.4362 177.768C24.8217 177.263 24.2179 176.744 23.63 176.209C23.0394 175.674 22.4622 175.125 21.9009 174.564C21.3369 174 20.7889 173.425 20.2542 172.834C19.7222 172.243 19.2008 171.642 18.6954 171.027C18.1926 170.412 17.7032 169.784 17.2297 169.145C16.7535 168.504 16.296 167.854 15.8544 167.192C15.4128 166.529 14.9872 165.858 14.5775 165.174C14.1678 164.493 13.7768 163.801 13.4017 163.098C13.0266 162.396 12.6702 161.685 12.3297 160.966C11.9892 160.245 11.6673 159.519 11.3614 158.781C11.0581 158.047 10.7708 157.304 10.5022 156.556C10.2362 155.806 9.9861 155.05 9.75467 154.289C9.52323 153.528 9.31042 152.758 9.11889 151.987C8.9247 151.215 8.75179 150.438 8.59484 149.658C8.44055 148.878 8.30489 148.093 8.18784 147.305C8.07079 146.517 7.97237 145.729 7.89523 144.936C7.81808 144.143 7.75956 143.35 7.71966 142.554C7.67975 141.761 7.66113 140.965 7.66113 140.17C7.66113 139.371 7.67975 138.578 7.71966 137.782C7.75956 136.986 7.81808 136.193 7.89523 135.4C7.97237 134.61 8.07079 133.819 8.18784 133.031C8.30489 132.244 8.44055 131.459 8.59484 130.679C8.75179 129.899 8.9247 129.122 9.11889 128.35C9.31042 127.578 9.52323 126.812 9.75467 126.048C9.9861 125.287 10.2362 124.531 10.5022 123.783C10.7708 123.032 11.0581 122.29 11.3614 121.555C11.6673 120.818 11.9892 120.091 12.3297 119.373C12.6702 118.651 13.0266 117.941 13.4017 117.238C13.7768 116.538 14.1678 115.844 14.5775 115.162C14.9872 114.478 15.4128 113.808 15.8544 113.145C16.296 112.482 16.7535 111.833 17.2297 111.194C17.7032 110.553 18.1926 109.927 18.6954 109.31C19.2008 108.695 19.7222 108.093 20.2542 107.503C20.7889 106.914 21.3369 106.337 21.9009 105.773C22.4622 105.211 23.0394 104.663 23.63 104.128C24.2179 103.593 24.8217 103.074 25.4362 102.568C26.0507 102.062 26.6785 101.573 27.3169 101.099C27.9554 100.625 28.6071 100.167 29.2668 99.7257C29.9292 99.2812 30.6022 98.8554 31.2832 98.4482C31.9669 98.0383 32.6585 97.6471 33.3608 97.2718C34.063 96.8965 34.7733 96.5372 35.4915 96.1966C36.2098 95.8559 36.9387 95.5338 37.6729 95.2304C38.4071 94.9244 39.1492 94.6396 39.8994 94.3708C40.6496 94.102 41.405 93.8518 42.1658 93.6229C42.9266 93.3914 43.6928 93.1784 44.4642 92.9842C45.2356 92.7925 46.0124 92.6169 46.7945 92.4625C47.5739 92.3055 48.356 92.1697 49.1434 92.0526C49.9308 91.9355 50.7209 91.8397 51.5136 91.7625C52.3036 91.6827 53.0964 91.6241 53.8918 91.5869C54.6871 91.547 55.4825 91.5283 56.2779 91.5283C57.0733 91.5283 57.8687 91.547 58.664 91.5869C59.4568 91.6241 60.2522 91.6827 61.0422 91.7625C61.8349 91.8397 62.625 91.9355 63.4124 92.0526C64.1998 92.1697 64.9819 92.3055 65.7613 92.4625C66.5434 92.6169 67.3202 92.7925 68.0916 92.9842C68.863 93.1784 69.6292 93.3914 70.39 93.6229C71.1508 93.8518 71.9062 94.102 72.6564 94.3708C73.4066 94.6396 74.1487 94.9244 74.8829 95.2304C75.6171 95.5338 76.346 95.8559 77.0643 96.1966C77.7825 96.5372 78.4928 96.8965 79.195 97.2718C79.8973 97.6471 80.5889 98.0383 81.2726 98.4482C81.9536 98.8554 82.6266 99.2812 83.289 99.7257C83.9487 100.167 84.6004 100.625 85.2389 101.099C85.8773 101.573 86.5051 102.062 87.1196 102.568C87.7341 103.074 88.3379 103.593 88.9258 104.128C89.5164 104.663 90.0936 105.211 90.6549 105.773C91.2189 106.337 91.7669 106.914 92.3016 107.503C92.8336 108.093 93.355 108.695 93.8604 109.31C94.3632 109.927 94.8526 110.553 95.3261 111.194C95.8023 111.833 96.2598 112.482 96.7014 113.145C97.143 113.808 97.5686 114.478 97.9783 115.162C98.388 115.844 98.779 116.538 99.1541 117.238C99.5292 117.941 99.8856 118.651 100.226 119.373C100.567 120.091 100.888 120.818 101.194 121.555C101.498 122.29 101.785 123.032 102.054 123.783C102.32 124.531 102.57 125.287 102.801 126.048C103.033 126.812 103.245 127.578 103.437 128.35C103.631 129.122 103.804 129.899 103.961 130.679C104.115 131.459 104.251 132.244 104.368 133.031C104.485 133.819 104.583 134.61 104.661 135.4C104.738 136.193 104.796 136.986 104.836 137.782C104.876 138.578 104.895 139.371 104.895 140.17Z" fill="#0E5FB1"/>
</g>
<mask id="mask5_705_3023" style="mask-type:luminance" maskUnits="userSpaceOnUse" x="21" y="105" width="70" height="70">
<path d="M21.7197 105.592H90.6706V174.577H21.7197V105.592Z" fill="white"/>
</mask>
<g mask="url(#mask5_705_3023)">
<path d="M90.5536 145.889C90.6946 141.226 90.6946 141.216 90.8382 136.555L83.6212 133.74C82.5785 130.988 82.0597 129.609 81.017 126.857L84.555 119.961C81.3601 116.573 81.3521 116.565 78.1546 113.166L71.068 116.278L64.3725 113.254L61.9943 105.877L52.6758 105.592L49.8507 112.815C47.1108 113.856 45.7222 114.377 42.9849 115.418L36.0898 111.881C32.6928 115.069 32.6848 115.08 29.2878 118.276L32.3975 125.375C31.2005 128.047 30.5913 129.399 29.3836 132.071L22.0044 134.453C21.8607 139.113 21.8607 139.124 21.7197 143.776L28.9367 146.603C29.9768 149.341 30.4982 150.731 31.541 153.482L28.0056 160.37C31.2005 163.766 31.2111 163.777 34.3953 167.173L41.4899 164.062C44.174 165.262 45.5227 165.869 48.1961 167.077L50.5637 174.46L59.8981 174.745L62.7125 167.524C65.4604 166.484 66.8384 165.962 69.5863 164.922L76.4814 168.461L83.2728 162.066L80.1631 154.97C81.3761 152.295 81.9799 150.935 83.1876 148.261L90.5536 145.889ZM56.2776 160.458C55.6153 160.458 54.9529 160.424 54.2905 160.36C53.6308 160.293 52.9737 160.197 52.3247 160.067C51.6729 159.937 51.0292 159.777 50.3934 159.583C49.7576 159.391 49.1325 159.167 48.5207 158.912C47.9062 158.659 47.3076 158.374 46.7224 158.06C46.1345 157.749 45.5679 157.408 45.0146 157.038C44.4639 156.668 43.9293 156.274 43.4158 155.851C42.9024 155.431 42.413 154.984 41.9421 154.515C41.4739 154.044 41.027 153.554 40.6067 153.041C40.1864 152.527 39.7901 151.992 39.4203 151.441C39.0532 150.888 38.7127 150.318 38.3988 149.732C38.0849 149.147 37.8029 148.548 37.5476 147.933C37.2949 147.321 37.0714 146.696 36.8772 146.06C36.6857 145.424 36.5234 144.779 36.3931 144.127C36.2654 143.478 36.167 142.821 36.1031 142.158C36.0366 141.498 36.0047 140.835 36.0047 140.17C36.0047 139.507 36.0366 138.844 36.1031 138.182C36.167 137.522 36.2654 136.864 36.3957 136.212C36.5234 135.563 36.6857 134.919 36.8772 134.283C37.0714 133.646 37.2949 133.021 37.5476 132.409C37.8029 131.794 38.0849 131.195 38.3988 130.61C38.7127 130.022 39.0532 129.455 39.423 128.901C39.7901 128.347 40.1864 127.815 40.6067 127.301C41.0297 126.788 41.4739 126.298 41.9448 125.827C42.413 125.359 42.9051 124.911 43.4185 124.491C43.9319 124.068 44.4639 123.674 45.0146 123.304C45.5679 122.937 46.1372 122.593 46.7224 122.282C47.3076 121.968 47.9088 121.683 48.5207 121.43C49.1352 121.175 49.7603 120.951 50.3934 120.76C51.0292 120.565 51.6729 120.406 52.3247 120.275C52.9764 120.145 53.6308 120.049 54.2932 119.982C54.9529 119.919 55.6153 119.887 56.2803 119.887C56.9427 119.887 57.6077 119.919 58.2674 119.982C58.9271 120.049 59.5842 120.145 60.2359 120.275C60.8877 120.406 61.5288 120.565 62.1645 120.76C62.8003 120.951 63.4254 121.175 64.0399 121.43C64.6518 121.683 65.253 121.968 65.8382 122.279C66.4234 122.593 66.9927 122.934 67.5433 123.304C68.0967 123.674 68.6287 124.068 69.1421 124.488C69.6555 124.911 70.1476 125.356 70.6158 125.827C71.0867 126.295 71.5309 126.788 71.9539 127.301C72.3742 127.815 72.7705 128.347 73.1376 128.901C73.5074 129.452 73.8479 130.022 74.1618 130.607C74.4757 131.193 74.7576 131.794 75.013 132.406C75.2657 133.021 75.4892 133.646 75.6834 134.283C75.8749 134.916 76.0372 135.56 76.1675 136.212C76.2952 136.864 76.3936 137.522 76.4575 138.182C76.524 138.842 76.5559 139.504 76.5559 140.17C76.5559 140.835 76.524 141.498 76.4575 142.158C76.3936 142.821 76.2952 143.475 76.1649 144.127C76.0372 144.779 75.8749 145.424 75.6807 146.06C75.4892 146.693 75.2657 147.319 75.0104 147.933C74.7576 148.545 74.473 149.147 74.1591 149.732C73.8479 150.318 73.5074 150.888 73.1376 151.438C72.7679 151.992 72.3742 152.524 71.9512 153.038C71.5309 153.552 71.084 154.044 70.6158 154.512C70.145 154.984 69.6555 155.428 69.1421 155.851C68.6287 156.272 68.094 156.668 67.5433 157.036C66.99 157.406 66.4234 157.746 65.8355 158.06C65.2503 158.374 64.6518 158.656 64.0373 158.912C63.4254 159.165 62.8003 159.388 62.1645 159.583C61.5288 159.777 60.885 159.937 60.2333 160.067C59.5842 160.197 58.9271 160.293 58.2674 160.36C57.605 160.424 56.9427 160.458 56.2776 160.458Z" fill="white"/>
</g>
</svg>
