<svg width="221" height="221" viewBox="0 0 221 221" fill="none" xmlns="http://www.w3.org/2000/svg">
<mask id="mask0_705_3026" style="mask-type:luminance" maskUnits="userSpaceOnUse" x="43" y="32" width="148" height="148">
<path d="M43.4043 32.4297H190.503V179.535H43.4043V32.4297Z" fill="white"/>
</mask>
<g mask="url(#mask0_705_3026)">
<path d="M190.614 106.038C190.614 107.242 190.583 108.445 190.525 109.649C190.466 110.852 190.379 112.053 190.261 113.253C190.143 114.451 189.994 115.648 189.817 116.839C189.641 118.03 189.436 119.215 189.2 120.397C188.964 121.579 188.701 122.754 188.409 123.924C188.114 125.09 187.795 126.253 187.444 127.404C187.094 128.558 186.719 129.7 186.312 130.835C185.906 131.97 185.472 133.093 185.013 134.207C184.551 135.32 184.064 136.421 183.549 137.51C183.034 138.599 182.491 139.672 181.923 140.736C181.356 141.797 180.763 142.845 180.143 143.878C179.523 144.914 178.88 145.932 178.21 146.931C177.54 147.933 176.846 148.919 176.129 149.887C175.413 150.855 174.671 151.804 173.908 152.734C173.142 153.665 172.357 154.577 171.548 155.47C170.738 156.364 169.907 157.235 169.057 158.085C168.204 158.938 167.333 159.769 166.439 160.579C165.546 161.386 164.634 162.173 163.703 162.937C162.773 163.703 161.824 164.444 160.856 165.161C159.888 165.877 158.905 166.572 157.903 167.242C156.901 167.909 155.884 168.554 154.851 169.174C153.818 169.792 152.77 170.387 151.706 170.955C150.645 171.523 149.569 172.062 148.48 172.577C147.391 173.092 146.29 173.582 145.177 174.041C144.063 174.504 142.94 174.938 141.805 175.344C140.673 175.747 139.528 176.126 138.374 176.476C137.224 176.827 136.064 177.146 134.894 177.441C133.725 177.733 132.549 177.996 131.367 178.232C130.189 178.468 129.001 178.673 127.81 178.849C126.619 179.026 125.421 179.172 124.224 179.29C123.024 179.411 121.823 179.498 120.62 179.557C119.416 179.616 118.213 179.647 117.009 179.647C115.806 179.647 114.602 179.616 113.399 179.557C112.195 179.498 110.995 179.411 109.795 179.29C108.597 179.172 107.4 179.026 106.209 178.849C105.018 178.673 103.83 178.468 102.648 178.232C101.469 177.996 100.294 177.733 99.1246 177.441C97.9552 177.146 96.7951 176.827 95.6444 176.476C94.4905 176.126 93.346 175.747 92.2138 175.344C91.0786 174.938 89.9557 174.504 88.8422 174.041C87.7286 173.582 86.6275 173.092 85.5388 172.577C84.4501 172.062 83.3738 171.523 82.3129 170.955C81.249 170.387 80.2006 169.792 79.1677 169.174C78.1349 168.554 77.1175 167.909 76.1156 167.242C75.1137 166.572 74.1305 165.877 73.1627 165.161C72.195 164.444 71.2458 163.703 70.3153 162.937C69.3848 162.173 68.4728 161.386 67.5795 160.579C66.6862 159.769 65.8146 158.938 64.9616 158.085C64.1117 157.235 63.2805 156.364 62.4709 155.47C61.6613 154.577 60.8766 153.665 60.1104 152.734C59.3474 151.804 58.6061 150.855 57.8896 149.887C57.1731 148.919 56.4783 147.933 55.8083 146.931C55.1383 145.932 54.4962 144.914 53.8759 143.878C53.2555 142.845 52.6631 141.797 52.0955 140.736C51.5278 139.672 50.985 138.599 50.4701 137.51C49.9552 136.421 49.4683 135.32 49.0061 134.207C48.547 133.093 48.1128 131.97 47.7065 130.835C47.3001 129.7 46.9248 128.558 46.5743 127.404C46.2238 126.253 45.9043 125.09 45.6097 123.924C45.3181 122.754 45.0544 121.579 44.8187 120.397C44.583 119.215 44.3783 118.03 44.2015 116.839C44.0247 115.648 43.8758 114.451 43.7579 113.253C43.64 112.053 43.5532 110.852 43.4942 109.649C43.4353 108.445 43.4043 107.242 43.4043 106.038C43.4043 104.831 43.4353 103.628 43.4942 102.424C43.5532 101.221 43.64 100.02 43.7579 98.8231C43.8758 97.6226 44.0247 96.4284 44.2015 95.2373C44.3783 94.0461 44.583 92.8581 44.8187 91.6763C45.0544 90.4944 45.3181 89.3219 45.6097 88.1525C45.9043 86.9831 46.2238 85.8229 46.5743 84.669C46.9248 83.5182 47.3001 82.3736 47.7065 81.2383C48.1128 80.1061 48.547 78.9801 49.0061 77.8696C49.4683 76.756 49.9552 75.6549 50.4701 74.5661C50.985 73.4773 51.5278 72.401 52.0955 71.337C52.6631 70.2761 53.2555 69.2277 53.8759 68.1948C54.4962 67.1618 55.1383 66.1444 55.8083 65.1425C56.4783 64.1406 57.1731 63.1573 57.8896 62.1895C58.6061 61.2217 59.3474 60.2725 60.1104 59.3419C60.8766 58.4082 61.6613 57.4963 62.4709 56.606C63.2805 55.7127 64.1117 54.841 64.9616 53.988C65.8146 53.135 66.6862 52.3068 67.5795 51.4972C68.4728 50.6876 69.3848 49.9028 70.3153 49.1366C71.2458 48.3735 72.195 47.6322 73.1627 46.9156C74.1305 46.196 75.1137 45.5043 76.1156 44.8342C77.1175 44.1642 78.1349 43.5221 79.1677 42.9018C80.2006 42.2814 81.249 41.6889 82.3129 41.1213C83.3738 40.5536 84.4501 40.0108 85.5388 39.4958C86.6275 38.9809 87.7286 38.4939 88.8422 38.0317C89.9557 37.5696 91.0786 37.1384 92.2138 36.732C93.346 36.3257 94.4905 35.9473 95.6444 35.5998C96.7951 35.2493 97.9552 34.9267 99.1246 34.6351C100.294 34.3436 101.469 34.0768 102.648 33.8442C103.83 33.6084 105.018 33.4037 106.209 33.2269C107.4 33.0501 108.597 32.9012 109.795 32.7833C110.995 32.6654 112.195 32.5755 113.399 32.5165C114.602 32.4576 115.806 32.4297 117.009 32.4297C118.213 32.4297 119.416 32.4576 120.62 32.5165C121.823 32.5755 123.024 32.6654 124.224 32.7833C125.421 32.9012 126.619 33.0501 127.81 33.2269C129.001 33.4037 130.189 33.6084 131.367 33.8442C132.549 34.0768 133.725 34.3436 134.894 34.6351C136.064 34.9267 137.224 35.2493 138.374 35.5998C139.528 35.9473 140.673 36.3257 141.805 36.732C142.94 37.1384 144.063 37.5696 145.177 38.0317C146.29 38.4939 147.391 38.9809 148.48 39.4958C149.569 40.0108 150.645 40.5536 151.706 41.1213C152.77 41.6889 153.818 42.2814 154.851 42.9018C155.884 43.5221 156.901 44.1642 157.903 44.8342C158.905 45.5043 159.888 46.196 160.856 46.9156C161.824 47.6322 162.773 48.3735 163.703 49.1366C164.634 49.9028 165.546 50.6876 166.439 51.4972C167.333 52.3068 168.204 53.135 169.057 53.988C169.907 54.841 170.738 55.7127 171.548 56.606C172.357 57.4963 173.142 58.4082 173.908 59.3419C174.671 60.2725 175.413 61.2217 176.129 62.1895C176.846 63.1573 177.54 64.1406 178.21 65.1425C178.88 66.1444 179.523 67.1618 180.143 68.1948C180.763 69.2277 181.356 70.2761 181.923 71.3401C182.491 72.401 183.034 73.4773 183.549 74.5661C184.064 75.6549 184.551 76.756 185.013 77.8696C185.472 78.9801 185.906 80.1061 186.312 81.2383C186.719 82.3736 187.094 83.5182 187.444 84.669C187.795 85.8229 188.114 86.9831 188.409 88.1525C188.701 89.3219 188.964 90.4944 189.2 91.6763C189.436 92.8581 189.641 94.0461 189.817 95.2373C189.994 96.4284 190.143 97.6226 190.261 98.8231C190.379 100.02 190.466 101.221 190.525 102.424C190.583 103.628 190.614 104.831 190.614 106.038Z" fill="white"/>
</g>
<mask id="mask1_705_3026" style="mask-type:luminance" maskUnits="userSpaceOnUse" x="51" y="40" width="132" height="132">
<path d="M51.3853 40.4111H182.404V171.436H51.3853V40.4111Z" fill="white"/>
</mask>
<g mask="url(#mask1_705_3026)">
<path d="M182.628 106.035C182.628 107.108 182.6 108.182 182.547 109.255C182.494 110.325 182.417 111.398 182.311 112.466C182.206 113.536 182.075 114.6 181.917 115.664C181.759 116.724 181.576 117.782 181.365 118.837C181.157 119.888 180.922 120.937 180.661 121.979C180.4 123.021 180.112 124.054 179.802 125.084C179.489 126.111 179.154 127.131 178.791 128.143C178.428 129.154 178.043 130.156 177.631 131.148C177.221 132.138 176.787 133.121 176.328 134.092C175.869 135.063 175.385 136.021 174.879 136.968C174.371 137.917 173.843 138.85 173.291 139.772C172.739 140.693 172.165 141.599 171.567 142.492C170.971 143.385 170.354 144.263 169.712 145.126C169.073 145.988 168.412 146.835 167.733 147.666C167.05 148.494 166.349 149.31 165.627 150.104C164.907 150.901 164.166 151.677 163.406 152.437C162.649 153.197 161.87 153.938 161.073 154.658C160.279 155.38 159.467 156.082 158.635 156.761C157.804 157.443 156.96 158.104 156.095 158.743C155.233 159.382 154.355 160.002 153.462 160.598C152.571 161.193 151.662 161.77 150.741 162.323C149.82 162.875 148.886 163.402 147.94 163.908C146.991 164.416 146.033 164.897 145.062 165.356C144.091 165.815 143.111 166.253 142.118 166.662C141.126 167.075 140.124 167.459 139.113 167.822C138.102 168.182 137.081 168.52 136.054 168.833C135.028 169.144 133.992 169.429 132.949 169.693C131.907 169.953 130.862 170.186 129.807 170.397C128.756 170.608 127.698 170.791 126.634 170.949C125.573 171.104 124.506 171.237 123.436 171.343C122.369 171.448 121.299 171.526 120.226 171.579C119.153 171.631 118.08 171.659 117.006 171.659C115.933 171.659 114.86 171.631 113.787 171.579C112.714 171.526 111.643 171.448 110.573 171.343C109.506 171.237 108.439 171.104 107.378 170.949C106.315 170.791 105.257 170.608 104.202 170.397C103.151 170.186 102.102 169.953 101.06 169.693C100.018 169.429 98.9851 169.144 97.9584 168.833C96.9286 168.52 95.9112 168.182 94.9 167.822C93.8889 167.459 92.887 167.075 91.8944 166.662C90.9019 166.253 89.9186 165.815 88.9477 165.356C87.9769 164.897 87.0184 164.416 86.0724 163.908C85.1263 163.402 84.1896 162.875 83.2684 162.323C82.3472 161.77 81.4414 161.193 80.5481 160.598C79.6548 160.002 78.777 159.382 77.9147 158.743C77.0524 158.104 76.2056 157.443 75.3775 156.761C74.5462 156.082 73.7335 155.38 72.9364 154.658C72.1423 153.938 71.3638 153.197 70.6038 152.437C69.8439 151.677 69.1057 150.901 68.383 150.104C67.6634 149.31 66.9624 148.494 66.28 147.666C65.5976 146.835 64.9369 145.988 64.2979 145.126C63.659 144.263 63.0417 143.385 62.4431 142.492C61.8475 141.599 61.2737 140.693 60.7216 139.772C60.1695 138.85 59.6391 137.917 59.1335 136.968C58.6279 136.021 58.144 135.063 57.685 134.092C57.2259 133.121 56.7916 132.138 56.3791 131.148C55.9697 130.156 55.582 129.154 55.219 128.143C54.8592 127.131 54.5211 126.111 54.211 125.084C53.8977 124.054 53.6123 123.021 53.3518 121.979C53.0912 120.937 52.8555 119.888 52.6446 118.837C52.4368 117.782 52.2537 116.724 52.0956 115.664C51.9374 114.6 51.8071 113.536 51.7016 112.466C51.5962 111.398 51.5155 110.325 51.4628 109.255C51.4101 108.182 51.3853 107.108 51.3853 106.035C51.3853 104.959 51.4101 103.886 51.4628 102.812C51.5155 101.742 51.5962 100.669 51.7016 99.6019C51.8071 98.5317 51.9374 97.4677 52.0956 96.4038C52.2537 95.3429 52.4368 94.2852 52.6446 93.2305C52.8555 92.179 53.0912 91.1305 53.3518 90.0883C53.6123 89.046 53.8977 88.0131 54.211 86.9833C54.5211 85.9565 54.8592 84.936 55.219 83.9248C55.582 82.9136 55.9697 81.9116 56.3791 80.919C56.7916 79.9295 57.2259 78.9462 57.685 77.9753C58.144 77.0044 58.6279 76.0459 59.1335 75.0998C59.6391 74.1507 60.1695 73.217 60.7216 72.2957C61.2737 71.3744 61.8475 70.4687 62.4431 69.5753C63.0417 68.682 63.659 67.8041 64.2979 66.9418C64.9369 66.0795 65.5976 65.2327 66.28 64.4013C66.9624 63.5731 67.6634 62.7604 68.383 61.9632C69.1057 61.1691 69.8439 60.3906 70.6038 59.6306C71.3638 58.8706 72.1423 58.1324 72.9364 57.4096C73.7335 56.6869 74.5462 55.9858 75.3775 55.3065C76.2056 54.6241 77.0524 53.9634 77.9147 53.3244C78.777 52.6854 79.6548 52.065 80.5481 51.4695C81.4414 50.8739 82.3472 50.2969 83.2684 49.7448C84.1896 49.1927 85.1263 48.6653 86.0724 48.1597C87.0184 47.651 87.9769 47.1702 88.9477 46.7111C89.9186 46.252 90.9019 45.8147 91.8944 45.4052C92.887 44.9927 93.8889 44.608 94.9 44.2451C95.9112 43.8853 96.9286 43.5472 97.9584 43.237C98.9851 42.9237 100.018 42.6383 101.06 42.3777C102.102 42.1141 103.151 41.8814 104.202 41.6705C105.257 41.4627 106.315 41.2766 107.378 41.1215C108.439 40.9633 109.506 40.8299 110.573 40.7244C111.643 40.619 112.714 40.5414 113.787 40.4887C114.86 40.4359 115.933 40.4111 117.006 40.4111C118.08 40.4111 119.153 40.4359 120.226 40.4887C121.299 40.5414 122.369 40.619 123.436 40.7244C124.506 40.8299 125.573 40.9633 126.634 41.1215C127.698 41.2766 128.756 41.4627 129.807 41.6705C130.862 41.8814 131.907 42.1141 132.949 42.3777C133.992 42.6383 135.028 42.9237 136.054 43.237C137.081 43.5472 138.102 43.8853 139.113 44.2451C140.124 44.608 141.126 44.9927 142.118 45.4052C143.111 45.8147 144.091 46.252 145.062 46.7111C146.033 47.1702 146.991 47.651 147.94 48.1597C148.886 48.6653 149.82 49.1927 150.741 49.7448C151.662 50.2969 152.571 50.8739 153.462 51.4695C154.355 52.065 155.233 52.6854 156.095 53.3244C156.96 53.9634 157.804 54.6241 158.635 55.3065C159.467 55.9858 160.279 56.6869 161.073 57.4096C161.87 58.1324 162.649 58.8706 163.406 59.6306C164.166 60.3906 164.907 61.1691 165.627 61.9632C166.349 62.7604 167.05 63.5731 167.733 64.4013C168.412 65.2327 169.073 66.0795 169.712 66.9418C170.354 67.8041 170.971 68.682 171.567 69.5753C172.165 70.4687 172.739 71.3744 173.291 72.2957C173.843 73.217 174.374 74.1507 174.879 75.0998C175.385 76.0459 175.869 77.0044 176.328 77.9753C176.787 78.9462 177.221 79.9295 177.631 80.919C178.043 81.9116 178.428 82.9136 178.791 83.9248C179.154 84.936 179.489 85.9565 179.802 86.9833C180.112 88.0131 180.4 89.046 180.661 90.0883C180.922 91.1305 181.157 92.179 181.365 93.2305C181.576 94.2852 181.759 95.3429 181.917 96.4038C182.075 97.4677 182.206 98.5317 182.311 99.6019C182.417 100.669 182.494 101.742 182.547 102.812C182.6 103.886 182.628 104.959 182.628 106.035Z" fill="#0E5FB1"/>
</g>
<path d="M187.625 110.575C187.625 153.056 153.065 187.618 110.586 187.618C68.1071 187.618 33.5534 153.056 33.5534 110.575C33.5534 68.0916 68.1071 33.5331 110.586 33.5331C130.456 33.5331 149.436 41.2879 163.642 54.7688L149.383 58.0414L190.699 92.5564L212.848 43.481L198.546 46.7597C178.112 18.6377 145.31 1.875 110.586 1.875C50.6565 1.875 1.89355 50.6371 1.89355 110.575C1.89355 170.511 50.6565 219.273 110.586 219.273C170.521 219.273 219.281 170.511 219.281 110.575H187.625Z" fill="white"/>
<mask id="mask2_705_3026" style="mask-type:luminance" maskUnits="userSpaceOnUse" x="0" y="0" width="221" height="221">
<path d="M0.463379 0.442383H220.813V220.802H0.463379V0.442383Z" fill="white"/>
</mask>
<g mask="url(#mask2_705_3026)">
<path d="M187.625 110.576H186.157C186.157 131.414 177.683 150.296 163.998 163.985C150.31 177.676 131.427 186.145 110.586 186.151C89.7512 186.145 70.8676 177.676 57.1794 163.985C43.4944 150.296 35.0204 131.414 35.0204 110.576C35.0204 89.734 43.4944 70.8527 57.1794 57.1639C70.8676 43.4721 89.7512 35.0039 110.586 35.0039C130.074 35.0039 148.694 42.6097 162.63 55.8363L163.642 54.7693L163.313 53.3393L149.054 56.6087C148.511 56.7359 148.083 57.1546 147.953 57.6975C147.823 58.2403 148.015 58.811 148.443 59.1678L189.759 93.6859C190.115 93.9806 190.581 94.0953 191.027 93.993C191.48 93.8875 191.849 93.5835 192.041 93.1616L214.185 44.0832C214.415 43.5744 214.334 42.982 213.983 42.5508C213.63 42.1227 213.062 41.9273 212.519 42.0514L198.217 45.3301L198.546 46.7601L199.734 45.9009C179.02 17.3974 145.785 0.408203 110.586 0.408203C49.8406 0.411306 0.429372 49.8248 0.42627 110.576C0.429372 171.324 49.8406 220.74 110.586 220.74C171.337 220.74 220.751 171.324 220.751 110.576C220.751 110.185 220.593 109.807 220.323 109.537C220.047 109.264 219.669 109.105 219.281 109.105H187.625C187.24 109.105 186.861 109.264 186.585 109.537C186.312 109.807 186.157 110.185 186.157 110.576H187.625V112.046H219.281V110.576H217.814C217.814 140.14 205.792 166.941 186.375 186.365C166.951 205.783 140.152 217.806 110.586 217.806C81.0259 217.806 54.2265 205.783 34.8063 186.365C15.3861 166.941 3.36365 140.14 3.36365 110.576C3.36365 81.0083 15.3861 54.2109 34.8063 34.7898C54.2265 15.3656 81.0259 3.34261 110.586 3.34261C144.836 3.34261 177.203 19.8851 197.358 47.6255C197.705 48.1032 198.298 48.3266 198.875 48.1963L210.292 45.5752L190.162 90.19L152.596 58.811L163.967 56.2023C164.498 56.0814 164.913 55.6812 165.056 55.1539C165.199 54.6297 165.047 54.0775 164.653 53.7053C150.174 39.9669 130.837 32.0663 110.586 32.0663C67.2974 32.0663 32.0861 67.2824 32.083 110.576C32.0861 153.866 67.2974 189.082 110.586 189.085C153.88 189.082 189.089 153.866 189.095 110.576H187.625Z" fill="white"/>
</g>
<path d="M187.46 105.991C187.46 144.867 155.834 176.494 116.963 176.494C78.0883 176.494 46.4657 144.867 46.4657 105.991C46.4657 67.1145 78.0883 35.4904 116.963 35.4904C135.142 35.4904 152.512 42.5876 165.515 54.9208L152.466 57.9173L190.273 89.5041L210.543 44.5915L197.454 47.5941C178.753 21.8606 148.737 6.51855 116.963 6.51855C62.1172 6.51855 17.4951 51.1427 17.4951 105.991C17.4951 160.839 62.1172 205.463 116.963 205.463C171.808 205.463 216.43 160.839 216.43 105.991H187.46Z" fill="#0E5FB1"/>
<mask id="mask3_705_3026" style="mask-type:luminance" maskUnits="userSpaceOnUse" x="16" y="5" width="202" height="203">
<path d="M16.1865 5.20703H217.957V207.104H16.1865V5.20703Z" fill="white"/>
</mask>
<g mask="url(#mask3_705_3026)">
<path d="M187.46 105.992H186.117C186.117 125.063 178.363 142.34 165.838 154.869C153.313 167.398 136.033 175.149 116.963 175.152C97.8934 175.149 80.6165 167.398 68.0884 154.869C55.5635 142.34 47.809 125.063 47.809 105.992C47.809 86.9215 55.5635 69.6407 68.0884 57.1152C80.6165 44.5866 97.8934 36.8349 116.963 36.8349C134.795 36.8349 151.836 43.7956 164.588 55.8993L165.515 54.9222L165.214 53.6132L152.165 56.6065C151.666 56.7213 151.275 57.1059 151.157 57.6022C151.036 58.1016 151.213 58.6227 151.604 58.9484L189.414 90.5352C189.74 90.8051 190.165 90.9106 190.574 90.8175C190.987 90.7214 191.328 90.4422 191.502 90.0575L211.766 45.1449C211.977 44.6796 211.902 44.1368 211.583 43.7429C211.26 43.352 210.739 43.1721 210.24 43.2838L197.153 46.2864L197.454 47.5954L198.543 46.8076C179.588 20.7236 149.172 5.17676 116.963 5.17676C61.3731 5.17986 16.1554 50.3996 16.1523 105.992C16.1554 161.585 61.3731 206.807 116.963 206.807C172.553 206.807 217.774 161.585 217.774 105.992C217.774 105.635 217.631 105.291 217.383 105.043C217.132 104.792 216.784 104.646 216.431 104.646H187.46C187.107 104.646 186.762 104.792 186.508 105.043C186.26 105.291 186.117 105.635 186.117 105.992H187.46V107.338H216.431V105.992H215.088C215.088 133.047 204.086 157.574 186.316 175.348C168.539 193.119 144.017 204.121 116.963 204.121C89.9094 204.121 65.3868 193.119 47.6136 175.348C29.8405 157.574 18.8385 133.047 18.8385 105.992C18.8385 78.9372 29.8405 54.4134 47.6136 36.6395C65.3868 18.8655 89.9094 7.86302 116.963 7.86302C148.303 7.86302 177.922 23.0004 196.365 48.3864C196.685 48.8238 197.228 49.0254 197.755 48.9075L208.205 46.5098L189.78 87.3372L155.403 58.6227L165.81 56.2343C166.297 56.1226 166.675 55.7597 166.809 55.2758C166.939 54.7981 166.799 54.2894 166.436 53.9513C153.189 41.3761 135.493 34.1455 116.963 34.1455C77.3472 34.1455 45.126 66.3744 45.1229 105.992C45.126 145.61 77.3472 177.836 116.963 177.839C156.579 177.836 188.8 145.61 188.803 105.992H187.46Z" fill="#0E5FB1"/>
</g>
<path d="M84.8607 127.667C84.8607 129.081 84.352 130.198 83.3346 131.017C82.3172 131.83 80.8966 132.233 79.0789 132.233C77.4071 132.233 75.9275 131.919 74.6372 131.29V128.2C75.6949 128.672 76.5913 129.007 77.3295 129.205C78.0647 129.398 78.7347 129.491 79.3395 129.491C80.0653 129.491 80.6236 129.351 81.0145 129.069C81.4115 128.79 81.61 128.374 81.61 127.828C81.61 127.524 81.5231 127.251 81.3494 127.009C81.1757 126.77 80.9214 126.538 80.5926 126.314C80.2607 126.091 79.5814 125.737 78.5578 125.247C77.5963 124.801 76.8767 124.373 76.399 123.957C75.9182 123.544 75.5336 123.06 75.2452 122.505C74.9629 121.953 74.8233 121.308 74.8233 120.57C74.8233 119.189 75.2886 118.1 76.2253 117.306C77.1683 116.512 78.471 116.115 80.1336 116.115C80.9524 116.115 81.7279 116.211 82.4661 116.401C83.2105 116.593 83.9829 116.866 84.7862 117.22L83.7192 119.8C82.8817 119.462 82.1869 119.226 81.6348 119.093C81.0889 118.953 80.5492 118.882 80.0219 118.882C79.3922 118.882 78.9083 119.031 78.5703 119.329C78.2384 119.62 78.074 119.999 78.074 120.47C78.074 120.762 78.1391 121.016 78.2725 121.24C78.4121 121.457 78.6323 121.668 78.9301 121.872C79.2278 122.071 79.9288 122.437 81.0393 122.964C82.5033 123.668 83.5021 124.373 84.0418 125.074C84.5877 125.778 84.8607 126.643 84.8607 127.667Z" fill="white"/>
<path d="M96.736 132.021H87.7036V116.338H96.736V119.055H91.0287V122.504H96.339V125.234H91.0287V129.279H96.736V132.021Z" fill="white"/>
<path d="M103.331 123.299H104.411C105.459 123.299 106.235 123.125 106.731 122.777C107.233 122.424 107.488 121.869 107.488 121.115C107.488 120.37 107.23 119.843 106.719 119.527C106.204 119.213 105.41 119.055 104.336 119.055H103.331V123.299ZM103.331 126.003V132.021H100.006V116.338H104.572C106.706 116.338 108.285 116.729 109.312 117.504C110.335 118.273 110.85 119.449 110.85 121.028C110.85 121.955 110.593 122.777 110.081 123.497C109.575 124.217 108.856 124.781 107.922 125.185C110.286 128.708 111.824 130.988 112.538 132.021H108.853L105.106 126.003H103.331Z" fill="white"/>
<path d="M123.453 116.338H126.816L121.481 132.021H117.858L112.535 116.338H115.897L118.838 125.668C119.002 126.224 119.173 126.869 119.347 127.604C119.527 128.333 119.638 128.842 119.682 129.13C119.756 128.469 120.023 127.316 120.488 125.668L123.453 116.338Z" fill="white"/>
<path d="M128.784 132.021V116.338H132.109V132.021H128.784Z" fill="white"/>
<path d="M142.719 118.882C141.469 118.882 140.501 119.354 139.816 120.297C139.127 121.233 138.786 122.539 138.786 124.217C138.786 127.716 140.095 129.466 142.719 129.466C143.817 129.466 145.154 129.193 146.727 128.647V131.426C145.436 131.966 143.997 132.233 142.409 132.233C140.126 132.233 138.38 131.544 137.173 130.161C135.964 128.78 135.362 126.795 135.362 124.205C135.362 122.567 135.653 121.137 136.243 119.912C136.838 118.69 137.688 117.75 138.799 117.095C139.915 116.444 141.221 116.115 142.719 116.115C144.239 116.115 145.771 116.484 147.31 117.22L146.243 119.924C145.654 119.645 145.064 119.4 144.469 119.192C143.873 118.988 143.29 118.882 142.719 118.882Z" fill="white"/>
<path d="M159.087 132.021H150.054V116.338H159.087V119.055H153.379V122.504H158.69V125.234H153.379V129.279H159.087V132.021Z" fill="white"/>
<path d="M94.9575 104.776H73.9399V100.359L81.4834 92.7285C83.7167 90.4393 85.1745 88.8511 85.8631 87.964C86.5486 87.0799 87.0418 86.261 87.3395 85.5073C87.6435 84.7566 87.7986 83.9749 87.7986 83.1622C87.7986 81.9556 87.4636 81.0591 86.7936 80.4697C86.1298 79.8835 85.2458 79.5888 84.1385 79.5888C82.9722 79.5888 81.837 79.8587 80.739 80.3953C79.6471 80.9257 78.5057 81.6826 77.3146 82.6659L73.853 78.5838C75.3326 77.3182 76.5609 76.4248 77.5379 75.9037C78.5119 75.3826 79.5758 74.9825 80.7266 74.7002C81.8742 74.421 83.1615 74.2783 84.5852 74.2783C86.4617 74.2783 88.1212 74.6226 89.5604 75.3082C90.9996 75.9968 92.1163 76.9553 92.9103 78.1867C93.7106 79.4213 94.1138 80.8358 94.1138 82.4302C94.1138 83.8136 93.8688 85.1102 93.3818 86.3262C92.8917 87.5359 92.1349 88.7798 91.1113 90.0609C90.0939 91.3357 88.2949 93.1504 85.7142 95.5078L81.8556 99.1433V99.4286H94.9575V104.776Z" fill="white"/>
<path d="M119.666 98.548H116.055V104.777H109.839V98.548H97.0103V94.1309L110.187 74.7129H116.055V93.6098H119.666V98.548ZM109.839 93.6098V88.5102C109.839 87.6603 109.87 86.4257 109.938 84.8127C110.013 83.1935 110.069 82.2536 110.112 81.9962H109.938C109.433 83.1222 108.825 84.2172 108.115 85.2842L102.606 93.6098H109.839Z" fill="white"/>
<path d="M137.513 74.7129L126.309 104.777H120.614L131.818 74.7129H137.513Z" fill="white"/>
<path d="M142.391 104.777L153.681 80.0977H138.854V74.75H160.43V78.7453L149.053 104.777H142.391Z" fill="white"/>
</svg>
