<svg width="220" height="220" viewBox="0 0 220 220" fill="none" xmlns="http://www.w3.org/2000/svg">
<mask id="mask0_763_2822" style="mask-type:luminance" maskUnits="userSpaceOnUse" x="0" y="0" width="220" height="220">
<path d="M0 0H220V220H0V0Z" fill="white"/>
</mask>
<g mask="url(#mask0_763_2822)">
<path d="M220.167 110.084C220.167 111.888 220.125 113.688 220.037 115.488C219.944 117.288 219.814 119.083 219.638 120.874C219.462 122.669 219.239 124.455 218.975 126.237C218.71 128.023 218.404 129.795 218.052 131.562C217.699 133.33 217.305 135.088 216.869 136.832C216.433 138.581 215.95 140.316 215.426 142.042C214.906 143.767 214.34 145.474 213.733 147.172C213.125 148.866 212.476 150.55 211.789 152.215C211.098 153.876 210.369 155.523 209.599 157.151C208.829 158.779 208.017 160.389 207.169 161.98C206.32 163.567 205.434 165.135 204.506 166.679C203.578 168.224 202.618 169.746 201.616 171.244C200.614 172.743 199.579 174.213 198.503 175.66C197.431 177.108 196.323 178.527 195.181 179.924C194.036 181.315 192.862 182.679 191.651 184.015C190.44 185.347 189.197 186.65 187.926 187.926C186.65 189.202 185.347 190.44 184.011 191.651C182.675 192.862 181.311 194.04 179.919 195.181C178.527 196.323 177.108 197.431 175.66 198.508C174.213 199.579 172.743 200.614 171.244 201.616C169.746 202.618 168.224 203.583 166.679 204.506C165.135 205.434 163.567 206.32 161.975 207.169C160.389 208.022 158.779 208.829 157.151 209.599C155.523 210.369 153.876 211.098 152.21 211.789C150.545 212.48 148.866 213.125 147.172 213.733C145.474 214.34 143.763 214.906 142.042 215.431C140.316 215.95 138.581 216.433 136.832 216.869C135.083 217.309 133.33 217.704 131.562 218.052C129.795 218.404 128.018 218.715 126.237 218.979C124.455 219.244 122.669 219.462 120.874 219.638C119.083 219.814 117.283 219.949 115.483 220.037C113.688 220.125 111.883 220.167 110.084 220.167C108.284 220.167 106.484 220.125 104.684 220.037C102.884 219.949 101.088 219.814 99.2932 219.638C97.5025 219.462 95.7119 219.244 93.9305 218.979C92.1491 218.715 90.377 218.404 88.6096 218.052C86.8421 217.704 85.0839 217.309 83.335 216.869C81.5861 216.433 79.8511 215.95 78.1301 215.431C76.4044 214.906 74.6926 214.34 72.9993 213.733C71.3015 213.125 69.6221 212.48 67.9567 211.789C66.2913 211.098 64.6445 210.369 63.0162 209.599C61.3879 208.829 59.7782 208.017 58.1916 207.169C56.6005 206.32 55.0371 205.434 53.4877 204.506C51.9429 203.583 50.4213 202.618 48.9229 201.616C47.4292 200.614 45.9539 199.579 44.5066 198.508C43.0592 197.431 41.6397 196.323 40.248 195.181C38.8563 194.04 37.4924 192.862 36.1564 191.651C34.8203 190.44 33.5168 189.202 32.2411 187.926C30.97 186.65 29.7267 185.347 28.5159 184.015C27.3098 182.679 26.1315 181.315 24.9903 179.924C23.8445 178.527 22.7357 177.108 21.6641 175.66C20.5925 174.213 19.5534 172.743 18.5514 171.244C17.554 169.746 16.5891 168.224 15.6613 166.679C14.7381 165.135 13.8474 163.567 12.9985 161.98C12.1495 160.389 11.3424 158.779 10.5676 157.151C9.79757 155.523 9.06925 153.876 8.37804 152.215C7.69147 150.55 7.042 148.866 6.4343 147.172C5.82659 145.474 5.26527 143.767 4.74106 142.042C4.21685 140.316 3.73903 138.581 3.29833 136.832C2.86226 135.088 2.46795 133.33 2.11538 131.562C1.76282 129.795 1.45665 128.023 1.19222 126.237C0.927801 124.455 0.705128 122.669 0.528846 120.874C0.352564 119.083 0.222672 117.288 0.134531 115.488C0.0463909 113.688 0 111.888 0 110.084C0 108.284 0.0463909 106.484 0.134531 104.684C0.222672 102.884 0.352564 101.088 0.528846 99.2932C0.705128 97.5025 0.927801 95.7165 1.19222 93.9351C1.45665 92.1491 1.76282 90.377 2.11538 88.6096C2.46795 86.8421 2.86226 85.0839 3.29833 83.3397C3.73903 81.5908 4.21685 79.8558 4.74106 78.1301C5.26527 76.4044 5.82659 74.6972 6.4343 72.9993C7.042 71.3015 7.69147 69.6221 8.37804 67.9567C9.06925 66.296 9.79757 64.6491 10.5676 63.0208C11.3424 61.3879 12.1495 59.7828 12.9985 58.1916C13.8474 56.6051 14.7381 55.0371 15.6613 53.4923C16.5891 51.9475 17.554 50.4259 18.5514 48.9275C19.5534 47.4292 20.5925 45.9539 21.6641 44.5066C22.7357 43.0639 23.8445 41.6397 24.9903 40.248C26.1315 38.8563 27.3098 37.4924 28.5159 36.1564C29.7267 34.825 30.97 33.5168 32.2411 32.2457C33.5168 30.97 34.8203 29.7267 36.1564 28.5206C37.4924 27.3098 38.8563 26.1315 40.248 24.9903C41.6397 23.8491 43.0592 22.7404 44.5066 21.6641C45.9539 20.5925 47.4292 19.5534 48.9229 18.556C50.4213 17.554 51.9429 16.5891 53.4877 15.6659C55.0371 14.7381 56.6005 13.8521 58.1916 12.9985C59.7782 12.1495 61.3879 11.3424 63.0162 10.5723C64.6445 9.80221 66.2913 9.06925 67.9567 8.38268C69.6221 7.69146 71.3015 7.042 72.9993 6.43893C74.6926 5.83122 76.4044 5.26527 78.1301 4.74106C79.8511 4.22149 81.5861 3.73904 83.335 3.30297C85.0839 2.86226 86.8421 2.46795 88.6096 2.11538C90.377 1.76746 92.1491 1.45665 93.9305 1.19222C95.7119 0.927799 97.5025 0.709768 99.2932 0.533485C101.088 0.357204 102.884 0.222671 104.684 0.134531C106.484 0.0463897 108.284 0 110.084 0C111.883 0 113.688 0.0463897 115.483 0.134531C117.283 0.222671 119.083 0.357204 120.874 0.533485C122.669 0.709768 124.455 0.927799 126.237 1.19222C128.018 1.45665 129.795 1.76746 131.562 2.11538C133.33 2.46795 135.083 2.86226 136.832 3.30297C138.581 3.73904 140.316 4.22149 142.042 4.74106C143.763 5.26527 145.474 5.83122 147.172 6.43893C148.866 7.042 150.545 7.69146 152.21 8.38268C153.876 9.06925 155.523 9.80221 157.151 10.5723C158.779 11.3424 160.389 12.1495 161.975 12.9985C163.567 13.8521 165.135 14.7381 166.679 15.6659C168.224 16.5891 169.746 17.554 171.244 18.556C172.743 19.5534 174.213 20.5925 175.66 21.6641C177.108 22.7404 178.527 23.8491 179.919 24.9903C181.311 26.1315 182.675 27.3098 184.011 28.5206C185.347 29.7267 186.65 30.97 187.926 32.2457C189.197 33.5168 190.44 34.825 191.651 36.1564C192.862 37.4924 194.036 38.8563 195.181 40.248C196.323 41.6397 197.431 43.0639 198.503 44.5066C199.579 45.9539 200.614 47.4292 201.616 48.9275C202.618 50.4259 203.578 51.9475 204.506 53.4923C205.434 55.0371 206.32 56.6051 207.169 58.1916C208.017 59.7828 208.829 61.3879 209.599 63.0208C210.369 64.6491 211.098 66.296 211.789 67.9567C212.476 69.6221 213.125 71.3015 213.733 72.9993C214.34 74.6972 214.906 76.4044 215.426 78.1301C215.95 79.8558 216.433 81.5908 216.869 83.3397C217.305 85.0839 217.699 86.8421 218.052 88.6096C218.404 90.377 218.71 92.1491 218.975 93.9351C219.239 95.7165 219.462 97.5025 219.638 99.2932C219.814 101.088 219.944 102.884 220.037 104.684C220.125 106.484 220.167 108.284 220.167 110.084Z" fill="white"/>
</g>
<mask id="mask1_763_2822" style="mask-type:luminance" maskUnits="userSpaceOnUse" x="11" y="11" width="197" height="197">
<path d="M11.9355 11.9365H207.887V207.888H11.9355V11.9365Z" fill="white"/>
</mask>
<g mask="url(#mask1_763_2822)">
<path d="M208.221 110.079C208.221 111.684 208.179 113.294 208.1 114.895C208.022 116.5 207.906 118.1 207.748 119.701C207.59 121.296 207.395 122.892 207.159 124.479C206.922 126.07 206.648 127.652 206.333 129.229C206.022 130.802 205.67 132.37 205.28 133.928C204.89 135.487 204.459 137.032 203.995 138.572C203.526 140.107 203.025 141.629 202.483 143.141C201.944 144.654 201.365 146.152 200.752 147.637C200.135 149.121 199.486 150.592 198.799 152.044C198.113 153.496 197.389 154.929 196.633 156.344C195.877 157.759 195.083 159.16 194.258 160.538C193.432 161.915 192.574 163.27 191.678 164.606C190.788 165.942 189.864 167.255 188.909 168.545C187.949 169.834 186.96 171.101 185.944 172.339C184.924 173.583 183.876 174.798 182.795 175.99C181.718 177.178 180.61 178.342 179.473 179.479C178.341 180.615 177.177 181.719 175.985 182.8C174.797 183.876 173.582 184.925 172.338 185.945C171.1 186.966 169.833 187.954 168.544 188.91C167.249 189.865 165.936 190.789 164.605 191.684C163.269 192.575 161.91 193.433 160.532 194.259C159.154 195.084 157.758 195.878 156.343 196.634C154.923 197.39 153.49 198.114 152.038 198.8C150.586 199.487 149.12 200.136 147.636 200.753C146.151 201.366 144.653 201.945 143.14 202.488C141.628 203.026 140.107 203.532 138.566 203.996C137.031 204.464 135.481 204.891 133.923 205.281C132.369 205.671 130.801 206.023 129.223 206.339C127.651 206.649 126.069 206.923 124.478 207.16C122.891 207.396 121.295 207.591 119.7 207.749C118.099 207.907 116.499 208.027 114.894 208.106C113.288 208.185 111.683 208.222 110.078 208.222C108.473 208.222 106.868 208.185 105.263 208.106C103.658 208.027 102.057 207.907 100.457 207.749C98.8612 207.591 97.2653 207.396 95.6788 207.16C94.0876 206.923 92.5057 206.649 90.9331 206.339C89.3558 206.023 87.7879 205.671 86.2292 205.281C84.6751 204.891 83.1257 204.464 81.5902 203.996C80.05 203.532 78.5284 203.026 77.0161 202.488C75.5038 201.945 74.0054 201.366 72.5209 200.753C71.0364 200.136 69.5705 199.487 68.1185 198.8C66.6665 198.114 65.2284 197.39 63.8135 196.634C62.3986 195.878 61.0023 195.084 59.6245 194.259C58.2467 193.433 56.8875 192.575 55.5514 191.684C54.2154 190.789 52.9026 189.865 51.6129 188.91C50.3233 187.954 49.0568 186.966 47.8182 185.945C46.575 184.925 45.3596 183.876 44.1673 182.8C42.9797 181.719 41.8154 180.615 40.6788 179.479C39.5469 178.342 38.4382 177.178 37.3573 175.99C36.281 174.798 35.2326 173.583 34.212 172.339C33.1915 171.101 32.208 169.834 31.2477 168.545C30.2921 167.255 29.3689 165.942 28.4736 164.606C27.5829 163.27 26.7247 161.915 25.8989 160.538C25.0732 159.16 24.2799 157.759 23.5238 156.344C22.7676 154.929 22.0439 153.496 21.3574 152.044C20.6708 150.592 20.0213 149.121 19.4043 147.637C18.792 146.152 18.2121 144.654 17.674 143.141C17.1312 141.629 16.6256 140.107 16.1617 138.572C15.6931 137.032 15.2663 135.487 14.8767 133.928C14.487 132.37 14.1344 130.802 13.819 129.229C13.5082 127.652 13.2345 126.07 12.9979 124.479C12.7613 122.892 12.5665 121.296 12.4087 119.701C12.251 118.1 12.1304 116.5 12.0515 114.895C11.9727 113.294 11.9355 111.684 11.9355 110.079C11.9355 108.474 11.9727 106.869 12.0515 105.264C12.1304 103.659 12.251 102.058 12.4087 100.463C12.5665 98.8621 12.7613 97.2663 12.9979 95.6798C13.2345 94.0932 13.5082 92.5067 13.819 90.9341C14.1344 89.3568 14.487 87.7935 14.8767 86.2348C15.2663 84.6761 15.6931 83.1266 16.1617 81.5911C16.6256 80.0556 17.1312 78.5294 17.674 77.0171C18.2121 75.5048 18.792 74.0064 19.4043 72.5219C20.0213 71.0374 20.6708 69.5715 21.3574 68.1195C22.0439 66.6675 22.7676 65.234 23.5238 63.8145C24.2799 62.3996 25.0732 61.0032 25.8989 59.6255C26.7247 58.2477 27.5829 56.8884 28.4736 55.5571C29.3689 54.221 30.2921 52.9082 31.2477 51.6185C32.208 50.3289 33.1915 49.0625 34.212 47.8192C35.2326 46.5759 36.281 45.3605 37.3573 44.1729C38.4382 42.9807 39.5469 41.821 40.6788 40.6844C41.8154 39.5479 42.9797 38.4391 44.1673 37.3629C45.3596 36.282 46.575 35.2336 47.8182 34.213C49.0568 33.1971 50.3233 32.209 51.6129 31.2533C52.9026 30.2931 54.2154 29.3699 55.5514 28.4792C56.8875 27.5839 58.2467 26.7257 59.6245 25.8999C61.0023 25.0742 62.3986 24.2855 63.8135 23.5247C65.2284 22.7686 66.6665 22.0449 68.1185 21.3583C69.5705 20.6718 71.0364 20.0223 72.5209 19.41C74.0054 18.793 75.5038 18.2177 77.0161 17.675C78.5284 17.1322 80.05 16.6312 81.5902 16.1627C83.1257 15.6988 84.6751 15.2673 86.2292 14.8777C87.7879 14.488 89.3558 14.1354 90.9331 13.8246C92.5057 13.5091 94.0876 13.2354 95.6788 12.9989C97.2653 12.7623 98.8612 12.5674 100.457 12.4097C102.057 12.252 103.658 12.136 105.263 12.0571C106.868 11.9783 108.473 11.9365 110.078 11.9365C111.683 11.9365 113.288 11.9783 114.894 12.0571C116.499 12.136 118.099 12.252 119.7 12.4097C121.295 12.5674 122.891 12.7623 124.478 12.9989C126.069 13.2354 127.651 13.5091 129.223 13.8246C130.801 14.1354 132.369 14.488 133.923 14.8777C135.481 15.2673 137.031 15.6988 138.566 16.1627C140.107 16.6312 141.628 17.1322 143.14 17.675C144.653 18.2177 146.151 18.793 147.636 19.41C149.12 20.0223 150.586 20.6718 152.038 21.3583C153.49 22.0449 154.923 22.7686 156.343 23.5247C157.758 24.2855 159.154 25.0742 160.532 25.8999C161.91 26.7257 163.269 27.5839 164.605 28.4792C165.936 29.3699 167.249 30.2931 168.544 31.2533C169.833 32.209 171.1 33.1971 172.338 34.213C173.582 35.2336 174.797 36.282 175.985 37.3629C177.177 38.4391 178.341 39.5479 179.473 40.6844C180.61 41.821 181.718 42.9807 182.795 44.1729C183.876 45.3605 184.924 46.5759 185.944 47.8192C186.96 49.0625 187.949 50.3289 188.909 51.6185C189.864 52.9082 190.788 54.221 191.678 55.5571C192.574 56.8884 193.432 58.2477 194.258 59.6255C195.083 61.0032 195.877 62.3996 196.633 63.8145C197.389 65.234 198.113 66.6675 198.799 68.1195C199.486 69.5715 200.135 71.0374 200.752 72.5219C201.365 74.0064 201.944 75.5048 202.483 77.0171C203.025 78.5294 203.526 80.0556 203.995 81.5911C204.459 83.1266 204.89 84.6761 205.28 86.2348C205.67 87.7935 206.022 89.3568 206.333 90.9341C206.648 92.5067 206.922 94.0932 207.159 95.6798C207.395 97.2663 207.59 98.8621 207.748 100.463C207.906 102.058 208.022 103.659 208.1 105.264C208.179 106.869 208.221 108.474 208.221 110.079Z" fill="#0E5FB1"/>
</g>
<path d="M62.0011 142.432C62.0011 144.548 61.2403 146.218 59.7187 147.443C58.1971 148.658 56.0724 149.261 53.354 149.261C50.8536 149.261 48.6408 148.792 46.7109 147.851V143.23C48.2928 143.935 49.6335 144.436 50.7376 144.733C51.837 145.021 52.8391 145.16 53.7437 145.16C54.8292 145.16 55.6642 144.951 56.2487 144.529C56.8425 144.112 57.1394 143.49 57.1394 142.674C57.1394 142.219 57.0095 141.811 56.7497 141.449C56.49 141.092 56.1096 140.744 55.6178 140.41C55.1214 140.076 54.1055 139.547 52.5746 138.814C51.1365 138.146 50.0603 137.506 49.3459 136.884C48.6268 136.267 48.0516 135.543 47.6202 134.713C47.198 133.887 46.9893 132.922 46.9893 131.818C46.9893 129.754 47.6851 128.126 49.0861 126.938C50.4964 125.751 52.4447 125.157 54.9312 125.157C56.1559 125.157 57.3157 125.301 58.4198 125.584C59.5331 125.871 60.6882 126.279 61.8898 126.808L60.2939 130.668C59.0414 130.162 58.0023 129.81 57.1765 129.61C56.3601 129.401 55.5529 129.295 54.7642 129.295C53.8225 129.295 53.0988 129.517 52.5932 129.963C52.0968 130.399 51.851 130.965 51.851 131.67C51.851 132.106 51.9484 132.486 52.1478 132.82C52.3566 133.145 52.686 133.461 53.1313 133.767C53.5767 134.064 54.6251 134.611 56.2858 135.4C58.4754 136.453 59.9692 137.506 60.7764 138.554C61.5929 139.607 62.0011 140.902 62.0011 142.432Z" fill="white"/>
<path d="M79.7617 148.946H66.2529V125.491H79.7617V129.554H71.2259V134.713H79.1679V138.795H71.2259V144.845H79.7617V148.946Z" fill="white"/>
<path d="M89.6273 135.901H91.2417C92.8097 135.901 93.9694 135.641 94.7117 135.121C95.4632 134.592 95.8436 133.762 95.8436 132.635C95.8436 131.521 95.4585 130.733 94.6931 130.26C93.923 129.791 92.7354 129.554 91.1303 129.554H89.6273V135.901ZM89.6273 139.946V148.946H84.6543V125.491H91.4829C94.6745 125.491 97.0358 126.075 98.5713 127.235C100.102 128.385 100.872 130.144 100.872 132.505C100.872 133.892 100.487 135.121 99.7218 136.198C98.9656 137.274 97.8894 138.118 96.493 138.721C100.028 143.991 102.329 147.401 103.396 148.946H97.8847L92.2808 139.946H89.6273Z" fill="white"/>
<path d="M119.723 125.491H124.752L116.772 148.946H111.354L103.394 125.491H108.422L112.82 139.445C113.066 140.275 113.321 141.24 113.581 142.34C113.85 143.43 114.017 144.191 114.082 144.622C114.193 143.634 114.592 141.908 115.288 139.445L119.723 125.491Z" fill="white"/>
<path d="M127.695 148.946V125.491H132.668V148.946H127.695Z" fill="white"/>
<path d="M148.535 129.295C146.665 129.295 145.218 130 144.193 131.41C143.163 132.811 142.653 134.764 142.653 137.274C142.653 142.507 144.61 145.123 148.535 145.123C150.177 145.123 152.177 144.715 154.529 143.898V148.055C152.599 148.862 150.446 149.261 148.071 149.261C144.657 149.261 142.045 148.231 140.24 146.162C138.431 144.098 137.531 141.129 137.531 137.255C137.531 134.806 137.967 132.667 138.849 130.835C139.739 129.007 141.011 127.601 142.671 126.623C144.341 125.648 146.294 125.157 148.535 125.157C150.808 125.157 153.1 125.709 155.401 126.808L153.805 130.853C152.923 130.436 152.042 130.069 151.151 129.759C150.261 129.452 149.389 129.295 148.535 129.295Z" fill="white"/>
<path d="M173.013 148.946H159.504V125.491H173.013V129.554H164.477V134.713H172.419V138.795H164.477V144.845H173.013V148.946Z" fill="white"/>
<path d="M77.1028 108.2H45.669V101.594L56.951 90.1821C60.2911 86.7586 62.4714 84.3834 63.5013 83.0566C64.5265 81.7345 65.2641 80.5098 65.7094 79.3825C66.1641 78.2599 66.396 77.0909 66.396 75.8755C66.396 74.0709 65.895 72.7302 64.893 71.8488C63.9002 70.972 62.5781 70.5313 60.922 70.5313C59.1777 70.5313 57.4799 70.9349 55.8376 71.7375C54.2047 72.5307 52.4976 73.6627 50.7162 75.1332L45.5391 69.0283C47.7519 67.1356 49.5889 65.7995 51.0502 65.0202C52.5068 64.2408 54.098 63.6424 55.8191 63.2203C57.5355 62.8028 59.4607 62.5894 61.59 62.5894C64.3966 62.5894 66.8785 63.1043 69.031 64.1295C71.1835 65.1594 72.8535 66.5928 74.0411 68.4345C75.2379 70.2808 75.841 72.3962 75.841 74.7807C75.841 76.8496 75.4745 78.7887 74.7462 80.6072C74.0133 82.4164 72.8813 84.2767 71.3505 86.1926C69.8289 88.0992 67.1383 90.813 63.2786 94.3387L57.5077 99.7756V100.202H77.1028V108.2Z" fill="white"/>
<path d="M114.057 98.8849H108.657V108.2H99.3607V98.8849H80.1738V92.2789L99.8803 63.2388H108.657V91.4996H114.057V98.8849ZM99.3607 91.4996V83.873C99.3607 82.602 99.4071 80.7556 99.5092 78.3434C99.6205 75.9218 99.704 74.5162 99.769 74.1311H99.5092C98.753 75.8151 97.8438 77.4527 96.7815 79.0485L88.5426 91.4996H99.3607Z" fill="white"/>
<path d="M140.749 63.2388L123.993 108.2H115.476L132.232 63.2388H140.749Z" fill="white"/>
<path d="M148.042 108.2L164.928 71.2921H142.754V63.2944H175.023V69.2695L158.007 108.2H148.042Z" fill="white"/>
</svg>
