<svg width="79" height="79" viewBox="0 0 79 79" fill="none" xmlns="http://www.w3.org/2000/svg">
<mask id="mask0_821_2808" style="mask-type:luminance" maskUnits="userSpaceOnUse" x="0" y="0" width="79" height="79">
<path d="M0 0H78.2656V78.2708H0V0Z" fill="white"/>
</mask>
<g mask="url(#mask0_821_2808)">
<mask id="mask1_821_2808" style="mask-type:luminance" maskUnits="userSpaceOnUse" x="0" y="0" width="79" height="79">
<path d="M39.1302 78.2708C17.5208 78.2708 0 60.75 0 39.1354C0 17.5208 17.5208 0 39.1302 0C60.7448 0 78.2656 17.5208 78.2656 39.1354C78.2656 60.75 60.7448 78.2708 39.1302 78.2708V64.9635C53.3958 64.9635 64.9583 53.401 64.9583 39.1354C64.9583 24.8698 53.3958 13.3073 39.1302 13.3073C24.8646 13.3073 13.3021 24.8698 13.3021 39.1354C13.3021 53.401 24.8646 64.9635 39.1302 64.9635V78.2708Z" fill="white"/>
</mask>
<g mask="url(#mask1_821_2808)">
<path d="M78.2656 78.2708H0V0H78.2656V78.2708Z" fill="#A6A6A6"/>
</g>
</g>
<mask id="mask2_821_2808" style="mask-type:luminance" maskUnits="userSpaceOnUse" x="3" y="46" width="37" height="32">
<path d="M3.10449 46.7812H39.4378V77.6563H3.10449V46.7812Z" fill="white"/>
</mask>
<g mask="url(#mask2_821_2808)">
<mask id="mask3_821_2808" style="mask-type:luminance" maskUnits="userSpaceOnUse" x="3" y="46" width="37" height="32">
<path d="M31.1149 77.4428C19.3336 74.974 9.34403 67.224 4.02632 56.4271C2.40132 53.1303 3.75549 49.1407 7.05236 47.5157C10.3492 45.8959 14.3388 47.2501 15.9586 50.5469C19.469 57.6719 26.068 62.7917 33.844 64.4167C37.4378 65.1719 39.7451 68.6928 38.9899 72.2917C38.2399 75.8855 34.7138 78.1928 31.1149 77.4428Z" fill="white"/>
</mask>
<g mask="url(#mask3_821_2808)">
<path d="M78.2656 78.2708H0V0H78.2656V78.2708Z" fill="#004AAD"/>
</g>
</g>
</svg>
