<svg width="79" height="79" viewBox="0 0 79 79" fill="none" xmlns="http://www.w3.org/2000/svg">
<mask id="mask0_824_2809" style="mask-type:luminance" maskUnits="userSpaceOnUse" x="0" y="0" width="79" height="79">
<path d="M0.302734 0H78.5736V78.2656H0.302734V0Z" fill="white"/>
</mask>
<g mask="url(#mask0_824_2809)">
<mask id="mask1_824_2809" style="mask-type:luminance" maskUnits="userSpaceOnUse" x="0" y="0" width="79" height="79">
<path d="M39.4382 78.2656C17.8236 78.2656 0.302734 60.7448 0.302734 39.1354C0.302734 17.5208 17.8236 0 39.4382 0C61.0527 0 78.5736 17.5208 78.5736 39.1354C78.5736 60.7448 61.0527 78.2656 39.4382 78.2656V64.9635C53.7038 64.9635 65.2663 53.3958 65.2663 39.1354C65.2663 24.8698 53.7038 13.3073 39.4382 13.3073C25.1725 13.3073 13.61 24.8698 13.61 39.1354C13.61 53.3958 25.1725 64.9635 39.4382 64.9635V78.2656Z" fill="white"/>
</mask>
<g mask="url(#mask1_824_2809)">
<path d="M78.5736 78.2656H0.302734V0H78.5736V78.2656Z" fill="#A6A6A6"/>
</g>
</g>
<mask id="mask2_824_2809" style="mask-type:luminance" maskUnits="userSpaceOnUse" x="0" y="3" width="40" height="75">
<path d="M0 3.05713H39.7448V77.6561H0V3.05713Z" fill="white"/>
</mask>
<g mask="url(#mask2_824_2809)">
<mask id="mask3_824_2809" style="mask-type:luminance" maskUnits="userSpaceOnUse" x="0" y="3" width="40" height="75">
<path d="M31.4223 77.4372C15.0786 74.0154 2.70357 60.6039 0.615033 44.0362C-1.47872 27.4737 7.16712 11.4008 22.1515 4.02577C25.4432 2.40077 29.4327 3.76014 31.0577 7.05702C32.6775 10.3487 31.3234 14.3383 28.0265 15.9633C18.1411 20.8331 12.4327 31.4372 13.813 42.3695C15.1932 53.3018 23.3598 62.156 34.1463 64.4164C37.7452 65.1664 40.0525 68.6924 39.2973 72.2862C38.5473 75.8851 35.0213 78.1924 31.4223 77.4372Z" fill="white"/>
</mask>
<g mask="url(#mask3_824_2809)">
<path d="M78.5736 78.2651H0.302734V-0.000488281H78.5736V78.2651Z" fill="#004AAD"/>
</g>
</g>
</svg>
