<svg width="79" height="79" viewBox="0 0 79 79" fill="none" xmlns="http://www.w3.org/2000/svg">
<mask id="mask0_825_2829" style="mask-type:luminance" maskUnits="userSpaceOnUse" x="0" y="0" width="79" height="79">
<path d="M0.307617 0.307129H78.5732V78.5728H0.307617V0.307129Z" fill="white"/>
</mask>
<g mask="url(#mask0_825_2829)">
<mask id="mask1_825_2829" style="mask-type:luminance" maskUnits="userSpaceOnUse" x="0" y="0" width="79" height="79">
<path d="M39.4378 78.5728C17.8285 78.5728 0.307617 61.0519 0.307617 39.4425C0.307617 17.828 17.8285 0.307129 39.4378 0.307129C61.0524 0.307129 78.5732 17.828 78.5732 39.4425C78.5732 61.0519 61.0524 78.5728 39.4378 78.5728V65.2707C53.7035 65.2707 65.266 53.703 65.266 39.4425C65.266 25.1769 53.7035 13.6144 39.4378 13.6144C25.1722 13.6144 13.6097 25.1769 13.6097 39.4425C13.6097 53.703 25.1722 65.2707 39.4378 65.2707V78.5728Z" fill="white"/>
</mask>
<g mask="url(#mask1_825_2829)">
<path d="M78.5732 78.5728H0.307617V0.307129H78.5732V78.5728Z" fill="#A6A6A6"/>
</g>
</g>
<mask id="mask2_825_2829" style="mask-type:luminance" maskUnits="userSpaceOnUse" x="0" y="0" width="67" height="78">
<path d="M0 0H66.651V77.9635H0V0Z" fill="white"/>
</mask>
<g mask="url(#mask2_825_2829)">
<mask id="mask3_825_2829" style="mask-type:luminance" maskUnits="userSpaceOnUse" x="0" y="0" width="67" height="78">
<path d="M31.4223 77.7449C15.5837 74.4324 3.41704 61.7084 0.812875 45.7397C-1.78608 29.7657 5.7035 13.8386 19.6723 5.66676C33.6358 -2.50511 51.1931 -1.24469 63.8441 8.84906C65.7035 10.3334 66.6306 12.6928 66.2712 15.0418C65.9171 17.3907 64.3389 19.3751 62.1254 20.2449C59.9118 21.1095 57.4066 20.7345 55.5473 19.2501C47.1983 12.5886 35.6098 11.7553 26.391 17.1511C17.1775 22.547 12.2295 33.0574 13.9483 43.5991C15.667 54.1407 23.6931 62.5366 34.1514 64.7241C37.7452 65.4741 40.0525 69.0001 39.2973 72.5938C38.5473 76.1928 35.0212 78.5001 31.4223 77.7449Z" fill="white"/>
</mask>
<g mask="url(#mask3_825_2829)">
<path d="M78.5732 78.5732H0.307617V0.307617H78.5732V78.5732Z" fill="#004AAD"/>
</g>
</g>
</svg>
