<svg width="221" height="221" viewBox="0 0 221 221" fill="none" xmlns="http://www.w3.org/2000/svg">
<mask id="mask0_705_3024" style="mask-type:luminance" maskUnits="userSpaceOnUse" x="0" y="0" width="221" height="221">
<path d="M0.166504 0.604492H220.167V220.604H0.166504V0.604492Z" fill="white"/>
</mask>
<g mask="url(#mask0_705_3024)">
<path d="M220.542 110.792C220.542 112.594 220.5 114.396 220.411 116.198C220.323 118 220.187 119.797 220.01 121.594C219.833 123.386 219.614 125.177 219.349 126.959C219.083 128.745 218.776 130.521 218.427 132.287C218.073 134.058 217.677 135.818 217.239 137.563C216.802 139.313 216.323 141.052 215.797 142.776C215.276 144.5 214.708 146.214 214.099 147.912C213.495 149.61 212.844 151.292 212.156 152.959C211.463 154.625 210.734 156.271 209.963 157.901C209.193 159.532 208.38 161.141 207.531 162.735C206.682 164.323 205.792 165.891 204.864 167.438C203.937 168.985 202.974 170.511 201.974 172.011C200.969 173.506 199.932 174.979 198.859 176.427C197.786 177.881 196.677 179.297 195.531 180.693C194.385 182.089 193.208 183.453 192 184.787C190.786 186.125 189.547 187.433 188.271 188.703C186.995 189.979 185.687 191.224 184.354 192.433C183.015 193.646 181.651 194.823 180.255 195.969C178.864 197.11 177.443 198.219 175.995 199.297C174.547 200.37 173.073 201.407 171.573 202.407C170.073 203.412 168.552 204.375 167.005 205.302C165.458 206.229 163.885 207.12 162.297 207.969C160.708 208.818 159.099 209.631 157.469 210.401C155.838 211.172 154.187 211.901 152.521 212.589C150.854 213.282 149.172 213.933 147.474 214.537C145.776 215.146 144.068 215.709 142.338 216.235C140.614 216.756 138.88 217.24 137.13 217.677C135.38 218.115 133.62 218.511 131.854 218.86C130.083 219.214 128.307 219.521 126.521 219.787C124.739 220.052 122.948 220.271 121.156 220.448C119.359 220.625 117.562 220.756 115.76 220.844C113.958 220.933 112.156 220.979 110.354 220.979C108.552 220.979 106.75 220.933 104.948 220.844C103.146 220.756 101.349 220.625 99.5571 220.448C97.7603 220.271 95.9686 220.052 94.1873 219.787C92.4009 219.521 90.6248 219.214 88.8592 218.86C87.0884 218.511 85.3332 218.115 83.5832 217.677C81.8332 217.24 80.0936 216.756 78.3696 216.235C76.6457 215.709 74.9321 215.146 73.2342 214.537C71.5363 213.933 69.854 213.282 68.1873 212.589C66.5207 211.901 64.8748 211.172 63.2446 210.401C61.6144 209.631 60.005 208.818 58.4113 207.969C56.8228 207.12 55.255 206.229 53.7082 205.302C52.1613 204.375 50.6353 203.412 49.1405 202.407C47.6405 201.407 46.1665 200.37 44.7186 199.297C43.2655 198.219 41.8488 197.11 40.453 195.969C39.0571 194.823 37.6925 193.646 36.3592 192.433C35.0207 191.224 33.7134 189.979 32.4425 188.703C31.1665 187.433 29.9217 186.125 28.7134 184.787C27.4998 183.453 26.3228 182.089 25.1769 180.693C24.0363 179.297 22.9269 177.881 21.854 176.427C20.7759 174.979 19.7394 173.506 18.7394 172.011C17.7342 170.511 16.7707 168.985 15.8436 167.438C14.9165 165.891 14.0259 164.323 13.1769 162.735C12.328 161.141 11.5155 159.532 10.7446 157.901C9.9738 156.271 9.24463 154.625 8.55713 152.959C7.86442 151.292 7.21859 149.61 6.60921 147.912C5.99984 146.214 5.43734 144.5 4.9113 142.776C4.39046 141.052 3.90609 139.313 3.46859 137.563C3.03109 135.818 2.63525 134.058 2.2863 132.287C1.93213 130.521 1.62484 128.745 1.35921 126.959C1.09359 125.177 0.874837 123.386 0.697754 121.594C0.52067 119.797 0.390463 118 0.301921 116.198C0.213379 114.396 0.166504 112.594 0.166504 110.792C0.166504 108.99 0.213379 107.188 0.301921 105.386C0.390463 103.584 0.52067 101.787 0.697754 99.9899C0.874837 98.1982 1.09359 96.4066 1.35921 94.6253C1.62484 92.8389 1.93213 91.0628 2.2863 89.2972C2.63525 87.5264 3.03109 85.766 3.46859 84.016C3.90609 82.2712 4.39046 80.5316 4.9113 78.8076C5.43734 77.0785 5.99984 75.3701 6.60921 73.6722C7.21859 71.9743 7.86442 70.292 8.55713 68.6253C9.24463 66.9587 9.9738 65.3128 10.7446 63.6826C11.5155 62.0524 12.328 60.4378 13.1769 58.8493C14.0259 57.2607 14.9165 55.6878 15.8436 54.1462C16.7707 52.5993 17.7342 51.0732 18.7394 49.5732C19.7394 48.0732 20.7759 46.5993 21.854 45.1514C22.9269 43.7035 24.0363 42.2816 25.1769 40.891C26.3228 39.4951 27.4998 38.1305 28.7134 36.792C29.9217 35.4587 31.1665 34.1514 32.4425 32.8753C33.7134 31.5993 35.0207 30.3597 36.3592 29.1462C37.6925 27.9378 39.0571 26.7607 40.453 25.6149C41.8488 24.4691 43.2655 23.3597 44.7186 22.2868C46.1665 21.2139 47.6405 20.1774 49.1405 19.1722C50.6353 18.1722 52.1613 17.2087 53.7082 16.2816C55.255 15.3545 56.8228 14.4639 58.4113 13.6149C60.005 12.766 61.6144 11.9535 63.2446 11.1826C64.8748 10.4118 66.5207 9.68262 68.1873 8.98991C69.854 8.30241 71.5363 7.65137 73.2342 7.0472C74.9321 6.43783 76.6457 5.87012 78.3696 5.34928C80.0936 4.82324 81.8332 4.34407 83.5832 3.90658C85.3332 3.46907 87.0884 3.07324 88.8592 2.71908C90.6248 2.37012 92.4009 2.06283 94.1873 1.7972C95.9686 1.53158 97.7603 1.31283 99.5571 1.13574C101.349 0.95866 103.146 0.823243 104.948 0.734701C106.75 0.646159 108.552 0.604492 110.354 0.604492C112.156 0.604492 113.958 0.646159 115.76 0.734701C117.562 0.823243 119.359 0.95866 121.156 1.13574C122.948 1.31283 124.739 1.53158 126.521 1.7972C128.307 2.06283 130.083 2.37012 131.854 2.71908C133.62 3.07324 135.38 3.46907 137.13 3.90658C138.88 4.34407 140.614 4.82324 142.338 5.34928C144.068 5.87012 145.776 6.43783 147.474 7.0472C149.172 7.65137 150.854 8.30241 152.521 8.98991C154.187 9.68262 155.838 10.4118 157.469 11.1826C159.099 11.9535 160.708 12.766 162.297 13.6149C163.885 14.4639 165.458 15.3545 167.005 16.2816C168.552 17.2087 170.073 18.1722 171.573 19.1722C173.073 20.1774 174.547 21.2139 175.995 22.2868C177.443 23.3597 178.864 24.4691 180.255 25.6149C181.651 26.7607 183.015 27.9378 184.354 29.1462C185.687 30.3597 186.995 31.5993 188.271 32.8753C189.547 34.1514 190.786 35.4587 192 36.792C193.208 38.1305 194.385 39.4951 195.531 40.891C196.677 42.2816 197.786 43.7035 198.859 45.1514C199.932 46.5993 200.969 48.0732 201.974 49.5732C202.974 51.0732 203.937 52.5993 204.864 54.1462C205.792 55.6878 206.682 57.2607 207.531 58.8493C208.38 60.4378 209.193 62.0524 209.963 63.6826C210.734 65.3128 211.463 66.9587 212.156 68.6253C212.844 70.292 213.495 71.9743 214.099 73.6722C214.708 75.3701 215.276 77.0785 215.797 78.8076C216.323 80.5316 216.802 82.2712 217.239 84.016C217.677 85.766 218.073 87.5264 218.427 89.2972C218.776 91.0628 219.083 92.8389 219.349 94.6253C219.614 96.4066 219.833 98.1982 220.01 99.9899C220.187 101.787 220.323 103.584 220.411 105.386C220.5 107.188 220.542 108.99 220.542 110.792Z" fill="#0E5FB1"/>
</g>
<mask id="mask1_705_3024" style="mask-type:luminance" maskUnits="userSpaceOnUse" x="50" y="99" width="122" height="72">
<path d="M50 99.333H171.333V170.474H50V99.333Z" fill="white"/>
</mask>
<g mask="url(#mask1_705_3024)">
<path fill-rule="evenodd" clip-rule="evenodd" d="M158.766 170.016H61.9481C55.745 170.016 50.6929 164.969 50.6929 158.76V102.141C50.6929 101.297 51.3804 100.609 52.2241 100.609H168.49C169.339 100.609 170.021 101.297 170.021 102.141V158.76C170.021 164.964 164.974 170.016 158.766 170.016ZM53.7554 103.672V158.76C53.7554 163.276 57.4325 166.953 61.9481 166.953H158.766C163.287 166.953 166.964 163.276 166.964 158.76V103.672H53.7554Z" fill="white"/>
</g>
<mask id="mask2_705_3024" style="mask-type:luminance" maskUnits="userSpaceOnUse" x="50" y="50" width="122" height="34">
<path d="M50 50.4736H171.333V83.333H50V50.4736Z" fill="white"/>
</mask>
<g mask="url(#mask2_705_3024)">
<path fill-rule="evenodd" clip-rule="evenodd" d="M168.49 82.6094H52.2241C51.3804 82.6094 50.6929 81.9271 50.6929 81.0781V61.9427C50.6929 55.7344 55.745 50.6875 61.9481 50.6875H158.766C164.974 50.6875 170.021 55.7344 170.021 61.9427V81.0781C170.021 81.9271 169.339 82.6094 168.49 82.6094ZM53.7554 79.5521H166.964V61.9427C166.964 57.4219 163.287 53.7448 158.766 53.7448H61.9481C57.4325 53.7448 53.7554 57.4219 53.7554 61.9427V79.5521Z" fill="white"/>
</g>
<mask id="mask3_705_3024" style="mask-type:luminance" maskUnits="userSpaceOnUse" x="112" y="50" width="21" height="34">
<path d="M112.667 50.4736H132.667V83.333H112.667V50.4736Z" fill="white"/>
</mask>
<g mask="url(#mask3_705_3024)">
<path fill-rule="evenodd" clip-rule="evenodd" d="M130.885 82.6092C130.354 82.6092 129.839 82.3332 129.557 81.8436L112.896 52.9842C112.469 52.2498 112.724 51.3123 113.453 50.8904C114.188 50.4686 115.12 50.7186 115.542 51.4529L132.208 80.3123C132.63 81.0467 132.38 81.9842 131.646 82.4061C131.406 82.5467 131.141 82.6092 130.885 82.6092Z" fill="white"/>
</g>
<path fill-rule="evenodd" clip-rule="evenodd" d="M159.615 73.375H134.333C133.49 73.375 132.802 72.6875 132.802 71.8438C132.802 71 133.49 70.3125 134.333 70.3125H159.615C160.464 70.3125 161.146 71 161.146 71.8438C161.146 72.6875 160.464 73.375 159.615 73.375Z" fill="white"/>
<path fill-rule="evenodd" clip-rule="evenodd" d="M159.614 62.9844H129.026C128.177 62.9844 127.495 62.2969 127.495 61.4531C127.495 60.6094 128.177 59.9219 129.026 59.9219H159.614C160.463 59.9219 161.146 60.6094 161.146 61.4531C161.146 62.2969 160.463 62.9844 159.614 62.9844Z" fill="white"/>
<mask id="mask4_705_3024" style="mask-type:luminance" maskUnits="userSpaceOnUse" x="45" y="79" width="132" height="26">
<path d="M45.0312 79.333H176.031V104.666H45.0312V79.333Z" fill="white"/>
</mask>
<g mask="url(#mask4_705_3024)">
<path fill-rule="evenodd" clip-rule="evenodd" d="M168.495 103.672H52.224C48.276 103.672 45.0625 100.458 45.0625 96.5101V86.7132C45.0625 82.7601 48.276 79.5518 52.224 79.5518H168.495C170.401 79.5518 172.198 80.2965 173.552 81.6507C174.911 83.0049 175.656 84.8018 175.656 86.7132V96.5101C175.656 100.458 172.443 103.672 168.495 103.672ZM168.495 82.609H52.224C49.9635 82.609 48.125 84.4476 48.125 86.7132V96.5101C48.125 98.7705 49.9635 100.609 52.224 100.609H168.495C170.755 100.609 172.594 98.7705 172.594 96.5101V86.708C172.594 84.4476 170.755 82.609 168.495 82.609Z" fill="white"/>
</g>
<path fill-rule="evenodd" clip-rule="evenodd" d="M129.115 96.5368H76.396C74.5522 96.5368 73.0522 95.0368 73.0522 93.193V90.0316C73.0522 88.1878 74.5522 86.6826 76.396 86.6826H129.115C130.958 86.6826 132.458 88.1826 132.458 90.0316V93.193C132.458 95.0368 130.958 96.5368 129.115 96.5368ZM76.396 89.7451C76.245 89.7451 76.1095 89.8753 76.1095 90.0316V93.193C76.1095 93.3441 76.245 93.4795 76.396 93.4795H129.115C129.271 93.4795 129.401 93.3493 129.401 93.193V90.0316C129.401 89.8805 129.266 89.7451 129.115 89.7451H76.396Z" fill="white"/>
<path fill-rule="evenodd" clip-rule="evenodd" d="M62.1821 95.875C60.7446 95.875 59.3957 95.3177 58.3853 94.3021C56.2915 92.2083 56.2915 88.8073 58.3853 86.7135C59.3957 85.6979 60.7446 85.1406 62.1821 85.1406C63.6144 85.1406 64.9634 85.6979 65.9738 86.7135C68.0675 88.8073 68.0675 92.2083 65.9738 94.3021C64.9634 95.3177 63.6144 95.875 62.1821 95.875ZM62.1821 88.2031C61.5623 88.2031 60.9842 88.4427 60.5467 88.875C59.6509 89.776 59.6509 91.2396 60.5467 92.1406C60.9842 92.5729 61.5623 92.8125 62.1821 92.8125C62.7967 92.8125 63.3748 92.5729 63.8123 92.1406C64.7082 91.2396 64.7082 89.776 63.8123 88.875C63.3748 88.4427 62.7967 88.2031 62.1821 88.2031Z" fill="white"/>
<path fill-rule="evenodd" clip-rule="evenodd" d="M68.224 98.0781C67.8333 98.0781 67.4375 97.9323 67.1406 97.6302L63.8125 94.3021C63.2135 93.7031 63.2135 92.7344 63.8125 92.1406C64.4115 91.5417 65.3802 91.5417 65.974 92.1406L69.3021 95.4688C69.901 96.0677 69.901 97.0365 69.3021 97.6302C69.0052 97.9323 68.6146 98.0781 68.224 98.0781Z" fill="white"/>
<path fill-rule="evenodd" clip-rule="evenodd" d="M162.375 90.0469H137.094C136.245 90.0469 135.562 89.3594 135.562 88.5156C135.562 87.6719 136.245 86.9844 137.094 86.9844H162.375C163.219 86.9844 163.906 87.6719 163.906 88.5156C163.906 89.3594 163.219 90.0469 162.375 90.0469Z" fill="white"/>
<path fill-rule="evenodd" clip-rule="evenodd" d="M162.375 96.234H137.094C136.245 96.234 135.562 95.5518 135.562 94.708C135.562 93.859 136.245 93.1768 137.094 93.1768H162.375C163.219 93.1768 163.906 93.859 163.906 94.708C163.906 95.5518 163.219 96.234 162.375 96.234Z" fill="white"/>
<path fill-rule="evenodd" clip-rule="evenodd" d="M66.4321 75.1618C61.7342 75.1618 57.9165 71.3441 57.9165 66.6514C57.9165 61.9535 61.7342 58.1357 66.4321 58.1357C71.1248 58.1357 74.9425 61.9535 74.9425 66.6514C74.9425 71.3441 71.1248 75.1618 66.4321 75.1618ZM66.4321 61.193C63.4217 61.193 60.9738 63.641 60.9738 66.6514C60.9738 69.6566 63.4217 72.1045 66.4321 72.1045C69.4373 72.1045 71.8853 69.6566 71.8853 66.6514C71.8853 63.641 69.4373 61.193 66.4321 61.193Z" fill="white"/>
<path fill-rule="evenodd" clip-rule="evenodd" d="M86.0054 75.1618C81.3127 75.1618 77.4897 71.3441 77.4897 66.6514C77.4897 61.9535 81.3127 58.1357 86.0054 58.1357C90.7033 58.1357 94.521 61.9535 94.521 66.6514C94.521 71.3441 90.7033 75.1618 86.0054 75.1618ZM86.0054 61.193C83.0002 61.193 80.5522 63.641 80.5522 66.6514C80.5522 69.6566 83.0002 72.1045 86.0054 72.1045C89.0158 72.1045 91.4637 69.6566 91.4637 66.6514C91.4637 63.641 89.0158 61.193 86.0054 61.193Z" fill="white"/>
<path fill-rule="evenodd" clip-rule="evenodd" d="M105.583 75.1618C100.891 75.1618 97.0679 71.3441 97.0679 66.6514C97.0679 61.9535 100.891 58.1357 105.583 58.1357C110.281 58.1357 114.099 61.9535 114.099 66.6514C114.099 71.3441 110.281 75.1618 105.583 75.1618ZM105.583 61.193C102.578 61.193 100.13 63.641 100.13 66.6514C100.13 69.6566 102.578 72.1045 105.583 72.1045C108.594 72.1045 111.042 69.6566 111.042 66.6514C111.042 63.641 108.594 61.193 105.583 61.193Z" fill="white"/>
<path fill-rule="evenodd" clip-rule="evenodd" d="M84.9272 136.974H78.7292C77.8855 136.974 77.198 136.286 77.198 135.442V129.083H74.7345V135.442C74.7345 136.286 74.0522 136.974 73.2032 136.974H67.0053C66.1615 136.974 65.474 136.286 65.474 135.442V123.942H63.2917C62.6667 123.942 62.1042 123.562 61.8699 122.979C61.6355 122.401 61.7813 121.734 62.2345 121.302L74.9115 109.239C75.5001 108.677 76.4324 108.677 77.0209 109.239L89.6251 121.234C89.9584 121.515 90.1772 121.937 90.1772 122.411C90.1772 123.255 89.4897 123.942 88.6459 123.942H88.6407H86.4584V135.442C86.4584 136.286 85.7709 136.974 84.9272 136.974ZM80.2605 133.911H83.4011V122.411C83.4011 121.604 84.0261 120.942 84.8178 120.885L75.9688 112.458L67.1147 120.885C67.9063 120.942 68.5365 121.604 68.5365 122.411V133.911H71.6772V127.552C71.6772 126.708 72.3595 126.026 73.2032 126.026H78.7292C79.573 126.026 80.2605 126.708 80.2605 127.552V133.911Z" fill="white"/>
<path fill-rule="evenodd" clip-rule="evenodd" d="M157.427 112.005H96.8384C95.9946 112.005 95.3071 111.317 95.3071 110.474C95.3071 109.63 95.9946 108.942 96.8384 108.942H157.427C158.271 108.942 158.958 109.63 158.958 110.474C158.958 111.317 158.271 112.005 157.427 112.005Z" fill="white"/>
<path fill-rule="evenodd" clip-rule="evenodd" d="M157.427 124.422H96.8384C95.9946 124.422 95.3071 123.739 95.3071 122.896C95.3071 122.047 95.9946 121.364 96.8384 121.364H157.427C158.271 121.364 158.958 122.047 158.958 122.896C158.958 123.739 158.271 124.422 157.427 124.422Z" fill="white"/>
<path fill-rule="evenodd" clip-rule="evenodd" d="M157.427 136.844H96.8384C95.9946 136.844 95.3071 136.156 95.3071 135.313C95.3071 134.469 95.9946 133.781 96.8384 133.781H157.427C158.271 133.781 158.958 134.469 158.958 135.313C158.958 136.156 158.271 136.844 157.427 136.844Z" fill="white"/>
<path fill-rule="evenodd" clip-rule="evenodd" d="M157.427 149.266H63.2915C62.4478 149.266 61.7603 148.578 61.7603 147.734C61.7603 146.885 62.4478 146.203 63.2915 146.203H157.427C158.271 146.203 158.958 146.885 158.958 147.734C158.958 148.578 158.271 149.266 157.427 149.266Z" fill="white"/>
<path fill-rule="evenodd" clip-rule="evenodd" d="M157.427 161.683H63.2915C62.4478 161.683 61.7603 161 61.7603 160.151C61.7603 159.308 62.4478 158.62 63.2915 158.62H157.427C158.271 158.62 158.958 159.308 158.958 160.151C158.958 161 158.271 161.683 157.427 161.683Z" fill="white"/>
</svg>
