<svg width="222" height="221" viewBox="0 0 222 221" fill="none" xmlns="http://www.w3.org/2000/svg">
<mask id="mask0_705_3025" style="mask-type:luminance" maskUnits="userSpaceOnUse" x="0" y="0" width="222" height="221">
<path d="M0.90625 0.171875H221.26V220.531H0.90625V0.171875Z" fill="white"/>
</mask>
<g mask="url(#mask0_705_3025)">
<path d="M221.297 110.37C221.297 112.172 221.25 113.974 221.161 115.776C221.073 117.578 220.943 119.375 220.766 121.172C220.589 122.964 220.37 124.755 220.104 126.536C219.839 128.323 219.531 130.099 219.177 131.865C218.828 133.635 218.432 135.396 217.995 137.146C217.557 138.891 217.073 140.63 216.552 142.354C216.026 144.083 215.464 145.792 214.854 147.49C214.245 149.188 213.599 150.87 212.906 152.536C212.219 154.203 211.484 155.854 210.714 157.484C209.943 159.115 209.135 160.724 208.281 162.313C207.432 163.906 206.547 165.474 205.62 167.021C204.693 168.568 203.724 170.089 202.724 171.589C201.724 173.089 200.682 174.563 199.609 176.01C198.536 177.458 197.427 178.88 196.281 180.276C195.141 181.667 193.958 183.036 192.75 184.37C191.536 185.708 190.297 187.01 189.021 188.286C187.745 189.563 186.438 190.807 185.104 192.016C183.766 193.229 182.401 194.406 181.005 195.552C179.615 196.693 178.193 197.802 176.745 198.875C175.297 199.953 173.823 200.99 172.323 201.99C170.823 202.995 169.297 203.958 167.75 204.885C166.203 205.813 164.635 206.703 163.047 207.552C161.458 208.401 159.844 209.214 158.214 209.984C156.583 210.755 154.938 211.484 153.271 212.177C151.604 212.865 149.922 213.516 148.224 214.12C146.526 214.729 144.813 215.297 143.089 215.818C141.365 216.344 139.625 216.823 137.875 217.26C136.125 217.698 134.37 218.094 132.599 218.448C130.828 218.797 129.052 219.104 127.271 219.37C125.484 219.635 123.698 219.854 121.901 220.031C120.109 220.208 118.307 220.344 116.51 220.432C114.708 220.521 112.906 220.563 111.099 220.563C109.297 220.563 107.495 220.521 105.693 220.432C103.891 220.344 102.094 220.208 100.302 220.031C98.5052 219.854 96.7188 219.635 94.9323 219.37C93.151 219.104 91.3698 218.797 89.6042 218.448C87.8333 218.094 86.0781 217.698 84.3281 217.26C82.5781 216.823 80.8385 216.344 79.1146 215.818C77.3854 215.297 75.6771 214.729 73.9792 214.12C72.2813 213.516 70.599 212.865 68.9323 212.177C67.2656 211.484 65.6198 210.755 63.9896 209.984C62.3594 209.214 60.7448 208.401 59.1563 207.552C57.5677 206.703 55.9948 205.813 54.4479 204.885C52.901 203.958 51.3802 202.995 49.8802 201.99C48.3802 200.99 46.9063 199.953 45.4583 198.875C44.0104 197.802 42.5885 196.693 41.1927 195.552C39.8021 194.406 38.4375 193.229 37.099 192.016C35.7656 190.807 34.4583 189.563 33.1823 188.286C31.9063 187.01 30.6615 185.708 29.4531 184.37C28.2396 183.036 27.0625 181.667 25.9219 180.276C24.776 178.88 23.6667 177.458 22.5938 176.01C21.5156 174.563 20.4792 173.089 19.4792 171.589C18.474 170.089 17.5104 168.568 16.5833 167.021C15.6563 165.474 14.7708 163.906 13.9167 162.313C13.0677 160.724 12.2604 159.115 11.4844 157.484C10.7135 155.854 9.98438 154.203 9.29688 152.536C8.60417 150.87 7.95833 149.188 7.34896 147.49C6.73958 145.792 6.17708 144.083 5.65104 142.354C5.13021 140.63 4.64583 138.891 4.20833 137.146C3.77083 135.396 3.375 133.635 3.02604 131.865C2.67188 130.099 2.36458 128.323 2.09896 126.536C1.83333 124.755 1.61458 122.964 1.4375 121.172C1.26042 119.375 1.13021 117.578 1.04167 115.776C0.953125 113.974 0.90625 112.172 0.90625 110.37C0.90625 108.568 0.953125 106.76 1.04167 104.964C1.13021 103.161 1.26042 101.365 1.4375 99.5677C1.61458 97.7708 1.83333 95.9844 2.09896 94.1979C2.36458 92.4167 2.67188 90.6406 3.02604 88.8698C3.375 87.1042 3.77083 85.3438 4.20833 83.5938C4.64583 81.8438 5.13021 80.1042 5.65104 78.3802C6.17708 76.6563 6.73958 74.9427 7.34896 73.2448C7.95833 71.5469 8.60417 69.8646 9.29688 68.1979C9.98438 66.5313 10.7135 64.8854 11.4844 63.2552C12.2604 61.625 13.0677 60.0156 13.9167 58.4219C14.7708 56.8333 15.6563 55.2656 16.5833 53.7188C17.5104 52.1719 18.474 50.6458 19.4792 49.1458C20.4792 47.651 21.5156 46.1719 22.5938 44.724C23.6667 43.276 24.776 41.8542 25.9219 40.4635C27.0625 39.0677 28.2396 37.7031 29.4531 36.3646C30.6615 35.0313 31.9063 33.724 33.1823 32.4479C34.4583 31.1719 35.7656 29.9323 37.099 28.7188C38.4375 27.5104 39.8021 26.3333 41.1927 25.1875C42.5885 24.0417 44.0104 22.9323 45.4583 21.8594C46.9063 20.7865 48.3802 19.7448 49.8802 18.7448C51.3802 17.7448 52.901 16.7813 54.4479 15.8542C55.9948 14.9271 57.5677 14.0365 59.1563 13.1875C60.7448 12.3333 62.3594 11.526 63.9896 10.7552C65.6198 9.98438 67.2656 9.25 68.9323 8.5625C70.599 7.86979 72.2813 7.22396 73.9792 6.61458C75.6771 6.01042 77.3854 5.44271 79.1146 4.92188C80.8385 4.39583 82.5781 3.91667 84.3281 3.47917C86.0781 3.03646 87.8333 2.64583 89.6042 2.29167C91.3698 1.9375 93.151 1.63021 94.9323 1.36458C96.7188 1.10417 98.5052 0.880208 100.302 0.703125C102.094 0.526041 103.891 0.395833 105.693 0.307292C107.495 0.218749 109.297 0.171875 111.099 0.171875C112.906 0.171875 114.708 0.218749 116.51 0.307292C118.307 0.395833 120.109 0.526041 121.901 0.703125C123.698 0.880208 125.484 1.10417 127.271 1.36458C129.052 1.63021 130.828 1.9375 132.599 2.29167C134.37 2.64583 136.125 3.03646 137.875 3.47917C139.625 3.91667 141.365 4.39583 143.089 4.92188C144.813 5.44271 146.526 6.01042 148.224 6.61458C149.922 7.22396 151.604 7.86979 153.271 8.5625C154.938 9.25 156.583 9.98438 158.214 10.7552C159.844 11.526 161.458 12.3333 163.047 13.1875C164.635 14.0365 166.203 14.9271 167.75 15.8542C169.297 16.7813 170.823 17.7448 172.323 18.7448C173.823 19.7448 175.297 20.7865 176.745 21.8594C178.193 22.9323 179.615 24.0417 181.005 25.1875C182.401 26.3333 183.766 27.5104 185.104 28.7188C186.438 29.9323 187.745 31.1719 189.021 32.4479C190.297 33.724 191.536 35.0313 192.75 36.3646C193.958 37.7031 195.141 39.0677 196.281 40.4635C197.427 41.8542 198.536 43.276 199.609 44.724C200.682 46.1719 201.724 47.651 202.724 49.1458C203.724 50.6458 204.693 52.1719 205.62 53.7188C206.547 55.2656 207.432 56.8333 208.286 58.4219C209.135 60.0156 209.943 61.625 210.714 63.2552C211.484 64.8854 212.219 66.5313 212.906 68.1979C213.599 69.8646 214.245 71.5469 214.854 73.2448C215.464 74.9427 216.026 76.6563 216.552 78.3802C217.073 80.1042 217.557 81.8438 217.995 83.5938C218.432 85.3438 218.828 87.1042 219.177 88.8698C219.531 90.6406 219.839 92.4167 220.104 94.1979C220.37 95.9844 220.589 97.7708 220.766 99.5677C220.943 101.365 221.073 103.161 221.161 104.964C221.25 106.76 221.297 108.568 221.297 110.37Z" fill="#0E5FB1"/>
</g>
<mask id="mask1_705_3025" style="mask-type:luminance" maskUnits="userSpaceOnUse" x="84" y="93" width="55" height="19">
<path d="M84 93.333H138.667V112H84V93.333Z" fill="white"/>
</mask>
<g mask="url(#mask1_705_3025)">
<mask id="mask2_705_3025" style="mask-type:luminance" maskUnits="userSpaceOnUse" x="49" y="13" width="124" height="124">
<path d="M49.3125 74.9167L111.073 13.1562L172.833 74.9167L111.073 136.682L49.3125 74.9167Z" fill="white"/>
</mask>
<g mask="url(#mask2_705_3025)">
<mask id="mask3_705_3025" style="mask-type:luminance" maskUnits="userSpaceOnUse" x="49" y="13" width="124" height="124">
<path d="M49.3125 74.9167L111.073 13.1562L172.833 74.9167L111.073 136.682L49.3125 74.9167Z" fill="white"/>
</mask>
<g mask="url(#mask3_705_3025)">
<path d="M85.3436 104.761C84.953 105.151 84.6509 105.604 84.4373 106.115C84.229 106.625 84.1196 107.157 84.1196 107.714C84.1196 108.266 84.229 108.797 84.4373 109.308C84.6509 109.818 84.953 110.271 85.3436 110.662C85.7342 111.052 86.1873 111.354 86.6978 111.568C87.2082 111.776 87.7394 111.886 88.2915 111.886C88.8488 111.886 89.38 111.776 89.8905 111.568C90.4009 111.354 90.854 111.052 91.2446 110.662C91.9009 110.011 92.5832 109.391 93.2967 108.808C94.0155 108.224 94.755 107.672 95.5259 107.162C96.2915 106.651 97.0884 106.177 97.9009 105.745C98.7186 105.308 99.5519 104.917 100.406 104.563C101.26 104.209 102.13 103.901 103.01 103.631C103.896 103.365 104.792 103.141 105.698 102.964C106.604 102.782 107.515 102.646 108.437 102.558C109.354 102.469 110.276 102.422 111.203 102.422C112.125 102.422 113.047 102.469 113.969 102.558C114.885 102.651 115.797 102.787 116.703 102.964C117.609 103.146 118.505 103.37 119.39 103.636C120.276 103.907 121.146 104.214 121.995 104.568C122.849 104.922 123.687 105.313 124.5 105.75C125.318 106.183 126.109 106.657 126.875 107.172C127.646 107.683 128.385 108.229 129.104 108.818C129.818 109.401 130.5 110.021 131.156 110.672C131.547 111.063 132 111.365 132.51 111.578C133.026 111.792 133.557 111.896 134.109 111.896C134.667 111.896 135.198 111.792 135.708 111.578C136.224 111.365 136.677 111.063 137.068 110.672C137.458 110.282 137.76 109.828 137.974 109.318C138.182 108.802 138.292 108.271 138.292 107.719C138.292 107.162 138.182 106.631 137.974 106.12C137.76 105.604 137.458 105.151 137.068 104.761C136.219 103.917 135.333 103.115 134.406 102.354C133.479 101.599 132.515 100.886 131.521 100.224C130.526 99.5576 129.5 98.943 128.443 98.3805C127.385 97.818 126.302 97.3076 125.198 96.8493C124.088 96.3962 122.963 95.9899 121.818 95.6462C120.672 95.2972 119.51 95.0055 118.338 94.7764C117.161 94.542 115.979 94.3649 114.786 94.2503C113.599 94.1305 112.401 94.0732 111.203 94.0732C110.005 94.0732 108.812 94.1305 107.62 94.2503C106.432 94.3649 105.245 94.542 104.073 94.7764C102.896 95.0055 101.739 95.2972 100.594 95.6462C99.4478 95.9899 98.3175 96.3962 97.2134 96.8493C96.1092 97.3076 95.0259 97.818 93.9686 98.3805C92.9113 98.943 91.8853 99.5576 90.8905 100.224C89.8957 100.886 88.9321 101.599 88.005 102.354C87.078 103.115 86.1925 103.917 85.3436 104.761Z" fill="white"/>
</g>
</g>
</g>
<mask id="mask4_705_3025" style="mask-type:luminance" maskUnits="userSpaceOnUse" x="66" y="70" width="90" height="26">
<path d="M66.6665 70.667H156V96.0003H66.6665V70.667Z" fill="white"/>
</mask>
<g mask="url(#mask4_705_3025)">
<mask id="mask5_705_3025" style="mask-type:luminance" maskUnits="userSpaceOnUse" x="49" y="13" width="124" height="124">
<path d="M49.3125 74.9167L111.073 13.1562L172.833 74.9167L111.073 136.682L49.3125 74.9167Z" fill="white"/>
</mask>
<g mask="url(#mask5_705_3025)">
<mask id="mask6_705_3025" style="mask-type:luminance" maskUnits="userSpaceOnUse" x="49" y="13" width="124" height="124">
<path d="M49.3125 74.9167L111.073 13.1562L172.833 74.9167L111.073 136.682L49.3125 74.9167Z" fill="white"/>
</mask>
<g mask="url(#mask6_705_3025)">
<path d="M68.9115 88.3285C68.5208 88.7191 68.2187 89.1722 68.0052 89.6826C67.7969 90.193 67.6875 90.7243 67.6875 91.2816C67.6875 91.8337 67.7969 92.3649 68.0052 92.8753C68.2187 93.3857 68.5208 93.8389 68.9115 94.2295C69.3021 94.6201 69.7552 94.9222 70.2656 95.1357C70.776 95.3441 71.3073 95.4535 71.8594 95.4535C72.4167 95.4535 72.9479 95.3441 73.4583 95.1357C73.9687 94.9222 74.4219 94.6201 74.8125 94.2295C76.0052 93.042 77.25 91.9118 78.5573 90.8441C79.8594 89.7764 81.2135 88.7764 82.6146 87.8441C84.0156 86.9066 85.4583 86.0472 86.9479 85.2555C88.4323 84.4587 89.9531 83.7451 91.5104 83.0993C93.0677 82.4587 94.651 81.891 96.2656 81.4014C97.875 80.917 99.5104 80.5055 101.161 80.1826C102.813 79.8545 104.479 79.6045 106.156 79.443C107.833 79.2764 109.51 79.1982 111.198 79.1982C112.88 79.1982 114.563 79.2816 116.24 79.4482C117.911 79.6149 119.578 79.8597 121.229 80.1878C122.88 80.516 124.516 80.9274 126.125 81.417C127.74 81.9066 129.323 82.4691 130.88 83.1149C132.432 83.7607 133.953 84.4795 135.443 85.2712C136.927 86.068 138.37 86.9326 139.771 87.8649C141.172 88.8024 142.526 89.8024 143.828 90.8701C145.13 91.943 146.375 93.068 147.568 94.2607C147.964 94.6514 148.417 94.9587 148.927 95.167C149.443 95.3805 149.979 95.4899 150.531 95.4899C151.089 95.4899 151.625 95.3805 152.141 95.167C152.651 94.9587 153.104 94.6514 153.5 94.2607C153.891 93.8649 154.198 93.4118 154.406 92.9014C154.62 92.3857 154.729 91.8493 154.729 91.292C154.729 90.7399 154.62 90.2035 154.406 89.6878C154.198 89.1774 153.891 88.7243 153.5 88.3285C152.115 86.943 150.667 85.6305 149.151 84.3857C147.635 83.1462 146.063 81.9795 144.438 80.891C142.807 79.8024 141.13 78.7972 139.401 77.8701C137.672 76.9482 135.906 76.1149 134.094 75.3649C132.286 74.6149 130.443 73.9535 128.568 73.3857C126.693 72.818 124.797 72.3389 122.875 71.9587C120.953 71.5785 119.016 71.292 117.068 71.0993C115.12 70.9066 113.161 70.8076 111.203 70.8076C109.245 70.8076 107.292 70.9066 105.344 71.0993C103.391 71.292 101.458 71.5785 99.5365 71.9587C97.6146 72.3389 95.7188 72.818 93.8438 73.3857C91.9688 73.9535 90.125 74.6149 88.3177 75.3649C86.5052 76.1149 84.7344 76.9482 83.0104 77.8701C81.2813 78.7972 79.6042 79.8024 77.974 80.891C76.3437 81.9795 74.776 83.1462 73.2604 84.3857C71.7448 85.6305 70.2969 86.943 68.9115 88.3285Z" fill="white"/>
</g>
</g>
</g>
<mask id="mask7_705_3025" style="mask-type:luminance" maskUnits="userSpaceOnUse" x="50" y="46" width="122" height="34">
<path d="M50.6665 46.667H172V80.0003H50.6665V46.667Z" fill="white"/>
</mask>
<g mask="url(#mask7_705_3025)">
<mask id="mask8_705_3025" style="mask-type:luminance" maskUnits="userSpaceOnUse" x="49" y="13" width="124" height="124">
<path d="M49.3125 74.9167L111.073 13.1562L172.833 74.9167L111.073 136.682L49.3125 74.9167Z" fill="white"/>
</mask>
<g mask="url(#mask8_705_3025)">
<mask id="mask9_705_3025" style="mask-type:luminance" maskUnits="userSpaceOnUse" x="49" y="13" width="124" height="124">
<path d="M49.3125 74.9167L111.073 13.1562L172.833 74.9167L111.073 136.682L49.3125 74.9167Z" fill="white"/>
</mask>
<g mask="url(#mask9_705_3025)">
<path d="M52.5418 71.958C52.146 72.3486 51.8491 72.8018 51.6356 73.3122C51.422 73.8226 51.3179 74.3538 51.3179 74.9059C51.3179 75.458 51.422 75.9945 51.6356 76.5049C51.8491 77.0153 52.146 77.4684 52.5418 77.8591C52.9325 78.2497 53.3804 78.5518 53.8908 78.7601C54.4064 78.9736 54.9377 79.0778 55.4897 79.0778C56.0418 79.0778 56.5731 78.9736 57.0887 78.7601C57.5991 78.5518 58.047 78.2497 58.4377 77.8591C60.172 76.1351 61.9793 74.4945 63.87 72.9476C65.7606 71.4007 67.7241 69.9476 69.7554 68.5934C71.7866 67.2393 73.8804 65.9893 76.0366 64.8382C78.1929 63.6872 80.4012 62.6455 82.6564 61.7132C84.9168 60.7809 87.2137 59.958 89.5522 59.2497C91.8908 58.5413 94.2554 57.9528 96.6512 57.4736C99.047 56.9997 101.464 56.6403 103.896 56.4007C106.323 56.1611 108.761 56.0413 111.203 56.0413C113.646 56.0413 116.083 56.1611 118.516 56.4007C120.948 56.6403 123.36 56.9997 125.755 57.4736C128.156 57.9528 130.521 58.5413 132.86 59.2497C135.198 59.958 137.495 60.7809 139.755 61.7132C142.011 62.6455 144.219 63.6872 146.375 64.8382C148.526 65.9893 150.625 67.2393 152.656 68.5934C154.688 69.9476 156.651 71.4007 158.542 72.9476C160.432 74.4945 162.24 76.1351 163.969 77.8591C164.36 78.2497 164.813 78.5518 165.328 78.7653C165.839 78.9736 166.37 79.083 166.927 79.083C167.479 79.083 168.011 78.9736 168.526 78.7653C169.037 78.5518 169.49 78.2497 169.88 77.8591C170.271 77.4632 170.573 77.0153 170.787 76.4997C171 75.9893 171.104 75.458 171.104 74.9007C171.104 74.3486 171 73.8122 170.787 73.3018C170.573 72.7913 170.271 72.3382 169.88 71.9476C167.958 70.0309 165.943 68.2132 163.839 66.4945C161.735 64.7757 159.557 63.1663 157.292 61.6611C155.031 60.1559 152.703 58.7653 150.307 57.4893C147.912 56.208 145.458 55.0518 142.948 54.0153C140.438 52.9788 137.88 52.0674 135.281 51.2861C132.682 50.4997 130.052 49.8382 127.386 49.3122C124.724 48.7861 122.037 48.3851 119.339 48.1247C116.636 47.859 113.922 47.7236 111.208 47.7236C108.495 47.7236 105.781 47.859 103.078 48.1247C100.375 48.3903 97.6929 48.7861 95.0314 49.3174C92.3647 49.8434 89.7345 50.4997 87.1356 51.2861C84.5366 52.0726 81.9793 52.984 79.4689 54.0205C76.9585 55.057 74.5054 56.2184 72.1095 57.4945C69.7137 58.7705 67.3856 60.1611 65.1252 61.6663C62.8647 63.1715 60.6825 64.7861 58.5783 66.5049C56.4793 68.2236 54.4637 70.0413 52.5418 71.958Z" fill="white"/>
</g>
</g>
</g>
<mask id="mask10_705_3025" style="mask-type:luminance" maskUnits="userSpaceOnUse" x="97" y="112" width="27" height="50">
<path d="M97.3335 112H124V161.333H97.3335V112Z" fill="white"/>
</mask>
<g mask="url(#mask10_705_3025)">
<mask id="mask11_705_3025" style="mask-type:luminance" maskUnits="userSpaceOnUse" x="97" y="112" width="28" height="50">
<path d="M97.75 159.656L119.724 112.317L124.542 114.552L102.568 161.89L97.75 159.656Z" fill="white"/>
</mask>
<g mask="url(#mask11_705_3025)">
<mask id="mask12_705_3025" style="mask-type:luminance" maskUnits="userSpaceOnUse" x="98" y="113" width="26" height="48">
<path d="M100.114 160.755C101.422 161.359 102.974 160.791 103.583 159.484L123.359 116.88C123.651 116.249 123.677 115.536 123.443 114.885C123.203 114.234 122.719 113.708 122.088 113.416C121.463 113.124 120.745 113.093 120.094 113.333C119.443 113.567 118.917 114.057 118.625 114.682L98.8488 157.286C98.2394 158.593 98.8071 160.145 100.114 160.755Z" fill="white"/>
</mask>
<g mask="url(#mask12_705_3025)">
<mask id="mask13_705_3025" style="mask-type:luminance" maskUnits="userSpaceOnUse" x="97" y="112" width="28" height="50">
<path d="M97.75 159.656L119.724 112.317L124.432 114.505L102.458 161.843L97.75 159.656Z" fill="white"/>
</mask>
<g mask="url(#mask13_705_3025)">
<mask id="mask14_705_3025" style="mask-type:luminance" maskUnits="userSpaceOnUse" x="97" y="112" width="28" height="50">
<path d="M97.75 159.656L119.724 112.317L124.432 114.505L102.458 161.843L97.75 159.656Z" fill="white"/>
</mask>
<g mask="url(#mask14_705_3025)">
<path d="M97.75 159.645L102.484 161.843L124.453 114.52L119.719 112.322L97.75 159.645Z" fill="white"/>
</g>
</g>
</g>
</g>
</g>
<mask id="mask15_705_3025" style="mask-type:luminance" maskUnits="userSpaceOnUse" x="98" y="141" width="16" height="14">
<path d="M98.6665 141.333H113.333V154.666H98.6665V141.333Z" fill="white"/>
</mask>
<g mask="url(#mask15_705_3025)">
<mask id="mask16_705_3025" style="mask-type:luminance" maskUnits="userSpaceOnUse" x="97" y="139" width="18" height="18">
<path d="M97.833 150.807L103.125 139.411L114.521 144.698L109.229 156.099L97.833 150.807Z" fill="white"/>
</mask>
<g mask="url(#mask16_705_3025)">
<mask id="mask17_705_3025" style="mask-type:luminance" maskUnits="userSpaceOnUse" x="97" y="139" width="18" height="18">
<path d="M97.833 150.807L103.125 139.411L114.521 144.698L109.229 156.099L97.833 150.807Z" fill="white"/>
</mask>
<g mask="url(#mask17_705_3025)">
<path d="M108.781 142.088C109.151 142.26 109.505 142.468 109.838 142.713C110.166 142.953 110.474 143.223 110.75 143.531C111.031 143.833 111.276 144.156 111.489 144.51C111.703 144.859 111.88 145.229 112.02 145.614C112.161 145.999 112.265 146.395 112.328 146.801C112.39 147.208 112.416 147.614 112.395 148.025C112.38 148.437 112.323 148.843 112.224 149.239C112.13 149.64 111.994 150.025 111.823 150.4C111.645 150.77 111.442 151.124 111.198 151.458C110.953 151.786 110.682 152.093 110.38 152.369C110.078 152.65 109.75 152.895 109.401 153.109C109.046 153.322 108.682 153.499 108.296 153.64C107.911 153.781 107.515 153.885 107.109 153.947C106.703 154.01 106.291 154.036 105.88 154.015C105.474 153.999 105.067 153.942 104.666 153.848C104.265 153.749 103.88 153.614 103.51 153.442C103.135 153.27 102.786 153.062 102.453 152.817C102.119 152.578 101.817 152.301 101.536 151.999C101.26 151.697 101.015 151.369 100.802 151.02C100.583 150.671 100.406 150.301 100.265 149.916C100.125 149.531 100.026 149.135 99.9579 148.729C99.8954 148.322 99.8746 147.911 99.8902 147.505C99.9059 147.093 99.9631 146.687 100.062 146.286C100.161 145.89 100.296 145.505 100.468 145.13C100.64 144.755 100.849 144.406 101.088 144.072C101.333 143.739 101.604 143.437 101.906 143.156C102.208 142.88 102.536 142.635 102.89 142.421C103.239 142.208 103.609 142.031 103.994 141.885C104.38 141.744 104.776 141.645 105.182 141.583C105.588 141.515 105.994 141.494 106.406 141.51C106.817 141.531 107.224 141.588 107.619 141.682C108.02 141.781 108.406 141.916 108.781 142.088Z" fill="#0E5FB1"/>
</g>
</g>
</g>
<mask id="mask18_705_3025" style="mask-type:luminance" maskUnits="userSpaceOnUse" x="100" y="141" width="12" height="13">
<path d="M100 141.333H112V153.333H100V141.333Z" fill="white"/>
</mask>
<g mask="url(#mask18_705_3025)">
<mask id="mask19_705_3025" style="mask-type:luminance" maskUnits="userSpaceOnUse" x="99" y="140" width="15" height="15">
<path d="M99.0312 150.369L103.557 140.614L113.307 145.14L108.781 154.896L99.0312 150.369Z" fill="white"/>
</mask>
<g mask="url(#mask19_705_3025)">
<mask id="mask20_705_3025" style="mask-type:luminance" maskUnits="userSpaceOnUse" x="99" y="140" width="15" height="15">
<path d="M99.0312 150.369L103.557 140.614L113.307 145.14L108.781 154.896L99.0312 150.369Z" fill="white"/>
</mask>
<g mask="url(#mask20_705_3025)">
<path d="M108.401 142.906C108.719 143.057 109.021 143.234 109.302 143.442C109.589 143.646 109.849 143.88 110.089 144.14C110.323 144.401 110.536 144.677 110.719 144.979C110.901 145.281 111.052 145.594 111.172 145.927C111.292 146.255 111.38 146.594 111.438 146.942C111.49 147.286 111.51 147.64 111.495 147.989C111.479 148.338 111.432 148.687 111.349 149.031C111.266 149.37 111.151 149.703 111 150.021C110.854 150.338 110.677 150.64 110.469 150.927C110.26 151.208 110.026 151.469 109.771 151.708C109.51 151.948 109.229 152.156 108.932 152.338C108.63 152.521 108.313 152.677 107.984 152.797C107.656 152.916 107.313 153.005 106.969 153.057C106.62 153.109 106.271 153.13 105.917 153.114C105.568 153.104 105.219 153.052 104.88 152.969C104.536 152.885 104.208 152.771 103.891 152.625C103.568 152.474 103.266 152.297 102.984 152.088C102.698 151.885 102.438 151.651 102.203 151.39C101.964 151.13 101.75 150.854 101.568 150.552C101.385 150.25 101.234 149.937 101.115 149.604C100.995 149.276 100.906 148.937 100.849 148.588C100.797 148.239 100.776 147.89 100.792 147.541C100.807 147.187 100.854 146.844 100.938 146.5C101.021 146.161 101.135 145.828 101.286 145.51C101.432 145.192 101.609 144.89 101.818 144.604C102.026 144.323 102.26 144.062 102.516 143.823C102.776 143.583 103.057 143.375 103.359 143.192C103.656 143.01 103.974 142.854 104.302 142.734C104.635 142.614 104.974 142.526 105.318 142.474C105.667 142.416 106.016 142.401 106.37 142.411C106.719 142.427 107.068 142.479 107.406 142.562C107.75 142.646 108.078 142.76 108.401 142.906Z" fill="white"/>
</g>
</g>
</g>
<mask id="mask21_705_3025" style="mask-type:luminance" maskUnits="userSpaceOnUse" x="55" y="141" width="20" height="48">
<path d="M55.8179 141.089H74.0783V188.969H55.8179V141.089Z" fill="white"/>
</mask>
<g mask="url(#mask21_705_3025)">
<path d="M55.8179 141.089H74.0783V188.948H55.8179V141.089Z" fill="white"/>
</g>
<mask id="mask22_705_3025" style="mask-type:luminance" maskUnits="userSpaceOnUse" x="49" y="112" width="32" height="29">
<path d="M49.3125 112.864H80.6354V140.234H49.3125V112.864Z" fill="white"/>
</mask>
<g mask="url(#mask22_705_3025)">
<mask id="mask23_705_3025" style="mask-type:luminance" maskUnits="userSpaceOnUse" x="49" y="112" width="32" height="29">
<path d="M64.9479 112.864L80.5885 140.234H49.3125L64.9479 112.864Z" fill="white"/>
</mask>
<g mask="url(#mask23_705_3025)">
<path d="M49.3125 112.864H80.6354V140.234H49.3125V112.864Z" fill="white"/>
</g>
</g>
<mask id="mask24_705_3025" style="mask-type:luminance" maskUnits="userSpaceOnUse" x="150" y="112" width="19" height="49">
<path d="M150.125 112.864H168.385V160.744H150.125V112.864Z" fill="white"/>
</mask>
<g mask="url(#mask24_705_3025)">
<path d="M168.385 160.744H150.125V112.885H168.385V160.744Z" fill="white"/>
</g>
<mask id="mask25_705_3025" style="mask-type:luminance" maskUnits="userSpaceOnUse" x="143" y="161" width="32" height="28">
<path d="M143.568 161.599H174.891V188.968H143.568V161.599Z" fill="white"/>
</mask>
<g mask="url(#mask25_705_3025)">
<mask id="mask26_705_3025" style="mask-type:luminance" maskUnits="userSpaceOnUse" x="143" y="161" width="32" height="28">
<path d="M159.255 188.968L143.615 161.599H174.891L159.255 188.968Z" fill="white"/>
</mask>
<g mask="url(#mask26_705_3025)">
<path d="M174.891 188.968H143.568V161.599H174.891V188.968Z" fill="white"/>
</g>
</g>
</svg>
