<svg width="200" height="200" viewBox="0 0 200 200" fill="none" xmlns="http://www.w3.org/2000/svg">
<mask id="mask0_812_2770" style="mask-type:luminance" maskUnits="userSpaceOnUse" x="0" y="0" width="200" height="200">
<path d="M0 0H200V200H0V0Z" fill="white"/>
</mask>
<g mask="url(#mask0_812_2770)">
<mask id="mask1_812_2770" style="mask-type:luminance" maskUnits="userSpaceOnUse" x="0" y="0" width="200" height="200">
<path d="M200 100C200 101.641 199.958 103.276 199.88 104.911C199.797 106.542 199.677 108.177 199.521 109.802C199.359 111.432 199.156 113.057 198.917 114.677C198.677 116.292 198.396 117.906 198.078 119.51C197.76 121.115 197.401 122.714 197.005 124.302C196.604 125.885 196.167 127.464 195.693 129.031C195.219 130.599 194.703 132.151 194.156 133.693C193.604 135.234 193.016 136.76 192.385 138.271C191.76 139.781 191.099 141.276 190.401 142.76C189.698 144.24 188.964 145.698 188.193 147.141C187.422 148.583 186.615 150.01 185.771 151.411C184.932 152.818 184.057 154.198 183.146 155.557C182.24 156.922 181.297 158.255 180.323 159.573C179.344 160.885 178.339 162.177 177.302 163.443C176.26 164.708 175.193 165.948 174.094 167.156C172.995 168.37 171.87 169.557 170.708 170.714C169.552 171.87 168.37 173 167.156 174.099C165.943 175.198 164.703 176.266 163.438 177.302C162.172 178.344 160.885 179.349 159.568 180.323C158.255 181.297 156.917 182.24 155.557 183.151C154.198 184.057 152.813 184.932 151.411 185.776C150.005 186.615 148.583 187.422 147.141 188.193C145.698 188.964 144.234 189.703 142.755 190.401C141.276 191.099 139.781 191.766 138.266 192.391C136.755 193.016 135.229 193.604 133.688 194.156C132.146 194.708 130.594 195.219 129.026 195.698C127.464 196.172 125.885 196.609 124.297 197.005C122.708 197.401 121.115 197.76 119.51 198.083C117.906 198.401 116.292 198.682 114.672 198.922C113.052 199.161 111.432 199.359 109.802 199.521C108.172 199.682 106.542 199.802 104.906 199.88C103.271 199.964 101.635 200 100 200C98.3646 200 96.7292 199.964 95.0938 199.88C93.4583 199.802 91.8281 199.682 90.1979 199.521C88.5677 199.359 86.9479 199.161 85.3281 198.922C83.7083 198.682 82.0938 198.401 80.4896 198.083C78.8854 197.76 77.2917 197.401 75.7031 197.005C74.1146 196.609 72.5365 196.172 70.9688 195.698C69.4063 195.219 67.8542 194.708 66.3125 194.156C64.7708 193.604 63.2448 193.016 61.7292 192.391C60.2188 191.766 58.724 191.099 57.2448 190.401C55.7656 189.703 54.3021 188.964 52.8594 188.193C51.4167 187.422 49.9948 186.615 48.5885 185.776C47.1875 184.932 45.8021 184.057 44.4427 183.151C43.0833 182.24 41.7448 181.297 40.4323 180.323C39.1146 179.349 37.8281 178.344 36.5625 177.302C35.2969 176.266 34.0573 175.198 32.8438 174.099C31.6302 173 30.4479 171.87 29.2917 170.714C28.1302 169.557 27.0052 168.37 25.9063 167.156C24.8073 165.948 23.7396 164.708 22.6979 163.443C21.6615 162.177 20.6563 160.885 19.6771 159.573C18.7031 158.255 17.7604 156.922 16.8542 155.557C15.9427 154.198 15.0677 152.818 14.2292 151.411C13.3854 150.01 12.5781 148.583 11.8073 147.141C11.0365 145.698 10.3021 144.24 9.59896 142.76C8.90104 141.276 8.23958 139.781 7.60938 138.271C6.98438 136.76 6.39583 135.234 5.84375 133.693C5.29167 132.151 4.78125 130.599 4.30729 129.031C3.82813 127.464 3.39583 125.885 2.99479 124.302C2.59896 122.714 2.23958 121.115 1.92188 119.51C1.60417 117.906 1.32292 116.297 1.08333 114.677C0.843751 113.057 0.640625 111.432 0.479167 109.802C0.322917 108.177 0.203125 106.542 0.119792 104.911C0.0416663 103.276 0 101.641 0 100C0 98.3646 0.0416663 96.7292 0.119792 95.0938C0.203125 93.4635 0.322917 91.8281 0.479167 90.2031C0.640625 88.5729 0.843751 86.9479 1.08333 85.3281C1.32292 83.7083 1.60417 82.099 1.92188 80.4948C2.23958 78.8906 2.59896 77.2917 2.99479 75.7031C3.39583 74.1146 3.82813 72.5417 4.30729 70.974C4.78125 69.4063 5.29167 67.8542 5.84375 66.3125C6.39583 64.7708 6.98438 63.2448 7.60938 61.7344C8.23958 60.224 8.90104 58.724 9.59896 57.2448C10.3021 55.7656 11.0365 54.3073 11.8073 52.8646C12.5781 51.4219 13.3854 49.9948 14.2292 48.5938C15.0677 47.1875 15.9427 45.8073 16.8542 44.4479C17.7604 43.0833 18.7031 41.7448 19.6771 40.4323C20.6563 39.1198 21.6615 37.8281 22.6979 36.5625C23.7396 35.2969 24.8073 34.0573 25.9063 32.849C27.0052 31.6354 28.1302 30.4479 29.2917 29.2917C30.4479 28.1354 31.6302 27.0052 32.8438 25.9063C34.0573 24.8073 35.2969 23.7396 36.5625 22.7031C37.8281 21.6615 39.1146 20.6563 40.4323 19.6823C41.7448 18.7083 43.0833 17.7656 44.4427 16.8542C45.8021 15.9479 47.1875 15.0729 48.5885 14.2292C49.9948 13.3906 51.4167 12.5833 52.8594 11.8125C54.3021 11.0365 55.7656 10.3021 57.2448 9.60417C58.724 8.90625 60.2188 8.23958 61.7292 7.61458C63.2448 6.98958 64.7708 6.40104 66.3125 5.84896C67.8542 5.29687 69.4063 4.78125 70.9688 4.30729C72.5365 3.83333 74.1146 3.39583 75.7031 3C77.2917 2.60417 78.8854 2.24479 80.4896 1.92188C82.0938 1.60417 83.7083 1.32292 85.3281 1.08333C86.9479 0.843749 88.5677 0.645834 90.1979 0.484375C91.8281 0.322918 93.4583 0.203125 95.0938 0.125C96.7292 0.0416667 98.3646 0 100 0C101.635 0 103.271 0.0416667 104.906 0.125C106.542 0.203125 108.172 0.322918 109.802 0.484375C111.432 0.645834 113.052 0.843749 114.672 1.08333C116.292 1.32292 117.906 1.60417 119.51 1.92188C121.115 2.24479 122.708 2.60417 124.297 3C125.885 3.39583 127.464 3.83333 129.026 4.30729C130.594 4.78125 132.146 5.29687 133.688 5.84896C135.229 6.40104 136.755 6.98958 138.266 7.61458C139.781 8.23958 141.276 8.90625 142.755 9.60417C144.234 10.3021 145.698 11.0365 147.141 11.8125C148.583 12.5833 150.005 13.3906 151.411 14.2292C152.813 15.0729 154.198 15.9479 155.557 16.8542C156.917 17.7656 158.255 18.7083 159.568 19.6823C160.885 20.6563 162.172 21.6615 163.438 22.7031C164.703 23.7396 165.943 24.8073 167.156 25.9063C168.37 27.0052 169.552 28.1354 170.708 29.2917C171.87 30.4479 172.995 31.6354 174.094 32.849C175.193 34.0573 176.26 35.2969 177.302 36.5625C178.339 37.8281 179.344 39.1198 180.323 40.4323C181.297 41.7448 182.24 43.0833 183.146 44.4479C184.057 45.8073 184.932 47.1875 185.771 48.5938C186.615 49.9948 187.422 51.4219 188.193 52.8646C188.964 54.3073 189.698 55.7656 190.401 57.2448C191.099 58.724 191.76 60.224 192.385 61.7344C193.016 63.2448 193.604 64.7708 194.156 66.3125C194.703 67.8542 195.219 69.4063 195.693 70.974C196.167 72.5417 196.604 74.1146 197.005 75.7031C197.401 77.2917 197.76 78.8906 198.078 80.4948C198.396 82.099 198.677 83.7083 198.917 85.3281C199.156 86.9479 199.359 88.5729 199.521 90.2031C199.677 91.8281 199.797 93.4635 199.88 95.0938C199.958 96.7292 200 98.3646 200 100Z" fill="white"/>
</mask>
<g mask="url(#mask1_812_2770)">
<path d="M0 0V200H200V0H0Z" fill="url(#paint0_linear_812_2770)"/>
</g>
<path d="M126.828 160.354H73.5208C55.0365 160.354 40 145.318 40 126.833V73.5208C40 55.0365 55.0365 40 73.5208 40H126.828C145.313 40 160.349 55.0365 160.349 73.5208V126.833C160.349 145.318 145.313 160.354 126.828 160.354ZM73.5208 48.151C59.5313 48.151 48.1458 59.5313 48.1458 73.5208V126.833C48.1458 140.823 59.5313 152.203 73.5208 152.203H126.828C140.818 152.203 152.203 140.823 152.203 126.833V73.5208C152.203 59.5313 140.818 48.151 126.828 48.151H73.5208Z" fill="white"/>
<path d="M100.176 129.989C83.7389 129.989 70.3691 116.614 70.3691 100.177C70.3691 83.7446 83.7389 70.3696 100.176 70.3696C116.614 70.3696 129.984 83.7446 129.984 100.177C129.984 116.614 116.614 129.989 100.176 129.989ZM100.176 78.5155C88.2337 78.5155 78.515 88.2342 78.515 100.177C78.515 112.12 88.2337 121.838 100.176 121.838C112.119 121.838 121.838 112.12 121.838 100.177C121.838 88.2342 112.119 78.5155 100.176 78.5155Z" fill="white"/>
</g>
<defs>
<linearGradient id="paint0_linear_812_2770" x1="0.0323227" y1="200.035" x2="200.033" y2="0.0353627" gradientUnits="userSpaceOnUse">
<stop stop-color="#FEC053"/>
<stop offset="0.125" stop-color="#FEC053"/>
<stop offset="0.140625" stop-color="#FEC053"/>
<stop offset="0.144531" stop-color="#FEC053"/>
<stop offset="0.148438" stop-color="#FEBF53"/>
<stop offset="0.152344" stop-color="#FEBD52"/>
<stop offset="0.15625" stop-color="#FEBB52"/>
<stop offset="0.160156" stop-color="#FDB952"/>
<stop offset="0.164062" stop-color="#FDB852"/>
<stop offset="0.167969" stop-color="#FDB652"/>
<stop offset="0.171875" stop-color="#FDB451"/>
<stop offset="0.175781" stop-color="#FDB251"/>
<stop offset="0.179688" stop-color="#FDB051"/>
<stop offset="0.183594" stop-color="#FDAE51"/>
<stop offset="0.1875" stop-color="#FCAC50"/>
<stop offset="0.191406" stop-color="#FCAA50"/>
<stop offset="0.195313" stop-color="#FCA950"/>
<stop offset="0.199219" stop-color="#FCA750"/>
<stop offset="0.203125" stop-color="#FCA54F"/>
<stop offset="0.207031" stop-color="#FCA34F"/>
<stop offset="0.210938" stop-color="#FCA14F"/>
<stop offset="0.214844" stop-color="#FC9F4F"/>
<stop offset="0.21875" stop-color="#FB9D4E"/>
<stop offset="0.222656" stop-color="#FB9B4E"/>
<stop offset="0.226563" stop-color="#FB9A4E"/>
<stop offset="0.230469" stop-color="#FB984E"/>
<stop offset="0.234375" stop-color="#FB964D"/>
<stop offset="0.238281" stop-color="#FB944D"/>
<stop offset="0.242188" stop-color="#FB924D"/>
<stop offset="0.246094" stop-color="#FA904D"/>
<stop offset="0.25" stop-color="#FA8E4C"/>
<stop offset="0.253906" stop-color="#FA8C4C"/>
<stop offset="0.257812" stop-color="#FA8B4C"/>
<stop offset="0.261719" stop-color="#FA894C"/>
<stop offset="0.265625" stop-color="#FA874B"/>
<stop offset="0.269531" stop-color="#FA854B"/>
<stop offset="0.273438" stop-color="#F9834B"/>
<stop offset="0.277344" stop-color="#F9814B"/>
<stop offset="0.28125" stop-color="#F97F4A"/>
<stop offset="0.285156" stop-color="#F97D4A"/>
<stop offset="0.289063" stop-color="#F97C4A"/>
<stop offset="0.292969" stop-color="#F97A4A"/>
<stop offset="0.296875" stop-color="#F97849"/>
<stop offset="0.300781" stop-color="#F87649"/>
<stop offset="0.304688" stop-color="#F87449"/>
<stop offset="0.308594" stop-color="#F87249"/>
<stop offset="0.3125" stop-color="#F87048"/>
<stop offset="0.316406" stop-color="#F86E48"/>
<stop offset="0.320312" stop-color="#F86D48"/>
<stop offset="0.324219" stop-color="#F86B48"/>
<stop offset="0.328125" stop-color="#F76947"/>
<stop offset="0.332031" stop-color="#F76747"/>
<stop offset="0.335938" stop-color="#F76547"/>
<stop offset="0.339844" stop-color="#F76347"/>
<stop offset="0.34375" stop-color="#F76147"/>
<stop offset="0.347656" stop-color="#F75F46"/>
<stop offset="0.351562" stop-color="#F75E46"/>
<stop offset="0.355469" stop-color="#F65C46"/>
<stop offset="0.359375" stop-color="#F65A46"/>
<stop offset="0.363281" stop-color="#F65845"/>
<stop offset="0.367188" stop-color="#F65645"/>
<stop offset="0.371094" stop-color="#F65445"/>
<stop offset="0.375" stop-color="#F65245"/>
<stop offset="0.378906" stop-color="#F65044"/>
<stop offset="0.382812" stop-color="#F54E44"/>
<stop offset="0.386719" stop-color="#F54D44"/>
<stop offset="0.390625" stop-color="#F54B44"/>
<stop offset="0.394531" stop-color="#F54943"/>
<stop offset="0.398438" stop-color="#F54743"/>
<stop offset="0.402344" stop-color="#F54543"/>
<stop offset="0.40625" stop-color="#F54343"/>
<stop offset="0.410156" stop-color="#F44142"/>
<stop offset="0.414063" stop-color="#F43F42"/>
<stop offset="0.417969" stop-color="#F43E42"/>
<stop offset="0.421875" stop-color="#F43C42"/>
<stop offset="0.425781" stop-color="#F43A41"/>
<stop offset="0.429688" stop-color="#F43841"/>
<stop offset="0.433594" stop-color="#F43641"/>
<stop offset="0.4375" stop-color="#F43441"/>
<stop offset="0.441406" stop-color="#F33240"/>
<stop offset="0.445312" stop-color="#F33040"/>
<stop offset="0.449219" stop-color="#F32F40"/>
<stop offset="0.453125" stop-color="#F32D40"/>
<stop offset="0.457031" stop-color="#F32B3F"/>
<stop offset="0.460938" stop-color="#F3293F"/>
<stop offset="0.464844" stop-color="#F3273F"/>
<stop offset="0.46875" stop-color="#F2253F"/>
<stop offset="0.472656" stop-color="#F2233E"/>
<stop offset="0.476562" stop-color="#F2213E"/>
<stop offset="0.480469" stop-color="#F1213F"/>
<stop offset="0.484375" stop-color="#F02041"/>
<stop offset="0.488281" stop-color="#EF2043"/>
<stop offset="0.492188" stop-color="#EE2046"/>
<stop offset="0.496094" stop-color="#EC2048"/>
<stop offset="0.5" stop-color="#EB204A"/>
<stop offset="0.503906" stop-color="#EA204D"/>
<stop offset="0.507812" stop-color="#E8204F"/>
<stop offset="0.511719" stop-color="#E72052"/>
<stop offset="0.515625" stop-color="#E62054"/>
<stop offset="0.519531" stop-color="#E42057"/>
<stop offset="0.523438" stop-color="#E32059"/>
<stop offset="0.527344" stop-color="#E2205B"/>
<stop offset="0.53125" stop-color="#E0205E"/>
<stop offset="0.535156" stop-color="#DF2060"/>
<stop offset="0.539062" stop-color="#DE2063"/>
<stop offset="0.542969" stop-color="#DC2065"/>
<stop offset="0.546875" stop-color="#DB2068"/>
<stop offset="0.550781" stop-color="#D9206A"/>
<stop offset="0.554687" stop-color="#D8206D"/>
<stop offset="0.558594" stop-color="#D7206F"/>
<stop offset="0.5625" stop-color="#D52071"/>
<stop offset="0.566406" stop-color="#D41F74"/>
<stop offset="0.570312" stop-color="#D31F76"/>
<stop offset="0.574219" stop-color="#D11F79"/>
<stop offset="0.578125" stop-color="#D01F7B"/>
<stop offset="0.582031" stop-color="#CF1F7E"/>
<stop offset="0.585938" stop-color="#CD1F80"/>
<stop offset="0.589844" stop-color="#CC1F82"/>
<stop offset="0.59375" stop-color="#CB1F85"/>
<stop offset="0.597656" stop-color="#C91F87"/>
<stop offset="0.601562" stop-color="#C81F8A"/>
<stop offset="0.605469" stop-color="#C71F8C"/>
<stop offset="0.609375" stop-color="#C51F8F"/>
<stop offset="0.613281" stop-color="#C41F91"/>
<stop offset="0.617188" stop-color="#C31F93"/>
<stop offset="0.621094" stop-color="#C11F96"/>
<stop offset="0.625" stop-color="#C01F98"/>
<stop offset="0.628906" stop-color="#BE1F9B"/>
<stop offset="0.632813" stop-color="#BD1F9D"/>
<stop offset="0.636719" stop-color="#BC1FA0"/>
<stop offset="0.640625" stop-color="#BA1FA2"/>
<stop offset="0.644531" stop-color="#B91FA4"/>
<stop offset="0.648438" stop-color="#B81FA7"/>
<stop offset="0.652344" stop-color="#B620A8"/>
<stop offset="0.65625" stop-color="#B421A9"/>
<stop offset="0.660156" stop-color="#B222AA"/>
<stop offset="0.664062" stop-color="#B023AB"/>
<stop offset="0.667969" stop-color="#AE23AC"/>
<stop offset="0.671875" stop-color="#AC24AD"/>
<stop offset="0.675781" stop-color="#AA25AE"/>
<stop offset="0.679688" stop-color="#A926AF"/>
<stop offset="0.683594" stop-color="#A727B0"/>
<stop offset="0.6875" stop-color="#A528B0"/>
<stop offset="0.691406" stop-color="#A329B1"/>
<stop offset="0.695312" stop-color="#A12AB2"/>
<stop offset="0.699219" stop-color="#9F2BB3"/>
<stop offset="0.703125" stop-color="#9D2CB4"/>
<stop offset="0.707031" stop-color="#9B2DB5"/>
<stop offset="0.710938" stop-color="#992EB6"/>
<stop offset="0.714844" stop-color="#972FB7"/>
<stop offset="0.71875" stop-color="#9530B8"/>
<stop offset="0.722656" stop-color="#9331B8"/>
<stop offset="0.726562" stop-color="#9132B9"/>
<stop offset="0.730469" stop-color="#8F33BA"/>
<stop offset="0.734375" stop-color="#8E34BB"/>
<stop offset="0.738281" stop-color="#8C35BC"/>
<stop offset="0.742187" stop-color="#8A36BD"/>
<stop offset="0.746094" stop-color="#8837BE"/>
<stop offset="0.75" stop-color="#8638BF"/>
<stop offset="0.753906" stop-color="#8439BF"/>
<stop offset="0.757812" stop-color="#823AC0"/>
<stop offset="0.761719" stop-color="#803BC1"/>
<stop offset="0.765625" stop-color="#7E3CC2"/>
<stop offset="0.769531" stop-color="#7C3CC3"/>
<stop offset="0.773437" stop-color="#7A3DC4"/>
<stop offset="0.777344" stop-color="#783EC5"/>
<stop offset="0.78125" stop-color="#763FC6"/>
<stop offset="0.785156" stop-color="#7440C7"/>
<stop offset="0.789062" stop-color="#7341C7"/>
<stop offset="0.792969" stop-color="#7142C8"/>
<stop offset="0.796875" stop-color="#6F43C9"/>
<stop offset="0.800781" stop-color="#6D44CA"/>
<stop offset="0.804688" stop-color="#6B45CB"/>
<stop offset="0.808594" stop-color="#6946CC"/>
<stop offset="0.8125" stop-color="#6747CD"/>
<stop offset="0.816406" stop-color="#6548CE"/>
<stop offset="0.820312" stop-color="#6349CF"/>
<stop offset="0.824219" stop-color="#614ACF"/>
<stop offset="0.828125" stop-color="#5F4BD0"/>
<stop offset="0.832031" stop-color="#5D4CD1"/>
<stop offset="0.835938" stop-color="#5B4DD2"/>
<stop offset="0.839844" stop-color="#594ED3"/>
<stop offset="0.84375" stop-color="#574FD4"/>
<stop offset="0.847656" stop-color="#5650D5"/>
<stop offset="0.851563" stop-color="#5451D6"/>
<stop offset="0.859375" stop-color="#5351D6"/>
<stop offset="0.875" stop-color="#5351D6"/>
<stop offset="1" stop-color="#5351D6"/>
</linearGradient>
</defs>
</svg>
