<svg width="201" height="201" viewBox="0 0 201 201" fill="none" xmlns="http://www.w3.org/2000/svg">
<circle cx="100.344" cy="100.584" r="100" fill="#0E5FB1"/>
<mask id="mask0_696_2906" style="mask-type:luminance" maskUnits="userSpaceOnUse" x="42" y="52" width="116" height="97">
<path d="M42.3438 52.5845L157.344 52.5845V148.584H42.3438L42.3438 52.5845Z" fill="white"/>
</mask>
<g mask="url(#mask0_696_2906)">
<path d="M157.311 122.15V60.9222C157.311 60.6499 157.297 60.3777 157.27 60.1054C157.241 59.8332 157.199 59.5635 157.142 59.2965C157.085 59.0282 157.016 58.7638 156.931 58.502C156.848 58.2415 156.751 57.9837 156.64 57.7324C156.529 57.4798 156.406 57.2324 156.27 56.9915C156.133 56.7507 155.984 56.5177 155.824 56.29C155.664 56.0635 155.492 55.8436 155.308 55.6329C155.125 55.4222 154.931 55.2193 154.727 55.0269C154.522 54.8332 154.308 54.6499 154.085 54.4771C153.862 54.3044 153.629 54.1421 153.389 53.9902C153.149 53.8384 152.901 53.6983 152.646 53.5688C152.391 53.4405 152.13 53.324 151.862 53.2193C151.596 53.1146 151.324 53.023 151.047 52.9431C150.771 52.8646 150.49 52.7978 150.207 52.7442C149.923 52.6918 149.637 52.6512 149.35 52.625C149.062 52.5976 148.773 52.5845 148.485 52.5845L51.2013 52.5845C50.9129 52.5845 50.6245 52.5976 50.3362 52.625C50.0492 52.6512 49.7635 52.6918 49.4793 52.7442C49.1965 52.7978 48.915 52.8646 48.6391 52.9431C48.3618 53.023 48.0901 53.1146 47.8239 53.2193C47.5563 53.324 47.2956 53.4405 47.0405 53.5688C46.7854 53.6983 46.5372 53.8384 46.2973 53.9902C46.0575 54.1421 45.8246 54.3044 45.6013 54.4771C45.3781 54.6499 45.1646 54.8332 44.9594 55.0269C44.7556 55.2193 44.5615 55.4222 44.3785 55.6329C44.1941 55.8436 44.0221 56.0635 43.8627 56.29C43.7019 56.5177 43.5535 56.7507 43.4162 56.9915C43.2804 57.2324 43.157 57.4798 43.0461 57.7324C42.9351 57.9837 42.8381 58.2402 42.7549 58.502C42.6703 58.7638 42.601 59.0282 42.5442 59.2965C42.4873 59.5635 42.4457 59.8332 42.4166 60.1054C42.3889 60.3777 42.375 60.6499 42.375 60.9222L42.375 122.15C42.375 122.423 42.3889 122.696 42.4166 122.967C42.4457 123.239 42.4873 123.509 42.5442 123.777C42.601 124.044 42.6703 124.308 42.7549 124.57C42.8381 124.832 42.9351 125.088 43.0461 125.341C43.157 125.592 43.2804 125.84 43.4162 126.081C43.5535 126.321 43.7019 126.556 43.8627 126.782C44.0221 127.01 44.1941 127.228 44.3785 127.439C44.5615 127.65 44.7556 127.853 44.9594 128.045C45.1646 128.239 45.3781 128.422 45.6013 128.595C45.8246 128.769 46.0575 128.931 46.2973 129.083C46.5372 129.235 46.7854 129.375 47.0405 129.503C47.2956 129.632 47.5563 129.748 47.8239 129.853C48.0901 129.958 48.3618 130.049 48.6391 130.129C48.915 130.208 49.1951 130.274 49.4793 130.328C49.7622 130.382 50.0492 130.421 50.3362 130.448C50.6245 130.475 50.9129 130.488 51.2013 130.488H87.8002V135.314C87.8002 135.533 87.7891 135.753 87.7655 135.972C87.7433 136.192 87.7087 136.409 87.6629 136.625C87.6171 136.842 87.5617 137.056 87.4938 137.266C87.4258 137.477 87.3468 137.684 87.2581 137.888C87.1679 138.091 87.0695 138.29 86.9586 138.485C86.849 138.679 86.7298 138.869 86.5995 139.052C86.4705 139.235 86.3319 139.412 86.1835 139.582C86.0352 139.752 85.8785 139.914 85.7135 140.07C85.5485 140.227 85.3766 140.374 85.1964 140.514C85.0161 140.654 84.8289 140.785 84.6348 140.908C84.4407 141.03 84.2411 141.143 84.0345 141.247C83.8293 141.35 83.6185 141.444 83.4023 141.53C83.1874 141.613 82.9683 141.688 82.7451 141.752C82.5218 141.816 82.2958 141.869 82.0671 141.912C81.8383 141.955 81.6068 141.988 81.3752 142.009C81.1423 142.031 80.9108 142.041 80.6764 142.041H72.7056C72.4796 142.041 72.2536 142.052 72.0276 142.073C71.8016 142.094 71.577 142.125 71.3552 142.167C71.1319 142.209 70.9129 142.261 70.6952 142.323C70.4789 142.386 70.2654 142.458 70.056 142.54C69.8467 142.621 69.6415 142.713 69.4418 142.814C69.2408 142.914 69.0467 143.026 68.8581 143.143C68.6695 143.262 68.4879 143.391 68.3118 143.527C68.1371 143.663 67.9694 143.806 67.8085 143.958C67.6491 144.109 67.4966 144.268 67.3524 144.434C67.2082 144.599 67.0737 144.77 66.9475 144.948C66.8214 145.128 66.7049 145.311 66.5982 145.499C66.4914 145.689 66.3943 145.882 66.307 146.081C66.221 146.278 66.1448 146.48 66.0782 146.684C66.0131 146.889 65.9576 147.098 65.9132 147.307C65.8689 147.518 65.8356 147.73 65.8134 147.942C65.7912 148.155 65.7801 148.37 65.7801 148.583H133.907C133.907 148.37 133.896 148.155 133.873 147.942C133.851 147.728 133.817 147.518 133.774 147.307C133.73 147.098 133.675 146.889 133.608 146.684C133.543 146.48 133.467 146.278 133.379 146.081C133.293 145.882 133.196 145.689 133.089 145.499C132.983 145.311 132.866 145.128 132.74 144.948C132.614 144.77 132.478 144.599 132.335 144.433C132.191 144.268 132.039 144.109 131.878 143.958C131.718 143.806 131.55 143.662 131.374 143.527C131.2 143.391 131.018 143.262 130.829 143.143C130.64 143.024 130.445 142.914 130.246 142.814C130.046 142.713 129.841 142.621 129.632 142.54C129.422 142.458 129.209 142.386 128.991 142.323C128.775 142.261 128.554 142.209 128.332 142.167C128.109 142.125 127.886 142.094 127.66 142.073C127.434 142.052 127.208 142.041 126.981 142.041H119.01C118.775 142.041 118.543 142.031 118.311 142.009C118.079 141.988 117.848 141.955 117.619 141.912C117.39 141.869 117.164 141.816 116.941 141.752C116.718 141.688 116.499 141.613 116.284 141.53C116.068 141.444 115.857 141.35 115.652 141.247C115.445 141.143 115.245 141.03 115.051 140.908C114.857 140.785 114.67 140.654 114.49 140.514C114.31 140.374 114.138 140.227 113.973 140.07C113.808 139.914 113.651 139.752 113.503 139.582C113.354 139.412 113.216 139.235 113.087 139.052C112.956 138.869 112.837 138.679 112.728 138.485C112.617 138.29 112.517 138.091 112.428 137.888C112.339 137.684 112.26 137.477 112.192 137.266C112.125 137.056 112.069 136.842 112.023 136.625C111.978 136.409 111.943 136.192 111.921 135.972C111.897 135.753 111.886 135.533 111.886 135.314V130.488H148.485C148.773 130.488 149.062 130.475 149.35 130.448C149.637 130.421 149.923 130.382 150.207 130.328C150.49 130.274 150.77 130.208 151.047 130.129C151.324 130.049 151.596 129.958 151.862 129.853C152.13 129.748 152.391 129.632 152.646 129.503C152.901 129.375 153.149 129.235 153.389 129.083C153.629 128.931 153.862 128.769 154.085 128.595C154.308 128.422 154.522 128.239 154.727 128.045C154.931 127.853 155.125 127.65 155.308 127.439C155.491 127.228 155.664 127.01 155.824 126.782C155.984 126.556 156.133 126.321 156.27 126.081C156.406 125.84 156.529 125.594 156.64 125.341C156.751 125.088 156.848 124.832 156.931 124.57C157.016 124.308 157.085 124.044 157.142 123.777C157.199 123.509 157.241 123.239 157.27 122.967C157.297 122.696 157.311 122.423 157.311 122.15ZM47.7629 119.073L47.7629 61.286C47.7629 61.0557 47.7864 60.8279 47.8336 60.6015C47.8807 60.3764 47.9514 60.1565 48.0443 59.9444C48.1386 59.7324 48.2523 59.5295 48.3882 59.3384C48.5226 59.1473 48.6765 58.9706 48.8485 58.807C49.0218 58.6447 49.2089 58.4994 49.4114 58.3711C49.6138 58.2442 49.8273 58.1355 50.0533 58.0478C50.2779 57.9601 50.5095 57.8934 50.7493 57.8489C50.9878 57.8031 51.229 57.7808 51.4731 57.7808L148.213 57.7808C148.457 57.7808 148.698 57.8031 148.937 57.8489C149.177 57.8934 149.408 57.9601 149.633 58.0478C149.859 58.1355 150.072 58.2442 150.275 58.3711C150.477 58.4994 150.664 58.6447 150.838 58.807C151.01 58.9706 151.164 59.1473 151.298 59.3384C151.434 59.5295 151.548 59.7324 151.642 59.9444C151.735 60.1565 151.806 60.3764 151.853 60.6015C151.9 60.8279 151.923 61.0557 151.923 61.286V119.073C151.923 119.303 151.9 119.531 151.853 119.756C151.806 119.982 151.735 120.201 151.642 120.414C151.548 120.626 151.434 120.828 151.298 121.019C151.164 121.211 151.01 121.388 150.838 121.55C150.664 121.713 150.477 121.858 150.275 121.986C150.072 122.115 149.859 122.222 149.633 122.311C149.408 122.399 149.177 122.465 148.937 122.51C148.698 122.554 148.457 122.577 148.213 122.577L51.4731 122.577C51.229 122.577 50.9878 122.554 50.7493 122.51C50.5095 122.465 50.2779 122.399 50.0533 122.311C49.8273 122.222 49.6138 122.115 49.4114 121.986C49.2089 121.858 49.0218 121.713 48.8485 121.55C48.6765 121.388 48.5226 121.211 48.3882 121.019C48.2523 120.828 48.1386 120.626 48.0443 120.414C47.9514 120.201 47.8807 119.982 47.8336 119.756C47.7864 119.531 47.7629 119.303 47.7629 119.073Z" fill="white"/>
</g>
<mask id="mask1_696_2906" style="mask-type:luminance" maskUnits="userSpaceOnUse" x="68" y="63" width="29" height="54">
<path d="M68.4268 63.2417H96.4086V116.462H68.4268V63.2417Z" fill="white"/>
</mask>
<g mask="url(#mask1_696_2906)">
<path d="M124.569 94.2535C124.686 90.6645 124.686 90.6579 124.801 87.0702L118.915 84.9027C118.065 82.7862 117.641 81.7234 116.791 79.6069L119.678 74.2993C117.07 71.692 117.063 71.6854 114.456 69.0702L108.676 71.4642L103.215 69.137L101.277 63.4616L93.6745 63.2417L91.3716 68.7993C89.1366 69.6003 88.0038 70.0022 85.7716 70.8032L80.148 68.082C77.3779 70.5349 77.3709 70.5427 74.6007 73.0022L77.1366 78.4655C76.1605 80.5231 75.6642 81.5637 74.6784 83.62L68.6597 85.4524C68.5432 89.0401 68.5432 89.0467 68.4268 92.6278L74.3137 94.8019C75.1623 96.9105 75.5879 97.9799 76.4364 100.096L73.554 105.399C76.1605 108.013 76.1675 108.021 78.7657 110.633L84.5529 108.239C86.7407 109.162 87.8416 109.63 90.0211 110.56L91.9539 116.243L99.5657 116.462L101.86 110.905C104.102 110.103 105.227 109.702 107.469 108.9L113.092 111.625L118.63 106.704L116.094 101.242C117.085 99.1841 117.576 98.1357 118.56 96.0781L124.569 94.2535ZM96.6138 105.466C96.0731 105.466 95.5324 105.441 94.9931 105.39C94.4537 105.34 93.9185 105.265 93.3875 105.164C92.8565 105.065 92.3324 104.941 91.8139 104.793C91.2953 104.645 90.7865 104.472 90.286 104.277C89.7854 104.081 89.296 103.862 88.8191 103.621C88.3407 103.38 87.8777 103.117 87.427 102.833C86.9764 102.549 86.5425 102.246 86.1238 101.921C85.705 101.596 85.3044 101.253 84.9217 100.892C84.539 100.531 84.1758 100.153 83.8319 99.7574C83.4881 99.3621 83.1664 98.9511 82.8655 98.5257C82.5647 98.1017 82.286 97.6632 82.0309 97.2116C81.7758 96.7613 81.5442 96.2993 81.3363 95.8268C81.1297 95.3543 80.948 94.8739 80.79 94.3844C80.6333 93.8948 80.5016 93.4001 80.3962 92.8988C80.2908 92.3975 80.2104 91.8922 80.1577 91.3831C80.1051 90.8739 80.0787 90.3647 80.0787 89.853C80.0787 89.3412 80.1051 88.832 80.1577 88.3229C80.2104 87.8137 80.2908 87.3085 80.3962 86.8071C80.5016 86.3058 80.6333 85.8111 80.79 85.3215C80.948 84.832 81.1297 84.3516 81.3376 83.8791C81.5442 83.4066 81.7758 82.9446 82.0309 82.4943C82.286 82.0427 82.5647 81.6043 82.8655 81.1802C83.1664 80.7548 83.4881 80.3438 83.8319 79.9498C84.1758 79.5545 84.539 79.1749 84.9217 78.8137C85.3044 78.4524 85.705 78.1095 86.1238 77.7849C86.5425 77.4603 86.9778 77.1566 87.4284 76.8726C87.8777 76.5886 88.3421 76.3255 88.8205 76.0846C89.2974 75.8438 89.7868 75.6252 90.2874 75.4302C90.7865 75.2338 91.2967 75.0624 91.8153 74.9132C92.3324 74.7653 92.8579 74.6409 93.3889 74.5414C93.9199 74.442 94.4551 74.3674 94.9944 74.3163C95.5338 74.2666 96.0731 74.2417 96.6152 74.2417C97.1573 74.2417 97.6967 74.2666 98.236 74.3163C98.7754 74.366 99.3105 74.442 99.8416 74.5414C100.373 74.6409 100.897 74.7653 101.415 74.9132C101.934 75.0624 102.443 75.2338 102.943 75.4289C103.444 75.6252 103.933 75.8438 104.41 76.0846C104.888 76.3255 105.351 76.5886 105.802 76.8726C106.253 77.1566 106.687 77.4603 107.105 77.7849C107.524 78.1095 107.926 78.4524 108.309 78.8137C108.691 79.1749 109.055 79.5532 109.399 79.9485C109.742 80.3438 110.064 80.7535 110.365 81.1789C110.666 81.6043 110.944 82.0414 111.2 82.493C111.455 82.9433 111.686 83.4053 111.893 83.8778C112.101 84.3503 112.282 84.8307 112.44 85.3202C112.597 85.8098 112.729 86.3045 112.834 86.8058C112.941 87.3085 113.02 87.8124 113.073 88.3215C113.127 88.8307 113.153 89.3412 113.153 89.8517C113.153 90.3634 113.125 90.8739 113.073 91.3818C113.02 91.8909 112.94 92.3962 112.834 92.8975C112.729 93.3988 112.597 93.8948 112.439 94.3844C112.282 94.8726 112.099 95.3543 111.893 95.8268C111.685 96.2993 111.455 96.76 111.198 97.2116C110.943 97.6619 110.666 98.1003 110.364 98.5257C110.063 98.9498 109.741 99.3608 109.397 99.7561C109.053 100.151 108.69 100.53 108.307 100.891C107.925 101.252 107.524 101.595 107.105 101.92C106.687 102.244 106.251 102.548 105.802 102.833C105.351 103.117 104.887 103.379 104.41 103.62C103.932 103.862 103.442 104.079 102.943 104.276C102.443 104.472 101.932 104.644 101.415 104.791C100.897 104.941 100.371 105.065 99.8402 105.164C99.3092 105.264 98.774 105.34 98.2346 105.39C97.6967 105.439 97.156 105.466 96.6138 105.466Z" fill="white"/>
</g>
<mask id="mask2_696_2906" style="mask-type:luminance" maskUnits="userSpaceOnUse" x="98" y="59" width="34" height="62">
<path d="M98.1162 59.3423L131.078 59.3423V120.327H98.1162V59.3423Z" fill="white"/>
</mask>
<g mask="url(#mask2_696_2906)">
<path fill-rule="evenodd" clip-rule="evenodd" d="M97.3028 88.9106H122.752C122.824 88.9106 122.885 88.8674 122.904 88.802C123.735 86.0507 127.432 85.0965 129.617 87.1619C131.188 88.6489 131.188 91.0585 129.617 92.5441C127.432 94.6109 123.735 93.6567 122.904 90.9054C122.885 90.84 122.824 90.7954 122.752 90.7954H97.3028C97.214 90.7954 97.1433 90.7287 97.1433 90.6449V89.0612C97.1433 88.9787 97.214 88.9106 97.3028 88.9106ZM87.0345 115.145C91.517 115.145 95.1496 111.708 95.1496 107.468V69.2405C95.1496 66.6685 92.9229 64.5612 90.204 64.5612C87.4824 64.5612 85.2501 66.6816 85.2543 69.2392C85.2543 69.9905 84.3281 70.4617 83.6654 69.9918C81.7008 68.5965 78.9403 68.7811 77.1975 70.429C75.8914 71.6646 75.402 73.5284 75.9982 75.2208C76.3365 76.1842 76.7621 76.4761 76.8814 76.8033C77.0588 77.2941 76.7829 77.8308 76.2616 77.9996C70.7795 79.7784 67.0332 84.6593 67.0332 90.2287C67.0332 96.7208 72.1036 102.165 78.8377 103.036C79.4852 103.12 79.8831 103.775 79.6127 104.35C77.2599 109.345 81.1018 115.145 87.0345 115.145ZM113.311 107.679C113.311 105.959 114.526 104.481 116.223 104.021C116.292 104.002 116.339 103.943 116.339 103.875V99.5376C116.339 99.4538 116.267 99.3858 116.18 99.3858H97.3028C97.214 99.3858 97.1433 99.319 97.1433 99.2352V97.6515C97.1433 97.569 97.214 97.5009 97.3028 97.5009H117.335C117.885 97.5009 118.331 97.9237 118.331 98.4434V103.875C118.331 103.943 118.377 104.002 118.447 104.021C121.354 104.806 122.365 108.303 120.18 110.37C118.609 111.857 116.062 111.857 114.49 110.37C113.762 109.682 113.311 108.73 113.311 107.679ZM102.924 116.269C102.924 117.32 103.373 118.272 104.102 118.96C105.673 120.447 108.22 120.447 109.791 118.96C111.976 116.894 110.967 113.395 108.059 112.611C107.988 112.593 107.943 112.534 107.943 112.466V107.034C107.943 106.514 107.496 106.091 106.947 106.091H97.3014C97.214 106.091 97.142 106.158 97.142 106.242L97.1295 107.824C97.1295 107.909 97.2002 107.976 97.2889 107.976H105.791C105.878 107.976 105.95 108.044 105.95 108.127V112.466C105.95 112.534 105.904 112.591 105.835 112.611C104.137 113.072 102.924 114.549 102.924 116.269ZM114.491 74.7195C112.919 73.2326 112.919 70.8229 114.491 69.3373C116.062 67.8504 118.609 67.8504 120.18 69.3373C122.365 71.4041 121.354 74.9015 118.447 75.6868C118.377 75.7051 118.331 75.7627 118.331 75.8321V81.264C118.331 81.7837 117.885 82.2064 117.335 82.2064H97.3028C97.214 82.2064 97.1433 82.1384 97.1433 82.0546V80.4722C97.1433 80.3884 97.214 80.3203 97.3028 80.3203H116.18C116.267 80.3203 116.339 80.2536 116.339 80.1698V75.8321C116.339 75.7627 116.292 75.7051 116.223 75.6868C115.559 75.5062 114.965 75.1685 114.491 74.7195ZM104.102 66.1292C104.576 66.5782 105.171 66.9159 105.835 67.0965C105.904 67.1148 105.95 67.1724 105.95 67.2418V71.5795C105.95 71.6632 105.878 71.7313 105.791 71.7313H97.3028C97.214 71.7313 97.1433 71.7981 97.1433 71.8818V73.4643C97.1433 73.5481 97.214 73.6161 97.3028 73.6161H106.946C107.496 73.6161 107.943 73.1934 107.943 72.6737V67.2418C107.943 67.1724 107.988 67.1148 108.058 67.0965C110.965 66.3112 111.976 62.8138 109.791 60.747C108.22 59.2601 105.673 59.2601 104.101 60.747C102.53 62.2326 102.53 64.6423 104.102 66.1292Z" fill="white"/>
<path fill-rule="evenodd" clip-rule="evenodd" d="M97.3028 88.9106H122.752C122.824 88.9106 122.885 88.8674 122.904 88.802C123.735 86.0507 127.432 85.0965 129.617 87.1619C131.188 88.6489 131.188 91.0585 129.617 92.5441C127.432 94.6109 123.735 93.6567 122.904 90.9054C122.885 90.84 122.824 90.7954 122.752 90.7954H97.3028C97.214 90.7954 97.1433 90.7287 97.1433 90.6449V89.0612C97.1433 88.9787 97.214 88.9106 97.3028 88.9106ZM87.0345 115.145C91.517 115.145 95.1496 111.708 95.1496 107.468V69.2405C95.1496 66.6685 92.9229 64.5612 90.204 64.5612C87.4824 64.5612 85.2501 66.6816 85.2543 69.2392C85.2543 69.9905 84.3281 70.4617 83.6654 69.9918C81.7008 68.5965 78.9403 68.7811 77.1975 70.429C75.8914 71.6646 75.402 73.5284 75.9982 75.2208C76.3365 76.1842 76.7621 76.4761 76.8814 76.8033C77.0588 77.2941 76.7829 77.8308 76.2616 77.9996C70.7795 79.7784 67.0332 84.6593 67.0332 90.2287C67.0332 96.7208 72.1036 102.165 78.8377 103.036C79.4852 103.12 79.8831 103.775 79.6127 104.35C77.2599 109.345 81.1018 115.145 87.0345 115.145ZM113.311 107.679C113.311 105.959 114.526 104.481 116.223 104.021C116.292 104.002 116.339 103.943 116.339 103.875V99.5376C116.339 99.4538 116.267 99.3858 116.18 99.3858H97.3028C97.214 99.3858 97.1433 99.319 97.1433 99.2352V97.6515C97.1433 97.569 97.214 97.5009 97.3028 97.5009H117.335C117.885 97.5009 118.331 97.9237 118.331 98.4434V103.875C118.331 103.943 118.377 104.002 118.447 104.021C121.354 104.806 122.365 108.303 120.18 110.37C118.609 111.857 116.062 111.857 114.49 110.37C113.762 109.682 113.311 108.73 113.311 107.679ZM102.924 116.269C102.924 117.32 103.373 118.272 104.102 118.96C105.673 120.447 108.22 120.447 109.791 118.96C111.976 116.894 110.967 113.395 108.059 112.611C107.988 112.593 107.943 112.534 107.943 112.466V107.034C107.943 106.514 107.496 106.091 106.947 106.091H97.3014C97.214 106.091 97.142 106.158 97.142 106.242L97.1295 107.824C97.1295 107.909 97.2002 107.976 97.2889 107.976H105.791C105.878 107.976 105.95 108.044 105.95 108.127V112.466C105.95 112.534 105.904 112.591 105.835 112.611C104.137 113.072 102.924 114.549 102.924 116.269ZM114.491 74.7195C112.919 73.2326 112.919 70.8229 114.491 69.3373C116.062 67.8504 118.609 67.8504 120.18 69.3373C122.365 71.4041 121.354 74.9015 118.447 75.6868C118.377 75.7051 118.331 75.7627 118.331 75.8321V81.264C118.331 81.7837 117.885 82.2064 117.335 82.2064H97.3028C97.214 82.2064 97.1433 82.1384 97.1433 82.0546V80.4722C97.1433 80.3884 97.214 80.3203 97.3028 80.3203H116.18C116.267 80.3203 116.339 80.2536 116.339 80.1698V75.8321C116.339 75.7627 116.292 75.7051 116.223 75.6868C115.559 75.5062 114.965 75.1685 114.491 74.7195ZM104.102 66.1292C104.576 66.5782 105.171 66.9159 105.835 67.0965C105.904 67.1148 105.95 67.1724 105.95 67.2418V71.5795C105.95 71.6632 105.878 71.7313 105.791 71.7313H97.3028C97.214 71.7313 97.1433 71.7981 97.1433 71.8818V73.4643C97.1433 73.5481 97.214 73.6161 97.3028 73.6161H106.946C107.496 73.6161 107.943 73.1934 107.943 72.6737V67.2418C107.943 67.1724 107.988 67.1148 108.058 67.0965C110.965 66.3112 111.976 62.8138 109.791 60.747C108.22 59.2601 105.673 59.2601 104.101 60.747C102.53 62.2326 102.53 64.6423 104.102 66.1292Z" fill="white"/>
</g>
<mask id="mask3_696_2906" style="mask-type:luminance" maskUnits="userSpaceOnUse" x="98" y="60" width="34" height="61">
<path d="M98.1162 60.3472L131.078 60.3472V120.996H98.1162V60.3472Z" fill="white"/>
</mask>
<g mask="url(#mask3_696_2906)">
<path fill-rule="evenodd" clip-rule="evenodd" d="M97.3028 89.8206H122.752C122.824 89.8206 122.885 89.7761 122.904 89.7107C123.735 86.9607 127.432 86.0052 129.617 88.0719C131.188 89.5575 131.188 91.9672 129.617 93.4541C127.432 95.5209 123.735 94.5654 122.904 91.8154C122.885 91.7486 122.824 91.7054 122.752 91.7054H97.3028C97.214 91.7054 97.1433 91.6374 97.1433 91.5549V89.9712C97.1433 89.8887 97.214 89.8206 97.3028 89.8206ZM87.0345 116.055C91.517 116.055 95.1496 112.618 95.1496 108.377V70.1505C95.1496 67.5785 92.9229 65.4712 90.204 65.4712C87.4824 65.4712 85.2501 67.5903 85.2543 70.1479C85.2543 70.8992 84.3281 71.3717 83.6654 70.9005C81.7008 69.5052 78.9403 69.691 77.1975 71.339C75.8914 72.5732 75.402 74.4371 75.9982 76.1295C76.3365 77.0929 76.7621 77.3848 76.8814 77.712C77.0588 78.2041 76.7829 78.7395 76.2616 78.9083C70.7795 80.6871 67.0332 85.5693 67.0332 91.1374C67.0332 97.6295 72.1036 103.073 78.8377 103.945C79.4852 104.029 79.8831 104.683 79.6127 105.259C77.2599 110.254 81.1018 116.055 87.0345 116.055ZM113.311 108.589C113.311 106.869 114.526 105.39 116.223 104.929C116.292 104.911 116.339 104.853 116.339 104.785V100.446C116.339 100.364 116.267 100.296 116.18 100.296H97.3028C97.214 100.296 97.1433 100.228 97.1433 100.145V98.5615C97.1433 98.4777 97.214 98.4109 97.3028 98.4109H117.335C117.885 98.4109 118.331 98.8324 118.331 99.3534V104.785C118.331 104.853 118.377 104.911 118.447 104.929C121.354 105.715 122.365 109.213 120.18 111.279C118.609 112.766 116.062 112.766 114.49 111.279C113.762 110.59 113.311 109.639 113.311 108.589ZM102.924 117.178C102.924 118.229 103.373 119.181 104.102 119.869C105.673 121.356 108.22 121.356 109.791 119.869C111.976 117.802 110.967 114.305 108.059 113.52C107.988 113.501 107.943 113.444 107.943 113.376V107.944C107.943 107.423 107.496 107.001 106.947 107.001H97.3014C97.214 107.001 97.142 107.068 97.142 107.15L97.1295 108.734C97.1295 108.818 97.2002 108.886 97.2889 108.886H105.791C105.878 108.886 105.95 108.953 105.95 109.037V113.376C105.95 113.444 105.904 113.501 105.835 113.52C104.137 113.98 102.924 115.459 102.924 117.178ZM114.491 75.6282C112.919 74.1426 112.919 71.7329 114.491 70.246C116.062 68.7604 118.609 68.7604 120.18 70.246C122.365 72.3128 121.354 75.8115 118.447 76.5955C118.377 76.6151 118.331 76.6727 118.331 76.7408V82.1727C118.331 82.6937 117.885 83.1151 117.335 83.1151H97.3028C97.214 83.1151 97.1433 83.0471 97.1433 82.9646V81.3808C97.1433 81.2984 97.214 81.2303 97.3028 81.2303H116.18C116.267 81.2303 116.339 81.1623 116.339 81.0798V76.7408C116.339 76.6727 116.292 76.6151 116.223 76.5955C115.559 76.4162 114.965 76.0785 114.491 75.6282ZM104.102 67.0379C104.576 67.4882 105.171 67.8259 105.835 68.0052C105.904 68.0248 105.95 68.0824 105.95 68.1505V72.4895C105.95 72.5719 105.878 72.64 105.791 72.64H97.3028C97.214 72.64 97.1433 72.7081 97.1433 72.7905V74.3743C97.1433 74.4568 97.214 74.5248 97.3028 74.5248H106.946C107.496 74.5248 107.943 74.1033 107.943 73.5824V68.1505C107.943 68.0824 107.988 68.0248 108.058 68.0052C110.965 67.2212 111.976 63.7225 109.791 61.6557C108.22 60.1701 105.673 60.1701 104.101 61.6557C102.53 63.1426 102.53 65.5523 104.102 67.0379Z" fill="white"/>
</g>
</svg>
