<svg width="20" height="20" viewBox="0 0 20 20" fill="none" xmlns="http://www.w3.org/2000/svg">
<path d="M18.6638 16.771C18.6638 16.771 17.5052 17.909 17.2212 18.2427C16.7587 18.7363 16.2137 18.9693 15.4992 18.9693C15.4305 18.9693 15.3573 18.9693 15.2886 18.9648C13.9284 18.8779 12.6644 18.3478 11.7164 17.8953C9.12431 16.643 6.84819 14.8652 4.95678 12.612C3.3951 10.7336 2.35093 8.99687 1.6594 7.13217C1.23349 5.99415 1.07778 5.1075 1.14647 4.27113C1.19227 3.7364 1.39835 3.29308 1.77847 2.91374L3.34015 1.35526C3.56455 1.14502 3.8027 1.03076 4.03626 1.03076C4.32478 1.03076 4.55835 1.20443 4.7049 1.35069C4.70948 1.35526 4.71406 1.35983 4.71864 1.3644C4.998 1.62491 5.26362 1.89456 5.54298 2.18249C5.68495 2.32874 5.8315 2.47499 5.97805 2.62581L7.22831 3.87351C7.71376 4.35797 7.71376 4.80586 7.22831 5.29032C7.0955 5.42286 6.96727 5.5554 6.83446 5.68337C6.44976 6.07642 6.75196 5.77483 6.35353 6.13132C6.34437 6.14046 6.33521 6.14503 6.33063 6.15417C5.93677 6.54722 6.01005 6.93113 6.09248 7.19164C6.09706 7.20535 6.10164 7.21906 6.10622 7.23277C6.43138 8.01887 6.88935 8.75926 7.58547 9.64134L7.59005 9.64591C8.85404 11.1998 10.1867 12.411 11.6568 13.3387C11.8446 13.4576 12.0369 13.5536 12.2201 13.645C12.385 13.7272 12.5407 13.8049 12.6735 13.8872C12.6918 13.8963 12.7101 13.91 12.7285 13.9192C12.8842 13.9969 13.0307 14.0334 13.1819 14.0334C13.562 14.0334 13.8001 13.7958 13.878 13.7181L14.7757 12.8222C14.9314 12.6668 15.1787 12.4795 15.4672 12.4795C15.7511 12.4795 15.9847 12.6577 16.1267 12.8131C16.1312 12.8177 16.1312 12.8177 16.1358 12.8222L18.6592 15.3405C19.1309 15.8067 18.6638 16.771 18.6638 16.771Z" stroke="#222124" stroke-width="2" stroke-linecap="round" stroke-linejoin="round"/>
</svg>
