<svg width="200" height="200" viewBox="0 0 200 200" fill="none" xmlns="http://www.w3.org/2000/svg">
<mask id="mask0_812_2780" style="mask-type:luminance" maskUnits="userSpaceOnUse" x="0" y="0" width="200" height="200">
<path d="M0 0H200V200H0V0Z" fill="white"/>
</mask>
<g mask="url(#mask0_812_2780)">
<path d="M200.016 100.01C200.016 101.651 199.974 103.286 199.891 104.917C199.813 106.552 199.693 108.187 199.532 109.812C199.37 111.443 199.172 113.068 198.933 114.687C198.693 116.302 198.412 117.917 198.094 119.521C197.771 121.125 197.412 122.724 197.016 124.312C196.62 125.896 196.183 127.474 195.709 129.042C195.235 130.604 194.719 132.161 194.167 133.703C193.615 135.239 193.026 136.771 192.401 138.281C191.776 139.792 191.11 141.286 190.412 142.765C189.714 144.245 188.979 145.708 188.203 147.151C187.433 148.594 186.625 150.021 185.787 151.422C184.943 152.828 184.068 154.208 183.162 155.568C182.25 156.932 181.308 158.265 180.334 159.583C179.36 160.896 178.354 162.187 177.313 163.453C176.276 164.719 175.209 165.953 174.11 167.167C173.011 168.38 171.881 169.568 170.724 170.724C169.568 171.88 168.381 173.01 167.167 174.109C165.959 175.208 164.719 176.276 163.453 177.312C162.188 178.349 160.896 179.359 159.584 180.333C158.271 181.307 156.933 182.25 155.568 183.161C154.209 184.068 152.828 184.943 151.422 185.786C150.021 186.625 148.594 187.432 147.151 188.203C145.709 188.974 144.25 189.713 142.771 190.411C141.287 191.109 139.792 191.776 138.282 192.401C136.771 193.026 135.245 193.614 133.703 194.167C132.162 194.719 130.61 195.229 129.042 195.708C127.474 196.182 125.901 196.62 124.313 197.015C122.724 197.411 121.125 197.771 119.521 198.088C117.917 198.411 116.308 198.687 114.688 198.932C113.068 199.172 111.443 199.37 109.813 199.531C108.188 199.693 106.552 199.812 104.922 199.89C103.287 199.974 101.651 200.01 100.011 200.01C98.3753 200.01 96.7399 199.974 95.1045 199.89C93.4743 199.812 91.8389 199.693 90.2139 199.531C88.5837 199.37 86.9587 199.172 85.3389 198.932C83.7191 198.687 82.1097 198.411 80.5055 198.088C78.9014 197.771 77.3024 197.411 75.7139 197.015C74.1253 196.62 72.5524 196.182 70.9847 195.708C69.417 195.229 67.8649 194.719 66.3232 194.167C64.7816 193.614 63.2555 193.026 61.7451 192.401C60.2347 191.776 58.7347 191.109 57.2555 190.411C55.7764 189.713 54.318 188.974 52.8753 188.203C51.4326 187.432 50.0055 186.625 48.6045 185.786C47.1982 184.943 45.818 184.068 44.4535 183.161C43.0941 182.25 41.7555 181.307 40.443 180.333C39.1305 179.359 37.8389 178.349 36.5732 177.312C35.3076 176.276 34.068 175.208 32.8597 174.109C31.6462 173.01 30.4587 171.88 29.3024 170.724C28.1462 169.568 27.016 168.38 25.917 167.167C24.818 165.953 23.7503 164.719 22.7139 163.453C21.6722 162.187 20.667 160.896 19.693 159.583C18.7191 158.265 17.7764 156.932 16.8649 155.568C15.9587 154.208 15.0837 152.828 14.2399 151.422C13.3962 150.021 12.5941 148.594 11.8232 147.151C11.0472 145.708 10.3128 144.245 9.61491 142.765C8.91178 141.286 8.25033 139.792 7.62533 138.281C7.00033 136.771 6.41178 135.239 5.8597 133.703C5.30762 132.161 4.79199 130.604 4.31803 129.042C3.84408 127.474 3.40658 125.896 3.01074 124.312C2.6097 122.724 2.25553 121.125 1.93262 119.521C1.61491 117.917 1.33366 116.302 1.09408 114.687C0.854492 113.068 0.656576 111.443 0.495117 109.812C0.333659 108.187 0.213866 106.552 0.135742 104.917C0.0524089 103.286 0.0107422 101.651 0.0107422 100.01C0.0107422 98.3748 0.0524089 96.7394 0.135742 95.104C0.213866 93.4686 0.333659 91.8384 0.495117 90.2082C0.656576 88.5832 0.854492 86.9582 1.09408 85.3384C1.33366 83.7186 1.61491 82.1092 1.93262 80.505C2.25553 78.8957 2.6097 77.3019 3.01074 75.7134C3.40658 74.1248 3.84408 72.5519 4.31803 70.9842C4.79199 69.4165 5.30762 67.8644 5.8597 66.3228C6.41178 64.7811 7.00033 63.255 7.62533 61.7446C8.25033 60.229 8.91178 58.7342 9.61491 57.255C10.3128 55.7759 11.0472 54.3175 11.8232 52.8696C12.5941 51.4269 13.3962 50.005 14.2399 48.604C15.0837 47.1978 15.9587 45.8175 16.8649 44.453C17.7764 43.0936 18.7191 41.755 19.693 40.4425C20.667 39.1248 21.6722 37.8384 22.7139 36.5728C23.7503 35.3071 24.818 34.0675 25.917 32.854C27.016 31.6457 28.1462 30.4582 29.3024 29.3019C30.4587 28.1457 31.6462 27.0155 32.8597 25.9165C34.068 24.8175 35.3076 23.7498 36.5732 22.7082C37.8389 21.6717 39.1305 20.6665 40.443 19.6925C41.7555 18.7134 43.0941 17.7759 44.4535 16.8644C45.818 15.953 47.1982 15.078 48.6045 14.2394C50.0055 13.3957 51.4326 12.5884 52.8753 11.8175C54.318 11.0467 55.7764 10.3123 57.2555 9.61442C58.7347 8.9113 60.2347 8.24984 61.7451 7.62484C63.2555 6.99984 64.7816 6.40609 66.3232 5.85921C67.8649 5.30713 69.417 4.7915 70.9847 4.31755C72.5524 3.84359 74.1253 3.40609 75.7139 3.01025C77.3024 2.60921 78.9014 2.24984 80.5055 1.93213C82.1097 1.61442 83.7191 1.33317 85.3389 1.09359C86.9587 0.854003 88.5837 0.656088 90.2139 0.494629C91.8389 0.33317 93.4743 0.213379 95.1045 0.130046C96.7399 0.0519216 98.3753 0.0102539 100.011 0.0102539C101.651 0.0102539 103.287 0.0519216 104.922 0.130046C106.552 0.213379 108.188 0.33317 109.813 0.494629C111.443 0.656088 113.068 0.854003 114.688 1.09359C116.308 1.33317 117.917 1.61442 119.521 1.93213C121.125 2.24984 122.724 2.60921 124.313 3.01025C125.901 3.40609 127.474 3.84359 129.042 4.31755C130.61 4.7915 132.162 5.30713 133.703 5.85921C135.245 6.40609 136.771 6.99984 138.282 7.62484C139.792 8.24984 141.287 8.9113 142.771 9.61442C144.25 10.3123 145.709 11.0467 147.151 11.8175C148.594 12.5884 150.021 13.3957 151.422 14.2394C152.828 15.078 154.209 15.953 155.568 16.8644C156.933 17.7759 158.271 18.7134 159.584 19.6925C160.896 20.6665 162.188 21.6717 163.453 22.7082C164.719 23.7498 165.959 24.8175 167.167 25.9165C168.381 27.0155 169.568 28.1457 170.724 29.3019C171.881 30.4582 173.011 31.6457 174.11 32.854C175.209 34.0675 176.276 35.3071 177.313 36.5728C178.354 37.8384 179.36 39.1248 180.334 40.4425C181.308 41.755 182.25 43.0936 183.162 44.453C184.068 45.8175 184.943 47.1978 185.787 48.604C186.625 50.005 187.433 51.4269 188.203 52.8696C188.979 54.3175 189.714 55.7759 190.412 57.255C191.11 58.7342 191.776 60.229 192.401 61.7446C193.026 63.255 193.615 64.7811 194.167 66.3228C194.719 67.8644 195.235 69.4165 195.709 70.9842C196.183 72.5519 196.62 74.1248 197.016 75.7134C197.412 77.3019 197.771 78.8957 198.094 80.505C198.412 82.1092 198.693 83.7186 198.933 85.3384C199.172 86.9582 199.37 88.5832 199.532 90.2082C199.693 91.8384 199.813 93.4686 199.891 95.104C199.974 96.7394 200.016 98.3748 200.016 100.01Z" fill="#10C03E"/>
</g>
<path d="M100.011 179.641C78.7451 179.641 58.7451 171.36 43.7087 156.318C28.667 141.276 20.3857 121.281 20.3857 100.011C20.3857 78.7397 28.667 58.745 43.7087 43.7033C58.7451 28.6668 78.7451 20.3804 100.011 20.3804C121.282 20.3804 141.282 28.6668 156.318 43.7033C171.36 58.745 179.641 78.7397 179.641 100.011C179.641 121.281 171.36 141.276 156.318 156.318C141.282 171.36 121.282 179.641 100.011 179.641ZM100.011 23.8335C79.667 23.8335 60.5316 31.7554 46.1462 46.146C31.7555 60.5314 23.8337 79.6616 23.8337 100.011C23.8337 120.36 31.7555 139.49 46.1462 153.88C60.5316 168.271 79.667 176.193 100.011 176.193C120.36 176.193 139.495 168.271 153.881 153.88C168.271 139.49 176.193 120.36 176.193 100.011C176.193 79.6616 168.271 60.5314 153.881 46.146C139.495 31.7554 120.36 23.8335 100.011 23.8335Z" fill="white"/>
<path d="M139.541 118.781L122.916 109.76C121.208 108.833 119.093 109.141 117.718 110.516L108.786 119.448C102.849 116.526 97.2549 112.51 92.3851 107.641C87.5101 102.771 83.4996 97.1771 80.5778 91.2396L89.5101 82.3073C90.8851 80.9323 91.1924 78.8177 90.2653 77.1093L81.2444 60.4791C80.3434 58.8229 78.484 57.9218 76.6194 58.25L62.0205 60.8333C59.9892 61.1927 58.4684 62.8906 58.3278 64.9531C56.9944 84.1093 65.0882 104.302 80.4059 119.62C95.7236 134.937 115.916 143.031 135.073 141.698C137.13 141.552 138.833 140.036 139.192 138.005L141.77 123.401C142.104 121.542 141.203 119.682 139.547 118.781H139.541Z" fill="white"/>
</svg>
